<?xml version="1.0" encoding="UTF-8" standalone="no"?>
<svg
   xmlns:dc="http://purl.org/dc/elements/1.1/"
   xmlns:cc="http://creativecommons.org/ns#"
   xmlns:rdf="http://www.w3.org/1999/02/22-rdf-syntax-ns#"
   xmlns:svg="http://www.w3.org/2000/svg"
   xmlns="http://www.w3.org/2000/svg"
   xmlns:sodipodi="http://sodipodi.sourceforge.net/DTD/sodipodi-0.dtd"
   xmlns:inkscape="http://www.inkscape.org/namespaces/inkscape"
   id="SVGDoc"
   width="96"
   height="97"
   version="1.1"
   viewBox="0 0 96 97"
   inkscape:version="0.91 r13725"
   sodipodi:docname="DigitalOwnership.svg">
  <metadata
     id="metadata336">
    <rdf:RDF>
      <cc:Work
         rdf:about="">
        <dc:format>image/svg+xml</dc:format>
        <dc:type
           rdf:resource="http://purl.org/dc/dcmitype/StillImage" />
      </cc:Work>
    </rdf:RDF>
  </metadata>
  <sodipodi:namedview
     pagecolor="#ffffff"
     bordercolor="#666666"
     borderopacity="1"
     objecttolerance="10"
     gridtolerance="10"
     guidetolerance="10"
     inkscape:pageopacity="0"
     inkscape:pageshadow="2"
     inkscape:window-width="2560"
     inkscape:window-height="1369"
     id="namedview334"
     showgrid="false"
     inkscape:zoom="2.4329897"
     inkscape:cx="48"
     inkscape:cy="48.5"
     inkscape:window-x="-8"
     inkscape:window-y="-8"
     inkscape:window-maximized="1"
     inkscape:current-layer="SVGDoc" />
  <defs
     id="defs3">
    <clipPath
       id="clip-98e777a3-e5f7-439a-8074-344f34cb94df">
      <path
         d="M0,96.94531v0v-96v0h96v0v96v0z"
         id="path6" />
    </clipPath>
  </defs>
  <desc
     id="desc8">Generated with Avocode.</desc>
  <g
     clip-path="url(#clip-98e777a3-e5f7-439a-8074-344f34cb94df)"
     id="g22">
    <title
       id="title24">Path 11971</title>
    <path
       d="m 48.03984,28.79587 c -11.04048,0 -19.99008,8.95008 -19.99008,19.99008 0,11.04048 8.9496,19.99008 19.99008,19.99008 11.04,0 19.99008,-8.9496 19.99008,-19.99008 0,-11.04 -8.95008,-19.99008 -19.99008,-19.99008 m 0,1.92 c 9.96384,0 18.07008,8.10624 18.07008,18.07008 0,9.96384 -8.10623,18.07008 -18.07008,18.07008 -9.96384,0 -18.07008,-8.10623 -18.07008,-18.07008 0,-9.96384 8.10624,-18.07008 18.07008,-18.07008"
       id="path26"
       inkscape:connector-curvature="0"
       style="fill:#c83a1a;fill-opacity:1" />
  </g>
  <g
     clip-path="url(#clip-98e777a3-e5f7-439a-8074-344f34cb94df)"
     id="g28">
    <title
       id="title30">Path 11972</title>
    <path
       d="m 48.03984,24.75427 c -13.35984,0 -24.19008,10.83024 -24.19008,24.19008 0,13.35983 10.83024,24.19055 24.19008,24.19055 13.35983,0 24.19008,-10.83072 24.19008,-24.19055 0,-13.35984 -10.83025,-24.19008 -24.19008,-24.19008 m 0,1.92 c 12.27984,0 22.27008,9.99024 22.27008,22.27008 0,12.27984 -9.99024,22.27055 -22.27008,22.27055 -12.27985,0 -22.27008,-9.99072 -22.27008,-22.27055 0,-12.27984 9.99023,-22.27008 22.27008,-22.27008"
       id="path32"
       inkscape:connector-curvature="0"
       style="fill:#c83a1a;fill-opacity:1" />
  </g>
  <g
     clip-path="url(#clip-98e777a3-e5f7-439a-8074-344f34cb94df)"
     id="g34">
    <title
       id="title36">Path 11973</title>
    <path
       d="m 37.73472,52.98787 c -0.5952,0 -0.8928,-0.31007 -0.8928,-0.93024 l 0,-7.07184 c 0,-0.31392 0.07632,-0.55392 0.22945,-0.71953 0.15311,-0.16512 0.35759,-0.24815 0.61391,-0.24815 0.21503,0 0.38448,0.04368 0.5088,0.13008 0.12384,0.08736 0.26448,0.22992 0.42192,0.42863 l 4.01952,5.12352 0,0 0,-4.76399 c 0,-0.612 0.29761,-0.91824 0.89281,-0.91824 0.59616,0 0.89375,0.30624 0.89375,0.91824 l 0,7.15871 c 0,0.27264 -0.07056,0.4896 -0.2112,0.65089 -0.14064,0.16127 -0.33072,0.24191 -0.57024,0.24191 -0.23232,0 -0.41568,-0.04559 -0.55248,-0.13632 -0.13631,-0.0912 -0.2832,-0.23567 -0.44064,-0.43391 l -4.01952,-5.12401 0,0 0,4.76401 c 0,0.62016 -0.2976,0.93024 -0.89328,0.93024"
       id="path38"
       inkscape:connector-curvature="0"
       style="fill:#c83a1a;fill-opacity:1" />
  </g>
  <g
     clip-path="url(#clip-98e777a3-e5f7-439a-8074-344f34cb94df)"
     id="g40">
    <title
       id="title42">Path 11974</title>
    <path
       d="m 47.16385,52.98787 c -0.31441,0 -0.55633,-0.08688 -0.72624,-0.26064 -0.16896,-0.17328 -0.25392,-0.42577 -0.25392,-0.75648 l 0,-6.83569 c 0,-0.67007 0.33456,-1.00511 1.00511,-1.00511 l 4.24321,0 c 0.504,0 0.75647,0.24815 0.75647,0.74448 0,0.50448 -0.25247,0.75648 -0.75647,0.75648 l -3.32544,0 0,0 0,2.13408 0,0 3.05183,0 c 0.51312,0 0.76944,0.24815 0.76944,0.74448 0,0.50448 -0.25632,0.75648 -0.76944,0.75648 l -3.05183,0 0,0 0,2.7048 c 0,0.67825 -0.31441,1.01711 -0.94272,1.01711"
       id="path44"
       inkscape:connector-curvature="0"
       style="fill:#c83a1a;fill-opacity:1" />
  </g>
  <g
     clip-path="url(#clip-98e777a3-e5f7-439a-8074-344f34cb94df)"
     id="g46">
    <title
       id="title48">Path 11975</title>
    <path
       d="m 56.45568,52.98787 c -0.3144,0 -0.55392,-0.08688 -0.71952,-0.26064 C 55.57056,52.55395 55.488,52.31012 55.488,51.99571 l 0,-6.27792 0,0 -2.196,0 c -0.5376,0 -0.8064,-0.26448 -0.8064,-0.79392 0,-0.52896 0.2688,-0.79391 0.8064,-0.79391 l 6.31441,0 c 0.53808,0 0.80688,0.26495 0.80688,0.79391 0,0.52944 -0.2688,0.79392 -0.80688,0.79392 l -2.19553,0 0,0 0,6.27792 c 0,0.31441 -0.08064,0.55824 -0.24192,0.73152 -0.16128,0.17376 -0.39936,0.26064 -0.71328,0.26064"
       id="path50"
       inkscape:connector-curvature="0"
       style="fill:#c83a1a;fill-opacity:1" />
  </g>
  <g
     clip-path="url(#clip-98e777a3-e5f7-439a-8074-344f34cb94df)"
     id="g52">
    <title
       id="title54">Path 11976</title>
    <path
       d="m 48.04704,62.22643 c -0.24239,0 -0.48431,-0.09072 -0.67056,-0.27312 l -5.08991,-4.97088 c -0.3792,-0.37009 -0.38641,-0.97824 -0.01584,-1.35744 0.37055,-0.37968 0.97919,-0.38593 1.35744,-0.01584 l 4.41888,4.31519 0,0 4.4184,-4.31519 c 0.3792,-0.37009 0.98784,-0.36385 1.35744,0.01584 0.37057,0.3792 0.36337,0.98735 -0.01584,1.35744 l -5.08944,4.97088 c -0.18623,0.1824 -0.42816,0.27312 -0.67056,0.27312"
       id="path56"
       inkscape:connector-curvature="0"
       style="fill:#c83a1a;fill-opacity:1" />
  </g>
  <g
     clip-path="url(#clip-98e777a3-e5f7-439a-8074-344f34cb94df)"
     id="g58">
    <title
       id="title60">Path 11977</title>
    <path
       d="m 42.95712,42.23635 c -0.2496,0 -0.49872,-0.09648 -0.68687,-0.28944 -0.37009,-0.3792 -0.36337,-0.98688 0.01631,-1.35744 L 47.376,35.61859 c 0.37296,-0.36384 0.96864,-0.36384 1.34161,0 l 5.08943,4.97088 c 0.3792,0.37056 0.38593,0.97824 0.01584,1.35744 -0.37007,0.37968 -0.97823,0.38689 -1.35744,0.01633 l -4.4184,-4.31569 0,0 -4.41936,4.31569 c -0.18625,0.1824 -0.42864,0.27312 -0.67056,0.27312"
       id="path62"
       inkscape:connector-curvature="0"
       style="fill:#c83a1a;fill-opacity:1" />
  </g>
  <g
     clip-path="url(#clip-98e777a3-e5f7-439a-8074-344f34cb94df)"
     id="g64">
    <title
       id="title66">Path 11980</title>
    <path
       d="m 17.004,35.67331 c -1.59072,0 -2.88,1.28929 -2.88,2.88 0,1.59072 1.28928,2.88 2.88,2.88 1.59072,0 2.88,-1.28928 2.88,-2.88 0,-1.59071 -1.28928,-2.88 -2.88,-2.88 m 0,1.92001 c 0.52944,0 0.96,0.43056 0.96,0.96 0,0.52944 -0.43056,0.96 -0.96,0.96 -0.52944,0 -0.96,-0.43056 -0.96,-0.96 0,-0.52943 0.43056,-0.96 0.96,-0.96"
       id="path68"
       inkscape:connector-curvature="0"
       style="fill:#c83a1a;fill-opacity:1" />
  </g>
  <g
     clip-path="url(#clip-98e777a3-e5f7-439a-8074-344f34cb94df)"
     id="g70">
    <title
       id="title72">Path 11981</title>
    <path
       d="m 23.96688,25.35955 c -1.59072,0 -2.88,1.28928 -2.88,2.88 0,1.59072 1.28928,2.88 2.88,2.88 1.59072,0 2.88,-1.28928 2.88,-2.88 0,-1.59072 -1.28928,-2.88 -2.88,-2.88 m 0,1.92 c 0.52944,0 0.96,0.43056 0.96,0.96 0,0.52944 -0.43056,0.96 -0.96,0.96 -0.52944,0 -0.96,-0.43056 -0.96,-0.96 0,-0.52944 0.43056,-0.96 0.96,-0.96"
       id="path74"
       inkscape:connector-curvature="0"
       style="fill:#c83a1a;fill-opacity:1" />
  </g>
  <g
     clip-path="url(#clip-98e777a3-e5f7-439a-8074-344f34cb94df)"
     id="g76">
    <title
       id="title78">Path 11982</title>
    <path
       d="m 17.004,56.45731 c -1.59072,0 -2.88,1.28928 -2.88,2.88 0,1.59071 1.28928,2.88 2.88,2.88 1.59072,0 2.88,-1.28929 2.88,-2.88 0,-1.59072 -1.28928,-2.88 -2.88,-2.88 m 0,1.92 c 0.52944,0 0.96,0.43056 0.96,0.96 0,0.52943 -0.43056,0.96001 -0.96,0.96001 -0.52944,0 -0.96,-0.43057 -0.96,-0.96001 0,-0.52944 0.43056,-0.96 0.96,-0.96"
       id="path80"
       inkscape:connector-curvature="0"
       style="fill:#c83a1a;fill-opacity:1" />
  </g>
  <g
     clip-path="url(#clip-98e777a3-e5f7-439a-8074-344f34cb94df)"
     id="g82">
    <title
       id="title84">Path 11983</title>
    <path
       d="m 17.004,77.08531 c -1.59072,0 -2.88,1.28928 -2.88,2.88 0,1.59071 1.28928,2.88 2.88,2.88 1.59072,0 2.88,-1.28929 2.88,-2.88 0,-1.59073 -1.28928,-2.88 -2.88,-2.88 m 0,1.92 c 0.52944,0 0.96,0.43056 0.96,0.96001 0,0.52943 -0.43056,0.95999 -0.96,0.95999 -0.52944,0 -0.96,-0.43056 -0.96,-0.95999 0,-0.52945 0.43056,-0.96001 0.96,-0.96001"
       id="path86"
       inkscape:connector-curvature="0"
       style="fill:#c83a1a;fill-opacity:1" />
  </g>
  <g
     clip-path="url(#clip-98e777a3-e5f7-439a-8074-344f34cb94df)"
     id="g88">
    <title
       id="title90">Path 11984</title>
    <path
       d="m 17.004,15.04579 c -1.59072,0 -2.88,1.28928 -2.88,2.88 0,1.59072 1.28928,2.88 2.88,2.88 1.59072,0 2.88,-1.28928 2.88,-2.88 0,-1.59072 -1.28928,-2.88 -2.88,-2.88 m 0,1.92 c 0.52944,0 0.96,0.43056 0.96,0.96 0,0.52944 -0.43056,0.96 -0.96,0.96 -0.52944,0 -0.96,-0.43056 -0.96,-0.96 0,-0.52944 0.43056,-0.96 0.96,-0.96"
       id="path92"
       inkscape:connector-curvature="0"
       style="fill:#c83a1a;fill-opacity:1" />
  </g>
  <g
     clip-path="url(#clip-98e777a3-e5f7-439a-8074-344f34cb94df)"
     id="g94">
    <title
       id="title96">Path 11985</title>
    <path
       d="m 42.07877,27.19881 0,0 -8.31312,-8.31312 0,0 -14.6568,0 0,0 0,-1.92 0,0 15.45168,0 0,0 8.87568,8.87569 0,0 z"
       id="path98"
       inkscape:connector-curvature="0"
       style="fill:#c83a1a;fill-opacity:1" />
  </g>
  <g
     clip-path="url(#clip-98e777a3-e5f7-439a-8074-344f34cb94df)"
     id="g100">
    <title
       id="title102">Path 11986</title>
    <path
       d="m 34.56048,80.92527 0,0 -15.4512,0 0,0 0,-1.92001 0,0 14.65631,0 0,0 8.31312,-8.31311 0,0 1.35744,1.35745 0,0 z"
       id="path104"
       inkscape:connector-curvature="0"
       style="fill:#c83a1a;fill-opacity:1" />
  </g>
  <g
     clip-path="url(#clip-98e777a3-e5f7-439a-8074-344f34cb94df)"
     id="g106">
    <title
       id="title108">Rectangle 2478</title>
    <path
       d="m 18.89568,39.51331 0,0 0,-1.92 0,0 8.48016,0 0,0 0,1.92 0,0 z"
       id="path110"
       inkscape:connector-curvature="0"
       style="fill:#c83a1a;fill-opacity:1" />
  </g>
  <g
     clip-path="url(#clip-98e777a3-e5f7-439a-8074-344f34cb94df)"
     id="g112">
    <title
       id="title114">Rectangle 2479</title>
    <path
       d="m 19.1088,60.29731 0,0 0,-1.92 0,0 8.26704,0 0,0 0,1.92 0,0 z"
       id="path116"
       inkscape:connector-curvature="0"
       style="fill:#c83a1a;fill-opacity:1" />
  </g>
  <g
     clip-path="url(#clip-98e777a3-e5f7-439a-8074-344f34cb94df)"
     id="g118">
    <title
       id="title120">Path 11987</title>
    <path
       d="m 32.64471,32.03256 0,0 -2.83296,-2.83295 0,0 -4.16256,0 0,0 0,-1.92 0,0 4.95744,0 0,0 3.39552,3.39552 0,0 z"
       id="path122"
       inkscape:connector-curvature="0"
       style="fill:#c83a1a;fill-opacity:1" />
  </g>
  <g
     clip-path="url(#clip-98e777a3-e5f7-439a-8074-344f34cb94df)"
     id="g124">
    <title
       id="title126">Path 11988</title>
    <path
       d="m 23.96688,66.77155 c -1.59072,0 -2.88,1.28928 -2.88,2.88 0,1.59071 1.28928,2.87999 2.88,2.87999 1.59072,0 2.88,-1.28928 2.88,-2.87999 0,-1.59073 -1.28928,-2.88 -2.88,-2.88 m 0,1.92 c 0.52944,0 0.96,0.43056 0.96,0.96001 0,0.52943 -0.43056,0.95999 -0.96,0.95999 -0.52944,0 -0.96,-0.43056 -0.96,-0.95999 0,-0.52945 0.43056,-0.96001 0.96,-0.96001"
       id="path128"
       inkscape:connector-curvature="0"
       style="fill:#c83a1a;fill-opacity:1" />
  </g>
  <g
     clip-path="url(#clip-98e777a3-e5f7-439a-8074-344f34cb94df)"
     id="g130">
    <title
       id="title132">Path 11989</title>
    <path
       d="m 30.60657,70.61137 0,0 -4.95744,0 0,0 0,-1.92 0,0 4.16256,0 0,0 2.83296,-2.83345 0,0 1.35744,1.35745 0,0 z"
       id="path134"
       inkscape:connector-curvature="0"
       style="fill:#c83a1a;fill-opacity:1" />
  </g>
  <g
     clip-path="url(#clip-98e777a3-e5f7-439a-8074-344f34cb94df)"
     id="g136">
    <title
       id="title138">Path 11990</title>
    <path
       d="m 48.03984,24.75427 c -13.35984,0 -24.19008,10.83024 -24.19008,24.19008 0,13.35983 10.83024,24.19055 24.19008,24.19055 13.35983,0 24.19008,-10.83072 24.19008,-24.19055 0,-13.35984 -10.83025,-24.19008 -24.19008,-24.19008 m 0,1.92 c 12.27984,0 22.27008,9.99024 22.27008,22.27008 0,12.27984 -9.99024,22.27055 -22.27008,22.27055 -12.27985,0 -22.27008,-9.99072 -22.27008,-22.27055 0,-12.27984 9.99023,-22.27008 22.27008,-22.27008"
       id="path140"
       inkscape:connector-curvature="0"
       style="fill:#c83a1a;fill-opacity:1" />
  </g>
  <g
     clip-path="url(#clip-98e777a3-e5f7-439a-8074-344f34cb94df)"
     id="g142">
    <title
       id="title144">Path 11991</title>
    <path
       d="m 17.004,35.67331 c -1.59072,0 -2.88,1.28929 -2.88,2.88 0,1.59072 1.28928,2.88 2.88,2.88 1.59072,0 2.88,-1.28928 2.88,-2.88 0,-1.59071 -1.28928,-2.88 -2.88,-2.88 m 0,1.92001 c 0.52944,0 0.96,0.43056 0.96,0.96 0,0.52944 -0.43056,0.96 -0.96,0.96 -0.52944,0 -0.96,-0.43056 -0.96,-0.96 0,-0.52943 0.43056,-0.96 0.96,-0.96"
       id="path146"
       inkscape:connector-curvature="0"
       style="fill:#c83a1a;fill-opacity:1" />
  </g>
  <g
     clip-path="url(#clip-98e777a3-e5f7-439a-8074-344f34cb94df)"
     id="g148">
    <title
       id="title150">Path 11992</title>
    <path
       d="m 23.96688,25.35955 c -1.59072,0 -2.88,1.28928 -2.88,2.88 0,1.59072 1.28928,2.88 2.88,2.88 1.59072,0 2.88,-1.28928 2.88,-2.88 0,-1.59072 -1.28928,-2.88 -2.88,-2.88 m 0,1.92 c 0.52944,0 0.96,0.43056 0.96,0.96 0,0.52944 -0.43056,0.96 -0.96,0.96 -0.52944,0 -0.96,-0.43056 -0.96,-0.96 0,-0.52944 0.43056,-0.96 0.96,-0.96"
       id="path152"
       inkscape:connector-curvature="0"
       style="fill:#c83a1a;fill-opacity:1" />
  </g>
  <g
     clip-path="url(#clip-98e777a3-e5f7-439a-8074-344f34cb94df)"
     id="g154">
    <title
       id="title156">Path 11993</title>
    <path
       d="m 17.004,56.45731 c -1.59072,0 -2.88,1.28928 -2.88,2.88 0,1.59071 1.28928,2.88 2.88,2.88 1.59072,0 2.88,-1.28929 2.88,-2.88 0,-1.59072 -1.28928,-2.88 -2.88,-2.88 m 0,1.92 c 0.52944,0 0.96,0.43056 0.96,0.96 0,0.52943 -0.43056,0.96001 -0.96,0.96001 -0.52944,0 -0.96,-0.43057 -0.96,-0.96001 0,-0.52944 0.43056,-0.96 0.96,-0.96"
       id="path158"
       inkscape:connector-curvature="0"
       style="fill:#c83a1a;fill-opacity:1" />
  </g>
  <g
     clip-path="url(#clip-98e777a3-e5f7-439a-8074-344f34cb94df)"
     id="g160">
    <title
       id="title162">Path 11994</title>
    <path
       d="m 17.004,77.08531 c -1.59072,0 -2.88,1.28928 -2.88,2.88 0,1.59071 1.28928,2.88 2.88,2.88 1.59072,0 2.88,-1.28929 2.88,-2.88 0,-1.59073 -1.28928,-2.88 -2.88,-2.88 m 0,1.92 c 0.52944,0 0.96,0.43056 0.96,0.96001 0,0.52943 -0.43056,0.95999 -0.96,0.95999 -0.52944,0 -0.96,-0.43056 -0.96,-0.95999 0,-0.52945 0.43056,-0.96001 0.96,-0.96001"
       id="path164"
       inkscape:connector-curvature="0"
       style="fill:#c83a1a;fill-opacity:1" />
  </g>
  <g
     clip-path="url(#clip-98e777a3-e5f7-439a-8074-344f34cb94df)"
     id="g166">
    <title
       id="title168">Path 11995</title>
    <path
       d="m 17.004,15.04579 c -1.59072,0 -2.88,1.28928 -2.88,2.88 0,1.59072 1.28928,2.88 2.88,2.88 1.59072,0 2.88,-1.28928 2.88,-2.88 0,-1.59072 -1.28928,-2.88 -2.88,-2.88 m 0,1.92 c 0.52944,0 0.96,0.43056 0.96,0.96 0,0.52944 -0.43056,0.96 -0.96,0.96 -0.52944,0 -0.96,-0.43056 -0.96,-0.96 0,-0.52944 0.43056,-0.96 0.96,-0.96"
       id="path170"
       inkscape:connector-curvature="0"
       style="fill:#c83a1a;fill-opacity:1" />
  </g>
  <g
     clip-path="url(#clip-98e777a3-e5f7-439a-8074-344f34cb94df)"
     id="g172">
    <title
       id="title174">Path 11996</title>
    <path
       d="m 42.07877,27.19881 0,0 -8.31312,-8.31312 0,0 -14.6568,0 0,0 0,-1.92 0,0 15.45168,0 0,0 8.87568,8.87569 0,0 z"
       id="path176"
       inkscape:connector-curvature="0"
       style="fill:#c83a1a;fill-opacity:1" />
  </g>
  <g
     clip-path="url(#clip-98e777a3-e5f7-439a-8074-344f34cb94df)"
     id="g178">
    <title
       id="title180">Path 11997</title>
    <path
       d="m 34.56048,80.92527 0,0 -15.4512,0 0,0 0,-1.92001 0,0 14.65631,0 0,0 8.31312,-8.31311 0,0 1.35744,1.35745 0,0 z"
       id="path182"
       inkscape:connector-curvature="0"
       style="fill:#c83a1a;fill-opacity:1" />
  </g>
  <g
     clip-path="url(#clip-98e777a3-e5f7-439a-8074-344f34cb94df)"
     id="g184">
    <title
       id="title186">Rectangle 2480</title>
    <path
       d="m 18.89568,39.51331 0,0 0,-1.92 0,0 8.48016,0 0,0 0,1.92 0,0 z"
       id="path188"
       inkscape:connector-curvature="0"
       style="fill:#c83a1a;fill-opacity:1" />
  </g>
  <g
     clip-path="url(#clip-98e777a3-e5f7-439a-8074-344f34cb94df)"
     id="g190">
    <title
       id="title192">Rectangle 2481</title>
    <path
       d="m 19.1088,60.29731 0,0 0,-1.92 0,0 8.26704,0 0,0 0,1.92 0,0 z"
       id="path194"
       inkscape:connector-curvature="0"
       style="fill:#c83a1a;fill-opacity:1" />
  </g>
  <g
     clip-path="url(#clip-98e777a3-e5f7-439a-8074-344f34cb94df)"
     id="g196">
    <title
       id="title198">Path 11998</title>
    <path
       d="m 23.96688,66.77155 c -1.59072,0 -2.88,1.28928 -2.88,2.88 0,1.59071 1.28928,2.87999 2.88,2.87999 1.59072,0 2.88,-1.28928 2.88,-2.87999 0,-1.59073 -1.28928,-2.88 -2.88,-2.88 m 0,1.92 c 0.52944,0 0.96,0.43056 0.96,0.96001 0,0.52943 -0.43056,0.95999 -0.96,0.95999 -0.52944,0 -0.96,-0.43056 -0.96,-0.95999 0,-0.52945 0.43056,-0.96001 0.96,-0.96001"
       id="path200"
       inkscape:connector-curvature="0"
       style="fill:#c83a1a;fill-opacity:1" />
  </g>
  <g
     clip-path="url(#clip-98e777a3-e5f7-439a-8074-344f34cb94df)"
     id="g202">
    <title
       id="title204">Path 11999</title>
    <path
       d="m 79.04399,35.67331 c -1.59071,0 -2.87999,1.28929 -2.87999,2.88 0,1.59072 1.28928,2.88 2.87999,2.88 1.59073,0 2.88,-1.28928 2.88,-2.88 0,-1.59071 -1.28928,-2.88 -2.88,-2.88 m 0,1.92001 c 0.52945,0 0.96001,0.43056 0.96001,0.96 0,0.52944 -0.43056,0.96 -0.96001,0.96 -0.52942,0 -0.95999,-0.43056 -0.95999,-0.96 0,-0.52943 0.43057,-0.96 0.95999,-0.96"
       id="path206"
       inkscape:connector-curvature="0"
       style="fill:#c83a1a;fill-opacity:1" />
  </g>
  <g
     clip-path="url(#clip-98e777a3-e5f7-439a-8074-344f34cb94df)"
     id="g208">
    <title
       id="title210">Path 12000</title>
    <path
       d="m 72.08113,25.35955 c -1.59073,0 -2.88,1.28928 -2.88,2.88 0,1.59072 1.28928,2.88 2.88,2.88 1.5907,0 2.87999,-1.28928 2.87999,-2.88 0,-1.59072 -1.28929,-2.88 -2.87999,-2.88 m 0,1.92 c 0.52942,0 0.95999,0.43056 0.95999,0.96 0,0.52944 -0.43057,0.96 -0.95999,0.96 -0.52945,0 -0.96001,-0.43056 -0.96001,-0.96 0,-0.52944 0.43056,-0.96 0.96001,-0.96"
       id="path212"
       inkscape:connector-curvature="0"
       style="fill:#c83a1a;fill-opacity:1" />
  </g>
  <g
     clip-path="url(#clip-98e777a3-e5f7-439a-8074-344f34cb94df)"
     id="g214">
    <title
       id="title216">Path 12001</title>
    <path
       d="m 79.04399,56.45731 c -1.59071,0 -2.87999,1.28928 -2.87999,2.88 0,1.59071 1.28928,2.88 2.87999,2.88 1.59073,0 2.88,-1.28929 2.88,-2.88 0,-1.59072 -1.28928,-2.88 -2.88,-2.88 m 0,1.92 c 0.52945,0 0.96001,0.43056 0.96001,0.96 0,0.52943 -0.43056,0.96001 -0.96001,0.96001 -0.52942,0 -0.95999,-0.43057 -0.95999,-0.96001 0,-0.52944 0.43057,-0.96 0.95999,-0.96"
       id="path218"
       inkscape:connector-curvature="0"
       style="fill:#c83a1a;fill-opacity:1" />
  </g>
  <g
     clip-path="url(#clip-98e777a3-e5f7-439a-8074-344f34cb94df)"
     id="g220">
    <title
       id="title222">Path 12002</title>
    <path
       d="m 79.04399,77.08531 c -1.59071,0 -2.87999,1.28928 -2.87999,2.88 0,1.59071 1.28928,2.88 2.87999,2.88 1.59073,0 2.88,-1.28929 2.88,-2.88 0,-1.59073 -1.28928,-2.88 -2.88,-2.88 m 0,1.92 c 0.52945,0 0.96001,0.43056 0.96001,0.96001 0,0.52943 -0.43056,0.95999 -0.96001,0.95999 -0.52942,0 -0.95999,-0.43056 -0.95999,-0.95999 0,-0.52945 0.43057,-0.96001 0.95999,-0.96001"
       id="path224"
       inkscape:connector-curvature="0"
       style="fill:#c83a1a;fill-opacity:1" />
  </g>
  <g
     clip-path="url(#clip-98e777a3-e5f7-439a-8074-344f34cb94df)"
     id="g226">
    <title
       id="title228">Path 12003</title>
    <path
       d="m 79.04399,15.04579 c -1.59071,0 -2.87999,1.28928 -2.87999,2.88 0,1.59072 1.28928,2.88 2.87999,2.88 1.59073,0 2.88,-1.28928 2.88,-2.88 0,-1.59072 -1.28928,-2.88 -2.88,-2.88 m 0,1.92 c 0.52945,0 0.96001,0.43056 0.96001,0.96 0,0.52944 -0.43056,0.96 -0.96001,0.96 -0.52942,0 -0.95999,-0.43056 -0.95999,-0.96 0,-0.52944 0.43057,-0.96 0.95999,-0.96"
       id="path230"
       inkscape:connector-curvature="0"
       style="fill:#c83a1a;fill-opacity:1" />
  </g>
  <g
     clip-path="url(#clip-98e777a3-e5f7-439a-8074-344f34cb94df)"
     id="g232">
    <title
       id="title234">Path 12004</title>
    <path
       d="m 53.96904,27.19881 0,0 -1.35744,-1.35743 0,0 8.87568,-8.87569 0,0 15.45167,0 0,0 0,1.92 0,0 -14.65678,0 0,0 z"
       id="path236"
       inkscape:connector-curvature="0"
       style="fill:#c83a1a;fill-opacity:1" />
  </g>
  <g
     clip-path="url(#clip-98e777a3-e5f7-439a-8074-344f34cb94df)"
     id="g238">
    <title
       id="title240">Path 12005</title>
    <path
       d="m 76.93876,80.92527 0,0 -15.4512,0 0,0 -8.87615,-8.87567 0,0 1.35744,-1.35745 0,0 8.31359,8.31311 0,0 14.65633,0 0,0 z"
       id="path242"
       inkscape:connector-curvature="0"
       style="fill:#c83a1a;fill-opacity:1" />
  </g>
  <g
     clip-path="url(#clip-98e777a3-e5f7-439a-8074-344f34cb94df)"
     id="g244">
    <title
       id="title246">Rectangle 2482</title>
    <path
       d="m 68.67216,39.51331 0,0 0,-1.92 0,0 8.47968,0 0,0 0,1.92 0,0 z"
       id="path248"
       inkscape:connector-curvature="0"
       style="fill:#c83a1a;fill-opacity:1" />
  </g>
  <g
     clip-path="url(#clip-98e777a3-e5f7-439a-8074-344f34cb94df)"
     id="g250">
    <title
       id="title252">Rectangle 2483</title>
    <path
       d="m 68.67216,60.29731 0,0 0,-1.92 0,0 8.26656,0 0,0 0,1.92 0,0 z"
       id="path254"
       inkscape:connector-curvature="0"
       style="fill:#c83a1a;fill-opacity:1" />
  </g>
  <g
     clip-path="url(#clip-98e777a3-e5f7-439a-8074-344f34cb94df)"
     id="g256">
    <title
       id="title258">Path 12006</title>
    <path
       d="m 63.4031,32.03256 0,0 -1.35744,-1.35743 0,0 3.39552,-3.39552 0,0 4.95743,0 0,0 0,1.92 0,0 -4.16255,0 0,0 z"
       id="path260"
       inkscape:connector-curvature="0"
       style="fill:#c83a1a;fill-opacity:1" />
  </g>
  <g
     clip-path="url(#clip-98e777a3-e5f7-439a-8074-344f34cb94df)"
     id="g262">
    <title
       id="title264">Path 12007</title>
    <path
       d="m 72.08113,66.77155 c -1.59073,0 -2.88,1.28928 -2.88,2.88 0,1.59071 1.28928,2.87999 2.88,2.87999 1.5907,0 2.87999,-1.28928 2.87999,-2.87999 0,-1.59073 -1.28929,-2.88 -2.87999,-2.88 m 0,1.92 c 0.52942,0 0.95999,0.43056 0.95999,0.96001 0,0.52943 -0.43057,0.95999 -0.95999,0.95999 -0.52945,0 -0.96001,-0.43056 -0.96001,-0.95999 0,-0.52945 0.43056,-0.96001 0.96001,-0.96001"
       id="path266"
       inkscape:connector-curvature="0"
       style="fill:#c83a1a;fill-opacity:1" />
  </g>
  <g
     clip-path="url(#clip-98e777a3-e5f7-439a-8074-344f34cb94df)"
     id="g268">
    <title
       id="title270">Path 12008</title>
    <path
       d="m 70.39877,70.61137 0,0 -4.95744,0 0,0 -3.39552,-3.396 0,0 1.35744,-1.35745 0,0 2.83296,2.83345 0,0 4.16257,0 0,0 z"
       id="path272"
       inkscape:connector-curvature="0"
       style="fill:#c83a1a;fill-opacity:1" />
  </g>
  <g
     clip-path="url(#clip-98e777a3-e5f7-439a-8074-344f34cb94df)"
     id="g274">
    <title
       id="title276">Path 12009</title>
    <path
       d="m 79.04399,35.67331 c -1.59071,0 -2.87999,1.28929 -2.87999,2.88 0,1.59072 1.28928,2.88 2.87999,2.88 1.59073,0 2.88,-1.28928 2.88,-2.88 0,-1.59071 -1.28928,-2.88 -2.88,-2.88 m 0,1.92001 c 0.52945,0 0.96001,0.43056 0.96001,0.96 0,0.52944 -0.43056,0.96 -0.96001,0.96 -0.52942,0 -0.95999,-0.43056 -0.95999,-0.96 0,-0.52943 0.43057,-0.96 0.95999,-0.96"
       id="path278"
       inkscape:connector-curvature="0"
       style="fill:#c83a1a;fill-opacity:1" />
  </g>
  <g
     clip-path="url(#clip-98e777a3-e5f7-439a-8074-344f34cb94df)"
     id="g280">
    <title
       id="title282">Path 12010</title>
    <path
       d="m 72.08113,25.35955 c -1.59073,0 -2.88,1.28928 -2.88,2.88 0,1.59072 1.28928,2.88 2.88,2.88 1.5907,0 2.87999,-1.28928 2.87999,-2.88 0,-1.59072 -1.28929,-2.88 -2.87999,-2.88 m 0,1.92 c 0.52942,0 0.95999,0.43056 0.95999,0.96 0,0.52944 -0.43057,0.96 -0.95999,0.96 -0.52945,0 -0.96001,-0.43056 -0.96001,-0.96 0,-0.52944 0.43056,-0.96 0.96001,-0.96"
       id="path284"
       inkscape:connector-curvature="0"
       style="fill:#c83a1a;fill-opacity:1" />
  </g>
  <g
     clip-path="url(#clip-98e777a3-e5f7-439a-8074-344f34cb94df)"
     id="g286">
    <title
       id="title288">Path 12011</title>
    <path
       d="m 79.04399,56.45731 c -1.59071,0 -2.87999,1.28928 -2.87999,2.88 0,1.59071 1.28928,2.88 2.87999,2.88 1.59073,0 2.88,-1.28929 2.88,-2.88 0,-1.59072 -1.28928,-2.88 -2.88,-2.88 m 0,1.92 c 0.52945,0 0.96001,0.43056 0.96001,0.96 0,0.52943 -0.43056,0.96001 -0.96001,0.96001 -0.52942,0 -0.95999,-0.43057 -0.95999,-0.96001 0,-0.52944 0.43057,-0.96 0.95999,-0.96"
       id="path290"
       inkscape:connector-curvature="0"
       style="fill:#c83a1a;fill-opacity:1" />
  </g>
  <g
     clip-path="url(#clip-98e777a3-e5f7-439a-8074-344f34cb94df)"
     id="g292">
    <title
       id="title294">Path 12012</title>
    <path
       d="m 79.04399,77.08531 c -1.59071,0 -2.87999,1.28928 -2.87999,2.88 0,1.59071 1.28928,2.88 2.87999,2.88 1.59073,0 2.88,-1.28929 2.88,-2.88 0,-1.59073 -1.28928,-2.88 -2.88,-2.88 m 0,1.92 c 0.52945,0 0.96001,0.43056 0.96001,0.96001 0,0.52943 -0.43056,0.95999 -0.96001,0.95999 -0.52942,0 -0.95999,-0.43056 -0.95999,-0.95999 0,-0.52945 0.43057,-0.96001 0.95999,-0.96001"
       id="path296"
       inkscape:connector-curvature="0"
       style="fill:#c83a1a;fill-opacity:1" />
  </g>
  <g
     clip-path="url(#clip-98e777a3-e5f7-439a-8074-344f34cb94df)"
     id="g298">
    <title
       id="title300">Path 12013</title>
    <path
       d="m 79.04399,15.04579 c -1.59071,0 -2.87999,1.28928 -2.87999,2.88 0,1.59072 1.28928,2.88 2.87999,2.88 1.59073,0 2.88,-1.28928 2.88,-2.88 0,-1.59072 -1.28928,-2.88 -2.88,-2.88 m 0,1.92 c 0.52945,0 0.96001,0.43056 0.96001,0.96 0,0.52944 -0.43056,0.96 -0.96001,0.96 -0.52942,0 -0.95999,-0.43056 -0.95999,-0.96 0,-0.52944 0.43057,-0.96 0.95999,-0.96"
       id="path302"
       inkscape:connector-curvature="0"
       style="fill:#c83a1a;fill-opacity:1" />
  </g>
  <g
     clip-path="url(#clip-98e777a3-e5f7-439a-8074-344f34cb94df)"
     id="g304">
    <title
       id="title306">Path 12014</title>
    <path
       d="m 53.96904,27.19881 0,0 -1.35744,-1.35743 0,0 8.87568,-8.87569 0,0 15.45167,0 0,0 0,1.92 0,0 -14.65678,0 0,0 z"
       id="path308"
       inkscape:connector-curvature="0"
       style="fill:#c83a1a;fill-opacity:1" />
  </g>
  <g
     clip-path="url(#clip-98e777a3-e5f7-439a-8074-344f34cb94df)"
     id="g310">
    <title
       id="title312">Path 12015</title>
    <path
       d="m 76.93876,80.92527 0,0 -15.4512,0 0,0 -8.87615,-8.87567 0,0 1.35744,-1.35745 0,0 8.31359,8.31311 0,0 14.65633,0 0,0 z"
       id="path314"
       inkscape:connector-curvature="0"
       style="fill:#c83a1a;fill-opacity:1" />
  </g>
  <g
     clip-path="url(#clip-98e777a3-e5f7-439a-8074-344f34cb94df)"
     id="g316">
    <title
       id="title318">Rectangle 2484</title>
    <path
       d="m 68.67216,39.51331 0,0 0,-1.92 0,0 8.47968,0 0,0 0,1.92 0,0 z"
       id="path320"
       inkscape:connector-curvature="0"
       style="fill:#c83a1a;fill-opacity:1" />
  </g>
  <g
     clip-path="url(#clip-98e777a3-e5f7-439a-8074-344f34cb94df)"
     id="g322">
    <title
       id="title324">Rectangle 2485</title>
    <path
       d="m 68.67216,60.29731 0,0 0,-1.92 0,0 8.26656,0 0,0 0,1.92 0,0 z"
       id="path326"
       inkscape:connector-curvature="0"
       style="fill:#c83a1a;fill-opacity:1" />
  </g>
  <g
     clip-path="url(#clip-98e777a3-e5f7-439a-8074-344f34cb94df)"
     id="g328">
    <title
       id="title330">Path 12016</title>
    <path
       d="m 72.08113,66.77155 c -1.59073,0 -2.88,1.28928 -2.88,2.88 0,1.59071 1.28928,2.87999 2.88,2.87999 1.5907,0 2.87999,-1.28928 2.87999,-2.87999 0,-1.59073 -1.28929,-2.88 -2.87999,-2.88 m 0,1.92 c 0.52942,0 0.95999,0.43056 0.95999,0.96001 0,0.52943 -0.43057,0.95999 -0.95999,0.95999 -0.52945,0 -0.96001,-0.43056 -0.96001,-0.95999 0,-0.52945 0.43056,-0.96001 0.96001,-0.96001"
       id="path332"
       inkscape:connector-curvature="0"
       style="fill:#c83a1a;fill-opacity:1" />
  </g>
</svg>
