<?xml version="1.0" encoding="UTF-8" standalone="no"?>
<!-- Created with Inkscape (http://www.inkscape.org/) -->

<svg
   width="16.860838mm"
   height="16.860838mm"
   viewBox="0 0 16.860838 16.860838"
   version="1.1"
   id="svg5"
   inkscape:version="1.1 (c68e22c387, 2021-05-23)"
   sodipodi:docname="DiscordLight.svg"
   xmlns:inkscape="http://www.inkscape.org/namespaces/inkscape"
   xmlns:sodipodi="http://sodipodi.sourceforge.net/DTD/sodipodi-0.dtd"
   xmlns="http://www.w3.org/2000/svg"
   xmlns:svg="http://www.w3.org/2000/svg">
  <sodipodi:namedview
     id="namedview7"
     pagecolor="#ffffff"
     bordercolor="#666666"
     borderopacity="1.0"
     inkscape:pageshadow="2"
     inkscape:pageopacity="0.0"
     inkscape:pagecheckerboard="0"
     inkscape:document-units="mm"
     showgrid="false"
     fit-margin-top="0"
     fit-margin-left="0"
     fit-margin-right="0"
     fit-margin-bottom="0"
     inkscape:zoom="6.2217172"
     inkscape:cx="-14.786915"
     inkscape:cy="18.564007"
     inkscape:window-width="2560"
     inkscape:window-height="1369"
     inkscape:window-x="-8"
     inkscape:window-y="-8"
     inkscape:window-maximized="1"
     inkscape:current-layer="Group_3679" />
  <defs
     id="defs2" />
  <g
     inkscape:label="Warstwa 1"
     inkscape:groupmode="layer"
     id="layer1"
     transform="translate(-18.105664,-40.559272)">
    <g
       id="Group_3678"
       data-name="Group 3678"
       transform="matrix(0.26458333,0,0,0.26458333,18.105664,40.559272)">
      <g
         id="Group_3676"
         data-name="Group 3676">
        <g
           id="Group_3693"
           data-name="Group 3693">
          <g
             id="Group_3679"
             data-name="Group 3679">
            <path
               id="Ellipse_169"
               style="color:#000000;fill:#f2f2f2;stroke-linecap:round;stroke-linejoin:round;-inkscape-stroke:none"
               d="M 23.849609,9.8730469 C 19.665523,10.146085 15.638773,11.57189 12.214844,13.992188 A 0.75007499,0.75007499 0 0 0 11.9375,14.365234 C 9.3943592,21.935292 8.0109893,28.512643 7.4765625,33.779297 6.9421358,39.045952 7.2278725,42.979376 8.1523438,45.40625 a 0.75007499,0.75007499 0 0 0 0.023437,0.05469 c 0.8742369,1.835585 2.1694272,3.885076 3.7773442,5.515624 1.607917,1.630548 3.561358,2.878907 5.75,2.878907 0.420607,0 0.712306,-0.170691 0.996094,-0.365235 0.28379,-0.194544 0.55796,-0.44319 0.839843,-0.738281 0.563767,-0.590181 1.152848,-1.36728 1.703126,-2.230469 0.97055,-1.522449 1.838811,-3.249501 2.03125,-4.779296 5.674568,1.078504 11.503131,1.078266 17.177734,0 0.211061,1.555656 1.180215,3.27923 2.248047,4.804687 0.603967,0.862801 1.248043,1.639774 1.857422,2.226563 0.30469,0.293393 0.599861,0.540182 0.898437,0.730468 0.298576,0.190287 0.597719,0.351563 1.013672,0.351563 2.269303,0 4.309773,-1.23869 5.996094,-2.867188 1.68632,-1.628497 3.047819,-3.676754 3.966797,-5.513672 a 0.75007499,0.75007499 0 0 0 0.02539,-0.05664 c 0.973593,-2.433157 1.27426,-6.372596 0.712891,-11.642578 C 56.608553,28.505408 55.154499,21.92524 52.480469,14.353516 A 0.75007499,0.75007499 0 0 0 52.185547,13.976562 C 48.509277,11.560389 44.265665,10.146753 39.875,9.8730469 a 0.75007499,0.75007499 0 0 0 -0.742188,0.4687501 l -2.65625,6.638672 a 0.74999999,0.74999999 0 0 0 0.02148,0.541015 c -1.588468,-0.222429 -3.112868,-0.333986 -4.636719,-0.333984 -1.515106,2e-6 -3.031458,0.110198 -4.609375,0.330078 A 0.74999999,0.74999999 0 0 0 27.25,16.980469 L 24.595703,10.341797 A 0.75007499,0.75007499 0 0 0 23.849609,9.8730469 Z M 40.296875,11.46875 c 3.862804,0.327212 7.588299,1.560064 10.851563,3.658203 2.57387,7.351119 3.990092,13.744744 4.529296,18.806641 0.544892,5.115294 0.183497,8.90705 -0.609375,10.904297 -0.852179,1.694724 -2.134985,3.612595 -3.646484,5.072265 -1.513581,1.461682 -3.221168,2.433046 -4.925781,2.44336 -0.0058,-0.0071 -0.104302,-0.03237 -0.234375,-0.115235 -0.173432,-0.110529 -0.408597,-0.298927 -0.664063,-0.544922 -0.510932,-0.491992 -1.110187,-1.209036 -1.667968,-2.005859 -1.013197,-1.447409 -1.848168,-3.222997 -1.994141,-4.251953 1.149634,-0.258001 2.293718,-0.558808 3.425781,-0.90625 a 0.74999999,0.74999999 0 0 0 0.496094,-0.9375 0.74999999,0.74999999 0 0 0 -0.9375,-0.496094 c -8.508506,2.611353 -17.602822,2.611353 -26.111328,0 a 0.74999999,0.74999999 0 0 0 -0.9375,0.496094 0.74999999,0.74999999 0 0 0 0.496094,0.9375 c 1.131451,0.347254 2.27287,0.64834 3.421874,0.90625 -0.129871,1.053821 -0.888046,2.829157 -1.8125,4.279297 -0.507721,0.796434 -1.056706,1.511401 -1.523437,2 -0.233365,0.244299 -0.44654,0.43279 -0.601563,0.539062 -0.111617,0.07652 -0.19129,0.09302 -0.189453,0.09766 -1.592083,-0.01623 -3.205857,-0.97277 -4.640625,-2.427734 C 11.583565,48.465667 10.360736,46.546097 9.5488281,44.849609 8.7916404,42.846101 8.4493449,39.048306 8.96875,33.929688 c 0.514132,-5.066655 1.864089,-11.462874 4.314453,-18.81836 3.011523,-2.080015 6.508571,-3.307753 10.150391,-3.636719 l 2.423828,6.0625 a 0.74999999,0.74999999 0 0 0 0.132812,0.177735 c -1.941824,0.334027 -3.998607,0.826367 -6.28125,1.478515 a 0.74999999,0.74999999 0 0 0 -0.515625,0.927735 0.74999999,0.74999999 0 0 0 0.925782,0.515625 c 9.22047,-2.634279 14.260714,-2.634322 23.488281,0 a 0.74999999,0.74999999 0 0 0 0.927734,-0.515625 0.74999999,0.74999999 0 0 0 -0.515625,-0.927735 c -2.282846,-0.651715 -4.339506,-1.144495 -6.28125,-1.478515 a 0.74999999,0.74999999 0 0 0 0.132813,-0.177735 z M 24.773438,28.033203 c -2.415807,0 -4.53711,1.599281 -4.53711,3.779297 0,2.180016 2.121303,3.78125 4.53711,3.78125 2.415806,0 4.537109,-1.601234 4.537109,-3.78125 0,-2.180016 -2.121303,-3.779297 -4.537109,-3.779297 z m 15.90625,0 c -2.078751,0 -3.779297,1.700546 -3.779297,3.779297 0,2.078751 1.700546,3.78125 3.779297,3.78125 2.07875,0 3.78125,-1.702499 3.78125,-3.78125 0,-2.078751 -1.7025,-3.779297 -3.78125,-3.779297 z m -15.90625,1.5 c 1.767193,0 3.037109,1.112471 3.037109,2.279297 0,1.166826 -1.269916,2.28125 -3.037109,2.28125 -1.767194,0 -3.03711,-1.114424 -3.03711,-2.28125 0,-1.166826 1.269916,-2.279297 3.03711,-2.279297 z m 15.90625,0 c 1.268091,0 2.28125,1.011206 2.28125,2.279297 0,1.268091 -1.013159,2.28125 -2.28125,2.28125 -1.268092,0 -2.279297,-1.013159 -2.279297,-2.28125 0,-1.268091 1.011205,-2.279297 2.279297,-2.279297 z" />
          </g>
        </g>
      </g>
    </g>
  </g>
</svg>
