<?xml version="1.0" encoding="UTF-8" standalone="no"?>
<!-- Created with Inkscape (http://www.inkscape.org/) -->

<svg
   width="12.7mm"
   height="12.7mm"
   viewBox="0 0 12.7 12.7"
   version="1.1"
   id="svg5"
   inkscape:version="1.1 (c68e22c387, 2021-05-23)"
   sodipodi:docname="Dollar.svg"
   xmlns:inkscape="http://www.inkscape.org/namespaces/inkscape"
   xmlns:sodipodi="http://sodipodi.sourceforge.net/DTD/sodipodi-0.dtd"
   xmlns="http://www.w3.org/2000/svg"
   xmlns:svg="http://www.w3.org/2000/svg">
  <sodipodi:namedview
     id="namedview7"
     pagecolor="#ffffff"
     bordercolor="#666666"
     borderopacity="1.0"
     inkscape:pageshadow="2"
     inkscape:pageopacity="0.0"
     inkscape:pagecheckerboard="0"
     inkscape:document-units="mm"
     showgrid="false"
     fit-margin-top="0"
     fit-margin-left="0"
     fit-margin-right="0"
     fit-margin-bottom="0"
     inkscape:zoom="17.597674"
     inkscape:cx="12.728955"
     inkscape:cy="15.428176"
     inkscape:window-width="2560"
     inkscape:window-height="1369"
     inkscape:window-x="-8"
     inkscape:window-y="-8"
     inkscape:window-maximized="1"
     inkscape:current-layer="layer1" />
  <defs
     id="defs2" />
  <g
     inkscape:label="Warstwa 1"
     inkscape:groupmode="layer"
     id="layer1"
     transform="translate(-329.0933,-241.3201)">
    <path
       id="Ellipse_198"
       style="color:#000000;fill:#c83a1a;stroke-width:3.77953;stroke-linecap:round;stroke-linejoin:round;-inkscape-stroke:none"
       d="m 24.185547,9.7519531 c -8.011956,0 -14.5214845,6.5095289 -14.5214845,14.5214849 0,8.011918 6.5095285,14.519531 14.5214845,14.519531 8.011918,0 14.527344,-6.507613 14.527344,-14.519531 0,-8.011956 -6.515426,-14.5214849 -14.527344,-14.5214849 z m 0,1.4980469 c 7.201285,0 13.021484,5.822152 13.021484,13.023438 0,7.201285 -5.820199,13.021484 -13.021484,13.021484 -7.201285,0 -13.021485,-5.820199 -13.021485,-13.021484 0,-7.201286 5.8202,-13.023438 13.021485,-13.023438 z M 24,14.46875 a 0.75,0.75 0 0 0 -0.751953,0.753906 v 2.257813 h -0.753906 c -1.192366,-0.0021 -2.180174,0.470284 -2.820313,1.189453 -0.640138,0.719168 -0.943359,1.64846 -0.943359,2.568359 0,0.919899 0.303107,1.849191 0.943359,2.56836 0.640139,0.719168 1.627947,1.191569 2.820313,1.189453 h 3.011718 c 0.813846,0.0014 1.327967,0.284036 1.691407,0.693359 0.36359,0.409436 0.560546,0.979647 0.560546,1.564453 0,0.584807 -0.197183,1.162792 -0.560546,1.572266 -0.363591,0.409436 -0.877561,0.686064 -1.691407,0.6875 h -3.011718 a 0.75007499,0.75007499 0 0 0 -0.02344,0.0078 c -0.835011,0.03024 -1.618602,-0.405769 -2.037109,-1.128906 a 0.75,0.75 0 0 0 -1.025391,-0.273437 0.75,0.75 0 0 0 -0.273437,1.02539 c 0.694526,1.200038 2.002983,1.922811 3.388672,1.875 h 0.724609 v 2.259766 A 0.75,0.75 0 0 0 24,34.023438 0.75,0.75 0 0 0 24.753906,33.279297 v -2.259766 h 0.751953 c 1.188624,-0.0021 2.174705,-0.476862 2.8125,-1.195312 0.637758,-0.718488 0.9375,-1.652379 0.9375,-2.570313 0,-0.917934 -0.299742,-1.842096 -0.9375,-2.560547 -0.637795,-0.718488 -1.623876,-1.193233 -2.8125,-1.195312 h -3.011718 c -0.817134,0.0014 -1.33457,-0.278026 -1.699219,-0.6875 -0.364725,-0.409663 -0.56836,-0.985872 -0.56836,-1.572266 0,-0.586356 0.203673,-1.16264 0.56836,-1.572265 0.364724,-0.409663 0.882085,-0.686983 1.699219,-0.685547 H 24 25.505859 a 0.75007499,0.75007499 0 0 0 0.02148,0 c 0.835767,-0.02646 1.621538,0.404333 2.039062,1.128906 a 0.75,0.75 0 0 0 1.017578,0.273437 0.75,0.75 0 0 0 0.28125,-1.019531 c -0.6929,-1.202456 -2.001623,-1.929338 -3.388672,-1.882812 H 24.753906 V 15.222656 A 0.75,0.75 0 0 0 24,14.46875 Z"
       transform="matrix(0.26458333,0,0,0.26458333,329.0933,241.3201)" />
  </g>
</svg>
