<?xml version="1.0" encoding="UTF-8" standalone="no"?>
<svg
   id="SVGDoc"
   width="32"
   height="32"
   version="1.1"
   viewBox="0 0 32 32"
   sodipodi:docname="Exchange.svg"
   inkscape:version="1.1 (c68e22c387, 2021-05-23)"
   xmlns:inkscape="http://www.inkscape.org/namespaces/inkscape"
   xmlns:sodipodi="http://sodipodi.sourceforge.net/DTD/sodipodi-0.dtd"
   xmlns="http://www.w3.org/2000/svg"
   xmlns:svg="http://www.w3.org/2000/svg">
  <sodipodi:namedview
     id="namedview99"
     pagecolor="#ffffff"
     bordercolor="#666666"
     borderopacity="1.0"
     inkscape:pageshadow="2"
     inkscape:pageopacity="0.0"
     inkscape:pagecheckerboard="0"
     showgrid="false"
     fit-margin-top="0"
     fit-margin-left="0"
     fit-margin-right="0"
     fit-margin-bottom="0"
     inkscape:zoom="4.7142857"
     inkscape:cx="-26.939394"
     inkscape:cy="18.772727"
     inkscape:window-width="2560"
     inkscape:window-height="1369"
     inkscape:window-x="-8"
     inkscape:window-y="-8"
     inkscape:window-maximized="1"
     inkscape:current-layer="g96" />
  <defs
     id="defs2" />
  <desc
     id="desc4">Generated with Avocode.</desc>
  <g
     id="g96"
     transform="translate(-206,-0.94531)">
    <g
       id="g94">
      <title
         id="title64">Group 3857</title>
      <g
         id="g92">
        <title
           id="title66">cake-token</title>
        <g
           id="g72">
          <title
             id="title68">Path 11872</title>
          <path
             d="m 222,0.94531 c 8.83656,0 16,7.16344 16,16 0,8.83656 -7.16344,16 -16,16 -8.83656,0 -16,-7.16344 -16,-16 0,-8.83656 7.16344,-16 16,-16 z"
             fill="#a9a9a9"
             fill-opacity="1"
             id="path70" />
        </g>
        <g
           id="g78">
          <title
             id="title74">Path 11867</title>
          <path
             d="m 221.9527,27.57028 c -3.1139,-0.0024 -5.6222,-0.74957 -7.37477,-2.09167 -1.7736,-1.35823 -2.7145,-3.28567 -2.7145,-5.4666 0,-2.10147 0.93884,-3.6168 2.0011,-4.64107 0.8325,-0.8027 1.75117,-1.3168 2.39083,-1.6125 -0.14463,-0.44393 -0.32513,-1.02513 -0.4866,-1.6254 -0.21603,-0.80327 -0.428,-1.7457 -0.428,-2.4363 0,-0.81743 0.17823,-1.63837 0.65877,-2.27627 0.5077,-0.67393 1.272,-1.03497 2.1915,-1.03497 0.7186,0 1.32873,0.26653 1.80636,0.7264 0.45657,0.43953 0.76043,1.0233 0.97024,1.6318 0.36867,1.06923 0.51223,2.4126 0.5525,3.7532 h 0.88073 c 0.0403,-1.3406 0.1838,-2.68397 0.5525,-3.7532 0.2098,-0.6085 0.51367,-1.19227 0.97024,-1.6318 0.47763,-0.45987 1.08773,-0.7264 1.80636,-0.7264 0.9195,0 1.68381,0.36103 2.1915,1.03497 0.48053,0.6379 0.65876,1.45883 0.65876,2.27627 0,0.6906 -0.21196,1.63303 -0.42804,2.4363 -0.16146,0.60027 -0.34192,1.18147 -0.48659,1.6254 0.6397,0.2957 1.55836,0.8098 2.39083,1.6125 1.06231,1.02427 2.00111,2.5396 2.00111,4.64107 0,2.18093 -0.94087,4.10836 -2.71447,5.4666 -1.75257,1.3421 -4.26087,2.0893 -7.37477,2.09167 z"
             fill="#f2f2f2"
             fill-opacity="1"
             id="path76" />
        </g>
        <g
           id="g84">
          <title
             id="title80">Path 11870</title>
          <path
             d="m 219.53064,18.96105 c 0,1.03657 -0.48494,1.57643 -1.0831,1.57643 -0.5982,0 -1.0831,-0.53986 -1.0831,-1.57643 0,-1.03657 0.4849,-1.57644 1.0831,-1.57644 0.59816,0 1.0831,0.53987 1.0831,1.57644 z"
             fill="#a9a9a9"
             fill-opacity="1"
             id="path82" />
        </g>
        <g
           id="g90">
          <title
             id="title86">Path 11871</title>
          <path
             d="m 226.57073,18.96105 c 0,1.03657 -0.4849,1.57643 -1.0831,1.57643 -0.59817,0 -1.0831,-0.53986 -1.0831,-1.57643 0,-1.03657 0.48493,-1.57644 1.0831,-1.57644 0.5982,0 1.0831,0.53987 1.0831,1.57644 z"
             fill="#a9a9a9"
             fill-opacity="1"
             id="path88" />
        </g>
      </g>
    </g>
  </g>
</svg>
