<?xml version="1.0" encoding="UTF-8" standalone="no"?>
<svg
   id="SVGDoc"
   width="23"
   height="24"
   version="1.1"
   viewBox="0 0 23 24"
   sodipodi:docname="Linkedin.svg"
   inkscape:version="1.1 (c68e22c387, 2021-05-23)"
   xmlns:inkscape="http://www.inkscape.org/namespaces/inkscape"
   xmlns:sodipodi="http://sodipodi.sourceforge.net/DTD/sodipodi-0.dtd"
   xmlns="http://www.w3.org/2000/svg"
   xmlns:svg="http://www.w3.org/2000/svg">
  <sodipodi:namedview
     id="namedview39"
     pagecolor="#ffffff"
     bordercolor="#666666"
     borderopacity="1.0"
     inkscape:pageshadow="2"
     inkscape:pageopacity="0.0"
     inkscape:pagecheckerboard="0"
     showgrid="false"
     inkscape:zoom="36.375"
     inkscape:cx="7.0103093"
     inkscape:cy="12"
     inkscape:window-width="2560"
     inkscape:window-height="1369"
     inkscape:window-x="-8"
     inkscape:window-y="-8"
     inkscape:window-maximized="1"
     inkscape:current-layer="SVGDoc" />
  <defs
     id="defs2" />
  <desc
     id="desc4">Generated with Avocode.</desc>
  <path
     id="path65"
     style="color:#000000;fill:#c3c3c3;stroke-linecap:round;stroke-linejoin:round;stroke-miterlimit:20;-inkscape-stroke:none"
     d="M 3.1191406 0.91601562 C 1.6092425 0.91601562 0.36914063 2.1561175 0.36914062 3.6660156 L 0.36914062 20.066406 C 0.36914062 21.576304 1.6092425 22.816406 3.1191406 22.816406 L 19.519531 22.816406 C 21.029429 22.816406 22.269531 21.576304 22.269531 20.066406 L 22.269531 3.6660156 C 22.269531 2.1561175 21.029429 0.91601563 19.519531 0.91601562 L 3.1191406 0.91601562 z M 3.1191406 2.4160156 L 19.519531 2.4160156 C 20.218771 2.4160156 20.769531 2.966776 20.769531 3.6660156 L 20.769531 20.066406 C 20.769531 20.765646 20.218771 21.316406 19.519531 21.316406 L 3.1191406 21.316406 C 2.419901 21.316406 1.8691406 20.765646 1.8691406 20.066406 L 1.8691406 3.6660156 C 1.8691406 2.966776 2.419901 2.4160156 3.1191406 2.4160156 z M 6.2207031 6.0175781 A 0.75 0.75 0 0 0 5.4707031 6.7675781 L 5.4707031 6.7792969 A 0.75 0.75 0 0 0 6.2207031 7.5292969 A 0.75 0.75 0 0 0 6.9707031 6.7792969 L 6.9707031 6.7675781 A 0.75 0.75 0 0 0 6.2207031 6.0175781 z M 6.2207031 9.8417969 A 0.75 0.75 0 0 0 5.4707031 10.591797 L 5.4707031 16.966797 A 0.75 0.75 0 0 0 6.2207031 17.716797 A 0.75 0.75 0 0 0 6.9707031 16.966797 L 6.9707031 10.591797 A 0.75 0.75 0 0 0 6.2207031 9.8417969 z M 11.320312 9.8417969 A 0.75 0.75 0 0 0 10.570312 10.591797 L 10.570312 13.142578 L 10.570312 16.966797 A 0.75 0.75 0 0 0 11.320312 17.716797 A 0.75 0.75 0 0 0 12.070312 16.966797 L 12.070312 13.142578 C 12.070312 12.139539 12.866102 11.341797 13.869141 11.341797 C 14.872179 11.341797 15.669922 12.139539 15.669922 13.142578 L 15.669922 16.966797 A 0.75 0.75 0 0 0 16.419922 17.716797 A 0.75 0.75 0 0 0 17.169922 16.966797 L 17.169922 13.142578 C 17.169922 11.32888 15.682839 9.8417969 13.869141 9.8417969 C 13.195017 9.8417969 12.566922 10.047146 12.042969 10.398438 A 0.75 0.75 0 0 0 11.320312 9.8417969 z " />
</svg>
