<?xml version="1.0" encoding="UTF-8" standalone="no"?>
<!-- Created with Inkscape (http://www.inkscape.org/) -->

<svg
   width="9.1854944mm"
   height="9.1074533mm"
   viewBox="0 0 9.1854944 9.1074533"
   version="1.1"
   id="svg5"
   inkscape:version="1.1 (c68e22c387, 2021-05-23)"
   sodipodi:docname="profile.svg"
   xmlns:inkscape="http://www.inkscape.org/namespaces/inkscape"
   xmlns:sodipodi="http://sodipodi.sourceforge.net/DTD/sodipodi-0.dtd"
   xmlns="http://www.w3.org/2000/svg"
   xmlns:svg="http://www.w3.org/2000/svg">
  <sodipodi:namedview
     id="namedview7"
     pagecolor="#ffffff"
     bordercolor="#666666"
     borderopacity="1.0"
     inkscape:pageshadow="2"
     inkscape:pageopacity="0.0"
     inkscape:pagecheckerboard="0"
     inkscape:document-units="mm"
     showgrid="false"
     fit-margin-top="0"
     fit-margin-left="0"
     fit-margin-right="0"
     fit-margin-bottom="0"
     inkscape:zoom="6.2217172"
     inkscape:cx="62.844387"
     inkscape:cy="91.373488"
     inkscape:window-width="2560"
     inkscape:window-height="1369"
     inkscape:window-x="-8"
     inkscape:window-y="-8"
     inkscape:window-maximized="1"
     inkscape:current-layer="layer1" />
  <defs
     id="defs2" />
  <g
     inkscape:label="Warstwa 1"
     inkscape:groupmode="layer"
     id="layer1"
     transform="translate(-40.314334,-146.83806)">
    <path
       id="Path_12321"
       style="color:#000000;fill:#f2f2f2;stroke-width:3.77953;-inkscape-stroke:none"
       d="m 155.70703,554.97852 -3.33789,3.33593 v 31.08594 h 30.84961 l 0.19922,-0.13477 3.625,-2.58984 0.043,-31.69726 z m 0.61914,1.49804 h 29.26172 l -0.0449,29.42383 -1.73633,1.24219 -6.69336,-9.37696 h -14.12109 l -7.7461,10.13477 h -1.3789 v -28.9668 z m 13.24414,3.86133 c -3.42798,0 -6.22461,2.7947 -6.22461,6.22266 0,3.42799 2.79663,6.22265 6.22461,6.22265 3.42798,0 6.22266,-2.79466 6.22266,-6.22265 0,-3.42796 -2.79468,-6.22266 -6.22266,-6.22266 z m 0,1.49805 c 2.61733,0 4.72266,2.10728 4.72266,4.72461 0,2.61732 -2.10533,4.72461 -4.72266,4.72461 -2.61732,0 -4.72461,-2.10729 -4.72461,-4.72461 0,-2.61733 2.10729,-4.72461 4.72461,-4.72461 z m -5.83984,17.42773 h 12.61523 l 6.16407,8.63672 h -25.375 z"
       transform="scale(0.26458333)" />
  </g>
</svg>
