<?xml version="1.0" encoding="UTF-8" standalone="no"?>
<svg
   id="SVGDoc"
   width="20"
   height="18"
   version="1.1"
   viewBox="0 0 20 18"
   sodipodi:docname="Path_11859.svg"
   inkscape:version="1.1 (c68e22c387, 2021-05-23)"
   xmlns:inkscape="http://www.inkscape.org/namespaces/inkscape"
   xmlns:sodipodi="http://sodipodi.sourceforge.net/DTD/sodipodi-0.dtd"
   xmlns="http://www.w3.org/2000/svg"
   xmlns:svg="http://www.w3.org/2000/svg">
  <sodipodi:namedview
     id="namedview15"
     pagecolor="#ffffff"
     bordercolor="#666666"
     borderopacity="1.0"
     inkscape:pageshadow="2"
     inkscape:pageopacity="0.0"
     inkscape:pagecheckerboard="0"
     showgrid="false"
     inkscape:zoom="48.5"
     inkscape:cx="6.6185567"
     inkscape:cy="9"
     inkscape:window-width="2560"
     inkscape:window-height="1369"
     inkscape:window-x="-8"
     inkscape:window-y="-8"
     inkscape:window-maximized="1"
     inkscape:current-layer="path8" />
  <defs
     id="defs2" />
  <desc
     id="desc4">Generated with Avocode.</desc>
  <g
     id="g10">
    <title
       id="title6">Path 11859</title>
    <g
       id="path8">
      <path
         style="color:#000000;display:inline;fill:#f2f2f2;stroke-linecap:round;stroke-linejoin:round;stroke-miterlimit:20;-inkscape-stroke:none"
         d="M 19.263672,0.296875 A 0.750075,0.750075 0 0 0 18.728516,0.300781 L 0.72851562,7.3007812 A 0.750075,0.750075 0 0 0 0.6640625,8.6699219 l 3.7226562,1.8613281 1.9023438,5.705078 a 0.750075,0.750075 0 0 0 1.3105469,0.212891 l 2.4804686,-3.306641 4.388672,4.388672 a 0.750075,0.750075 0 0 0 1.259766,-0.349609 l 4,-16.0000004 A 0.750075,0.750075 0 0 0 19.263672,0.296875 Z M 17.919922,2.2246094 14.59375,15.53125 10.0625,11 13.53125,7.53125 a 0.75,0.75 0 0 0 0,-1.0625 0.75,0.75 0 0 0 -1.0625,0 l -4,4 a 0.750075,0.750075 0 0 0 0,1.0625 L 9.0097656,12.072266 7.2578125,14.40625 5.7109375,9.7636719 a 0.750075,0.750075 0 0 0 -0.375,-0.4335938 L 2.8476563,8.0859375 Z"
         id="path116" />
    </g>
  </g>
</svg>
