<?xml version="1.0" encoding="UTF-8" standalone="no"?>
<!-- Created with Inkscape (http://www.inkscape.org/) -->

<svg
   width="16.860838mm"
   height="16.860838mm"
   viewBox="0 0 16.860838 16.860838"
   version="1.1"
   id="svg5"
   inkscape:version="1.1 (c68e22c387, 2021-05-23)"
   sodipodi:docname="TelegramLight.svg"
   xmlns:inkscape="http://www.inkscape.org/namespaces/inkscape"
   xmlns:sodipodi="http://sodipodi.sourceforge.net/DTD/sodipodi-0.dtd"
   xmlns="http://www.w3.org/2000/svg"
   xmlns:svg="http://www.w3.org/2000/svg">
  <sodipodi:namedview
     id="namedview7"
     pagecolor="#ffffff"
     bordercolor="#666666"
     borderopacity="1.0"
     inkscape:pageshadow="2"
     inkscape:pageopacity="0.0"
     inkscape:pagecheckerboard="0"
     inkscape:document-units="mm"
     showgrid="false"
     fit-margin-top="0"
     fit-margin-left="0"
     fit-margin-right="0"
     fit-margin-bottom="0"
     inkscape:zoom="6.2217172"
     inkscape:cx="-14.786915"
     inkscape:cy="31.422193"
     inkscape:window-width="2560"
     inkscape:window-height="1369"
     inkscape:window-x="-8"
     inkscape:window-y="-8"
     inkscape:window-maximized="1"
     inkscape:current-layer="Group_3676" />
  <defs
     id="defs2" />
  <g
     inkscape:label="Warstwa 1"
     inkscape:groupmode="layer"
     id="layer1"
     transform="translate(-18.105664,-40.559272)">
    <g
       id="Group_3678"
       data-name="Group 3678"
       transform="matrix(0.26458333,0,0,0.26458333,18.105664,40.559272)">
      <g
         id="Group_3676"
         data-name="Group 3676">
        <path
           style="color:#000000;fill:#f2f2f2;stroke-linecap:round;stroke-linejoin:round;-inkscape-stroke:none"
           d="m 51.058594,3.296875 a 0.750075,0.750075 0 0 0 -0.535157,0.00391 L 2.7285156,21.888672 a 0.750075,0.750075 0 0 0 -0.064453,1.36914 l 10.3437504,5.173829 5.21289,15.636718 a 0.750075,0.750075 0 0 0 1.310547,0.212891 l 7.449219,-9.929688 12.664062,12.66211 a 0.750075,0.750075 0 0 0 1.257813,-0.347656 L 51.523437,4.1816406 A 0.750075,0.750075 0 0 0 51.058594,3.296875 Z M 49.716797,5.2246094 39.769531,45.017578 25.302734,30.550781 35.392578,20.460937 a 0.75,0.75 0 0 0 0,-1.060546 0.75,0.75 0 0 0 -1.060547,0 L 23.710937,30.021484 a 0.750075,0.750075 0 0 0 0,1.060547 l 2.197266,2.197266 -6.71875,8.957031 -4.857422,-14.574219 a 0.750075,0.750075 0 0 0 -0.375,-0.433593 L 4.8476562,22.671875 Z"
           id="Path_11859-2"
           transform="translate(4.966,6.621)" />
      </g>
    </g>
  </g>
</svg>
