<?xml version="1.0" encoding="UTF-8" standalone="no"?>
<svg
   xmlns:dc="http://purl.org/dc/elements/1.1/"
   xmlns:cc="http://creativecommons.org/ns#"
   xmlns:rdf="http://www.w3.org/1999/02/22-rdf-syntax-ns#"
   xmlns:svg="http://www.w3.org/2000/svg"
   xmlns="http://www.w3.org/2000/svg"
   xmlns:sodipodi="http://sodipodi.sourceforge.net/DTD/sodipodi-0.dtd"
   xmlns:inkscape="http://www.inkscape.org/namespaces/inkscape"
   id="SVGDoc"
   width="22"
   height="19"
   version="1.1"
   viewBox="0 0 22 19"
   inkscape:version="0.91 r13725"
   sodipodi:docname="Twitter.svg">
  <metadata
     id="metadata4151">
    <rdf:RDF>
      <cc:Work
         rdf:about="">
        <dc:format>image/svg+xml</dc:format>
        <dc:type
           rdf:resource="http://purl.org/dc/dcmitype/StillImage" />
      </cc:Work>
    </rdf:RDF>
  </metadata>
  <sodipodi:namedview
     pagecolor="#ffffff"
     bordercolor="#666666"
     borderopacity="1"
     objecttolerance="10"
     gridtolerance="10"
     guidetolerance="10"
     inkscape:pageopacity="0"
     inkscape:pageshadow="2"
     inkscape:window-width="2560"
     inkscape:window-height="1369"
     id="namedview4149"
     showgrid="false"
     inkscape:zoom="31.631579"
     inkscape:cx="12.407138"
     inkscape:cy="5.5922159"
     inkscape:window-x="-8"
     inkscape:window-y="-8"
     inkscape:window-maximized="1"
     inkscape:current-layer="SVGDoc" />
  <defs
     id="defs4137" />
  <desc
     id="desc4139">Generated with Avocode.</desc>
  <g
     id="g4141">
    <g
       id="g4143">
      <title
         id="title4145">Path 11861</title>
      <path
         style="color:#000000;font-style:normal;font-variant:normal;font-weight:normal;font-stretch:normal;font-size:medium;line-height:normal;font-family:sans-serif;text-indent:0;text-align:start;text-decoration:none;text-decoration-line:none;text-decoration-style:solid;text-decoration-color:#000000;letter-spacing:normal;word-spacing:normal;text-transform:none;direction:ltr;block-progression:tb;writing-mode:lr-tb;baseline-shift:baseline;text-anchor:start;white-space:normal;clip-rule:nonzero;display:inline;overflow:visible;visibility:visible;opacity:1;isolation:auto;mix-blend-mode:normal;color-interpolation:sRGB;color-interpolation-filters:linearRGB;solid-color:#000000;solid-opacity:1;fill:#f2f2f2;fill-opacity:1;fill-rule:nonzero;stroke:none;stroke-width:1.5;stroke-linecap:round;stroke-linejoin:round;stroke-miterlimit:20;stroke-dasharray:none;stroke-dashoffset:0;stroke-opacity:1;color-rendering:auto;image-rendering:auto;shape-rendering:auto;text-rendering:auto;enable-background:accumulate"
         d="m 16.117188,1.2089844 c -0.90971,-0.127308 -1.872249,0.01923 -2.759766,0.3515625 C 11.485189,2.2616084 10.222642,4.0150105 10.25,6.0097656 l 0,0.171875 C 7.5566905,6.0353011 5.1938784,4.7757071 3.609375,2.5625 a 0.750075,0.750075 0 0 0 -1.2636719,0.070312 c 0,0 -1.139112,1.9944977 -1.1640625,4.5214844 C 1.1595174,9.3949432 2.2608735,12.061558 5.484375,13.957031 4.0691259,14.754511 2.666748,15.313731 1.0292969,15.25 A 0.750075,0.750075 0 0 0 0.640625,16.658203 c 3.4456073,1.878002 7.2440924,2.55277 10.601563,1.578125 a 0.750075,0.750075 0 0 0 0.002,0 c 3.806133,-1.105692 6.964866,-3.995883 8.162109,-8.2578124 a 0.750075,0.750075 0 0 0 0.002,-0.00391 c 0.339439,-1.2319433 0.49165,-2.5058883 0.5,-3.7832032 2e-6,-5.9e-6 -8e-6,-0.00195 0,-0.00195 3.35e-4,-8.546e-4 0.01009,-0.023684 0.02539,-0.058594 0.03147,-0.071788 0.08772,-0.1898998 0.158203,-0.3300782 C 20.232758,5.5204246 20.431759,5.142303 20.642578,4.7285156 21.02827,3.971494 21.418166,3.1438458 21.636719,2.40625 a 0.750075,0.750075 0 0 0 0.08789,-0.2089844 c 6.2e-4,-0.00248 0.0033,-0.00534 0.0039,-0.00781 l -0.002,0 A 0.750075,0.750075 0 0 0 21.75,2.0097656 0.750075,0.750075 0 0 0 20.669922,1.3359375 C 19.879436,1.7232754 19.037919,1.9137878 18.132812,2.1679688 17.531468,1.655821 16.855351,1.3122857 16.117188,1.2089844 Z M 15.861328,2.65625 c 0.600791,0.074442 1.135091,0.3418523 1.578125,0.8417969 A 0.750075,0.750075 0 0 0 18.212891,3.71875 c 0.454893,-0.1342382 0.965931,-0.3404118 1.445312,-0.4804688 -0.140464,0.3020547 -0.201833,0.5147111 -0.351562,0.8085938 -0.205432,0.4032126 -0.403087,0.7785597 -0.554688,1.0800781 -0.0758,0.1507592 -0.13937,0.2816943 -0.191406,0.4003907 -0.02602,0.059348 -0.05,0.116179 -0.07227,0.1816406 -0.02226,0.065461 -0.05831,0.1105131 -0.05664,0.3183594 0.0065,1.1972059 -0.151074,2.3906217 -0.46875,3.5449218 C 16.902133,13.348337 14.178085,15.822567 10.824219,16.796875 8.7288567,17.405141 6.3647744,17.045483 4.0078125,16.265625 5.2052632,15.884824 6.3407939,15.34124 7.4160156,14.625 A 0.750075,0.750075 0 0 0 7.2988281,13.3125 C 3.4256791,11.623974 2.6610911,9.2511852 2.6816406,7.1699219 2.6930957,6.0097474 2.9665559,5.059887 3.2304688,4.359375 5.220756,6.5447895 7.9658915,7.8281054 11.019531,7.75 A 0.750075,0.750075 0 0 0 11.75,7 l 0,-1 a 0.750075,0.750075 0 0 0 0,-0.00977 C 11.731358,4.6309895 12.561045,3.4597822 13.882812,2.9648438 14.592295,2.6991765 15.260537,2.581808 15.861328,2.65625 Z"
         id="path4147"
         inkscape:connector-curvature="0" />
    </g>
  </g>
</svg>
