<?xml version="1.0" encoding="UTF-8" standalone="no"?>
<!-- Created with Inkscape (http://www.inkscape.org/) -->

<svg
   width="16.860838mm"
   height="16.860838mm"
   viewBox="0 0 16.860838 16.860838"
   version="1.1"
   id="svg5"
   inkscape:version="1.1 (c68e22c387, 2021-05-23)"
   sodipodi:docname="TwitterLight.svg"
   xmlns:inkscape="http://www.inkscape.org/namespaces/inkscape"
   xmlns:sodipodi="http://sodipodi.sourceforge.net/DTD/sodipodi-0.dtd"
   xmlns="http://www.w3.org/2000/svg"
   xmlns:svg="http://www.w3.org/2000/svg">
  <sodipodi:namedview
     id="namedview7"
     pagecolor="#ffffff"
     bordercolor="#666666"
     borderopacity="1.0"
     inkscape:pageshadow="2"
     inkscape:pageopacity="0.0"
     inkscape:pagecheckerboard="0"
     inkscape:document-units="mm"
     showgrid="false"
     fit-margin-top="0"
     fit-margin-left="0"
     fit-margin-right="0"
     fit-margin-bottom="0"
     inkscape:zoom="6.2217172"
     inkscape:cx="-14.786915"
     inkscape:cy="31.422193"
     inkscape:window-width="2560"
     inkscape:window-height="1369"
     inkscape:window-x="-8"
     inkscape:window-y="-8"
     inkscape:window-maximized="1"
     inkscape:current-layer="Group_3678" />
  <defs
     id="defs2" />
  <g
     inkscape:label="Warstwa 1"
     inkscape:groupmode="layer"
     id="layer1"
     transform="translate(-18.105664,-40.559272)">
    <g
       id="Group_3678"
       data-name="Group 3678"
       transform="matrix(0.26458333,0,0,0.26458333,18.105664,40.559272)">
      <path
         style="color:#000000;fill:#000000;stroke-linecap:round;stroke-linejoin:round;-inkscape-stroke:none"
         d="m 41.925781,3.2636719 c -2.155996,-0.2937836 -4.462494,0.070292 -6.667969,0.8945312 -0.0014,4.981e-4 -0.0025,0.00145 -0.0039,0.00195 C 30.760063,5.7533935 27.766711,10.024854 27.80274,14.792966 V 16.62695 C 19.908545,16.643932 12.471789,12.88442 7.9257812,6.3925781 a 0.750075,0.750075 0 0 0 -1.2675781,0.0625 c 0,0 -2.8695851,5.0713039 -2.9316406,11.4121089 -0.059516,6.081334 2.6772973,13.366665 12.6679685,18.216797 -4.522353,2.854484 -9.0093423,4.71474 -14.3652341,4.50586 A 0.750075,0.750075 0 0 0 1.640625,41.998047 c 8.919509,4.860848 18.682943,6.563994 27.205078,4.091797 l 0.0059,-0.002 c 10.174384,-2.86203 18.090763,-10.873608 20.830079,-21.082032 0.911928,-3.310606 1.364587,-6.730194 1.345703,-10.164062 7.3e-5,0.132543 -0.01161,0.10407 0.0059,0.05273 0.01811,-0.05321 0.05321,-0.145043 0.103516,-0.259765 0.100605,-0.229444 0.25768,-0.55069 0.449218,-0.931641 0.383078,-0.761902 0.909588,-1.765557 1.464844,-2.855469 1.110512,-2.1798238 2.331769,-4.6659971 2.78125,-6.4765623 l -0.08594,-0.00977 A 0.750075,0.750075 0 0 0 55.855548,4.193304 V 4.191354 A 0.750075,0.750075 0 0 0 54.558594,3.8847656 l 0.25,-0.3808593 c -2.432739,1.0484504 -4.958933,1.8630039 -7.533203,2.4863281 -1.535829,-1.543626 -3.36144,-2.4556475 -5.34961,-2.7265625 z m -0.255859,1.4492187 c 1.850913,0.241443 3.537158,1.0604479 4.908203,2.6074219 a 0.750075,0.750075 0 0 0 0.732422,0.2324219 c 2.210577,-0.5190473 4.342383,-1.3075371 6.457031,-2.1308594 -0.538573,1.4513854 -1.205172,3.0804609 -2.052734,4.744141 -0.549868,1.079335 -1.077001,2.080247 -1.470703,2.863281 -0.196852,0.391517 -0.35932,0.727609 -0.480469,1.003906 -0.06058,0.138149 -0.109849,0.259763 -0.150391,0.378906 -0.04054,0.119144 -0.0877,0.205993 -0.08594,0.439454 0.01795,3.297084 -0.417036,6.581106 -1.292969,9.759765 a 0.750075,0.750075 0 0 0 0,0.0059 c -2.603293,9.70149 -10.124896,17.311263 -19.794919,20.029256 a 0.750075,0.750075 0 0 0 -0.0059,0.002 c -7.216499,2.095197 -15.476952,0.886586 -23.3437503,-2.75 4.837637,-0.501308 9.1033273,-2.476991 13.2578123,-5.24414 a 0.750075,0.750075 0 0 0 -0.115234,-1.3125 C 7.5897888,30.700803 5.1688681,23.776042 5.2265625,17.880859 5.275129,12.91836 6.9367331,9.3813217 7.5390625,8.1816406 12.568943,14.659194 20.328719,18.46199 28.576172,18.193359 a 0.750075,0.750075 0 0 0 0.726562,-0.75 v -2.65625 a 0.750075,0.750075 0 0 0 0,-0.0039 c -0.03125,-4.135554 2.558541,-7.8305178 6.457032,-9.2109374 a 0.750075,0.750075 0 0 0 0.01172,-0.00586 c 2.030954,-0.7606559 4.047523,-1.094964 5.898436,-0.853521 z"
         id="Path_11861"
         transform="translate(3.311,6.454)" />
    </g>
  </g>
</svg>
