<?xml version="1.0" encoding="UTF-8" standalone="no"?>
<svg
   id="SVGDoc"
   width="20"
   height="16"
   version="1.1"
   viewBox="0 0 20 16"
   sodipodi:docname="YT.svg"
   inkscape:version="1.1 (c68e22c387, 2021-05-23)"
   xmlns:inkscape="http://www.inkscape.org/namespaces/inkscape"
   xmlns:sodipodi="http://sodipodi.sourceforge.net/DTD/sodipodi-0.dtd"
   xmlns="http://www.w3.org/2000/svg"
   xmlns:svg="http://www.w3.org/2000/svg">
  <sodipodi:namedview
     id="namedview21"
     pagecolor="#ffffff"
     bordercolor="#666666"
     borderopacity="1.0"
     inkscape:pageshadow="2"
     inkscape:pageopacity="0.0"
     inkscape:pagecheckerboard="0"
     showgrid="false"
     inkscape:zoom="27.28125"
     inkscape:cx="8.6872852"
     inkscape:cy="7.9725086"
     inkscape:window-width="2560"
     inkscape:window-height="1369"
     inkscape:window-x="-8"
     inkscape:window-y="-8"
     inkscape:window-maximized="1"
     inkscape:current-layer="SVGDoc" />
  <defs
     id="defs2" />
  <desc
     id="desc4">Generated with Avocode.</desc>
  <path
     id="path52"
     style="color:#000000;fill:#f2f2f2;stroke-linecap:round;stroke-linejoin:round;stroke-miterlimit:20;-inkscape-stroke:none"
     d="M 5 0.25 C 2.3855329 0.25 0.25 2.3855329 0.25 5 L 0.25 11 C 0.25 13.614467 2.3855329 15.75 5 15.75 L 15 15.75 C 17.614467 15.75 19.75 13.614467 19.75 11 L 19.75 5 C 19.75 2.3855329 17.614467 0.25 15 0.25 L 5 0.25 z M 5 1.75 L 15 1.75 C 16.803809 1.75 18.25 3.1961915 18.25 5 L 18.25 11 C 18.25 12.803809 16.803809 14.25 15 14.25 L 5 14.25 C 3.1961915 14.25 1.75 12.803809 1.75 11 L 1.75 5 C 1.75 3.1961915 3.1961915 1.75 5 1.75 z M 8.0097656 4.25 A 0.750075 0.750075 0 0 0 7.6308594 4.3476562 A 0.750075 0.750075 0 0 0 7.25 5 L 7.25 11 A 0.750075 0.750075 0 0 0 8.3867188 11.642578 L 13.386719 8.6425781 A 0.750075 0.750075 0 0 0 13.386719 7.3574219 L 8.3867188 4.3574219 A 0.750075 0.750075 0 0 0 8.0097656 4.25 z M 8.75 6.3242188 L 11.542969 8 L 8.75 9.6757812 L 8.75 6.3242188 z " />
</svg>
