<?xml version="1.0" encoding="UTF-8"?>
<svg id="SVGDoc" width="260" height="75" xmlns="http://www.w3.org/2000/svg" version="1.1"
     xmlns:xlink="http://www.w3.org/1999/xlink" xmlns:avocode="https://avocode.com/" viewBox="0 0 260 75">
    <defs></defs>
    <desc>Generated with Avocode.</desc>
    <g>
        <g>
            <title>Group 3804</title>
            <g>
                <title>svgg</title>
                <g>
                    <title>path0</title>
                    <path d="M135.14235,31.3877c0.23109,0.07703 0.53922,0.15407 0.69328,0.15407c0.4622,0.07703 1.46362,1.00142 2.15691,2.00285c1.30956,1.84878 3.23537,2.23395 4.85306,1.00142l0.38516,-0.30813v8.16546l-0.38516,-0.30813c-1.61769,-1.23252 -3.69756,-0.61626 -5.08415,1.46362c-0.38516,0.53923 -1.61769,1.84878 -1.77175,1.84878c0,0 -0.30813,0.07703 -0.53923,0.2311c-2.38801,0.92439 -5.54634,-0.15407 -6.54777,-2.38801c-1.30955,-2.77317 -1.30955,-6.31667 0.15407,-9.24391c1.00142,-2.15691 3.62053,-3.23537 6.08558,-2.61911zM51.17684,31.31066c1.61768,0.2311 2.23394,0.69329 3.5435,2.46504c1.07846,1.54065 2.46504,1.92581 4.0057,1.30956l0.4622,-0.2311l-0.07704,0.61626c-0.30813,1.69472 -0.38516,3.92866 -0.15406,5.70041l0.07703,0.69329l-0.4622,-0.15407c-1.46362,-0.53923 -2.77317,0.07703 -4.00569,1.61768c-1.54065,2.07988 -2.46504,2.61911 -4.46789,2.61911c-3.0813,0 -5.08415,-2.00285 -5.46931,-5.39228c-0.2311,-1.77175 0.07703,-4.69899 0.53923,-5.77744c1.15549,-2.54207 3.38943,-3.85163 6.00854,-3.46646zM72.90002,31.07956c2.69614,0.61626 4.23679,3.15834 4.39086,7.00996c0.23109,4.93008 -2.07988,8.16545 -5.70041,8.24248c-4.39086,0 -6.6248,-4.69899 -5.23821,-11.16972c0.53923,-2.8502 3.62053,-4.77602 6.54777,-4.08273zM195.61291,38.55172c0,4.85305 -2.15692,7.70326 -5.70041,7.70326c-4.00569,0 -6.23964,-3.92866 -5.54634,-9.55204c0.53923,-4.08273 3.31241,-6.47073 6.70183,-5.70041c2.92725,0.61626 4.54492,3.3124 4.54492,7.54919zM169.807,30.77143c2.07988,0.61626 4.2368,3.0813 4.2368,4.93009c0,0.07703 -1.15549,0.07703 -5.85449,0.07703c-3.23535,0 -5.85448,0 -5.85448,-0.07703c0,-0.15407 0.53923,-1.54065 0.77032,-2.07988c1.15549,-2.31098 4.08273,-3.5435 6.70184,-2.8502zM177.3562,41.01677c0.07703,0.53923 0.15405,1.15549 0.15405,1.30955c0.15407,0.46219 0.15407,0.53923 -0.07703,0.46219c-0.15407,-0.07703 -0.53923,-0.07703 -1.1555,-0.07703c-1.07845,0 -1.30954,0.07703 -2.23393,0.84736c-1.23253,1.00142 -2.46504,1.92581 -2.69614,1.92581c-0.07704,0 -0.38516,0.07703 -0.84737,0.2311c-1.00143,0.30813 -2.92725,0.30813 -4.00569,0.07703c-2.46504,-0.69329 -4.08273,-2.61911 -4.31383,-5.16118l-0.07704,-0.61626v0h7.54919v0h7.54919v0l0.15408,1.00143v0M166.80273,25.68728c-2.69614,0.2311 -5.31524,1.15549 -7.00997,2.54208c-0.38516,0.30813 -0.77032,0.61626 -0.77032,0.61626v0c0,0 -0.07703,-0.30813 -0.07703,-0.53923c-0.38516,-2.31098 -4.00569,-3.38943 -6.39371,-1.84878c-1.07845,0.69329 -1.92581,1.92581 -2.69614,3.69756l-0.30813,0.77033v0v-1.46362v0v-1.46362v0l-0.30813,-0.61626c-0.53922,-1.15549 -1.46362,-1.61768 -2.8502,-1.61768c-2.00285,0 -3.00427,1.00142 -3.15834,3.0813l-0.07704,1.00142v0l-0.15406,-0.30813c-0.69329,-1.07846 -3.00426,-2.61911 -4.77602,-3.15834c-1.92582,-0.61626 -5.23822,-0.84736 -7.00996,-0.4622c-0.38516,0.07703 -0.92439,0.15407 -1.23252,0.2311c-2.46504,0.38516 -5.39228,2.38801 -6.8559,4.62195c-0.23109,0.38516 -0.53922,0.84736 -0.61626,1.00142c-0.15407,0.2311 -0.38516,0.77033 -0.6933,1.54065c-0.07703,0.15407 -0.07703,0 -0.15406,-0.30813c-0.4622,-4.31382 -2.69614,-6.54777 -7.087,-7.087c-0.84735,-0.15407 -2.8502,-0.07703 -3.62053,0.15407c-0.30813,0.07703 -0.77032,0.15407 -0.92439,0.2311c-0.84736,0.15407 -2.61911,1.23252 -3.38943,1.92581c-0.4622,0.4622 -1.15549,1.15549 -1.38659,1.54065l-0.23109,0.07703v0l-0.15406,-0.30813c-2.23395,-5.08415 -10.78456,-5.08415 -14.48213,0l-0.15406,0.2311v0v-0.4622c0,-2.85021 -2.23394,-4.39086 -4.77602,-3.3124c-1.54065,0.61626 -1.92581,1.61768 -1.92581,5.16118v2.07988v0l-0.30813,-0.61626c-1.54065,-3.23537 -4.39086,-5.70041 -7.47216,-6.39371c-3.15834,-0.69329 -6.54777,-0.61626 -8.85875,0.2311c-0.77032,0.2311 -2.77317,1.30955 -3.0813,1.54065c-0.07703,0.07703 -0.46219,0.38516 -0.77032,0.61626c-0.30813,0.2311 -0.69329,0.61626 -0.84736,0.84736c-0.15407,0.15407 -0.46219,0.61626 -0.77033,0.92439c-0.2311,0.30813 -0.53923,0.69329 -0.61626,0.84736l-0.15407,0.30813v0l-0.15407,-0.4622c-1.46362,-4.46789 -9.7061,-6.8559 -15.40651,-4.46789c-1.61768,0.69329 -4.23679,2.46504 -4.23679,2.85021c0,0 -0.2311,0.30813 -0.53923,0.69329c-0.92439,1.07846 -2.07988,3.62053 -2.31098,5.23822c-0.07703,0.30813 -0.15407,0.77032 -0.15407,1.00142c-0.30813,1.54065 0,6.00854 0.4622,7.47216c1.61768,4.85305 5.39228,7.47216 11.32379,7.70325c1.46362,0.07703 3.00427,-0.07703 4.08273,-0.38516c0.30813,-0.07703 0.69329,-0.15406 0.84736,-0.23109c2.07988,-0.38516 4.85305,-2.61911 5.77744,-4.69899l0.2311,-0.46219v0l0.2311,0.46219c1.23252,2.38801 4.00569,4.23679 7.087,4.85305c1.54065,0.30813 2.00285,0.38516 3.85163,0.38516c1.77175,0 2.31098,-0.07703 3.85163,-0.38516c2.69614,-0.53923 5.23822,-2.15691 6.3937,-3.92866c0.15406,-0.2311 0.30813,-0.46219 0.38516,-0.53923c0.2311,-0.2311 0.84736,-1.46362 1.07846,-2.00285l0.15407,-0.46219v0v2.00285c0,2.15691 0.07703,2.8502 0.38516,3.46646c1.07845,2.38801 5.31525,2.38801 6.47073,0l0.2311,-0.46219v0l0.07703,-6.8559c0.07703,-6.8559 0.07703,-6.8559 0.2311,-7.39513c1.38659,-4.08273 6.6248,-4.93008 8.01139,-1.30955l0.30813,0.69329v0l0.07703,7.31809v0l0.07703,7.3181v0l0.15406,0.46219c1.00143,2.54208 5.46931,2.69614 6.54777,0.2311c0.30813,-0.77033 0.38516,-1.15549 0.38516,-7.85732v-6.3937v0l0.2311,-0.69329c0.77032,-2.23394 2.31097,-3.38943 4.54492,-3.38943c1.61768,0 2.61911,0.53923 3.23537,1.92582c0.4622,1.07845 0.4622,0.84736 0.53922,8.70468l0.07703,7.24106v0l0.15406,0.38516c0.4622,0.92439 1.15549,1.46362 2.23395,1.69471c1.69472,0.30814 3.3124,-0.23109 4.00569,-1.30955c0.4622,-0.77033 0.53922,-1.15549 0.53922,-3.5435c0,-1.84878 0,-2.07988 0.07703,-1.84878c0.2311,0.53923 0.77032,1.61768 1.15549,2.07988c0.2311,0.2311 0.4622,0.61626 0.61626,0.77033c2.54208,3.38944 8.62765,4.77602 14.4051,3.23537c1.69471,-0.4622 4.00569,-2.07988 4.93008,-3.46646l0.30813,-0.38516v0v1.23252c0.07703,1.69472 0.38516,2.38801 1.46361,2.92724c1.69472,0.84736 4.00569,0.4622 4.93008,-0.84736c0.61626,-0.84735 0.61626,-0.92439 0.61626,-6.31667c0,-7.31809 0.15406,-8.39655 1.30955,-10.09127c0.69329,-1.00142 1.23253,-1.15549 3.38943,-1.23252c0.77033,0 1.46362,-0.07703 1.46362,-0.07703v0c0,0 -0.15406,0.4622 -0.38516,1.07846c-2.23394,6.70183 0,13.4807 5.23822,16.17684c1.00143,0.4622 2.15691,1.00143 2.6191,1.07846c0.15407,0 0.53923,0.07703 0.77032,0.15406c1.46361,0.30814 4.31383,0.4622 5.62338,0.30814c2.61909,-0.38516 4.08273,-0.84736 5.9315,-1.77175c0.77032,-0.38516 2.23393,-1.61768 2.38802,-2.07988c0.38516,-0.92439 0.4622,-1.00142 0.53923,-0.92439c1.15549,1.92581 4.23679,4.0057 6.31667,4.39086c0.23109,0.07703 0.84737,0.15406 1.30956,0.23109c1.46361,0.30813 4.85304,0.30813 6.6248,-0.07703c2.69614,-0.53922 4.62195,-1.54065 6.1626,-3.3124c0.30814,-0.30813 0.38516,-0.46219 1.00143,-1.38659c2.07988,-3.00427 2.69614,-8.70468 1.38658,-12.47928c-0.61626,-1.84878 -1.00142,-2.54207 -1.92581,-3.85163c-2.61909,-3.62053 -7.93436,-5.23822 -13.40366,-4.15976c-3.08131,0.61626 -5.54634,2.15691 -7.39514,4.77602l-0.23109,0.38516v0l-0.30812,-0.4622c-2.54205,-3.23537 -7.24106,-5.23822 -12.24817,-4.77602"
                          fill="#fcfcfc" fill-opacity="1"></path>
                </g>
                <g>
                    <title>path1</title>
                    <path d="M207.47593,45.48466c-0.53922,0.07703 -1.61768,0.84736 -1.61768,1.15549c0,0 -0.07706,0.15407 -0.15408,0.2311c-1.0014,1.15549 -1.07843,3.15833 -0.15405,4.08273c0.15405,0.15406 0.30814,0.30813 0.38516,0.38516c0.15405,0.2311 0.84738,0.69329 1.61771,1.07846c0.38516,0.15406 0.92438,0.46219 1.15549,0.61626c0.23108,0.15406 0.69327,0.38516 1.0014,0.53923c0.30814,0.15407 0.92441,0.53923 1.46362,0.84736c0.46219,0.30813 1.15549,0.69329 1.46362,0.84736c0.30811,0.15406 0.77032,0.38516 1.0014,0.53923c0.23111,0.15406 0.77032,0.4622 1.15552,0.61626c0.38516,0.2311 1.0014,0.53923 1.23251,0.77032c0.30814,0.15407 0.6933,0.4622 0.92438,0.53923c0.23111,0.07703 0.6933,0.38516 1.15549,0.53923c0.6933,0.38516 2.15692,0.53923 2.46506,0.30813c0.07703,-0.07703 0.23108,-0.15406 0.46219,-0.2311c0.92438,-0.30813 1.92581,-1.69472 2.0799,-2.8502c0.23108,-1.46362 -0.38516,-2.61911 -1.61771,-3.38943c-0.23111,-0.15406 -0.84735,-0.46219 -1.23251,-0.77032c-0.38516,-0.2311 -0.92441,-0.53923 -1.07846,-0.61626c-0.23111,-0.07703 -0.61627,-0.30813 -0.92438,-0.53923c-0.30814,-0.15406 -0.92441,-0.53923 -1.3866,-0.77032c-0.46219,-0.2311 -0.92438,-0.53923 -1.07846,-0.61626c-0.15405,-0.07703 -0.61624,-0.38516 -1.15549,-0.69329c-0.46219,-0.2311 -1.07846,-0.61626 -1.3866,-0.84736c-0.30811,-0.2311 -0.77032,-0.46219 -1.0014,-0.61626c-0.23111,-0.15407 -0.92441,-0.46219 -1.46362,-0.84736c-1.30954,-0.38516 -2.07986,-0.53923 -3.31241,-0.30813M217.25907,18.83139c-0.61627,0.30813 -1.23251,0.69329 -1.3866,0.77033c-0.38516,0.2311 -2.54208,1.46362 -3.62051,2.07988c-0.46222,0.2311 -1.23254,0.69329 -1.69473,1.00142c-0.46219,0.30813 -0.92438,0.53923 -1.0014,0.61626c-0.15408,0.07703 -0.46222,0.2311 -0.77032,0.4622c-0.30814,0.2311 -1.00143,0.61626 -1.61771,0.92439c-2.69614,1.46362 -3.31241,3.46646 -1.6947,5.62338c0.84735,1.07846 1.30954,1.38659 2.61911,1.38659c1.15549,0 1.30954,-0.07703 2.15689,-0.53923c0.38516,-0.2311 1.07846,-0.69329 1.54065,-0.92439c0.46222,-0.2311 1.00143,-0.53923 1.15549,-0.69329c0.15408,-0.15407 0.77032,-0.4622 1.30957,-0.77033c0.53922,-0.30813 1.23251,-0.69329 1.54065,-0.92439c0.30811,-0.2311 0.61627,-0.38516 0.61627,-0.38516c0.07703,0 0.53922,-0.30813 1.15549,-0.61626c0.61624,-0.38516 1.30954,-0.77033 1.54065,-0.84736c0.23108,-0.15407 0.69327,-0.38516 1.0014,-0.61626c0.30814,-0.2311 0.77032,-0.4622 1.00143,-0.61626c3.00427,-1.54065 1.54065,-6.47074 -1.92581,-6.47074h-0.84735v0l-1.07846,0.53923v0"
                          fill="#6c0dd2" fill-opacity="1"></path>
                </g>
                <g>
                    <title>path2</title>
                    <path d="M210.55723,35.16229c-3.0813,0.77033 -3.5435,5.16118 -0.69328,6.54777l0.69328,0.30813v0h6.93294c7.54919,0 7.70325,0 8.39655,-0.38516c0.23109,-0.15406 0.38516,-0.2311 0.4622,-0.2311c0.23109,0 0.84735,-0.77033 1.00142,-1.23252c0.4622,-1.15549 0.23109,-3.15834 -0.38516,-4.00569c-0.23109,-0.30813 -1.07845,-0.84736 -1.54065,-1.00142c-0.53923,-0.15407 -14.25102,-0.2311 -14.86729,0"
                          fill="#ff7a3a" fill-opacity="1"></path>
                </g>
                <g>
                    <title>path3</title>
                </g>
                <g>
                    <title>path4</title>
                </g>
            </g>
            <g>
                <title>Rectangle 2533</title>
            </g>
        </g>
    </g>
</svg>