<?xml version="1.0" encoding="utf-8"?>
<!-- Generator: Adobe Illustrator 26.0.1, SVG Export Plug-In . SVG Version: 6.00 Build 0)  -->
<svg version="1.1" id="Warstwa_1" xmlns="http://www.w3.org/2000/svg" xmlns:xlink="http://www.w3.org/1999/xlink" x="0px" y="0px"
	 viewBox="0 0 260 74" style="enable-background:new 0 0 260 74;" width="260" height="74" xml:space="preserve">
<style type="text/css">
	.st0{opacity:0.9;fill-rule:evenodd;clip-rule:evenodd;fill:#EDEDED;enable-background:new    ;}
	.st1{fill:none;}
	.st2{fill-rule:evenodd;clip-rule:evenodd;fill:#FFC801;}
</style>
<path id="kryptoekipa_horizontal" class="st0" d="M54.7,13.8c-0.7,0.4-1.1,1.2-1.2,2c0,0.5-0.1,0.6-0.4,0.5c-0.4-0.1-0.4,0-0.4,1.5
	v1.5l-2,3l-2.1,3l-0.9,0.1c-0.5,0.1-1,0.2-1.5,0.4c-0.5,0.3-0.5,0.3-2.3-0.4c-1.7-0.7-1.8-0.9-2.1-1.5c-0.3-1.1-1.4-1.9-2.6-2
	c-1.4,0.2-2.5,1.3-2.7,2.6c0,0.3-0.1,0.5-0.3,0.5c-0.3,0-0.3,0.2-0.3,0.9c0,0.9,0,0.9-2.1,2.9l-2,2.1l-1.1-0.1
	c-0.7-0.2-1.4,0.1-1.8,0.6c-0.4,0.3-0.7,0.7-0.9,1.1c-0.1,0.3-0.3,0.4-0.4,0.4c-0.3,0-0.3,0.9-0.3,5.9v5.9L26.9,44
	c-1.3-2.5-2.3-5.2-2.7-8c-0.4-3-0.4-6.1,0.1-9.1c0.4-1.8,0.9-3.5,1.5-5.1c0.1-0.2,0.2-0.4,0.3-0.7c-0.3-0.3-1.8,2.5-2.7,5.4
	c-1.1,2.9-1.5,6-1.3,9.1c0,1.5,0.2,3,0.4,4.4c1.1,5,3.5,9.5,7.2,13.1c3.2,3.4,7.4,5.7,11.9,6.8c0.5,0.1,1,0.3,1.5,0.4
	c0.7,0.2,0.3-0.3-0.5-0.7c-0.9-0.6-1.8-1.3-2.6-2.1c-1-0.9-1.8-2-2.4-3.2c-1-1.8-1.5-3.9-1.4-6c-0.1-4.2,1.9-8.2,5.3-10.6l0.8-0.6
	v-10l0.4,0.2c0.6,0.2,1.2,0.5,1.7,0.9c-0.2,0-0.3,0.9-0.3,4c0,2.2,0.1,4,0.1,4s0.7-0.2,1.5-0.3c1.1-0.3,2.2-0.4,3.2-0.4l2-0.1v-3.6
	c0-3.5,0-3.5-0.4-3.6C50.1,28.2,50,28,50,27.6c-0.1-0.5,0.1-0.9,0.9-2.1c0.5-0.8,1.2-1.7,1.4-2l0.3-0.5l-0.1,6.4l-0.1,6.4l0.5,0.2
	c1.8,0.6,3.4,1.6,4.8,2.8c0.4,0.4,0.9,0.8,1.4,1.2c0.1,0,0.2-4.9,0.2-10.9l0.1-10.9l1.1,0.5c0.6,0.3,1,0.5,0.9,0.5
	s-0.3,2.5-0.2,12.2c0.1,12.1,0.1,12.1,0.4,13.3c0.5,2.2,0.6,4.5,0.2,6.7c-0.5,1.5-1.1,2.9-1.9,4.3c-0.8,1-1.7,2-2.6,2.8
	c-0.2,0.2-0.3,0.3-0.3,0.4c0.3,0.3,4.6-2.1,6.3-3.4c1.7-1.2,3.2-2.7,4.5-4.3c6.7-7.9,8-19,3.3-28.3c-1-2-1.8-2.8-0.9-1.1
	c1.2,3.1,1.9,6.3,2,9.7c0,4.5-1.2,8.8-3.3,12.7L68,46.1l-0.1-13.4c-0.1-10.7-0.1-13.4-0.3-13.4c-0.2,0-0.4-0.3-0.6-0.8
	c-0.5-1.3-2-1.9-3.3-1.4c-0.1,0.1-0.2,0.1-0.4,0.2l-0.8,0.3l-2-1c-1.3-0.7-2-1.2-2-1.4c0-0.4-0.7-1.2-1.3-1.5
	C56.5,13.3,55.5,13.3,54.7,13.8 M34.3,30.8c-0.9,1-1.3,1.5-1.2,1.7c0.1,0.3,0.2,0.4,0.4,0.4c0.3,0,0.3,0.3,0.3,9.6v9.6l0.9,0.6
	l0.9,0.6l0.1-6V35.4l-0.1-6L34.3,30.8 M46.6,36.3c-4.3,1-7.8,4.2-9.1,8.4c-0.4,1.2-0.6,2.4-0.5,3.7c-0.1,1.2,0.1,2.4,0.4,3.6
	c1.3,3.8,4.3,6.8,8.1,8.1c1.2,0.4,2.4,0.6,3.7,0.5c1.2,0.1,2.5-0.1,3.7-0.5c3.9-1.3,7-4.4,8.2-8.4c0.6-2.3,0.6-4.7-0.1-7
	C59,38.7,52.8,35.1,46.6,36.3 M46,38.9c-3.2,1.1-5.6,3.6-6.5,6.8c-0.3,1.7-0.3,3.5,0,5.2c0.9,3.5,3.6,6.2,7,7.2
	c0.9,0.2,1.8,0.3,2.6,0.3c2.7,0.1,5.4-1,7.2-3.1c3.6-3.8,3.7-9.8,0.2-13.7c-1.9-2.1-4.6-3.3-7.4-3.2C48.1,38.4,47,38.6,46,38.9
	 M46.3,41.5v1l-1.5-0.1h-1.5l-0.1,0.9l-0.1,0.9h1.7l-0.1,4.3l-0.1,4.3H44l-0.8,0.1v1.6h3.1v2.1h1.9l-0.1-1l-0.1-1h1.4v2.1h1.9
	l-0.1-1l-0.1-1l0.9-0.1c1.1-0.1,2.1-0.7,2.7-1.6c0.4-1,0.4-2.2-0.1-3.2c-0.4-0.7-1.2-1.2-2-1.3c-0.3,0-0.2-0.1,0.3-0.4
	c0.9-0.5,1.5-1.5,1.5-2.6c0-1.5-0.9-2.4-2.6-2.7L51,42.5l0.1-1l0.1-1h-1.8v2.1l-0.7-0.1H48l0.1-2h-1.9L46.3,41.5 M48.1,45.7v1.7
	l1.2-0.1c0.5-0.1,1-0.2,1.5-0.3c0.7-0.7,0.7-1.8,0-2.6c0,0-0.1-0.1-0.1-0.1c-0.5-0.2-1-0.3-1.5-0.3h-1.1V45.7 M48.1,50.9v1.8h1.1
	c1.3,0,2.2-0.3,2.5-0.8c0.2-0.7,0.2-1.5,0-2.2c-0.3-0.4-1.1-0.8-2.5-0.8h-1.1V50.9 M83.6,38.5v14.4h4.5l0.2-5l0.2-5l2,5l2,5h4.8
	l-6-14.7l2.6-6.3c1-2.3,1.8-4.7,2.6-7.1c0-0.5-0.6-0.8-2.2-0.8h-2.2l-3.4,9.4l-0.2-4.7L88.2,24h-4.5L83.6,38.5 M98.3,38.5v14.4h4.5
	V28.6h4.3v8.1h-1.9c-1.8,0-1.9,0.1-1.9,1.6c0.5,2.8,1.2,5.5,2.1,8.1l2.1,6.5h4.8l-2.1-6.3c-2.1-6.1-2.1-6.3-1.1-6.3
	c2.1,0,2.3-0.9,2.3-8.2c0-6.3-0.1-7-1-7.5c-2.2-0.4-4.4-0.6-6.6-0.5h-5.6L98.3,38.5 M112.7,24.8c0.2,0.4,1.5,4.7,2.8,9.5
	c2.3,7.9,2.6,9.2,2.6,13.7v5h4.5v-5.7c0-5.4,0.2-6.2,2.6-14.1c1.4-4.6,2.6-8.5,2.6-8.7s-1.1-0.3-2.4-0.2l-2.4,0.2l-1.3,5.6
	c-1.5,6.3-1.3,6.4-3.2-2l-0.9-3.8h-2.6C112.9,24,112.4,24.1,112.7,24.8 M129,24.4c-0.2,0.2-0.3,6.7-0.3,14.4v14.1h4.5V42.7h3.8
	c5.4,0,5.4,0.1,5.4-9.1c0-9.8,0.2-9.6-7.5-9.6C131.8,24,129.2,24.1,129,24.4 M143.4,26.2v2.3h4.3l-0.1,12.1l-0.2,12.1h4.6V28.6h4.5
	V24h-13.2L143.4,26.2 M158.6,25c-0.9,0.9-1,1.7-1,13.4c0,7.6,0.2,12.8,0.5,13.4c0.5,0.9,1.1,1,6.6,1c6.1,0,6.1,0,6.6-1.3
	c0.3-0.7,0.5-6.8,0.5-13.4c0-15,0.4-14.2-7.1-14.2C160.3,24,159.5,24.1,158.6,25 M133.3,33.6v5h4.5V28.6h-4.5V33.6 M162.1,38.7v10.2
	h5V28.6h-5V38.7"/>
<rect id="Rectangle_2535" class="st1" width="260" height="74"/>
<polyline class="st2" points="173.3,38.5 173.3,52.9 184.9,52.9 184.9,48.8 177.8,48.8 177.8,40.7 183.9,40.7 183.9,36.2 
	177.8,36.2 177.8,28.6 184.4,28.6 184.4,24 173.3,24 173.3,38.5 "/>
<path class="st2" d="M186.5,38.5v14.4h4.5V42.5l2.1,5.2l2.1,5.2h2.5c0.8,0.1,1.7,0,2.5-0.2c0-0.1-1.4-3.4-3-7.4l-3-7.3l2.7-6.8
	c1.5-3.8,2.7-6.9,2.7-7.1c-0.8-0.3-1.6-0.4-2.5-0.3c-1.9,0-2.6,0.2-2.7,0.9c-0.2,0.5-0.9,2.8-1.8,5.2l-1.5,4.3V23.9h-4.5L186.5,38.5
	"/>
<polyline class="st2" points="201.2,38.5 201.2,52.9 205.7,52.9 205.7,24 201.2,24 201.2,38.5 "/>
<path class="st2" d="M213.3,24h-5.6v14.4h0.1v14.4h4.5V42.7h3.7c2.2,0,3.9-0.3,4.3-0.6c0.4-0.4,0.6-3.1,0.6-8.5
	C220.8,23.6,221.2,24,213.3,24z M216.4,38.6h-4.1v-5v0v-5h4.1V38.6z"/>
<path class="st2" d="M233.1,37.9L230.7,24h-4.6l-2.4,13.8v0c-1.4,7.6-2.6,14.1-2.7,14.4c-0.2,0.4,0.4,0.6,2.1,0.6
	c2.6,0,2.9-0.4,2.9-3.3c0-1.7,0-1.7,2.2-1.7c2.4,0,2.6,0.2,2.9,3.6c0.2,1.1,0.4,1.3,2.3,1.5c1.5,0.1,2.1-0.1,2.1-0.5
	C235.5,52,234.4,45.5,233.1,37.9z M228.4,43.3c-1.5,0-1.6-0.1-1.3-1.6c0.3-1.5,0.5-3.1,0.7-4.6h0c0.3-3.5,0.9-2.9,1.4,1.5
	c0.1,1.3,0.3,2.6,0.6,3.9C230,43.1,229.7,43.3,228.4,43.3z"/>
</svg>
