<?xml version="1.0" encoding="UTF-8"?>
<!DOCTYPE svg PUBLIC "-//W3C//DTD SVG 1.1//EN" "http://www.w3.org/Graphics/SVG/1.1/DTD/svg11.dtd">
<!-- Creator: CorelDRAW X8 -->
<svg xmlns="http://www.w3.org/2000/svg" xml:space="preserve" width="0.866665in" height="0.408441in" version="1.1" style="shape-rendering:geometricPrecision; text-rendering:geometricPrecision; image-rendering:optimizeQuality; fill-rule:evenodd; clip-rule:evenodd"
viewBox="0 0 867 408"
 xmlns:xlink="http://www.w3.org/1999/xlink">
 <defs>
  <style type="text/css">
   <![CDATA[
    .fil0 {fill:#D600A2}
    .fil1 {fill:white}
   ]]>
  </style>
 </defs>
 <g id="Layer_x0020_1">
  <metadata id="CorelCorpID_0Corel-Layer"/>
  <g id="_1937658621936">
   <g>
    <g>
     <g>
      <path class="fil0" d="M233 337l-66 66c-4,4 -8,5 -13,5 -4,0 -9,-1 -12,-5l-67 -66c-7,-7 -7,-18 0,-25l12 -12 0 -78 9 -9 0 92 -1 0 -13 13c-3,3 -3,8 0,12l67 66c3,3 8,3 11,0l67 -66c2,-3 2,-8 0,-12l-15 -14 0 -92 10 10 0 77 11 12c7,7 7,19 0,26z"/>
     </g>
    </g>
    <g>
     <g>
      <path class="fil0" d="M268 118c-4,0 -9,-2 -12,-5l-49 -49c-2,-1 -3,-2 -6,-2l-94 0c-2,0 -4,1 -6,2l-48 49c-7,7 -18,7 -25,0l-23 -23c-7,-7 -7,-18 0,-25l61 -60c7,-7 18,-7 25,0l7 8c2,2 4,2 6,2l101 0c2,0 4,0 5,-2l8 -8c7,-7 18,-7 25,0l60 60c7,7 7,18 0,25l-23 23c-3,3 -8,5 -12,5zm-161 -65l94 0c5,0 9,1 13,5l48 48c3,3 8,3 12,0l23 -23c2,-2 2,-7 0,-11l-61 -60c-3,-3 -8,-3 -12,0l-7 8c-4,3 -8,5 -13,5l-100 0c-5,0 -9,-2 -13,-5l-7 -8c-3,-3 -8,-3 -11,0l-61 60c-3,3 -3,8 0,11l23 23c2,3 8,3 11,0l49 -48c3,-4 7,-5 12,-5z"/>
     </g>
    </g>
    <g>
     <polygon class="fil0" points="374,295 374,302 374,354 374,361 365,361 365,354 365,302 365,295 "/>
     <path class="fil0" d="M383 355l0 -53 0 -7 9 0 12 35c1,3 2,6 3,8l0 0c0,-2 0,-6 0,-8l0 -28 0 -7 8 0 0 7 0 53 0 6 -8 0 -13 -37c-1,-3 -2,-6 -3,-8l0 0c0,2 0,6 0,9l0 30 0 6 -8 0 0 -6z"/>
     <path class="fil0" d="M428 359c-3,-3 -5,-7 -5,-19l0 -23c0,-12 2,-17 5,-19 2,-3 6,-4 10,-4 5,0 8,1 10,4 4,2 5,7 5,18l0 0 -9 0 0 0c0,-8 0,-13 -6,-13 -6,0 -6,5 -6,13l0 26c0,7 0,13 6,13 6,0 6,-6 6,-15l0 0 9 0 0 0c0,12 -1,16 -5,20 -2,2 -5,3 -10,3 -4,0 -8,-2 -10,-4z"/>
     <path class="fil0" d="M490 295l0 7 0 44c0,10 -6,16 -15,16 -9,0 -15,-6 -15,-16l0 -44 0 -7 9 0 0 7 0 43c0,6 2,9 7,9 3,0 6,-3 6,-9l0 -43 0 -7 8 0 0 0z"/>
     <path class="fil0" d="M499 361l0 -6 0 -53 0 -7 12 0c11,0 17,7 17,17l0 0c0,7 -3,12 -8,14l0 1c5,2 9,8 9,15l0 0c0,13 -6,19 -18,19l-12 0 0 0zm8 -38l3 0c5,0 8,-5 8,-11l0 0c0,-5 -3,-9 -8,-9l-3 0 0 20zm4 31c6,0 9,-5 9,-12l0 0c0,-7 -3,-11 -9,-11l-4 0 0 23 4 0z"/>
     <path class="fil0" d="M542 361l-9 0 10 -66 12 0 11 66 -9 0 -3 -15 -11 0 -1 15zm3 -23l9 0 -3 -22c-1,-3 -1,-7 -2,-9l0 0c0,2 -1,6 -1,9l-3 22z"/>
     <polygon class="fil0" points="586,303 586,355 586,361 577,361 577,355 577,303 566,303 566,295 596,295 596,303 "/>
     <path class="fil0" d="M607 359c-3,-3 -5,-8 -5,-20l0 -22c0,-12 2,-17 5,-19 2,-2 5,-4 10,-4 5,0 8,2 10,4 4,2 5,8 5,19l0 22c0,12 -1,17 -5,20 -2,2 -5,4 -10,4 -5,0 -8,-2 -10,-4zm16 -18l0 -26c0,-8 0,-13 -6,-13 -7,0 -7,5 -7,13l0 26c0,8 0,13 7,13 6,0 6,-5 6,-13z"/>
     <path class="fil0" d="M649 333l0 21 0 7 -9 0 0 -7 0 -52 0 -7 13 0c13,0 17,8 17,19l0 0c0,7 -3,13 -8,17l9 30 -10 0 -8 -28 -4 0zm0 -7l3 0c7,0 9,-5 9,-12l0 0c0,-6 -2,-11 -9,-11l-3 0 0 23z"/>
    </g>
    <g>
     <g>
      <polygon class="fil1" points="575,187 534,106 513,106 513,276 534,276 534,153 575,235 575,276 596,276 596,106 575,106 "/>
     </g>
     <g>
      <polygon class="fil1" points="365,106 337,106 337,124 365,124 365,276 386,276 386,124 415,124 415,106 386,106 "/>
     </g>
     <g>
      <polygon class="fil1" points="429,106 429,124 429,181 429,200 429,257 429,276 450,276 492,276 492,257 450,257 450,200 490,200 490,181 450,181 450,124 492,124 492,106 450,106 "/>
     </g>
     <g>
      <polygon class="fil1" points="867,106 838,106 817,106 789,106 789,124 817,124 817,276 838,276 838,124 867,124 "/>
     </g>
     <g>
      <polygon class="fil1" points="718,106 718,124 718,181 718,200 718,257 718,276 739,276 782,276 782,257 739,257 739,200 779,200 779,181 739,181 739,124 782,124 782,106 739,106 "/>
     </g>
     <g>
      <path class="fil1" d="M673 104l-34 0c-12,0 -21,10 -21,21l0 38c0,7 3,13 9,18l47 32c0,0 0,0 0,0l0 43c0,0 0,0 -1,0l-34 0c0,0 -1,0 -1,0l0 -43 -21 0 0 43c0,11 10,21 21,21l35 0c11,0 21,-10 21,-21l0 -43c0,-7 -4,-13 -10,-18l-46 -32c0,0 0,0 0,0l0 -38c0,0 0,0 0,0l35 0c0,0 0,0 0,0l0 42 21 0 0 -42c0,-11 -9,-21 -21,-21z"/>
     </g>
    </g>
    <g>
     <g>
      <path class="fil0" d="M233 159l-66 -67c-7,-6 -18,-6 -25,0l-67 67c-7,7 -7,18 0,25l17 17 37 -37 0 148c0,4 1,7 4,10l21 22 22 -22c2,-3 4,-6 4,-10l0 -148 37 37 17 -17c6,-7 6,-18 -1,-25zm-6 18l-10 10 -46 -47 0 172c0,1 -1,2 -2,4l-15 14 -14 -15c-1,-1 -2,-2 -2,-4l0 -171 -46 47 -10 -10c-3,-2 -3,-7 0,-11l67 -66c3,-3 8,-3 11,0l67 66c2,3 2,8 0,11z"/>
     </g>
    </g>
   </g>
  </g>
 </g>
</svg>
