<svg xmlns="http://www.w3.org/2000/svg" width="515.812" height="233.2"><defs><clipPath id="a"><path data-name="Path 1611" d="m158.981 68.834-25.265-51.191h-13.154v106.4h13.154V47.365l25.265 51.193v25.484h13.156V17.643h-13.156Z" transform="translate(-120.562 -17.643)" fill="#fff"/></clipPath><clipPath id="b"><path data-name="Path 1612" d="M92.961 17.643H75.178v11.448h17.783v94.951h13.154V29.091H123.9V17.643H92.961Z" transform="translate(-75.178 -17.643)" fill="#fff"/></clipPath><clipPath id="c"><path data-name="Path 1613" d="M98.894 17.643v106.4h39.624v-11.449h-26.47V76.567h25.134V65.119h-25.134V29.091h26.47V17.643H98.894Z" transform="translate(-98.894 -17.643)" fill="#fff"/></clipPath><clipPath id="d"><path data-name="Path 1614" d="M223.654 17.643h-30.937v11.448H210.5v94.953h13.154V29.091h17.783V17.643Z" transform="translate(-192.717 -17.643)" fill="#fff"/></clipPath><clipPath id="e"><path data-name="Path 1615" d="M173.25 17.643v106.4h39.624v-11.449H186.4V76.567h25.134V65.119H186.4V29.091h26.47V17.643h-39.62Z" transform="translate(-173.25 -17.643)" fill="#fff"/></clipPath><clipPath id="f"><path data-name="Path 1616" d="M160.845 17.285a13.425 13.425 0 0 0-13.409 13.409v23.6a13.4 13.4 0 0 0 5.81 11.047l28.893 19.88a.221.221 0 0 1 .1.185v26.611a.226.226 0 0 1-.224.224h-21.17a.226.226 0 0 1-.224-.224V84.986h-13.185v27.029a13.425 13.425 0 0 0 13.409 13.409h21.17a13.425 13.425 0 0 0 13.409-13.409V85.4a13.41 13.41 0 0 0-5.808-11.047l-28.9-19.88a.227.227 0 0 1-.1-.185v-23.6a.226.226 0 0 1 .224-.224h21.17a.226.226 0 0 1 .224.224v25.79h13.185V30.694a13.425 13.425 0 0 0-13.409-13.409Z" transform="translate(-147.436 -17.285)" fill="#fff"/></clipPath><clipPath id="g"><path data-name="Path 1617" d="m81.437 67.924.061 4.447v34.667l-.061 4.452h4.753l-.063-4.452V72.371l.063-4.447Z" transform="translate(-81.437 -67.924)" fill="#fd62d5"/></clipPath><clipPath id="h"><path data-name="Path 1618" d="m101.239 67.924.058 4.447v21.02c0 1.708.187 4.146.187 5.73h-.184c-.36-1.524-.851-3.106-1.643-5.424L90.7 67.924h-4.877l.061 4.447v34.667l-.061 4.452h4.571l-.061-4.452v-22.48c0-1.708-.122-4.143-.182-5.73h.182c.428 1.524.853 3.108 1.706 5.426l9.5 27.236h4.328l-.063-4.452V72.371l.063-4.447Z" transform="translate(-85.823 -67.924)" fill="#fd62d5"/></clipPath><clipPath id="i"><path data-name="Path 1619" d="m96.518 67.924.063 4.447v34.667l-.063 4.452h4.753l-.061-4.452V90.9h8.96v-4.272h-8.96V72.065h10.908v-4.141Z" transform="translate(-96.518 -67.924)" fill="#fd62d5"/></clipPath><clipPath id="j"><path data-name="Path 1620" d="m104.816 67.924.063 4.447v34.667l-.063 4.452h4.753l-.058-4.452V72.371l.058-4.447Z" transform="translate(-104.816 -67.924)" fill="#fd62d5"/></clipPath><clipPath id="k"><path data-name="Path 1621" d="m124.619 67.924.063 4.447v21.02c0 1.708.18 4.146.18 5.73h-.18c-.367-1.524-.855-3.106-1.645-5.424l-8.96-25.773H109.2l.061 4.447v34.667l-.061 4.452h4.568l-.058-4.452v-22.48c0-1.708-.122-4.143-.182-5.73h.182c.428 1.524.853 3.108 1.7 5.426l9.509 27.236h4.325l-.061-4.452V72.371l.061-4.447Z" transform="translate(-109.203 -67.924)" fill="#fd62d5"/></clipPath><clipPath id="l"><path data-name="Path 1622" d="m119.9 67.924.061 4.447v34.667l-.061 4.452h4.756l-.063-4.452V72.371l.063-4.447Z" transform="translate(-119.898 -67.924)" fill="#fd62d5"/></clipPath><clipPath id="m"><path data-name="Path 1623" d="M123.7 67.924v4.141h6.943v34.973l-.058 4.452h4.756l-.063-4.452V72.065h6.945v-4.141Z" transform="translate(-123.696 -67.924)" fill="#fd62d5"/></clipPath><clipPath id="n"><path data-name="Path 1624" d="m148.374 67.924-5.426 19.314h-.182l-5.421-19.314h-4.69l7.856 25.712v13.4l-.058 4.452h4.747l-.058-4.452v-13.4L153 67.924Z" transform="translate(-132.654 -67.924)" fill="#fd62d5"/></clipPath><clipPath id="o"><path data-name="Path 1625" d="M154.333 80.047c.3-1.951.547-4.386.668-5.788h.245c.122 1.4.425 3.837.668 5.788l2.5 16.818h-6.58Zm-2.377-12.123-7.069 43.566h4.751l1.524-10.357h7.861l1.587 10.357h4.69l-7.006-43.566Z" transform="translate(-144.887 -67.924)" fill="#fd62d5"/></clipPath><clipPath id="p"><path data-name="Path 1626" d="m155.2 67.924.063 4.447v34.667l-.063 4.452h4.753l-.061-4.452V72.371l.061-4.447Z" transform="translate(-155.201 -67.924)" fill="#fd62d5"/></clipPath><clipPath id="q"><path data-name="Path 1627" d="M164.278 72.065h2.194c5.361 0 6.641 3.657 6.641 8.167v.182c0 4.573-1.524 8.1-5.91 8.1h-2.926Zm-4.69-4.141.058 4.447v34.667l-.058 4.452h4.753l-.063-4.452V92.54h3.6l5.971 18.949h4.938l-6.4-19.924c4.022-1.893 5.543-6.158 5.543-11.215v-.119c0-6.765-2.192-12.308-10.906-12.308Z" transform="translate(-159.588 -67.924)" fill="#fd62d5"/></clipPath><clipPath id="r"><path data-name="Path 1628" d="M174.192 72.065h2.8a5.337 5.337 0 0 1 3.961 1.463c1.582 1.524 2.131 3.839 2.131 8.043v16.271c0 4.2-.549 6.52-2.131 8.043a5.356 5.356 0 0 1-3.961 1.46h-2.8Zm-4.692-4.141.061 4.447v34.667l-.061 4.452h8.162a9.155 9.155 0 0 0 6.765-2.5c2.377-2.255 3.412-5.361 3.412-12.369v-13.83c0-7.008-1.035-10.114-3.412-12.369a9.145 9.145 0 0 0-6.765-2.5Z" transform="translate(-169.5 -67.924)" fill="#fd62d5"/></clipPath><clipPath id="s"><path data-name="Path 1629" d="M184.023 72.065h2.194c5.361 0 6.641 3.657 6.641 8.167v.182c0 4.573-1.524 8.1-5.912 8.1h-2.923Zm-4.69-4.141.058 4.447v34.667l-.058 4.452h4.753l-.063-4.452V92.54h3.6l5.971 18.949h4.935l-6.4-19.924c4.022-1.893 5.543-6.158 5.543-11.215v-.119c0-6.765-2.194-12.308-10.908-12.308Z" transform="translate(-179.333 -67.924)" fill="#fd62d5"/></clipPath><clipPath id="t"><path data-name="Path 1630" d="M193.682 99.188v-18.1c0-4.692 0-9.083 4.449-9.083s4.449 4.391 4.449 9.083v18.1c0 4.69 0 9.079-4.449 9.079s-4.449-4.389-4.449-9.079m-1.708-29.432c-2.068 1.949-2.982 4.935-2.982 12.306v16.15c0 7.375.914 10.42 2.982 12.311a8.5 8.5 0 0 0 6.158 2.131 8.4 8.4 0 0 0 6.155-2.131c2.073-1.891 2.984-4.935 2.984-12.311V82.061c0-7.37-.911-10.357-2.984-12.306a8.646 8.646 0 0 0-6.155-2.134 8.761 8.761 0 0 0-6.158 2.134" transform="translate(-188.992 -67.622)" fill="#fd62d5"/></clipPath><clipPath id="u"><path data-name="Path 1631" d="M203.534 72.065h2.194c5.361 0 6.641 3.657 6.641 8.226v.124c0 4.632-1.281 8.226-6.641 8.226h-2.194Zm-4.69-4.141.058 4.447v34.667l-.058 4.452h4.756l-.063-4.452V92.786h2.743c8.712 0 10.908-5.485 10.908-12.371v-.125c0-6.824-2.2-12.366-10.908-12.366Z" transform="translate(-198.844 -67.924)" fill="#fd62d5"/></clipPath></defs><g data-name="Group 318"><g data-name="Group 275"><g data-name="Group 274" clip-path="url(#a)" transform="translate(291.754 41.659)"><path data-name="Rectangle 326" fill="#fff" d="M0 0h51.575v106.399H0z"/></g></g><g data-name="Group 277"><g data-name="Group 276" clip-path="url(#b)" transform="translate(181.47 41.659)"><path data-name="Rectangle 327" fill="#fff" d="M0 0h48.72v106.399H0z"/></g></g><g data-name="Group 279"><g data-name="Group 278" clip-path="url(#c)" transform="translate(239.1 41.659)"><path data-name="Rectangle 328" fill="#fff" d="M0 0h39.624v106.399H0z"/></g></g><g data-name="Group 281"><g data-name="Group 280" clip-path="url(#d)" transform="translate(467.093 41.659)"><path data-name="Rectangle 329" fill="#fff" d="M0 0h48.72v106.401H0z"/></g></g><g data-name="Group 283"><g data-name="Group 282" clip-path="url(#e)" transform="translate(419.787 41.659)"><path data-name="Rectangle 330" fill="#fff" d="M0 0h39.624v106.399H0z"/></g></g><g data-name="Group 285"><g data-name="Group 284" clip-path="url(#f)" transform="translate(357.059 40.788)"><path data-name="Rectangle 331" fill="#fff" d="M0 .001h47.988V108.14H0z"/></g></g><g data-name="Group 287"><g data-name="Group 286" clip-path="url(#g)" transform="translate(196.679 163.844)"><path data-name="Rectangle 332" fill="#fd62d5" d="M0 0h4.753v43.566H0z"/></g></g><g data-name="Group 289"><g data-name="Group 288" clip-path="url(#h)" transform="translate(207.337 163.843)"><path data-name="Rectangle 333" fill="#fd62d5" d="M0 .001h20.048v43.566H0z"/></g></g><g data-name="Group 291"><g data-name="Group 290" clip-path="url(#i)" transform="translate(233.326 163.844)"><path data-name="Rectangle 334" fill="#fd62d5" d="M0 0h15.601v43.566H0z"/></g></g><g data-name="Group 293"><g data-name="Group 292" clip-path="url(#j)" transform="translate(253.491 163.844)"><path data-name="Rectangle 335" fill="#fd62d5" d="M0 0h4.753v43.566H0z"/></g></g><g data-name="Group 295"><g data-name="Group 294" clip-path="url(#k)" transform="translate(264.151 163.843)"><path data-name="Rectangle 336" fill="#fd62d5" d="M0 .001h20.048v43.566H0z"/></g></g><g data-name="Group 297"><g data-name="Group 296" clip-path="url(#l)" transform="translate(290.14 163.844)"><path data-name="Rectangle 337" fill="#fd62d5" d="M0 0h4.756v43.566H0z"/></g></g><g data-name="Group 299"><g data-name="Group 298" clip-path="url(#m)" transform="translate(299.37 163.844)"><path data-name="Rectangle 338" fill="#fd62d5" d="M0 0h18.522v43.566H0z"/></g></g><g data-name="Group 301"><g data-name="Group 300" clip-path="url(#n)" transform="translate(321.138 163.844)"><path data-name="Rectangle 339" fill="#fd62d5" d="M0 0h20.349v43.566H0z"/></g></g><g data-name="Group 303"><g data-name="Group 302" clip-path="url(#o)" transform="translate(350.864 163.843)"><path data-name="Rectangle 340" fill="#fd62d5" d="M0 .001h20.412v43.566H0z"/></g></g><g data-name="Group 305"><g data-name="Group 304" clip-path="url(#p)" transform="translate(375.928 163.844)"><path data-name="Rectangle 341" fill="#fd62d5" d="M0 0h4.753v43.566H0z"/></g></g><g data-name="Group 307"><g data-name="Group 306" clip-path="url(#q)" transform="translate(386.588 163.843)"><path data-name="Rectangle 342" fill="#fd62d5" d="M0 .001h19.195v43.566H0z"/></g></g><g data-name="Group 309"><g data-name="Group 308" clip-path="url(#r)" transform="translate(410.675 163.843)"><path data-name="Rectangle 343" fill="#fd62d5" d="M0 .001h18.339v43.566H0z"/></g></g><g data-name="Group 311"><g data-name="Group 310" clip-path="url(#s)" transform="translate(434.569 163.843)"><path data-name="Rectangle 344" fill="#fd62d5" d="M0 .001h19.192v43.566H0z"/></g></g><g data-name="Group 313"><g data-name="Group 312" clip-path="url(#t)" transform="translate(458.041 163.109)"><path data-name="Rectangle 345" fill="#fd62d5" d="M0 .001h18.279v45.031H0z"/></g></g><g data-name="Group 315"><g data-name="Group 314" clip-path="url(#u)" transform="translate(481.981 163.843)"><path data-name="Rectangle 346" fill="#fd62d5" d="M0 .001h18.342v43.566H0z"/></g></g><g data-name="Group 317"><g data-name="Group 335" fill="#fd62d5"><path data-name="Path 1632" d="m113.679 120.459-1.716-1.718 6.921-6.928a4.221 4.221 0 0 0 0-5.971L83.799 70.747a4.227 4.227 0 0 0-5.975 0l-35.085 35.09a4.221 4.221 0 0 0 0 5.968l6.918 6.93-1.718 1.718 1.349-2.022h.007l1.081.722v59.544l-.889.59-6.751 6.76a4.221 4.221 0 0 0 0 5.968l35.085 35.087a4.227 4.227 0 0 0 5.975 0l35.085-35.087a4.221 4.221 0 0 0 0-5.971l-6.918-6.927-.71-.712v-58.952l.71-.712 1.72 1.718h2.43v56.938h-2.43l1.718-1.718 6.921 6.928a9.081 9.081 0 0 1 0 12.843l-35.087 35.091a9.09 9.09 0 0 1-12.848 0l-.1-.1-34.984-34.987a9.084 9.084 0 0 1 0-12.845l7.088-7.1.209-.139 1.349 2.022h-2.43v-56.933h2.43l-1.349 2.019h-.007l-.2-.134-7.088-7.1a9.084 9.084 0 0 1 0-12.845l35.083-35.088a9.09 9.09 0 0 1 12.848 0l.024.027 35.06 35.06a9.082 9.082 0 0 1 0 12.843l-6.921 6.928-1.72-1.716Zm-19.664 27.753h2.43v26.563a9.094 9.094 0 0 1-2.661 6.425L80.81 194.171 67.839 181.2a9.088 9.088 0 0 1-2.663-6.425v-51.694a9.078 9.078 0 0 1 2.663-6.425l12.971-12.974 12.974 12.974a9.072 9.072 0 0 1 2.663 6.425v25.131h-4.86v-25.131a4.215 4.215 0 0 0-1.237-2.987l-9.538-9.538-9.535 9.538a4.219 4.219 0 0 0-1.237 2.987v51.694a4.219 4.219 0 0 0 1.239 2.986l9.535 9.535 9.538-9.535a4.219 4.219 0 0 0 1.237-2.986v-26.563Z"/><path data-name="Path 1633" d="M73.773 30.694 27.766 76.7a8.917 8.917 0 0 1-12.607 0L2.61 64.153a8.917 8.917 0 0 1 0-12.607L51.546 2.61a8.917 8.917 0 0 1 12.607 0L134.8 73.26a4.048 4.048 0 0 0 5.73 0l12.55-12.548a4.054 4.054 0 0 0 0-5.73L104.146 6.051a4.048 4.048 0 0 0-5.73 0L88.8 15.669l-3.44-3.439 9.618-9.618a8.917 8.917 0 0 1 12.607 0l48.933 48.933a8.917 8.917 0 0 1 0 12.6L143.972 76.7a8.917 8.917 0 0 1-12.607 0L60.714 6.048a4.048 4.048 0 0 0-5.73 0L6.048 54.984a4.048 4.048 0 0 0 0 5.73L18.6 73.263a4.048 4.048 0 0 0 5.73 0l46.005-46.008 3.438 3.438Z"/></g></g></g></svg>