<?xml version="1.0" encoding="UTF-8" standalone="no"?>
<svg
   width="283"
   height="26"
   viewBox="0 0 283 26"
   version="1.1"
   id="svg57"
   xmlns="http://www.w3.org/2000/svg"
   xmlns:svg="http://www.w3.org/2000/svg">
  <defs
     id="defs5">
    <clipPath
       id="clip-path">
      <rect
         width="1920"
         height="26"
         fill="none"
         id="rect2"
         x="0"
         y="0" />
    </clipPath>
  </defs>
  <g
     aria-label="JOIN US"
     id="JOIN_US"
     style="font-weight:700;font-size:21px;font-family:NulshockRg-Bold, Nulshock;letter-spacing:-0.038em;fill:#16b338">
    <path
       d="m 0.42,20.5 v -3.633 h 7.917 q 0.945,0 1.344,-0.441 0.42,-0.441 0.42,-1.323 V 6.304 h 3.843 v 8.631 q 0,2.625 -1.365,4.095 -1.365,1.47 -4.242,1.47 z"
       id="path260" />
    <path
       d="m 22.364992,20.5 q -1.911,0 -3.318,-0.609 -1.407,-0.63 -2.394,-1.701 -0.861,-0.945 -1.344,-2.163 -0.483,-1.218 -0.483,-2.625 0,-1.554 0.609,-2.898 0.609,-1.344 1.68,-2.331 0.945,-0.882 2.226,-1.365 1.302,-0.504 3.024,-0.504 h 2.982 q 1.722,0 3.003,0.504 1.302,0.483 2.247,1.365 1.071,0.987 1.68,2.331 0.609,1.344 0.609,2.898 0,1.407 -0.483,2.625 -0.483,1.218 -1.344,2.163 -0.987,1.071 -2.394,1.701 -1.407,0.609 -3.318,0.609 z m 0,-10.437 q -0.966,0 -1.596,0.252 -0.63,0.252 -1.092,0.672 -0.483,0.462 -0.777,1.092 -0.273,0.63 -0.273,1.344 0,0.651 0.231,1.239 0.231,0.567 0.651,1.008 0.462,0.504 1.155,0.798 0.693,0.294 1.701,0.294 h 2.982 q 1.008,0 1.701,-0.294 0.693,-0.294 1.155,-0.798 0.42,-0.441 0.651,-1.008 0.231,-0.588 0.231,-1.239 0,-0.714 -0.294,-1.344 -0.273,-0.63 -0.756,-1.092 -0.462,-0.42 -1.092,-0.672 -0.63,-0.252 -1.596,-0.252 z"
       id="path262" />
    <path
       d="M 37.757975,6.304 V 20.5 h -3.822 V 6.304 Z"
       id="path264" />
    <path
       d="m 56.699945,17.749 q 0,0.798 -0.231,1.386 -0.21,0.567 -0.588,0.945 -0.357,0.357 -0.84,0.525 -0.483,0.189 -1.008,0.189 -0.903,0 -1.596,-0.273 -0.672,-0.252 -1.176,-0.84 l -7.791,-9.009 q -0.168,-0.189 -0.336,-0.189 -0.147,0 -0.252,0.105 -0.105,0.105 -0.105,0.294 V 20.5 h -3.738 V 9.307 q 0,-0.903 0.231,-1.533 0.252,-0.63 0.693,-1.029 0.441,-0.399 1.05,-0.567 0.609,-0.189 1.323,-0.189 1.008,0 1.701,0.315 0.693,0.315 1.365,1.092 l 6.93,8.295 q 0.084,0.105 0.168,0.147 0.084,0.021 0.189,0.021 0.294,0 0.294,-0.378 V 6.304 h 3.717 z"
       id="path266" />
    <path
       d="m 70.55992,20.5 q -1.344,0 -2.289,-0.252 -0.945,-0.273 -1.554,-0.819 -0.588,-0.567 -0.861,-1.407 -0.273,-0.861 -0.273,-2.058 v -9.66 h 3.822 v 9.24 q 0,1.323 1.365,1.323 h 5.901 q 1.407,0 1.407,-1.323 v -9.24 h 3.822 v 9.66 q 0,2.373 -1.155,3.465 -1.155,1.071 -3.822,1.071 z"
       id="path268" />
    <path
       d="m 97.964917,10.063 h -10.206 q -0.357,0 -0.567,0.084 -0.189,0.063 -0.315,0.189 -0.294,0.294 -0.294,0.735 0,0.462 0.357,0.756 0.126,0.105 0.294,0.168 0.189,0.042 0.525,0.042 h 6.237 q 1.197,0 2.016,0.357 0.84,0.336 1.407,0.924 0.567,0.588 0.882,1.344 0.336,0.756 0.336,1.596 0,0.777 -0.294,1.491 -0.273,0.714 -0.756,1.281 -0.588,0.672 -1.47,1.071 -0.861,0.399 -2.121,0.399 h -11.004 v -3.633 h 10.332 q 0.441,0 0.672,-0.084 0.252,-0.105 0.399,-0.273 0.231,-0.273 0.231,-0.651 0,-0.462 -0.294,-0.756 -0.147,-0.168 -0.378,-0.231 -0.21,-0.084 -0.63,-0.084 h -5.775 q -1.428,0 -2.31,-0.336 -0.861,-0.357 -1.428,-0.945 -0.567,-0.588 -0.882,-1.323 -0.315,-0.756 -0.315,-1.638 0,-0.861 0.315,-1.617 0.336,-0.756 0.903,-1.344 0.567,-0.588 1.428,-0.924 0.861,-0.357 2.289,-0.357 h 10.416 z"
       id="path270" />
  </g>
  <g
     aria-label="FOLLOWS US"
     id="FOLLOWS_US"
     style="font-weight:700;font-size:21px;font-family:NulshockRg-Bold, Nulshock;letter-spacing:-0.02em;fill:none;stroke:#16b338;stroke-width:0.5">
    <path
       d="m 121.96,6.304 v 3.759 h -10.542 q -0.588,0 -0.588,0.63 v 1.533 h 11.067 v 3.528 H 110.83 V 20.5 h -3.801 V 8.908 q 0,-2.604 2.562,-2.604 z"
       id="path291" />
    <path
       d="m 130.44398,20.5 q -1.911,0 -3.318,-0.609 -1.407,-0.63 -2.394,-1.701 -0.861,-0.945 -1.344,-2.163 -0.483,-1.218 -0.483,-2.625 0,-1.554 0.609,-2.898 0.609,-1.344 1.68,-2.331 0.945,-0.882 2.226,-1.365 1.302,-0.504 3.024,-0.504 h 2.982 q 1.722,0 3.003,0.504 1.302,0.483 2.247,1.365 1.071,0.987 1.68,2.331 0.609,1.344 0.609,2.898 0,1.407 -0.483,2.625 -0.483,1.218 -1.344,2.163 -0.987,1.071 -2.394,1.701 -1.407,0.609 -3.318,0.609 z m 0,-10.437 q -0.966,0 -1.596,0.252 -0.63,0.252 -1.092,0.672 -0.483,0.462 -0.777,1.092 -0.273,0.63 -0.273,1.344 0,0.651 0.231,1.239 0.231,0.567 0.651,1.008 0.462,0.504 1.155,0.798 0.693,0.294 1.701,0.294 h 2.982 q 1.008,0 1.701,-0.294 0.693,-0.294 1.155,-0.798 0.42,-0.441 0.651,-1.008 0.231,-0.588 0.231,-1.239 0,-0.714 -0.294,-1.344 -0.273,-0.63 -0.756,-1.092 -0.462,-0.42 -1.092,-0.672 -0.63,-0.252 -1.596,-0.252 z"
       id="path293" />
    <path
       d="m 146.84496,20.5 q -1.302,0 -2.205,-0.273 -0.882,-0.294 -1.428,-0.861 -0.525,-0.588 -0.756,-1.449 -0.231,-0.882 -0.231,-2.037 V 6.304 h 3.822 v 9.219 q 0,0.777 0.252,1.071 0.273,0.273 1.008,0.273 h 9.849 V 20.5 Z"
       id="path295" />
    <path
       d="m 162.46892,20.5 q -1.302,0 -2.205,-0.273 -0.882,-0.294 -1.428,-0.861 -0.525,-0.588 -0.756,-1.449 -0.231,-0.882 -0.231,-2.037 V 6.304 h 3.822 v 9.219 q 0,0.777 0.252,1.071 0.273,0.273 1.008,0.273 h 9.849 V 20.5 Z"
       id="path297" />
    <path
       d="m 180.46585,20.5 q -1.911,0 -3.318,-0.609 -1.407,-0.63 -2.394,-1.701 -0.861,-0.945 -1.344,-2.163 -0.483,-1.218 -0.483,-2.625 0,-1.554 0.609,-2.898 0.609,-1.344 1.68,-2.331 0.945,-0.882 2.226,-1.365 1.302,-0.504 3.024,-0.504 h 2.982 q 1.722,0 3.003,0.504 1.302,0.483 2.247,1.365 1.071,0.987 1.68,2.331 0.609,1.344 0.609,2.898 0,1.407 -0.483,2.625 -0.483,1.218 -1.344,2.163 -0.987,1.071 -2.394,1.701 -1.407,0.609 -3.318,0.609 z m 0,-10.437 q -0.966,0 -1.596,0.252 -0.63,0.252 -1.092,0.672 -0.483,0.462 -0.777,1.092 -0.273,0.63 -0.273,1.344 0,0.651 0.231,1.239 0.231,0.567 0.651,1.008 0.462,0.504 1.155,0.798 0.693,0.294 1.701,0.294 h 2.982 q 1.008,0 1.701,-0.294 0.693,-0.294 1.155,-0.798 0.42,-0.441 0.651,-1.008 0.231,-0.588 0.231,-1.239 0,-0.714 -0.294,-1.344 -0.273,-0.63 -0.756,-1.092 -0.462,-0.42 -1.092,-0.672 -0.63,-0.252 -1.596,-0.252 z"
       id="path299" />
    <path
       d="m 203.9228,9.37 q -0.357,0 -0.462,0.42 l -2.205,7.833 q -0.462,1.638 -1.47,2.415 -1.008,0.756 -2.646,0.756 -0.966,0 -1.701,-0.252 -0.714,-0.231 -1.218,-0.651 -0.504,-0.42 -0.798,-1.008 -0.294,-0.588 -0.399,-1.26 l -1.764,-10.647 q -0.063,-0.399 -0.063,-0.672 h 4.011 q 0,0.105 0,0.252 0.021,0.147 0.042,0.294 l 1.491,9.702 q 0.063,0.483 0.504,0.483 0.189,0 0.315,-0.084 0.126,-0.105 0.189,-0.357 l 2.163,-7.623 q 0.441,-1.533 1.365,-2.247 0.924,-0.735 2.646,-0.735 1.701,0 2.583,0.714 0.882,0.714 1.281,2.163 l 2.121,7.728 q 0.063,0.252 0.189,0.357 0.126,0.084 0.315,0.084 0.42,0 0.504,-0.483 l 1.617,-9.702 q 0.042,-0.168 0.042,-0.294 0,-0.147 0,-0.252 h 3.969 q 0,0.168 -0.021,0.315 0,0.126 -0.042,0.357 l -1.89,10.668 q -0.252,1.407 -1.26,2.289 -0.987,0.861 -2.898,0.861 -3.171,0 -4.011,-3.171 l -2.037,-7.833 q -0.105,-0.42 -0.462,-0.42 z"
       id="path301" />
    <path
       d="m 232.16777,10.063 h -10.206 q -0.357,0 -0.567,0.084 -0.189,0.063 -0.315,0.189 -0.294,0.294 -0.294,0.735 0,0.462 0.357,0.756 0.126,0.105 0.294,0.168 0.189,0.042 0.525,0.042 h 6.237 q 1.197,0 2.016,0.357 0.84,0.336 1.407,0.924 0.567,0.588 0.882,1.344 0.336,0.756 0.336,1.596 0,0.777 -0.294,1.491 -0.273,0.714 -0.756,1.281 -0.588,0.672 -1.47,1.071 -0.861,0.399 -2.121,0.399 h -11.004 v -3.633 h 10.332 q 0.441,0 0.672,-0.084 0.252,-0.105 0.399,-0.273 0.231,-0.273 0.231,-0.651 0,-0.462 -0.294,-0.756 -0.147,-0.168 -0.378,-0.231 -0.21,-0.084 -0.63,-0.084 h -5.775 q -1.428,0 -2.31,-0.336 -0.861,-0.357 -1.428,-0.945 -0.567,-0.588 -0.882,-1.323 -0.315,-0.756 -0.315,-1.638 0,-0.861 0.315,-1.617 0.336,-0.756 0.903,-1.344 0.567,-0.588 1.428,-0.924 0.861,-0.357 2.289,-0.357 h 10.416 z"
       id="path303" />
    <path
       d="m 246.88872,20.5 q -1.344,0 -2.289,-0.252 -0.945,-0.273 -1.554,-0.819 -0.588,-0.567 -0.861,-1.407 -0.273,-0.861 -0.273,-2.058 v -9.66 h 3.822 v 9.24 q 0,1.323 1.365,1.323 h 5.901 q 1.407,0 1.407,-1.323 v -9.24 h 3.822 v 9.66 q 0,2.373 -1.155,3.465 -1.155,1.071 -3.822,1.071 z"
       id="path305" />
    <path
       d="m 274.67172,10.063 h -10.206 q -0.357,0 -0.567,0.084 -0.189,0.063 -0.315,0.189 -0.294,0.294 -0.294,0.735 0,0.462 0.357,0.756 0.126,0.105 0.294,0.168 0.189,0.042 0.525,0.042 h 6.237 q 1.197,0 2.016,0.357 0.84,0.336 1.407,0.924 0.567,0.588 0.882,1.344 0.336,0.756 0.336,1.596 0,0.777 -0.294,1.491 -0.273,0.714 -0.756,1.281 -0.588,0.672 -1.47,1.071 -0.861,0.399 -2.121,0.399 h -11.004 v -3.633 h 10.332 q 0.441,0 0.672,-0.084 0.252,-0.105 0.399,-0.273 0.231,-0.273 0.231,-0.651 0,-0.462 -0.294,-0.756 -0.147,-0.168 -0.378,-0.231 -0.21,-0.084 -0.63,-0.084 h -5.775 q -1.428,0 -2.31,-0.336 -0.861,-0.357 -1.428,-0.945 -0.567,-0.588 -0.882,-1.323 -0.315,-0.756 -0.315,-1.638 0,-0.861 0.315,-1.617 0.336,-0.756 0.903,-1.344 0.567,-0.588 1.428,-0.924 0.861,-0.357 2.289,-0.357 h 10.416 z"
       id="path307" />
  </g>
</svg>
