<svg xmlns="http://www.w3.org/2000/svg" xmlns:xlink="http://www.w3.org/1999/xlink" width="228" height="288" viewBox="0 0 228 288">
  <defs>
    <style>
      .cls-1 {
        clip-path: url(#clip-Artboard_6);
      }

      .cls-2, .cls-3 {
        fill: none;
      }

      .cls-2 {
        stroke: #16b338;
      }

      .cls-4, .cls-5 {
        stroke: none;
      }

      .cls-5 {
        fill: #16b338;
      }

      .cls-6 {
        fill: #fff;
      }
    </style>
    <clipPath id="clip-Artboard_6">
      <rect width="228" height="288"/>
    </clipPath>
  </defs>
  <g id="Artboard_6" data-name="Artboard – 6" class="cls-1">
    <g id="Group_4270" data-name="Group 4270" transform="translate(6326.506 690.774)">
      <path id="Path_12324" data-name="Path 12324" class="cls-2" d="M-18678.742,4367.775v47.482l5.508,5.7V4438.6l-5.508,5.7v13.4l5.508,5.7v16.583l-5.508,5.7v135.508h168l16-14.766V4423.176l16-16v-56h-183.5Z" transform="translate(12366.236 -5032.95)"/>
      <g id="Group_4271" data-name="Group 4271" transform="translate(-7033 -752)">
        <g id="PITCHDECK" class="cls-3" transform="translate(766.395 124.335)">
          <path class="cls-4" d="M23.973,12.476q3.116,0,5.215.844t3.571,2.315q1.515,1.515,2.38,3.549T36,23.426q0,1.948-.671,3.744t-1.883,3.268q-1.515,1.818-3.809,2.878t-5.67,1.06H10.513v7.357H2.68V14.294q0-1.818,1.9-1.818Zm.173,14.715q1.3,0,2.1-.368t1.277-1.017q.692-.909.692-2.077,0-1.255-.736-2.207Q27,20.916,26.2,20.57t-2.056-.346H11.076q-.563,0-.563.606v6.362ZM46.089,12.476V41.733H38.212V12.476Zm35.619,0v7.747H68.9v21.51H61.02V20.223H48.166V12.476ZM32.888,78.829H17.568q-3.938,0-6.838-1.277T5.8,74.069q-1.774-1.948-2.77-4.458t-1-5.41q0-3.2,1.255-5.973t3.462-4.8Q8.7,51.607,11.357,50.59t6.211-1.017H32.888V57.32H17.568q-1.991,0-3.289.519t-2.251,1.385q-1,.952-1.58,2.251t-.584,2.77q0,1.342.476,2.532t1.342,2.1q.952,1.039,2.38,1.645t3.506.606H32.888ZM68.81,49.573V78.829H60.933v-11.3H43.492v11.3H35.615V49.573h7.877v10.6H60.933v-10.6Zm21.12,0q3.549,0,6.211,1.017t4.609,2.835q2.207,2.034,3.462,4.8t1.255,5.973q0,2.9-1,5.41t-2.77,4.458q-2.034,2.207-4.934,3.484T89.93,78.829h-15.8q-1.9,0-1.9-1.861V51.39q0-1.818,1.9-1.818ZM80.625,57.32q-.563,0-.563.606V70.52q0,.606.563.606H89.93q2.077,0,3.506-.606t2.38-1.645q.866-.909,1.342-2.1t.476-2.532q0-1.471-.584-2.77t-1.58-2.251q-.952-.866-2.251-1.385T89.93,57.32ZM33.408,86.669v7.747H11.162q-.692,0-.692.736v3.332H33.278v5.626H10.47v3.549q0,.779.692.779H33.408v7.487H6.748q-4.112,0-4.112-4.068V90.608q0-3.938,4.155-3.938ZM66.3,115.926H50.979q-3.938,0-6.838-1.277t-4.934-3.484q-1.774-1.948-2.77-4.458t-1-5.41q0-3.2,1.255-5.973t3.462-4.8q1.948-1.818,4.609-2.835t6.211-1.017H66.3v7.747H50.979q-1.991,0-3.289.519T45.439,96.32q-1,.952-1.58,2.251t-.584,2.77q0,1.342.476,2.532t1.342,2.1q.952,1.039,2.38,1.645t3.506.606H66.3ZM76.9,86.669V98.658l13.33-10.777q.692-.563,1.212-1.212h10.95q-.13.216-.346.411t-.433.368l-16.1,12.464q-.26.216-.26.476t.26.476l17.268,13.979q.3.26.584.519t.541.563H92.224q-.433-.519-1.3-1.212L76.9,102.985v12.94h-7.92V86.669Z"/>
          <path class="cls-5" d="M 104.4697494506836 116.1835403442383 L 103.9096069335938 116.1835403442383 L 92.22422027587891 116.1835403442383 L 92.10356903076172 116.1835403442383 L 92.02632141113281 116.0908508300781 C 91.957275390625 116.0080032348633 91.87897491455078 115.921142578125 91.79158782958984 115.830451965332 C 91.70420837402344 115.7397537231445 91.60774230957031 115.6452331542969 91.50238037109375 115.5470428466797 C 91.39701843261719 115.448844909668 91.28275299072266 115.3469848632812 91.15978240966797 115.2416381835938 C 91.03681182861328 115.1362915039062 90.90512847900391 115.0274429321289 90.76491546630859 114.9152755737305 L 90.76271820068359 114.9135208129883 L 90.76055908203125 114.9117126464844 L 77.16102600097656 103.5367736816406 L 77.16102600097656 115.9259262084961 L 77.16102600097656 116.1835403442383 L 76.90341186523438 116.1835403442383 L 68.98330688476562 116.1835403442383 L 68.72569274902344 116.1835403442383 L 68.72569274902344 115.9259262084961 L 68.72569274902344 86.66920471191406 L 68.72569274902344 86.41159057617188 L 68.98330688476562 86.41159057617188 L 76.90341186523438 86.41159057617188 L 77.16102600097656 86.41159057617188 L 77.16102600097656 86.66920471191406 L 77.16102600097656 98.11800384521484 L 90.0714111328125 87.68069458007812 C 90.18260955810547 87.59033966064453 90.29067993164062 87.49791717529297 90.39543914794922 87.40358734130859 C 90.50019073486328 87.30927276611328 90.60163116455078 87.21305084228516 90.69959259033203 87.11511993408203 C 90.79754638671875 87.01718139648438 90.89202117919922 86.91752624511719 90.98282623291016 86.81632232666016 C 91.07362365722656 86.71511840820312 91.16075134277344 86.61238098144531 91.24404907226562 86.50827789306641 L 91.32140350341797 86.41159057617188 L 91.44520568847656 86.41159057617188 L 102.3948364257812 86.41159057617188 L 102.8498382568359 86.41159057617188 L 102.6157455444336 86.80175018310547 C 102.5909118652344 86.8431396484375 102.5639801025391 86.88407135009766 102.5350189208984 86.92446136474609 C 102.5060501098633 86.96485900878906 102.4750518798828 87.00471496582031 102.4420776367188 87.04398345947266 C 102.4090957641602 87.083251953125 102.374137878418 87.12191772460938 102.3372650146484 87.159912109375 C 102.3003845214844 87.19790649414062 102.261589050293 87.23524475097656 102.2209396362305 87.27184295654297 C 102.1841201782227 87.30497741699219 102.1471633911133 87.3377685546875 102.1101379394531 87.37016296386719 C 102.073112487793 87.40254974365234 102.0360107421875 87.43454742431641 101.998908996582 87.46607971191406 C 101.9618072509766 87.49761199951172 101.9246978759766 87.52870178222656 101.8876495361328 87.55926513671875 C 101.8506088256836 87.58983612060547 101.8136215209961 87.61989593505859 101.7767562866211 87.64938354492188 L 85.67767333984375 100.1132049560547 C 85.63671875 100.1476593017578 85.60601043701172 100.1799697875977 85.58297729492188 100.2095947265625 C 85.55995178222656 100.2392120361328 85.54459381103516 100.2661437988281 85.53436279296875 100.2898254394531 C 85.52412414550781 100.3135147094727 85.51900482177734 100.3339614868164 85.51644897460938 100.3506240844727 C 85.51388549804688 100.3672790527344 85.51388549804688 100.3801574707031 85.51388549804688 100.3886947631836 C 85.51388549804688 100.3972930908203 85.51388549804688 100.410270690918 85.51650238037109 100.4270935058594 C 85.51911163330078 100.4439086914062 85.52433013916016 100.4645614624023 85.53475952148438 100.4884948730469 C 85.54519653320312 100.5124282836914 85.56085205078125 100.5396270751953 85.58433532714844 100.5695419311523 C 85.60781860351562 100.5994567871094 85.63912963867188 100.632080078125 85.68087005615234 100.6668701171875 L 102.9464263916016 114.6437149047852 L 102.9492340087891 114.64599609375 L 102.9519958496094 114.6483459472656 C 103.0028762817383 114.6919555664062 103.0534744262695 114.735725402832 103.1036911010742 114.7795715332031 C 103.153923034668 114.8234024047852 103.2037734985352 114.867317199707 103.253173828125 114.9112243652344 C 103.3025741577148 114.9551315307617 103.3515090942383 114.9990386962891 103.39990234375 115.0428619384766 C 103.4482879638672 115.0866775512695 103.4961471557617 115.1304168701172 103.5433654785156 115.1740036010742 C 103.5918579101562 115.2187728881836 103.6400451660156 115.2646408081055 103.6878356933594 115.3115081787109 C 103.7356338500977 115.3583831787109 103.7830429077148 115.4062576293945 103.8299713134766 115.4550552368164 C 103.8768997192383 115.5038604736328 103.9233551025391 115.553581237793 103.9692611694336 115.6041412353516 C 104.0151519775391 115.6547088623047 104.0605010986328 115.7061157226562 104.1052017211914 115.7582702636719 L 104.4697494506836 116.1835403442383 Z M 92.34272003173828 115.6683120727539 L 103.315788269043 115.6683120727539 C 103.3056945800781 115.6584625244141 103.2955856323242 115.6486740112305 103.2854537963867 115.6389236450195 C 103.2753219604492 115.6291732788086 103.2651748657227 115.6194763183594 103.2550201416016 115.6098327636719 C 103.2448577880859 115.6001892089844 103.2346878051758 115.5905914306641 103.224494934082 115.5810546875 C 103.2143096923828 115.5715179443359 103.2040939331055 115.5620269775391 103.1938781738281 115.5525894165039 C 103.1480331420898 115.5102691650391 103.1015701293945 115.4677886962891 103.054573059082 115.4252243041992 C 103.0075759887695 115.3826599121094 102.9600524902344 115.3400192260742 102.9120712280273 115.2973709106445 C 102.8640899658203 115.2547149658203 102.8156585693359 115.2120513916016 102.7668609619141 115.1694488525391 C 102.7180709838867 115.1268539428711 102.6689071655273 115.0843124389648 102.6194534301758 115.0419158935547 L 85.35385894775391 101.0650024414062 C 85.29469299316406 101.0157012939453 85.24291229248047 100.9645614624023 85.19852447509766 100.9116287231445 C 85.15412902832031 100.8587036132812 85.11711883544922 100.8039932250977 85.08751678466797 100.74755859375 C 85.05790710449219 100.6911087036133 85.03569030761719 100.6329498291016 85.02088165283203 100.5731201171875 C 85.00606536865234 100.5132904052734 84.9986572265625 100.4517974853516 84.9986572265625 100.3886947631836 C 84.9986572265625 100.3256072998047 85.00606536865234 100.2641220092773 85.02083587646484 100.2043228149414 C 85.03561401367188 100.1445388793945 85.05773162841797 100.0864486694336 85.08716583251953 100.030143737793 C 85.11660003662109 99.97384643554688 85.15334320068359 99.91934967041016 85.19732666015625 99.86674499511719 C 85.24132537841797 99.81414794921875 85.29257202148438 99.76344299316406 85.35102844238281 99.71473693847656 L 85.35457611083984 99.71176910400391 L 85.35825347900391 99.70893859863281 L 101.4581146240234 87.24453735351562 C 101.4887924194336 87.21998596191406 101.5197372436523 87.19486236572266 101.5508728027344 87.16922760009766 C 101.5819931030273 87.14360046386719 101.6133117675781 87.11747741699219 101.6447296142578 87.09091186523438 C 101.676155090332 87.06434631347656 101.7076797485352 87.03733825683594 101.7392272949219 87.00997161865234 C 101.7707824707031 86.98260498046875 101.8023529052734 86.95486450195312 101.833869934082 86.92681884765625 L 91.56768798828125 86.92681884765625 C 91.48297882080078 87.0291748046875 91.39483642578125 87.13017272949219 91.30341339111328 87.22968292236328 C 91.21199035644531 87.32919311523438 91.11727905273438 87.42720794677734 91.01943206787109 87.52357482910156 C 90.92158508300781 87.61994171142578 90.82059478759766 87.71467590332031 90.71661376953125 87.8076171875 C 90.61263275146484 87.90055847167969 90.50565338134766 87.99172973632812 90.39582824707031 88.08095550537109 L 77.06536865234375 98.85787200927734 L 76.64579772949219 99.19706726074219 L 76.64579772949219 98.65753936767578 L 76.64579772949219 86.92681884765625 L 69.24092102050781 86.92681884765625 L 69.24092102050781 115.6683120727539 L 76.64579772949219 115.6683120727539 L 76.64579772949219 102.9854507446289 L 76.64579772949219 102.4341278076172 L 77.06869506835938 102.7878494262695 L 91.08880615234375 114.5145645141602 C 91.22301483154297 114.621955871582 91.34999084472656 114.7267303466797 91.46958923339844 114.8287353515625 C 91.58918762207031 114.9307327270508 91.70140838623047 115.0299758911133 91.80609130859375 115.1263046264648 C 91.91078948974609 115.2226333618164 92.00794982910156 115.3160552978516 92.09744262695312 115.4064331054688 C 92.18693542480469 115.4968185424805 92.26874542236328 115.5841598510742 92.34272003173828 115.6683120727539 Z M 66.55762481689453 116.1835403442383 L 66.30001068115234 116.1835403442383 L 50.97918319702148 116.1835403442383 C 50.31686019897461 116.1835403442383 49.67414093017578 116.1562347412109 49.05204391479492 116.101806640625 C 48.4299430847168 116.0473861694336 47.82846450805664 115.9658432006836 47.24861907958984 115.8573837280273 C 46.66877365112305 115.7489166259766 46.11056518554688 115.6135101318359 45.57500457763672 115.4513778686523 C 45.0394401550293 115.2892456054688 44.52652359008789 115.1003723144531 44.03726959228516 114.8849563598633 C 43.54808044433594 114.669563293457 43.07564163208008 114.433479309082 42.62068176269531 114.1772079467773 C 42.16572189331055 113.9209365844727 41.72824096679688 113.6444854736328 41.30897903442383 113.3483657836914 C 40.88971328735352 113.05224609375 40.48866271972656 112.736457824707 40.1065559387207 112.4015197753906 C 39.72445297241211 112.0665893554688 39.36129379272461 111.7125091552734 39.01781463623047 111.3397979736328 C 38.71794509887695 111.0106811523438 38.43377304077148 110.6684494018555 38.16567993164062 110.3137588500977 C 37.89759063720703 109.9590682983398 37.64559173583984 109.5919189453125 37.41006851196289 109.2129440307617 C 37.1745491027832 108.8339614868164 36.95550918579102 108.4431610107422 36.75335311889648 108.0411987304688 C 36.55119323730469 107.6392364501953 36.36591339111328 107.2261047363281 36.19790649414062 106.8024291992188 C 36.02976989746094 106.3784332275391 35.88235473632812 105.9446716308594 35.75580978393555 105.5019683837891 C 35.6292610168457 105.0592575073242 35.52358245849609 104.6075897216797 35.43892669677734 104.1477813720703 C 35.35426712036133 103.6879730224609 35.29061889648438 103.2200164794922 35.24813842773438 102.7447128295898 C 35.20566177368164 102.269401550293 35.18434906005859 101.7867584228516 35.18434906005859 101.2975616455078 C 35.18434906005859 100.7570495605469 35.21122360229492 100.2238388061523 35.26478576660156 99.69881439208984 C 35.3183479309082 99.17378997802734 35.39859771728516 98.65695953369141 35.50535202026367 98.14920806884766 C 35.61210632324219 97.64145660400391 35.74536514282227 97.14277648925781 35.90493392944336 96.65406036376953 C 36.06451034545898 96.16534423828125 36.25039672851562 95.68660736083984 36.46240997314453 95.21871185302734 C 36.67419815063477 94.75131225585938 36.90710830688477 94.29800415039062 37.16062164306641 93.85948944091797 C 37.41413879394531 93.42096710205078 37.68826675415039 92.99724578857422 37.98248672485352 92.58904266357422 C 38.27670669555664 92.18083190917969 38.59101486206055 91.78813171386719 38.92490768432617 91.41165161132812 C 39.2588005065918 91.03517913818359 39.61227416992188 90.6749267578125 39.98480606079102 90.33161163330078 C 40.31369018554688 90.02465057373047 40.65903854370117 89.73371887207031 41.02014923095703 89.45925903320312 C 41.38125610351562 89.18479919433594 41.75812911987305 88.92680358886719 42.15005493164062 88.68572235107422 C 42.54198455810547 88.44464111328125 42.94896697998047 88.22046661376953 43.37030410766602 88.01362609863281 C 43.79164123535156 87.80680084228516 44.22732925415039 87.61731719970703 44.67666625976562 87.44561767578125 C 45.12557601928711 87.27407836914062 45.59478378295898 87.12369537353516 46.0833740234375 86.99459075927734 C 46.57196426391602 86.86548614501953 47.07994079589844 86.75767517089844 47.60637664794922 86.67130279541016 C 48.13281631469727 86.58493804931641 48.67771530151367 86.52000427246094 49.24015426635742 86.47666931152344 C 49.80259704589844 86.43333435058594 50.3825798034668 86.41159057617188 50.97918319702148 86.41159057617188 L 66.30001068115234 86.41159057617188 L 66.55762481689453 86.41159057617188 L 66.55762481689453 86.66920471191406 L 66.55762481689453 94.41617584228516 L 66.55762481689453 94.67378997802734 L 66.30001068115234 94.67378997802734 L 50.97918319702148 94.67378997802734 C 50.65715408325195 94.67378997802734 50.34848403930664 94.68431854248047 50.05363082885742 94.70530700683594 C 49.7587776184082 94.72630310058594 49.47773742675781 94.75775909423828 49.21098709106445 94.79959869384766 C 48.94424057006836 94.84143829345703 48.69178009033203 94.8936767578125 48.45406341552734 94.95622253417969 C 48.21635055541992 95.01876068115234 47.99338531494141 95.09162139892578 47.78564453125 95.17472839355469 C 47.57770538330078 95.25789642333984 47.3761100769043 95.34833526611328 47.18117141723633 95.44583892822266 C 46.98623657226562 95.54334259033203 46.79795837402344 95.64791107177734 46.61666488647461 95.75934600830078 C 46.43536758422852 95.87078857421875 46.26104736328125 95.98909759521484 46.09402084350586 96.11408996582031 C 45.92699432373047 96.23908233642578 45.76726531982422 96.37074279785156 45.61514663696289 96.50888824462891 C 45.45630264282227 96.66097259521484 45.30519866943359 96.82062530517578 45.16205978393555 96.98751068115234 C 45.0189208984375 97.15440368652344 44.88373947143555 97.32853698730469 44.75674057006836 97.50960540771484 C 44.62974166870117 97.69066619873047 44.51092147827148 97.87867736816406 44.40050888061523 98.07330322265625 C 44.29008865356445 98.26792144775391 44.18807220458984 98.46915435791016 44.09467697143555 98.67668914794922 C 44.00152206420898 98.88371276855469 43.91984939575195 99.09500122070312 43.8497314453125 99.31016540527344 C 43.77961730957031 99.52533721923828 43.7210693359375 99.74437713623047 43.67416000366211 99.96690368652344 C 43.62725067138672 100.1894302368164 43.59198379516602 100.4154586791992 43.56845092773438 100.6445770263672 C 43.54491424560547 100.8736877441406 43.53310394287109 101.1059112548828 43.53310394287109 101.3408432006836 C 43.53310394287109 101.55517578125 43.54272842407227 101.7671585083008 43.56190872192383 101.9764251708984 C 43.58108901977539 102.1856918334961 43.60982894897461 102.3922424316406 43.64805221557617 102.5957260131836 C 43.686279296875 102.7992172241211 43.7339973449707 102.9996337890625 43.79113388061523 103.1966323852539 C 43.84827423095703 103.3936386108398 43.91484069824219 103.5872039794922 43.99075698852539 103.7770004272461 C 44.06667327880859 103.9667892456055 44.15071487426758 104.1515579223633 44.24269866943359 104.3309860229492 C 44.33467864990234 104.5104141235352 44.43459701538086 104.6845169067383 44.54226684570312 104.8529968261719 C 44.64993667602539 105.0214767456055 44.76535797119141 105.1843338012695 44.88833999633789 105.3412780761719 C 45.01131439208984 105.4982147216797 45.1418571472168 105.6492385864258 45.27976608276367 105.7940521240234 C 45.43228530883789 105.9604110717773 45.59485244750977 106.1184387207031 45.76718139648438 106.2679672241211 C 45.93951034545898 106.4174880981445 46.12160491943359 106.5584945678711 46.31317901611328 106.6908187866211 C 46.50475311279297 106.8231353759766 46.70581436157227 106.94677734375 46.91607284545898 107.0615692138672 C 47.12633895874023 107.1763534545898 47.34580230712891 107.2822723388672 47.57418060302734 107.3791580200195 C 47.80310440063477 107.4762802124023 48.0463981628418 107.5614318847656 48.30356597900391 107.6345291137695 C 48.56072616577148 107.7076263427734 48.83176422119141 107.768669128418 49.11617660522461 107.8175735473633 C 49.40058517456055 107.8664703369141 49.6983757019043 107.9032363891602 50.0090446472168 107.9277725219727 C 50.3197135925293 107.9523086547852 50.64325714111328 107.9646224975586 50.97918319702148 107.9646224975586 L 66.30001068115234 107.9646224975586 L 66.55762481689453 107.9646224975586 L 66.55762481689453 108.2222366333008 L 66.55762481689453 115.9259262084961 L 66.55762481689453 116.1835403442383 Z M 50.97918319702148 86.92681884765625 C 50.39835357666016 86.92681884765625 49.83406829833984 86.94785308837891 49.2872200012207 86.98976135253906 C 48.74037170410156 87.03167724609375 48.21096038818359 87.094482421875 47.69988632202148 87.17800903320312 C 47.18881607055664 87.26154327392578 46.69607162475586 87.36582183837891 46.22255325317383 87.49069213867188 C 45.7490348815918 87.61555480957031 45.29474639892578 87.76101684570312 44.86057662963867 87.92691802978516 C 44.42684173583984 88.0926513671875 44.00637435913086 88.27545928955078 43.59984588623047 88.47494506835938 C 43.19332122802734 88.67442321777344 42.80072784423828 88.89057922363281 42.42272567749023 89.12298583984375 C 42.04472351074219 89.35540771484375 41.68132400512695 89.60408020019531 41.33317565917969 89.86861419677734 C 40.98503112792969 90.13314819335938 40.65213394165039 90.41354370117188 40.33516311645508 90.70938110351562 C 39.97509384155273 91.04120635986328 39.63349533081055 91.38935852050781 39.31085205078125 91.75314331054688 C 38.98820877075195 92.11693572998047 38.68452072143555 92.49636077880859 38.40026473999023 92.8907470703125 C 38.11600875854492 93.28514099121094 37.85118103027344 93.69451141357422 37.60625839233398 94.11817169189453 C 37.3613395690918 94.54183959960938 37.13632965087891 94.97978973388672 36.93170928955078 95.43137359619141 C 36.72731399536133 95.8824462890625 36.54810333251953 96.34410858154297 36.39427185058594 96.81549835205078 C 36.24043655395508 97.28688812255859 36.11196517944336 97.76801300048828 36.00904846191406 98.25800323486328 C 35.9061279296875 98.74799346923828 35.82876205444336 99.24685668945312 35.77712631225586 99.75373840332031 C 35.72548675537109 100.260612487793 35.69957733154297 100.7755126953125 35.69957733154297 101.2975616455078 C 35.69957733154297 101.7704238891602 35.72012710571289 102.2368392944336 35.76108932495117 102.6960144042969 C 35.80204391479492 103.1551971435547 35.86340713500977 103.6071472167969 35.94504165649414 104.0510940551758 C 36.02667236328125 104.4950332641602 36.12857055664062 104.9309768676758 36.25058364868164 105.3581314086914 C 36.37260055541992 105.7852935791016 36.51473999023438 106.2036743164062 36.67686080932617 106.6124877929688 C 36.83910751342773 107.0216445922852 37.01800918579102 107.4206008911133 37.21316146850586 107.8087158203125 C 37.40831756591797 108.1968231201172 37.61972427368164 108.574089050293 37.84699249267578 108.9398727416992 C 38.07425689697266 109.3056640625 38.31737899780273 109.6599655151367 38.57595825195312 110.0021514892578 C 38.83454132080078 110.3443450927734 39.10857772827148 110.6744003295898 39.39767837524414 110.9917068481445 C 39.72882461547852 111.3510437011719 40.07912826538086 111.6925048828125 40.44787216186523 112.0156021118164 C 40.81661605834961 112.3386993408203 41.20380020141602 112.6434173583984 41.60869979858398 112.9292449951172 C 42.01359939575195 113.2150802612305 42.43621063232422 113.4820175170898 42.87581253051758 113.7295532226562 C 43.31542205810547 113.9770889282227 43.77201461791992 114.2052230834961 44.24488067626953 114.4134216308594 C 44.71768188476562 114.6215972900391 45.21389007568359 114.8041152954102 45.73252487182617 114.9607925415039 C 46.25115966796875 115.1174697875977 46.79222106933594 115.2482986450195 47.35472106933594 115.3531265258789 C 47.91722106933594 115.4579467773438 48.50117111206055 115.536735534668 49.10557556152344 115.5893325805664 C 49.70998382568359 115.6419219970703 50.33484649658203 115.6683120727539 50.97918319702148 115.6683120727539 L 66.04239654541016 115.6683120727539 L 66.04239654541016 108.479850769043 L 50.97918319702148 108.479850769043 C 50.62588119506836 108.479850769043 50.28506851196289 108.466667175293 49.95727920532227 108.4404220581055 C 49.62948989868164 108.4141693115234 49.31472015380859 108.3748397827148 49.01350021362305 108.3225173950195 C 48.7122802734375 108.2702026367188 48.42461013793945 108.2048950195312 48.15100860595703 108.1266937255859 C 47.87741088867188 108.0484848022461 47.61788558959961 107.957389831543 47.37295913696289 107.8534851074219 C 47.12749481201172 107.7493515014648 46.8914680480957 107.6353378295898 46.66523361206055 107.5117034912109 C 46.43899917602539 107.3880615234375 46.22255706787109 107.2547988891602 46.01627349853516 107.1121520996094 C 45.80998611450195 106.9695053100586 45.61386108398438 106.817497253418 45.42824935913086 106.6563415527344 C 45.24263763427734 106.4952011108398 45.06753921508789 106.3249282836914 44.9033203125 106.1457824707031 C 44.7548942565918 105.9899520874023 44.61425399780273 105.8272094726562 44.48165893554688 105.6579437255859 C 44.34906005859375 105.4886856079102 44.22450637817383 105.3128967285156 44.10824966430664 105.1309432983398 C 43.99199676513672 104.9489898681641 43.88404083251953 104.7608795166016 43.78464126586914 104.5669860839844 C 43.68524551391602 104.3731002807617 43.59440231323242 104.1734237670898 43.51237106323242 103.9683532714844 C 43.43033599853516 103.7632827758789 43.35841751098633 103.5542221069336 43.29667663574219 103.3415603637695 C 43.23493957519531 103.1288986206055 43.18338394165039 102.9126358032227 43.14207458496094 102.6931686401367 C 43.10076904296875 102.4737014770508 43.06972122192383 102.2510147094727 43.04899597167969 102.0254974365234 C 43.02827453613281 101.7999877929688 43.01787567138672 101.5716400146484 43.01787567138672 101.3408432006836 C 43.01787567138672 101.0875625610352 43.0306396484375 100.8371353149414 43.05607604980469 100.5899810791016 C 43.08151626586914 100.3428344726562 43.11963272094727 100.0989456176758 43.17032623291016 99.85875701904297 C 43.22102355957031 99.61857604980469 43.2843132019043 99.382080078125 43.36009216308594 99.14968872070312 C 43.43587493896484 98.91728973388672 43.52415466308594 98.68901824951172 43.62484359741211 98.46526336669922 C 43.72518157958984 98.24227905273438 43.83484649658203 98.02603149414062 43.9536018371582 97.81685638427734 C 44.07235717773438 97.60768127441406 44.20020294189453 97.40557098388672 44.33689880371094 97.21087646484375 C 44.47359848022461 97.01617431640625 44.61914825439453 96.82888031005859 44.7733039855957 96.64933013916016 C 44.92746734619141 96.46979522705078 45.09024047851562 96.29799652099609 45.26138687133789 96.13429260253906 L 45.26374435424805 96.13204193115234 L 45.26616668701172 96.12984466552734 C 45.42982482910156 95.98105621337891 45.60152435302734 95.83933258056641 45.78092575073242 95.70486450195312 C 45.9603271484375 95.57038879394531 46.14743041992188 95.44318389892578 46.34189224243164 95.32344818115234 C 46.53635406494141 95.20371246337891 46.73817825317383 95.09144592285156 46.94702529907227 94.98685455322266 C 47.1558723449707 94.88227081298828 47.37174224853516 94.78535461425781 47.59428787231445 94.69632720947266 C 47.81731414794922 94.60712432861328 48.05576324462891 94.52890777587891 48.30913925170898 94.46176910400391 C 48.5625114440918 94.39462280273438 48.83081436157227 94.33855438232422 49.11354446411133 94.29363250732422 C 49.39627838134766 94.24871063232422 49.69344329833984 94.21494293212891 50.00455093383789 94.19240570068359 C 50.31565475463867 94.16987609863281 50.64070129394531 94.15856170654297 50.97918319702148 94.15856170654297 L 66.04239654541016 94.15856170654297 L 66.04239654541016 86.92681884765625 L 50.97918319702148 86.92681884765625 Z M 33.66545486450195 116.1835403442383 L 33.40784454345703 116.1835403442383 L 6.747872829437256 116.1835403442383 C 6.38927698135376 116.1835403442383 6.051677703857422 116.1605834960938 5.735550880432129 116.1148300170898 C 5.419424533843994 116.0690841674805 5.124770641326904 116.0005493164062 4.852066040039062 115.9093704223633 C 4.579361438751221 115.8181991577148 4.328606128692627 115.7043914794922 4.100275993347168 115.5681076049805 C 3.871946096420288 115.4318237304688 3.666041612625122 115.273063659668 3.483038902282715 115.0919876098633 C 3.299849271774292 114.9107208251953 3.139235734939575 114.7067642211914 3.001359462738037 114.480583190918 C 2.863483428955078 114.2544021606445 2.748344421386719 114.0059967041016 2.65610408782959 113.73583984375 C 2.563863754272461 113.465690612793 2.494522094726562 113.1737899780273 2.448240518569946 112.8606109619141 C 2.40195894241333 112.5474166870117 2.378737449645996 112.2129592895508 2.378737449645996 111.8576812744141 L 2.378737449645996 90.60761260986328 C 2.378737449645996 90.26256561279297 2.402269601821899 89.93773651123047 2.449170827865601 89.63359069824219 C 2.496071815490723 89.32943725585938 2.566341638565063 89.04595947265625 2.659816980361938 88.78361511230469 C 2.753292322158813 88.52127838134766 2.869972705841064 88.28006744384766 3.009695529937744 88.06045532226562 C 3.149418354034424 87.84083557128906 3.312182903289795 87.64281463623047 3.497826099395752 87.46684265136719 C 3.682496786117554 87.29179382324219 3.890252113342285 87.13832092285156 4.120611190795898 87.00656890869141 C 4.350969791412354 86.87481689453125 4.60393238067627 86.76478576660156 4.87901782989502 86.67664337158203 C 5.15410327911377 86.5885009765625 5.451311111450195 86.52223968505859 5.77016019821167 86.47800445556641 C 6.089009761810303 86.43377685546875 6.429500579833984 86.41159057617188 6.791151523590088 86.41159057617188 L 33.40784454345703 86.41159057617188 L 33.66545486450195 86.41159057617188 L 33.66545486450195 86.66920471191406 L 33.66545486450195 94.41617584228516 L 33.66545486450195 94.67378997802734 L 33.40784454345703 94.67378997802734 L 11.1623477935791 94.67378997802734 C 11.09523296356201 94.67378997802734 11.03449726104736 94.67877960205078 10.98114490509033 94.69249725341797 C 10.92779445648193 94.70622253417969 10.88182735443115 94.72866058349609 10.8442497253418 94.7635498046875 C 10.80667114257812 94.79843902587891 10.77748203277588 94.84576416015625 10.75768852233887 94.90925598144531 C 10.73789501190186 94.97274017333984 10.72749519348145 95.05239105224609 10.72749519348145 95.15192413330078 L 10.72749519348145 98.22679901123047 L 33.27800750732422 98.22679901123047 L 33.53561782836914 98.22679901123047 L 33.53561782836914 98.48441314697266 L 33.53561782836914 104.1107177734375 L 33.53561782836914 104.3683319091797 L 33.27800750732422 104.3683319091797 L 10.72749519348145 104.3683319091797 L 10.72749519348145 107.6596069335938 C 10.72749519348145 107.7677917480469 10.73836040496826 107.8544692993164 10.75873565673828 107.9236373901367 C 10.77911186218262 107.992805480957 10.80899810791016 108.0444641113281 10.84704113006592 108.0825958251953 C 10.88508415222168 108.120719909668 10.93128395080566 108.1453323364258 10.98428630828857 108.160400390625 C 11.03728866577148 108.1754684448242 11.09709453582764 108.1810150146484 11.1623477935791 108.1810150146484 L 33.40784454345703 108.1810150146484 L 33.66545486450195 108.1810150146484 L 33.66545486450195 108.4386291503906 L 33.66545486450195 115.9259262084961 L 33.66545486450195 116.1835403442383 Z M 6.791151523590088 86.92681884765625 C 6.135549545288086 86.92681884765625 5.564174175262451 87.0020751953125 5.075888156890869 87.15364837646484 C 4.587601661682129 87.30522155761719 4.182403564453125 87.53311920166016 3.859155416488647 87.83841705322266 C 3.535907745361328 88.14370727539062 3.294610500335693 88.52641296386719 3.134124994277954 88.98759460449219 C 2.973639488220215 89.44876098632812 2.893965721130371 89.98841094970703 2.893965721130371 90.60761260986328 L 2.893965721130371 111.8576812744141 C 2.893965721130371 112.4987258911133 2.97275447845459 113.0574035644531 3.131457805633545 113.5348510742188 C 3.290161371231079 114.0122909545898 3.528779268264771 114.4084854125977 3.848437309265137 114.7245483398438 C 4.168095111846924 115.0406265258789 4.568793296813965 115.2765655517578 5.051657676696777 115.4334869384766 C 5.534521102905273 115.5904083251953 6.099551200866699 115.6683120727539 6.747872829437256 115.6683120727539 L 33.15023040771484 115.6683120727539 L 33.15023040771484 108.6962432861328 L 11.1623477935791 108.6962432861328 C 11.011399269104 108.6962432861328 10.87654495239258 108.6726303100586 10.75917148590088 108.6269149780273 C 10.64179801940918 108.5811996459961 10.54190635681152 108.5133743286133 10.46088409423828 108.4249725341797 C 10.37986183166504 108.3365631103516 10.31770706176758 108.2275772094727 10.2758092880249 108.0995101928711 C 10.23391056060791 107.9714431762695 10.21226692199707 107.8243026733398 10.21226692199707 107.6596069335938 L 10.21226692199707 104.1107177734375 L 10.21226692199707 103.8531036376953 L 10.46988105773926 103.8531036376953 L 33.02039337158203 103.8531036376953 L 33.02039337158203 98.74202728271484 L 10.46988105773926 98.74202728271484 L 10.21226692199707 98.74202728271484 L 10.21226692199707 98.48441314697266 L 10.21226692199707 95.15192413330078 C 10.21226692199707 94.99410247802734 10.23391056060791 94.85310363769531 10.2758092880249 94.73037719726562 C 10.31770706176758 94.60765838623047 10.37986183166504 94.50321197509766 10.46088409423828 94.41850280761719 C 10.54190635681152 94.33379364013672 10.64179801940918 94.26880645751953 10.75917148590088 94.22499847412109 C 10.87654495239258 94.18119812011719 11.011399269104 94.15856170654297 11.1623477935791 94.15856170654297 L 33.15023040771484 94.15856170654297 L 33.15023040771484 86.92681884765625 L 6.791151523590088 86.92681884765625 Z M 89.93043518066406 79.08710479736328 L 74.13353729248047 79.08710479736328 C 73.77995300292969 79.08710479736328 73.46804046630859 79.04132080078125 73.19907379150391 78.95098114013672 C 72.93009948730469 78.86064147949219 72.70406341552734 78.72575378417969 72.52222442626953 78.54755401611328 C 72.34037780761719 78.36935424804688 72.20273590087891 78.1478271484375 72.11054992675781 77.88423919677734 C 72.01836395263672 77.62065124511719 71.97164154052734 77.31498718261719 71.97164154052734 76.96849060058594 L 71.97164154052734 51.39049911499023 C 71.97164154052734 51.05107116699219 72.01836395263672 50.75165176391602 72.11054992675781 50.49345016479492 C 72.20273590087891 50.2352409362793 72.34037780761719 50.01825332641602 72.52222442626953 49.84369277954102 C 72.70406341552734 49.66912841796875 72.93009948730469 49.53699493408203 73.19907379150391 49.44850540161133 C 73.46804046630859 49.36001205444336 73.77995300292969 49.31516265869141 74.13353729248047 49.31516265869141 L 89.93043518066406 49.31516265869141 C 90.52703857421875 49.31516265869141 91.10702514648438 49.33690643310547 91.66946411132812 49.38024139404297 C 92.23190307617188 49.4235725402832 92.77680206298828 49.48850631713867 93.30323791503906 49.57487487792969 C 93.82968139648438 49.6612434387207 94.33766174316406 49.7690544128418 94.82625579833984 49.89815902709961 C 95.31484222412109 50.02725982666016 95.78404998779297 50.17765045166016 96.23295593261719 50.34918212890625 C 96.68229675292969 50.52087783813477 97.11798858642578 50.71036529541016 97.53933715820312 50.91721343994141 C 97.96068572998047 51.12406539916992 98.36770629882812 51.34827423095703 98.75971221923828 51.58943176269531 C 99.15171051025391 51.83058547973633 99.52870178222656 52.08868026733398 99.88997650146484 52.36329650878906 C 100.2512512207031 52.63791656494141 100.5968246459961 52.92905426025391 100.9260025024414 53.23628997802734 C 101.2982406616211 53.57933044433594 101.651481628418 53.93937683105469 101.9852066040039 54.31569671630859 C 102.3189315795898 54.6920166015625 102.6331329345703 55.08461380004883 102.9272842407227 55.49275588989258 C 103.2214279174805 55.90089797973633 103.4955139160156 56.32457733154297 103.7490158081055 56.76307678222656 C 104.0025100708008 57.20157241821289 104.2354278564453 57.65488433837891 104.4472122192383 58.12227630615234 C 104.6592254638672 58.59017181396484 104.8451232910156 59.06892013549805 105.0046920776367 59.55763244628906 C 105.1642608642578 60.04634475708008 105.2975082397461 60.54502105712891 105.4042663574219 61.05277633666992 C 105.5110168457031 61.5605354309082 105.5912704467773 62.07736587524414 105.6448364257812 62.60239028930664 C 105.6984024047852 63.12741088867188 105.7252731323242 63.66062164306641 105.7252731323242 64.20113372802734 C 105.7252731323242 64.69032287597656 105.7039642333984 65.1729736328125 105.6614837646484 65.64827728271484 C 105.6190032958984 66.12358856201172 105.5553588867188 66.59153747558594 105.4706954956055 67.05135345458984 C 105.3860397338867 67.51116180419922 105.2803649902344 67.96282958984375 105.1538238525391 68.40554046630859 C 105.0272674560547 68.84824371337891 104.8798522949219 69.28199768066406 104.7117156982422 69.70600128173828 C 104.5437088012695 70.12966918945312 104.3584289550781 70.54280853271484 104.1562881469727 70.94475555419922 C 103.9541397094727 71.34670257568359 103.7351379394531 71.73746490478516 103.4996719360352 72.11637878417969 C 103.2642135620117 72.49528503417969 103.0123062133789 72.86233520507812 102.7443542480469 73.21688079833984 C 102.4764022827148 73.57141876220703 102.1924209594727 73.91343688964844 101.8927993774414 74.24228668212891 C 101.5490798950195 74.61527252197266 101.1857299804688 74.96955871582031 100.8034820556641 75.30464172363281 C 100.4212417602539 75.63972473144531 100.0200881958008 75.95561218261719 99.60076904296875 76.25180053710938 C 99.18144989013672 76.54799652099609 98.74394226074219 76.82447814941406 98.28896331787109 77.08076477050781 C 97.83399200439453 77.33704376220703 97.36154174804688 77.57313537597656 96.87235260009766 77.78852081298828 C 96.38310241699219 78.00394439697266 95.87018585205078 78.19281768798828 95.33462524414062 78.35494995117188 C 94.79905700683594 78.51708221435547 94.24085235595703 78.65248107910156 93.66099548339844 78.76095581054688 C 93.08115386962891 78.86941528320312 92.47967529296875 78.95095825195312 91.85757446289062 79.00537872314453 C 91.23548126220703 79.05979919433594 90.59275817871094 79.08710479736328 89.93043518066406 79.08710479736328 Z M 74.13353729248047 49.83038711547852 C 73.85268402099609 49.83038711547852 73.60933685302734 49.86137390136719 73.40229797363281 49.92447662353516 C 73.19526672363281 49.98758316040039 73.02454376220703 50.08281326293945 72.888916015625 50.2113037109375 C 72.7532958984375 50.33979034423828 72.65278625488281 50.50154876708984 72.58617401123047 50.69769668579102 C 72.51956939697266 50.89385223388672 72.48686981201172 51.12440872192383 72.48686981201172 51.39049911499023 L 72.48686981201172 76.96849060058594 C 72.48686981201172 77.24196624755859 72.51956939697266 77.47891998291016 72.58617401123047 77.68051147460938 C 72.65278625488281 77.88211059570312 72.7532958984375 78.04834747314453 72.888916015625 78.18040466308594 C 73.02454376220703 78.31245422363281 73.19526672363281 78.41032409667969 73.40229797363281 78.47518157958984 C 73.60933685302734 78.5400390625 73.85268402099609 78.57187652587891 74.13353729248047 78.57187652587891 L 89.93043518066406 78.57187652587891 C 90.57477569580078 78.57187652587891 91.19963836669922 78.54549407958984 91.80405426025391 78.49289703369141 C 92.40845489501953 78.44029998779297 92.99240112304688 78.36151123046875 93.55490112304688 78.25669097900391 C 94.11740112304688 78.15187072753906 94.65847015380859 78.02103424072266 95.17710113525391 77.86435699462891 C 95.69573211669922 77.70767974853516 96.19194030761719 77.52516174316406 96.66474151611328 77.31699371337891 C 97.13760375976562 77.10878753662109 97.59420013427734 76.88065338134766 98.03382110595703 76.63310241699219 C 98.47343444824219 76.38555145263672 98.89608001708984 76.11858367919922 99.30104064941406 75.83268737792969 C 99.70600128173828 75.54678344726562 100.0932769775391 75.24195861816406 100.462158203125 74.91870880126953 C 100.8310470581055 74.59546661376953 101.1815414428711 74.25379943847656 101.512939453125 73.89420318603516 C 101.8017883300781 73.57716369628906 102.0756454467773 73.24729919433594 102.3340835571289 72.90526580810547 C 102.5925216674805 72.563232421875 102.8355484008789 72.20903015136719 103.0627517700195 71.84331512451172 C 103.2899551391602 71.47759246826172 103.501335144043 71.10036468505859 103.6964721679688 70.71226501464844 C 103.8916168212891 70.32417297363281 104.0705184936523 69.92521667480469 104.2327575683594 69.51605987548828 C 104.3948745727539 69.10723876953125 104.5370178222656 68.68885803222656 104.6590347290039 68.26170349121094 C 104.7810516357422 67.83454132080078 104.8829498291016 67.39859771728516 104.9645843505859 66.95465087890625 C 105.0462188720703 66.51070404052734 105.1075744628906 66.05875396728516 105.1485366821289 65.59957885742188 C 105.1894989013672 65.14040374755859 105.2100448608398 64.67399597167969 105.2100448608398 64.20113372802734 C 105.2100448608398 63.67908096313477 105.1841354370117 63.16418838500977 105.1324996948242 62.65730667114258 C 105.0808563232422 62.15042877197266 105.0034866333008 61.65156555175781 104.9005661010742 61.16157150268555 C 104.7976531982422 60.67158126831055 104.6691818237305 60.19046020507812 104.5153503417969 59.71907043457031 C 104.3615112304688 59.2476806640625 104.1823120117188 58.78601837158203 103.977912902832 58.33493804931641 C 103.7732925415039 57.88335418701172 103.5482864379883 57.44540023803711 103.3033828735352 57.02175521850586 C 103.058479309082 56.59811401367188 102.7936859130859 56.18878173828125 102.5094985961914 55.79446029663086 C 102.2253112792969 55.4001350402832 101.9217376708984 55.02080917358398 101.5992660522461 54.65717697143555 C 101.2767944335938 54.29354858398438 100.935417175293 53.94561004638672 100.5756454467773 53.61405563354492 C 100.2583694458008 53.31793975830078 99.92525482177734 53.0373420715332 99.57694244384766 52.77265167236328 C 99.22863006591797 52.50796127319336 98.8651123046875 52.25918197631836 98.48703765869141 52.02669525146484 C 98.10897064208984 51.79421615600586 97.71634674072266 51.57802963256836 97.30979919433594 51.37853622436523 C 96.90325164794922 51.17903518676758 96.48278045654297 50.99621963500977 96.04904174804688 50.83048248291016 C 95.6148681640625 50.66458129882812 95.16058349609375 50.51912689208984 94.68706512451172 50.39425659179688 C 94.21355438232422 50.26939392089844 93.72080993652344 50.16511917114258 93.20973205566406 50.08158111572266 C 92.69865417480469 49.99804306030273 92.16925048828125 49.93524932861328 91.62241363525391 49.89333343505859 C 91.0755615234375 49.85141754150391 90.51126861572266 49.83038711547852 89.93043518066406 49.83038711547852 L 74.13353729248047 49.83038711547852 Z M 69.06781005859375 79.08710479736328 L 68.81019592285156 79.08710479736328 L 60.93339157104492 79.08710479736328 L 60.67577743530273 79.08710479736328 L 60.67577743530273 78.82949066162109 L 60.67577743530273 67.79124450683594 L 43.74950408935547 67.79124450683594 L 43.74950408935547 78.82949066162109 L 43.74950408935547 79.08710479736328 L 43.49188995361328 79.08710479736328 L 35.61506652832031 79.08710479736328 L 35.35745239257812 79.08710479736328 L 35.35745239257812 78.82949066162109 L 35.35745239257812 49.57277297973633 L 35.35745239257812 49.31516265869141 L 35.61506652832031 49.31516265869141 L 43.49188995361328 49.31516265869141 L 43.74950408935547 49.31516265869141 L 43.74950408935547 49.57277297973633 L 43.74950408935547 59.91856002807617 L 60.67577743530273 59.91856002807617 L 60.67577743530273 49.57277297973633 L 60.67577743530273 49.31516265869141 L 60.93339157104492 49.31516265869141 L 68.81019592285156 49.31516265869141 L 69.06781005859375 49.31516265869141 L 69.06781005859375 49.57277297973633 L 69.06781005859375 78.82949066162109 L 69.06781005859375 79.08710479736328 Z M 61.19100570678711 78.57187652587891 L 68.55258178710938 78.57187652587891 L 68.55258178710938 49.83038711547852 L 61.19100570678711 49.83038711547852 L 61.19100570678711 60.17617416381836 L 61.19100570678711 60.43378829956055 L 60.93339157104492 60.43378829956055 L 43.49188995361328 60.43378829956055 L 43.23427581787109 60.43378829956055 L 43.23427581787109 60.17617416381836 L 43.23427581787109 49.83038711547852 L 35.8726806640625 49.83038711547852 L 35.8726806640625 78.57187652587891 L 43.23427581787109 78.57187652587891 L 43.23427581787109 67.53363037109375 L 43.23427581787109 67.27601623535156 L 43.49188995361328 67.27601623535156 L 60.93339157104492 67.27601623535156 L 61.19100570678711 67.27601623535156 L 61.19100570678711 67.53363037109375 L 61.19100570678711 78.57187652587891 Z M 33.1461067199707 79.08710479736328 L 32.88849258422852 79.08710479736328 L 17.56766510009766 79.08710479736328 C 16.90534019470215 79.08710479736328 16.26262092590332 79.05979919433594 15.64052295684814 79.00537872314453 C 15.01842403411865 78.95095825195312 14.41694641113281 78.86941528320312 13.83710098266602 78.76095581054688 C 13.25725555419922 78.65248107910156 12.69904518127441 78.51708221435547 12.16348266601562 78.35494995117188 C 11.62792015075684 78.19281768798828 11.11500549316406 78.00394439697266 10.62575054168701 77.78852081298828 C 10.13656044006348 77.57313537597656 9.664119720458984 77.33704376220703 9.209159851074219 77.08078002929688 C 8.754199981689453 76.82450866699219 8.316722869873047 76.54805755615234 7.897458076477051 76.25193786621094 C 7.478193283081055 75.95581817626953 7.077142238616943 75.64002227783203 6.695037364959717 75.30509185791016 C 6.31293249130249 74.97015380859375 5.949773788452148 74.61607360839844 5.60629415512085 74.24337005615234 C 5.3064284324646 73.91425323486328 5.022252559661865 73.572021484375 4.754163265228271 73.21733093261719 C 4.486073970794678 72.86264038085938 4.234070777893066 72.4954833984375 3.998550653457642 72.11650848388672 C 3.763030290603638 71.73753356933594 3.543992280960083 71.34673309326172 3.341832876205444 70.94477081298828 C 3.139673471450806 70.54280853271484 2.954392433166504 70.12966918945312 2.786386013031006 69.70600128173828 C 2.618251085281372 69.28199768066406 2.470836162567139 68.84824371337891 2.344289779663086 68.40554046630859 C 2.217743396759033 67.96282958984375 2.112065553665161 67.51116180419922 2.02740478515625 67.05135345458984 C 1.942744016647339 66.59153747558594 1.87910008430481 66.12358856201172 1.836621284484863 65.64827728271484 C 1.794142484664917 65.1729736328125 1.772829055786133 64.69032287597656 1.772829055786133 64.20113372802734 C 1.772829055786133 63.66062164306641 1.79970383644104 63.12741088867188 1.853267073631287 62.60239028930664 C 1.906830191612244 62.07736587524414 1.98708188533783 61.5605354309082 2.093835353851318 61.05277633666992 C 2.200589179992676 60.54502105712891 2.333845138549805 60.04634475708008 2.493416547775269 59.55763244628906 C 2.652987718582153 59.06892013549805 2.838874816894531 58.59017181396484 3.050891399383545 58.12227630615234 C 3.262678861618042 57.65488433837891 3.495588779449463 57.20157241821289 3.749106168746948 56.7630615234375 C 4.002623558044434 56.32454681396484 4.276748657226562 55.90082550048828 4.570967674255371 55.49261474609375 C 4.865186214447021 55.08440780639648 5.179498672485352 54.69170761108398 5.513390064239502 54.31523132324219 C 5.847281455993652 53.93875122070312 6.200751781463623 53.57849884033203 6.573287487030029 53.23518371582031 C 6.90217113494873 52.92821884155273 7.247519493103027 52.63729095458984 7.60862922668457 52.36283493041992 C 7.969738960266113 52.08837127685547 8.346610069274902 51.83037567138672 8.738536834716797 51.58929061889648 C 9.130465507507324 51.34820938110352 9.537449836730957 51.12403106689453 9.958786010742188 50.91719818115234 C 10.38012313842773 50.71036529541016 10.81581211090088 50.52087783813477 11.26514911651611 50.34918212890625 C 11.71405506134033 50.17765045166016 12.18326282501221 50.02725982666016 12.67185497283936 49.89815902709961 C 13.16044616699219 49.7690544128418 13.66841983795166 49.6612434387207 14.19485759735107 49.57487487792969 C 14.72129440307617 49.48850631713867 15.26619338989258 49.4235725402832 15.82863521575928 49.38024139404297 C 16.39107704162598 49.33690643310547 16.97105979919434 49.31516265869141 17.56766510009766 49.31516265869141 L 32.88849258422852 49.31516265869141 L 33.1461067199707 49.31516265869141 L 33.1461067199707 49.57277297973633 L 33.1461067199707 57.31974411010742 L 33.1461067199707 57.57735824584961 L 32.88849258422852 57.57735824584961 L 17.56766510009766 57.57735824584961 C 17.24563789367676 57.57735824584961 16.93696403503418 57.58789443969727 16.64210891723633 57.60888290405273 C 16.34725379943848 57.62987518310547 16.06621932983398 57.66133117675781 15.79946994781494 57.70317459106445 C 15.5327205657959 57.74501800537109 15.28025531768799 57.79724502563477 15.04254341125488 57.85978698730469 C 14.80483150482178 57.92233276367188 14.58187007904053 57.99518585205078 14.37412548065186 58.07828903198242 C 14.16618537902832 58.16146469116211 13.9645881652832 58.25189971923828 13.76965236663818 58.34940719604492 C 13.57471561431885 58.44690704345703 13.38644027709961 58.55147552490234 13.20514297485352 58.66291809082031 C 13.02384662628174 58.77435684204102 12.84952545166016 58.89267349243164 12.6825008392334 59.01766204833984 C 12.51547527313232 59.14265441894531 12.35574626922607 59.27431869506836 12.20362758636475 59.41246032714844 C 12.04478645324707 59.56454467773438 11.89368343353271 59.72418975830078 11.75054168701172 59.89108276367188 C 11.60740089416504 60.0579719543457 11.4722204208374 60.23210906982422 11.3452205657959 60.41317749023438 C 11.21822071075439 60.59424591064453 11.09940147399902 60.78224563598633 10.98898506164551 60.97686767578125 C 10.87856864929199 61.17148590087891 10.7765531539917 61.37271881103516 10.68315982818604 61.58025741577148 C 10.59000301361084 61.78728103637695 10.50832748413086 61.99856567382812 10.43821334838867 62.2137336730957 C 10.36809921264648 62.42889785766602 10.30954647064209 62.64794158935547 10.26263809204102 62.8704719543457 C 10.21573066711426 63.09300231933594 10.18046760559082 63.31901931762695 10.15693187713623 63.54814147949219 C 10.13339614868164 63.77725982666016 10.12158679962158 64.00947570800781 10.12158679962158 64.24441528320312 C 10.12158679962158 64.45874786376953 10.13121032714844 64.67072296142578 10.150390625 64.87998962402344 C 10.16956996917725 65.08926391601562 10.19830799102783 65.29581451416016 10.23653411865234 65.49929809570312 C 10.27476119995117 65.70278167724609 10.32247734069824 65.90320587158203 10.37961673736572 66.10020446777344 C 10.43675708770752 66.29720306396484 10.50331974029541 66.49077606201172 10.57923793792725 66.68056488037109 C 10.65515327453613 66.870361328125 10.73919677734375 67.05512237548828 10.83117866516113 67.23455047607422 C 10.92315864562988 67.41398620605469 11.02307796478271 67.58808898925781 11.13074684143066 67.75656890869141 C 11.23841571807861 67.92504119873047 11.353835105896 68.08789825439453 11.47681522369385 68.24484252929688 C 11.59979438781738 68.40177917480469 11.7303352355957 68.55280303955078 11.86824893951416 68.69761657714844 C 12.02076625823975 68.86398315429688 12.18333053588867 69.02201080322266 12.35565948486328 69.17153167724609 C 12.52798938751221 69.32106018066406 12.71008396148682 69.46206665039062 12.90166091918945 69.59438323974609 C 13.09323787689209 69.72670745849609 13.29429721832275 69.85034942626953 13.50455951690674 69.96514129638672 C 13.71481990814209 70.07991790771484 13.93428230285645 70.18584442138672 14.16266345977783 70.28273010253906 C 14.39158630371094 70.37984466552734 14.63487815856934 70.46499633789062 14.8920431137085 70.53809356689453 C 15.14920806884766 70.61119842529297 15.42024612426758 70.6722412109375 15.70465850830078 70.72113800048828 C 15.9890718460083 70.77004241943359 16.2868595123291 70.80680084228516 16.5975284576416 70.83133697509766 C 16.90819358825684 70.85587310791016 17.23174095153809 70.86818695068359 17.56766510009766 70.86818695068359 L 32.88849258422852 70.86818695068359 L 33.1461067199707 70.86818695068359 L 33.1461067199707 71.12580108642578 L 33.1461067199707 78.82949066162109 L 33.1461067199707 79.08710479736328 Z M 17.56766510009766 49.83038711547852 C 16.9868335723877 49.83038711547852 16.42254638671875 49.85141754150391 15.87569904327393 49.89333343505859 C 15.3288516998291 49.93524932861328 14.7994441986084 49.99804306030273 14.28836917877197 50.08158111572266 C 13.77729320526123 50.16511917114258 13.28455066680908 50.26939392089844 12.81103420257568 50.39425659179688 C 12.3375186920166 50.51912689208984 11.88322925567627 50.66458129882812 11.44905948638916 50.83048248291016 C 11.01532173156738 50.99621963500977 10.59485816955566 51.17903518676758 10.18832778930664 51.37851333618164 C 9.781798362731934 51.57799530029297 9.389204025268555 51.79414749145508 9.011205673217773 52.02655792236328 C 8.633207321166992 52.25897216796875 8.269804000854492 52.50764846801758 7.921656131744385 52.77217864990234 C 7.573509216308594 53.03671264648438 7.240617752075195 53.31710815429688 6.923643112182617 53.61294937133789 C 6.563572406768799 53.94478225708008 6.221976757049561 54.29292678833008 5.899333953857422 54.65671539306641 C 5.576691627502441 55.0204963684082 5.273002147674561 55.39992523193359 4.988743782043457 55.79431915283203 C 4.704485416412354 56.18871307373047 4.439657211303711 56.59807586669922 4.194738388061523 57.02173614501953 C 3.949819803237915 57.44540023803711 3.724809885025024 57.88335418701172 3.520186901092529 58.33493804931641 C 3.315792798995972 58.78601837158203 3.136587619781494 59.2476806640625 2.982751369476318 59.71907043457031 C 2.828915357589722 60.19046020507812 2.700448274612427 60.67158126831055 2.597530603408813 61.16157150268555 C 2.494613170623779 61.65156555175781 2.417244672775269 62.15042877197266 2.365605592727661 62.65730667114258 C 2.313966751098633 63.16418838500977 2.288057327270508 63.67908096313477 2.288057327270508 64.20113372802734 C 2.288057327270508 64.67399597167969 2.308607578277588 65.14040374755859 2.349565744400024 65.59957885742188 C 2.390523672103882 66.05875396728516 2.451889514923096 66.51070404052734 2.533519983291626 66.95465087890625 C 2.615150690078735 67.39859771728516 2.71704626083374 67.83454132080078 2.839064359664917 68.26170349121094 C 2.961082220077515 68.68885803222656 3.103222370147705 69.10723876953125 3.265342235565186 69.51605987548828 C 3.427590608596802 69.92521667480469 3.606490850448608 70.32417297363281 3.801645040512085 70.7122802734375 C 3.996799230575562 71.10039520263672 4.208207130432129 71.47765350341797 4.435472011566162 71.84343719482422 C 4.662736892700195 72.209228515625 4.905858039855957 72.56353759765625 5.164438247680664 72.90571594238281 C 5.423018455505371 73.24790954589844 5.697058200836182 73.57797241210938 5.986159324645996 73.89527893066406 C 6.317302703857422 74.25460815429688 6.667608737945557 74.59607696533203 7.036353588104248 74.91917419433594 C 7.405098438262939 75.24226379394531 7.792282104492188 75.54698944091797 8.19718074798584 75.83281707763672 C 8.602078437805176 76.11864471435547 9.024692535400391 76.38558197021484 9.464297294616699 76.63311767578125 C 9.903902053833008 76.88065338134766 10.36049842834473 77.10878753662109 10.83336162567139 77.31699371337891 C 11.30616092681885 77.52516174316406 11.80236911773682 77.70767974853516 12.32100296020508 77.86435699462891 C 12.83963775634766 78.02103424072266 13.38069725036621 78.15187072753906 13.94320011138916 78.25669097900391 C 14.50570297241211 78.36151123046875 15.08964920043945 78.44029998779297 15.69405460357666 78.49289703369141 C 16.29846000671387 78.54549407958984 16.92332458496094 78.57187652587891 17.56766510009766 78.57187652587891 L 32.63087844848633 78.57187652587891 L 32.63087844848633 71.38341522216797 L 17.56766510009766 71.38341522216797 C 17.21435928344727 71.38341522216797 16.87355041503906 71.3702392578125 16.54576110839844 71.34398651123047 C 16.21796989440918 71.31774139404297 15.90320205688477 71.27840423583984 15.6019811630249 71.22608947753906 C 15.30076122283936 71.17377471923828 15.01308727264404 71.10846710205078 14.73948860168457 71.03026580810547 C 14.46588897705078 70.95205688476562 14.20636463165283 70.86095428466797 13.96144199371338 70.75705718994141 C 13.71597671508789 70.65291595458984 13.47994613647461 70.53890228271484 13.25371170043945 70.41527557373047 C 13.02747631072998 70.29163360595703 12.81103610992432 70.15836334228516 12.60475158691406 70.01572418212891 C 12.39846706390381 69.87307739257812 12.20233917236328 69.72106170654297 12.01672554016113 69.55991363525391 C 11.83111381530762 69.39877319335938 11.6560173034668 69.22850036621094 11.49179744720459 69.04935455322266 C 11.34336948394775 68.89351654052734 11.20273113250732 68.73078155517578 11.07013416290283 68.56151580810547 C 10.93753910064697 68.39225006103516 10.81298637390137 68.21646118164062 10.69673347473145 68.03450775146484 C 10.58048057556152 67.85256195068359 10.47252655029297 67.66445159912109 10.37312793731689 67.47055816650391 C 10.2737283706665 67.27667236328125 10.18288421630859 67.07699584960938 10.10084915161133 66.87192535400391 C 10.01881885528564 66.66684722900391 9.946897506713867 66.45778656005859 9.885158538818359 66.24512481689453 C 9.823418617248535 66.032470703125 9.77186107635498 65.81621551513672 9.730557441711426 65.59674072265625 C 9.689253807067871 65.37726593017578 9.658204078674316 65.15458679199219 9.637480735778809 64.92906951904297 C 9.616756439208984 64.70355224609375 9.606358528137207 64.47520446777344 9.606358528137207 64.24441528320312 C 9.606358528137207 63.99113845825195 9.619121551513672 63.74071502685547 9.644559860229492 63.49356079101562 C 9.669997215270996 63.24640655517578 9.708109855651855 63.00252151489258 9.758809089660645 62.7623291015625 C 9.809507369995117 62.52213668823242 9.872791290283203 62.28563690185547 9.948574066162109 62.05324554443359 C 10.0243558883667 61.82085800170898 10.11263465881348 61.59257888793945 10.21332359313965 61.36883163452148 C 10.31366062164307 61.14585876464844 10.42332649230957 60.92960739135742 10.54208374023438 60.72042465209961 C 10.66083908081055 60.51124954223633 10.78868675231934 60.30914306640625 10.92538356781006 60.11444091796875 C 11.0620813369751 59.91973876953125 11.20762825012207 59.73244857788086 11.36178970336914 59.55290222167969 C 11.51595020294189 59.37335968017578 11.67872333526611 59.20156478881836 11.84986877441406 59.03786468505859 L 11.85222625732422 59.03560638427734 L 11.85464763641357 59.03340530395508 C 12.01830673217773 58.88462829589844 12.19000625610352 58.74289703369141 12.36940670013428 58.60842895507812 C 12.54880714416504 58.47395706176758 12.7359094619751 58.34674835205078 12.9303731918335 58.22701263427734 C 13.12483692169189 58.10727691650391 13.32666015625 57.9950065612793 13.53550720214844 57.89042282104492 C 13.74435329437256 57.78583145141602 13.96022129058838 57.68892288208008 14.18277072906494 57.59990310668945 C 14.40579605102539 57.51068878173828 14.64424324035645 57.43247222900391 14.89761829376221 57.36533355712891 C 15.15099239349365 57.29819107055664 15.4192943572998 57.24212265014648 15.70202827453613 57.19720458984375 C 15.98476123809814 57.15228271484375 16.28192901611328 57.11851501464844 16.59303092956543 57.09597396850586 C 16.90413665771484 57.07344055175781 17.22917938232422 57.06212997436523 17.56766510009766 57.06212997436523 L 32.63087844848633 57.06212997436523 L 32.63087844848633 49.83038711547852 L 17.56766510009766 49.83038711547852 Z M 89.93043518066406 71.38341522216797 L 80.62541961669922 71.38341522216797 C 80.49510192871094 71.38341522216797 80.37867736816406 71.36374664306641 80.27734375 71.32566070556641 C 80.17601013183594 71.28758239746094 80.08975982666016 71.23109436035156 80.01981353759766 71.15745544433594 C 79.94987487792969 71.08380889892578 79.89620971679688 70.99301910400391 79.86003112792969 70.88633728027344 C 79.82386016845703 70.7796630859375 79.80517578125 70.65708923339844 79.80517578125 70.5198974609375 L 79.80517578125 57.92565536499023 C 79.80517578125 57.78845977783203 79.82386016845703 57.66588973999023 79.86003112792969 57.55921173095703 C 79.89620971679688 57.45253372192383 79.94987487792969 57.36174011230469 80.01981353759766 57.28810119628906 C 80.08975982666016 57.21445846557617 80.17601013183594 57.15796279907227 80.27734375 57.11988067626953 C 80.37867736816406 57.0817985534668 80.49510192871094 57.06212997436523 80.62541961669922 57.06212997436523 L 89.93043518066406 57.06212997436523 C 90.2689208984375 57.06212997436523 90.59397125244141 57.07344055175781 90.90507507324219 57.09597396850586 C 91.21617126464844 57.11851501464844 91.51333618164062 57.15228271484375 91.79608154296875 57.19720458984375 C 92.07881164550781 57.24212265014648 92.34710693359375 57.29819107055664 92.60048675537109 57.36533355712891 C 92.85386657714844 57.43247222900391 93.09230804443359 57.51068878173828 93.31533050537109 57.59990310668945 C 93.53787994384766 57.68892288208008 93.75375366210938 57.78583145141602 93.96260070800781 57.89042282104492 C 94.17144775390625 57.9950065612793 94.37326812744141 58.10727691650391 94.56772613525391 58.22701263427734 C 94.76219177246094 58.34674835205078 94.94929504394531 58.47395706176758 95.12869262695312 58.60842895507812 C 95.30809783935547 58.74289703369141 95.47979736328125 58.88462829589844 95.64345550537109 59.03340530395508 L 95.64588165283203 59.03560638427734 L 95.64823150634766 59.03786468505859 C 95.81938171386719 59.20157241821289 95.98216247558594 59.37336730957031 96.13632202148438 59.55291366577148 C 96.29048919677734 59.73245620727539 96.43604278564453 59.91975021362305 96.57273864746094 60.11444854736328 C 96.70944213867188 60.30915451049805 96.8372802734375 60.51126480102539 96.95603179931641 60.72044372558594 C 97.07478332519531 60.92961883544922 97.1844482421875 61.1458625793457 97.2847900390625 61.36883163452148 C 97.38547515869141 61.59257888793945 97.4737548828125 61.82085800170898 97.54953765869141 62.05324554443359 C 97.62531280517578 62.28563690185547 97.68859100341797 62.52213668823242 97.73929595947266 62.7623291015625 C 97.78999328613281 63.00252151489258 97.82810974121094 63.24640655517578 97.85353851318359 63.49356079101562 C 97.87897491455078 63.74071502685547 97.89173889160156 63.99113845825195 97.89173889160156 64.24441528320312 C 97.89173889160156 64.47520446777344 97.88134765625 64.70355224609375 97.86062622070312 64.92906951904297 C 97.83989715576172 65.15458679199219 97.80884552001953 65.37726593017578 97.76753997802734 65.59674072265625 C 97.72623443603516 65.81621551513672 97.67467498779297 66.032470703125 97.61293792724609 66.24512481689453 C 97.55120086669922 66.45778656005859 97.47927856445312 66.66684722900391 97.39725494384766 66.87192535400391 C 97.31522369384766 67.07699584960938 97.22438049316406 67.27666473388672 97.12493896484375 67.47060394287109 C 97.02548217773438 67.66454315185547 96.91743469238281 67.85276031494141 96.80097198486328 68.03494262695312 C 96.68450164794922 68.21712493896484 96.55963897705078 68.39325714111328 96.42656707763672 68.56303405761719 C 96.29350280761719 68.73281097412109 96.15222930908203 68.89621734619141 96.00296783447266 69.05294799804688 C 95.83958435058594 69.23119354248047 95.66511535644531 69.40079498291016 95.47997283935547 69.56143951416016 C 95.29483032226562 69.72208404541016 95.09900665283203 69.87376403808594 94.89293670654297 70.01617431640625 C 94.68686676025391 70.15859222412109 94.47052001953125 70.291748046875 94.24433898925781 70.41532897949219 C 94.01815795898438 70.53890228271484 93.78213500976562 70.65291595458984 93.53666687011719 70.75705718994141 C 93.29174041748047 70.86095428466797 93.03221130371094 70.95205688476562 92.75861358642578 71.03026580810547 C 92.48501586914062 71.10846710205078 92.19734191894531 71.17377471923828 91.8961181640625 71.22608947753906 C 91.59489440917969 71.27840423583984 91.28012847900391 71.31774139404297 90.95233917236328 71.34398651123047 C 90.62454986572266 71.3702392578125 90.28374481201172 71.38341522216797 89.93043518066406 71.38341522216797 Z M 80.62541961669922 57.57735824584961 C 80.57484436035156 57.57735824584961 80.53049468994141 57.58072280883789 80.49240875244141 57.59037399291992 C 80.45433807373047 57.60002517700195 80.42253875732422 57.61595916748047 80.39704895019531 57.64109420776367 C 80.37156677246094 57.66622924804688 80.35240936279297 57.70056533813477 80.33961486816406 57.74701690673828 C 80.32682800292969 57.79347229003906 80.32040405273438 57.85204696655273 80.32040405273438 57.92565536499023 L 80.32040405273438 70.5198974609375 C 80.32040405273438 70.59349822998047 80.32682800292969 70.65206909179688 80.33961486816406 70.69852447509766 C 80.35240936279297 70.74497985839844 80.37156677246094 70.77931213378906 80.39704895019531 70.804443359375 C 80.42253875732422 70.82958984375 80.45433807373047 70.84552001953125 80.49240875244141 70.85517120361328 C 80.53049468994141 70.86482238769531 80.57484436035156 70.86818695068359 80.62541961669922 70.86818695068359 L 89.93043518066406 70.86818695068359 C 90.26636505126953 70.86818695068359 90.58991241455078 70.85587310791016 90.90058135986328 70.83133697509766 C 91.21124267578125 70.80680084228516 91.509033203125 70.77004241943359 91.79343414306641 70.72113800048828 C 92.07785034179688 70.6722412109375 92.34888458251953 70.61119842529297 92.60605621337891 70.53809356689453 C 92.86322021484375 70.46499633789062 93.10650634765625 70.37984466552734 93.33543395996094 70.28273010253906 C 93.56381225585938 70.18584442138672 93.78327178955078 70.07991790771484 93.99347686767578 69.96519470214844 C 94.20368957519531 69.8504638671875 94.40464019775391 69.72693634033203 94.59601593017578 69.59483337402344 C 94.78738403320312 69.46273040771484 94.96916198730469 69.32205963134766 95.14102935791016 69.17304229736328 C 95.31289672851562 69.02402496337891 95.47483062744141 68.86666870117188 95.62651824951172 68.70120239257812 C 95.76526641845703 68.55549621582031 95.89643859863281 68.40379333496094 96.01988983154297 68.24635314941406 C 96.14334106445312 68.08891296386719 96.25907135009766 67.92572021484375 96.366943359375 67.75701141357422 C 96.47481536865234 67.58831024169922 96.57484436035156 67.41409301757812 96.66687774658203 67.23461151123047 C 96.7589111328125 67.05512237548828 96.84294891357422 66.870361328125 96.91886138916016 66.68056488037109 C 96.99478149414062 66.49077606201172 97.06134796142578 66.29720306396484 97.11849212646484 66.10020446777344 C 97.17562866210938 65.90320587158203 97.22335052490234 65.70278167724609 97.26157379150391 65.49929809570312 C 97.29979705810547 65.29581451416016 97.32852935791016 65.08926391601562 97.34770965576172 64.87998962402344 C 97.36688995361328 64.67072296142578 97.37651062011719 64.45874786376953 97.37651062011719 64.24441528320312 C 97.37651062011719 64.00947570800781 97.36470794677734 63.77725982666016 97.34116363525391 63.54814147949219 C 97.31763458251953 63.31901931762695 97.28237915039062 63.09300231933594 97.23546600341797 62.8704719543457 C 97.18855285644531 62.64794158935547 97.12999725341797 62.42889785766602 97.05989074707031 62.2137336730957 C 96.98977661132812 61.99856567382812 96.90809631347656 61.78728103637695 96.81494140625 61.58025741577148 C 96.72154998779297 61.37272262573242 96.61953735351562 61.17148971557617 96.50912475585938 60.97687530517578 C 96.39870452880859 60.78225708007812 96.27989196777344 60.59425735473633 96.15289306640625 60.41318893432617 C 96.02589416503906 60.23212051391602 95.89070892333984 60.0579833984375 95.74757385253906 59.89109039306641 C 95.60442352294922 59.72420120239258 95.45332336425781 59.56455230712891 95.29447174072266 59.41246032714844 C 95.14235687255859 59.27431869506836 94.98262786865234 59.14265441894531 94.81560516357422 59.01766204833984 C 94.64857482910156 58.89267349243164 94.47425842285156 58.77435684204102 94.29296112060547 58.66291809082031 C 94.11165618896484 58.55147552490234 93.92337799072266 58.44690704345703 93.72844696044922 58.34940719604492 C 93.53350830078125 58.25189971923828 93.33192443847656 58.16146469116211 93.12397766113281 58.07828903198242 C 92.91623687744141 57.99518585205078 92.69327545166016 57.92233276367188 92.45557403564453 57.85978698730469 C 92.21785736083984 57.79724502563477 91.96539306640625 57.74501800537109 91.69863891601562 57.70317459106445 C 91.43189239501953 57.66133117675781 91.15084838867188 57.62987518310547 90.85599517822266 57.60888290405273 C 90.56114196777344 57.58789443969727 90.25246429443359 57.57735824584961 89.93043518066406 57.57735824584961 L 80.62541961669922 57.57735824584961 Z M 69.15437316894531 41.99067306518555 L 68.89675903320312 41.99067306518555 L 61.01995086669922 41.99067306518555 L 60.76233673095703 41.99067306518555 L 60.76233673095703 41.73305892944336 L 60.76233673095703 20.48092842102051 L 48.16603851318359 20.48092842102051 L 47.90842437744141 20.48092842102051 L 47.90842437744141 20.22331428527832 L 47.90842437744141 12.47634220123291 L 47.90842437744141 12.21872806549072 L 48.16603851318359 12.21872806549072 L 81.7073974609375 12.21872806549072 L 81.96501159667969 12.21872806549072 L 81.96501159667969 12.47634220123291 L 81.96501159667969 20.22331428527832 L 81.96501159667969 20.48092842102051 L 81.7073974609375 20.48092842102051 L 69.15437316894531 20.48092842102051 L 69.15437316894531 41.73305892944336 L 69.15437316894531 41.99067306518555 Z M 61.27756500244141 41.47544479370117 L 68.63914489746094 41.47544479370117 L 68.63914489746094 20.22331428527832 L 68.63914489746094 19.96570014953613 L 68.89675903320312 19.96570014953613 L 81.44978332519531 19.96570014953613 L 81.44978332519531 12.7339563369751 L 48.42365264892578 12.7339563369751 L 48.42365264892578 19.96570014953613 L 61.01995086669922 19.96570014953613 L 61.27756500244141 19.96570014953613 L 61.27756500244141 20.22331428527832 L 61.27756500244141 41.47544479370117 Z M 46.34625244140625 41.99067306518555 L 46.08863830566406 41.99067306518555 L 38.21183013916016 41.99067306518555 L 37.95421600341797 41.99067306518555 L 37.95421600341797 41.73305892944336 L 37.95421600341797 12.47634220123291 L 37.95421600341797 12.21872806549072 L 38.21183013916016 12.21872806549072 L 46.08863830566406 12.21872806549072 L 46.34625244140625 12.21872806549072 L 46.34625244140625 12.47634220123291 L 46.34625244140625 41.73305892944336 L 46.34625244140625 41.99067306518555 Z M 38.46944427490234 41.47544479370117 L 45.83102416992188 41.47544479370117 L 45.83102416992188 12.7339563369751 L 38.46944427490234 12.7339563369751 L 38.46944427490234 41.47544479370117 Z M 10.77077484130859 41.99067306518555 L 10.51316070556641 41.99067306518555 L 2.679630756378174 41.99067306518555 L 2.422016620635986 41.99067306518555 L 2.422016620635986 41.73305892944336 L 2.422016620635986 14.2940673828125 C 2.422016620635986 13.95464134216309 2.468739748001099 13.65522003173828 2.56092357635498 13.39701461791992 C 2.653107166290283 13.13880920410156 2.790751218795776 12.92182064056396 2.972592830657959 12.74725914001465 C 3.154434680938721 12.57269763946533 3.380474090576172 12.44056510925293 3.649448394775391 12.35207271575928 C 3.918422937393188 12.26358127593994 4.230332851409912 12.21872806549072 4.583914279937744 12.21872806549072 L 23.97298240661621 12.21872806549072 C 24.49817276000977 12.21872806549072 25.00375366210938 12.23686695098877 25.48894309997559 12.27301597595215 C 25.97413444519043 12.30916500091553 26.43893623352051 12.36332702636719 26.8825740814209 12.43537330627441 C 27.32621192932129 12.50741958618164 27.74868583679199 12.59735202789307 28.14921951293945 12.70504379272461 C 28.54975318908691 12.81273555755615 28.92834663391113 12.93818664550781 29.28422546386719 13.08127212524414 C 29.64053153991699 13.22452831268311 29.98465347290039 13.38185501098633 30.31605339050293 13.55290508270264 C 30.64745330810547 13.72395610809326 30.96613693237305 13.90873146057129 31.27156448364258 14.10688400268555 C 31.57699394226074 14.3050365447998 31.86916732788086 14.51656723022461 32.14755249023438 14.74112987518311 C 32.42593765258789 14.96569061279297 32.69053649902344 15.20328521728516 32.94081115722656 15.45356273651123 C 33.19795608520508 15.7107048034668 33.44202041625977 15.97989559173584 33.67264938354492 16.2606086730957 C 33.90328216552734 16.54132080078125 34.12047958374023 16.83355140686035 34.32389068603516 17.13677406311035 C 34.52730178833008 17.43999671936035 34.71692276000977 17.75420951843262 34.89240264892578 18.07888031005859 C 35.0678825378418 18.40355110168457 35.22921752929688 18.73868179321289 35.37604904174805 19.08374404907227 C 35.52304840087891 19.42920112609863 35.65193557739258 19.77959823608398 35.7625732421875 20.13430976867676 C 35.87321472167969 20.4890193939209 35.96561050415039 20.8480396270752 36.03963088989258 21.21073722839355 C 36.1136474609375 21.57343673706055 36.16929244995117 21.93981170654297 36.2064323425293 22.30922889709473 C 36.24357223510742 22.67864608764648 36.26220321655273 23.05110549926758 36.26220321655273 23.42597389221191 C 36.26220321655273 23.75676918029785 36.24775314331055 24.08548164367676 36.21895599365234 24.41155433654785 C 36.19015884399414 24.73762702941895 36.14701461791992 25.06105804443359 36.08962249755859 25.38128662109375 C 36.03223037719727 25.70151519775391 35.96059036254883 26.0185432434082 35.87480545043945 26.33180809020996 C 35.78901672363281 26.64507484436035 35.68908309936523 26.9545783996582 35.57509994506836 27.2597599029541 C 35.46131134033203 27.56440544128418 35.33549118041992 27.86314582824707 35.19791793823242 28.15549659729004 C 35.06034469604492 28.44784927368164 34.91101837158203 28.73381233215332 34.75021743774414 29.01289558410645 C 34.58942031860352 29.2919807434082 34.41714477539062 29.56418609619141 34.23367691040039 29.82902526855469 C 34.05021286010742 30.0938663482666 33.85555648803711 30.35134124755859 33.64998626708984 30.6009635925293 C 33.39229965209961 30.91018486022949 33.11706161499023 31.20406913757324 32.82482147216797 31.48220443725586 C 32.53258514404297 31.76034164428711 32.22334671020508 32.02272796630859 31.89766311645508 32.26895904541016 C 31.57197761535645 32.51518249511719 31.22984886169434 32.7452507019043 30.87182807922363 32.95874786376953 C 30.51380920410156 33.1722412109375 30.13989448547363 33.36916351318359 29.75064849853516 33.54909896850586 C 29.36160278320312 33.72894287109375 28.94832801818848 33.88661956787109 28.51166152954102 34.02198028564453 C 28.07499885559082 34.1573371887207 27.61494636535645 34.2703742980957 27.13234710693359 34.36092376708984 C 26.64975166320801 34.45147705078125 26.14461326599121 34.51955032348633 25.61777114868164 34.56498336791992 C 25.09092903137207 34.61042022705078 24.54238319396973 34.63321685791016 23.97298240661621 34.63321685791016 L 10.77077484130859 34.63321685791016 L 10.77077484130859 41.73305892944336 L 10.77077484130859 41.99067306518555 Z M 2.937244892120361 41.47544479370117 L 10.25554656982422 41.47544479370117 L 10.25554656982422 34.37560272216797 L 10.25554656982422 34.11798858642578 L 10.51316070556641 34.11798858642578 L 23.97298240661621 34.11798858642578 C 24.52358436584473 34.11798858642578 25.05348205566406 34.09619140625 25.56186294555664 34.05274963378906 C 26.07024574279785 34.00930786132812 26.5571117401123 33.94422149658203 27.02165031433105 33.85763931274414 C 27.48619079589844 33.77105712890625 27.92840003967285 33.66298294067383 28.34747314453125 33.53356170654297 C 28.76654434204102 33.40414428710938 29.16247749328613 33.25338363647461 29.53446006774902 33.08142852783203 C 29.90623664855957 32.90956497192383 30.26326560974121 32.72159957885742 30.60500717163086 32.51794052124023 C 30.94674682617188 32.31427764892578 31.2731990814209 32.09492111206055 31.58381843566895 31.86027908325195 C 31.89443969726562 31.62563705444336 32.18922805786133 31.37570953369141 32.46764373779297 31.11090469360352 C 32.74605560302734 30.84610176086426 33.00809478759766 30.56641960144043 33.25321960449219 30.27227401733398 C 33.44945907592773 30.03397750854492 33.63533782958984 29.78809356689453 33.81056594848633 29.53510475158691 C 33.98579406738281 29.28211402893066 34.15037155151367 29.02202224731445 34.30401611328125 28.75531005859375 C 34.45766448974609 28.48859977722168 34.60037612915039 28.21526718139648 34.73187255859375 27.93580055236816 C 34.86336898803711 27.65633392333984 34.98365020751953 27.3707332611084 35.09243011474609 27.07948112487793 C 35.20101165771484 26.78876686096191 35.29621505737305 26.49390602111816 35.37793731689453 26.19543075561523 C 35.45965576171875 25.89695358276367 35.52790069580078 25.59486389160156 35.58257675170898 25.28969383239746 C 35.63724899291992 24.98452377319336 35.67835235595703 24.67627143859863 35.70578002929688 24.36547470092773 C 35.73321151733398 24.05467796325684 35.74697494506836 23.74133110046387 35.74697494506836 23.42597389221191 C 35.74697494506836 23.06853485107422 35.72920989990234 22.71338653564453 35.69379425048828 22.36113929748535 C 35.65838241577148 22.00889015197754 35.60532379150391 21.65954208374023 35.53474044799805 21.31369590759277 C 35.46415710449219 20.96784782409668 35.37604904174805 20.6255054473877 35.27054595947266 20.28726768493652 C 35.16504669189453 19.94903182983398 35.04214096069336 19.61490058898926 34.90196228027344 19.28548431396484 C 34.76161956787109 18.95567321777344 34.60746002197266 18.63539886474609 34.43982696533203 18.32516479492188 C 34.27219390869141 18.01493263244629 34.09108352661133 17.71474266052246 33.89684677124023 17.42510032653809 C 33.70260620117188 17.13545799255371 33.4952278137207 16.85636520385742 33.27505493164062 16.58832550048828 C 33.05488204956055 16.32028770446777 32.82191467285156 16.06330299377441 32.57649230957031 15.81788063049316 C 32.33856582641602 15.57995128631592 32.08684921264648 15.35401153564453 31.82184982299805 15.14039134979248 C 31.55685234069824 14.9267692565918 31.27857208251953 14.72546768188477 30.98752212524414 14.53681468963623 C 30.69647216796875 14.34815979003906 30.39264869689941 14.17215347290039 30.07656097412109 14.00912475585938 C 29.76047515869141 13.84609603881836 29.43212509155273 13.696044921875 29.09201812744141 13.55930042266846 C 28.75148963928223 13.42238521575928 28.38844680786133 13.30234336853027 28.00364303588867 13.19929504394531 C 27.61883735656738 13.09624862670898 27.2122688293457 13.01019477844238 26.7846851348877 12.94125556945801 C 26.35709953308105 12.87231636047363 25.90850067138672 12.82049179077148 25.43963432312012 12.78590202331543 C 24.97076988220215 12.75131225585938 24.48163414001465 12.7339563369751 23.97298240661621 12.7339563369751 L 4.583914279937744 12.7339563369751 C 4.303056716918945 12.7339563369751 4.059711456298828 12.76494121551514 3.852675437927246 12.82804679870605 C 3.645639419555664 12.89115333557129 3.474913120269775 12.98638343811035 3.339293479919434 13.1148738861084 C 3.203674077987671 13.24336433410645 3.103161811828613 13.40511608123779 3.036554574966431 13.60126876831055 C 2.969947338104248 13.7974214553833 2.937244892120361 14.02797603607178 2.937244892120361 14.2940673828125 L 2.937244892120361 41.47544479370117 Z M 24.14609909057617 27.44887351989746 L 10.51316070556641 27.44887351989746 L 10.25554656982422 27.44887351989746 L 10.25554656982422 27.19125938415527 L 10.25554656982422 20.82922172546387 C 10.25554656982422 20.69202613830566 10.27423191070557 20.5694580078125 10.31040382385254 20.4627799987793 C 10.34657573699951 20.35610198974609 10.40023612976074 20.26531028747559 10.47018718719482 20.19166946411133 C 10.54013824462891 20.11802864074707 10.62637710571289 20.0615348815918 10.72771072387695 20.0234546661377 C 10.8290433883667 19.98537254333496 10.94546890258789 19.96570014953613 11.07579040527344 19.96570014953613 L 24.14609909057617 19.96570014953613 C 24.3631477355957 19.96570014953613 24.57131385803223 19.97342681884766 24.7702808380127 19.98882484436035 C 24.96924781799316 20.00421905517578 25.15901756286621 20.02728843688965 25.33927154541016 20.05797576904297 C 25.5195255279541 20.08866500854492 25.69026565551758 20.1269702911377 25.85117530822754 20.1728401184082 C 26.01208877563477 20.21871185302734 26.16316986083984 20.27214813232422 26.30410575866699 20.33309555053711 C 26.44687271118164 20.39483261108398 26.58290481567383 20.46278190612793 26.71199989318848 20.53679466247559 C 26.84109306335449 20.61080741882324 26.96325302124023 20.69088172912598 27.07827758789062 20.7768669128418 C 27.19330024719238 20.86285400390625 27.30118560791016 20.95475387573242 27.40173149108887 21.05241394042969 C 27.50227928161621 21.15007400512695 27.59548759460449 21.25349807739258 27.6811580657959 21.36253547668457 C 27.81245040893555 21.53243255615234 27.92752075195312 21.70958518981934 28.02627754211426 21.89366912841797 C 28.12503242492676 22.0777530670166 28.20747184753418 22.26876640319824 28.27349662780762 22.46639442443848 C 28.33952140808105 22.66401863098145 28.38913726806641 22.86825752258301 28.42224502563477 23.07878684997559 C 28.45535278320312 23.28931617736816 28.47195434570312 23.50613594055176 28.47195434570312 23.72892761230469 C 28.47195434570312 23.93719863891602 28.45628356933594 24.1403694152832 28.4250545501709 24.33810997009277 C 28.39382553100586 24.53585243225098 28.34703636169434 24.7281665802002 28.2847957611084 24.91473007202148 C 28.22255325317383 25.10129165649414 28.14485931396484 25.2820987701416 28.05182456970215 25.45682907104492 C 27.95878601074219 25.63155746459961 27.85040473937988 25.80020904541016 27.72679328918457 25.96245384216309 C 27.64197540283203 26.07813453674316 27.54940605163574 26.18800163269043 27.44933128356934 26.29183578491211 C 27.34925842285156 26.39566802978516 27.2416820526123 26.49346542358398 27.12684631347656 26.58501052856445 C 27.01201248168945 26.67655372619629 26.88991737365723 26.7618465423584 26.76080894470215 26.84066581726074 C 26.63170051574707 26.91948509216309 26.49558067321777 26.99183082580566 26.35269355773926 27.05748176574707 C 26.21137809753418 27.12240982055664 26.05899238586426 27.1793384552002 25.8958568572998 27.22820472717285 C 25.73272132873535 27.27707099914551 25.55883598327637 27.31787872314453 25.3745231628418 27.35057067871094 C 25.19021034240723 27.38326454162598 24.99547004699707 27.40783882141113 24.79062461853027 27.42424392700195 C 24.58578109741211 27.44064521789551 24.37083053588867 27.44887351989746 24.14609909057617 27.44887351989746 Z M 10.77077484130859 26.93364524841309 L 24.14609909057617 26.93364524841309 C 24.35213470458984 26.93364524841309 24.54854011535645 26.92640495300293 24.73502349853516 26.9119758605957 C 24.9215030670166 26.89754295349121 25.09806060791016 26.87592124938965 25.26440620422363 26.84715843200684 C 25.43074989318848 26.81839561462402 25.58687973022461 26.78249168395996 25.73250770568848 26.73949813842773 C 25.87813377380371 26.69650459289551 26.01325607299805 26.64641952514648 26.1375846862793 26.58929252624512 C 26.26033782958984 26.53289413452148 26.37714385986328 26.47092628479004 26.48782920837402 26.40352821350098 C 26.59851455688477 26.33613014221191 26.70308113098145 26.26330184936523 26.80135536193848 26.1851749420166 C 26.89963150024414 26.1070499420166 26.99161529541016 26.02363204956055 27.07713508605957 25.93505477905273 C 27.16265487670898 25.84647941589355 27.24171257019043 25.75274276733398 27.31413269042969 25.65398788452148 C 27.42096900939941 25.51374626159668 27.51454925537109 25.3681640625 27.59482383728027 25.21746253967285 C 27.67510032653809 25.0667610168457 27.74206924438477 24.91094398498535 27.79568481445312 24.7502269744873 C 27.84929847717285 24.58951187133789 27.88956069946289 24.42389678955078 27.91641616821289 24.25360870361328 C 27.94327354431152 24.08331871032715 27.95672607421875 23.90834999084473 27.95672607421875 23.72892761230469 C 27.95672607421875 23.53531074523926 27.94238471984863 23.34699821472168 27.91380310058594 23.16428375244141 C 27.88522148132324 22.98157119750977 27.8423957824707 22.80446243286133 27.78543281555176 22.63325309753418 C 27.72846794128418 22.4620418548584 27.6573600769043 22.29673385620117 27.57221412658691 22.13762664794922 C 27.48706436157227 21.9785213470459 27.38787460327148 21.82561302185059 27.27474403381348 21.67920875549316 C 27.20278549194336 21.58762741088867 27.12407875061035 21.50054359436035 27.03881645202637 21.41811370849609 C 26.95355415344238 21.3356819152832 26.86173439025879 21.25790405273438 26.7635498046875 21.18493270874023 C 26.66536521911621 21.11196327209473 26.56081771850586 21.04379653930664 26.45009613037109 20.98058891296387 C 26.33937644958496 20.91738128662109 26.22248268127441 20.85913467407227 26.09961128234863 20.80599784851074 C 25.97490882873535 20.75207328796387 25.84030151367188 20.70479393005371 25.69607925415039 20.66420745849609 C 25.55185508728027 20.62362098693848 25.39801406860352 20.5897274017334 25.23484230041504 20.56257438659668 C 25.07166862487793 20.53542327880859 24.8991641998291 20.51501083374023 24.71761322021484 20.50138664245605 C 24.53605842590332 20.48776245117188 24.34546089172363 20.48092842102051 24.14609909057617 20.48092842102051 L 11.07579040527344 20.48092842102051 C 11.0252161026001 20.48092842102051 10.98086643218994 20.48429489135742 10.94278907775879 20.49394607543945 C 10.90471076965332 20.50359344482422 10.87290668487549 20.51952743530273 10.84742259979248 20.54466438293457 C 10.82193851470947 20.56979942321777 10.80277633666992 20.60413551330566 10.78998565673828 20.65059089660645 C 10.77719402313232 20.69704437255859 10.77077484130859 20.75561714172363 10.77077484130859 20.82922172546387 L 10.77077484130859 26.93364524841309 Z"/>
        </g>
        <g id="Path_12325" data-name="Path 12325" class="cls-3" transform="translate(759.955 126.293)">
          <path class="cls-4" d="M.258,21.511V.257H63.124"/>
          <path class="cls-5" d="M 0.5152282118797302 21.51077842712402 L 0 21.51077842712402 L 0 0.2566078007221222 L 0 -0.001006305101327598 L 0.2576141059398651 -0.001006305101327598 L 63.12400817871094 -0.001006305101327598 L 63.12400817871094 0.5142219066619873 L 0.5152282118797302 0.5142219066619873 L 0.5152282118797302 21.51077842712402 Z"/>
        </g>
        <g id="Line_451" data-name="Line 451" class="cls-3" transform="translate(759.955 152.672)">
          <path class="cls-4" d="M.258,0V41.218"/>
          <path class="cls-5" d="M 0.5152282118797302 41.21846008300781 L 0 41.21846008300781 L 0 0.0002044057182502002 L 0.5152282118797302 0.0002044057182502002 L 0.5152282118797302 41.21846008300781 Z"/>
        </g>
        <g id="Line_452" data-name="Line 452" class="cls-3" transform="translate(759.955 202.134)">
          <path class="cls-4" d="M.258,0V10.3"/>
          <path class="cls-5" d="M 0.5152282118797302 10.30476856231689 L 0 10.30476856231689 L 0 0.0002044057182502002 L 0.5152282118797302 0.0002044057182502002 L 0.5152282118797302 10.30476856231689 Z"/>
        </g>
        <g id="Path_12326" data-name="Path 12326" class="cls-3" transform="translate(759.955 218.621)">
          <path class="cls-4" d="M.258,0V21.417"/>
          <path class="cls-5" d="M 0.5152282118797302 21.41739654541016 L 0 21.41739654541016 L 0 0.0002042447158601135 L 0.5152282118797302 0.0002042447158601135 L 0.5152282118797302 21.41739654541016 Z"/>
        </g>
      </g>
    </g>
  </g>
</svg>
