<?xml version="1.0" encoding="UTF-8" standalone="no"?>
<svg
   xmlns:dc="http://purl.org/dc/elements/1.1/"
   xmlns:cc="http://creativecommons.org/ns#"
   xmlns:rdf="http://www.w3.org/1999/02/22-rdf-syntax-ns#"
   xmlns:svg="http://www.w3.org/2000/svg"
   xmlns="http://www.w3.org/2000/svg"
   xmlns:sodipodi="http://sodipodi.sourceforge.net/DTD/sodipodi-0.dtd"
   xmlns:inkscape="http://www.inkscape.org/namespaces/inkscape"
   id="SVGDoc"
   width="1781"
   height="823"
   version="1.1"
   viewBox="0 0 1781 823"
   sodipodi:docname="DRON.svg"
   inkscape:version="0.91 r13725">
  <metadata
     id="metadata19">
    <rdf:RDF>
      <cc:Work
         rdf:about="">
        <dc:format>image/svg+xml</dc:format>
        <dc:type
           rdf:resource="http://purl.org/dc/dcmitype/StillImage" />
      </cc:Work>
    </rdf:RDF>
  </metadata>
  <sodipodi:namedview
     id="namedview33"
     pagecolor="#ffffff"
     bordercolor="#666666"
     borderopacity="1.0"
     inkscape:pageshadow="2"
     inkscape:pageopacity="0.0"
     inkscape:pagecheckerboard="0"
     showgrid="false"
     inkscape:zoom="0.67712734"
     inkscape:cx="841.05307"
     inkscape:cy="496.95232"
     inkscape:window-width="2560"
     inkscape:window-height="1369"
     inkscape:window-x="-8"
     inkscape:window-y="-8"
     inkscape:window-maximized="1"
     inkscape:current-layer="SVGDoc" />
  <defs
     id="defs2" />
  <desc
     id="desc4">Generated with Avocode.</desc>
  <g
     id="g30"
     transform="matrix(1.0753116,0,0,1.0013177,-0.22262176,-2.0004546e-5)">
    <g
       clip-path="url(#clip-adfd11d1-8d1f-46e4-ba73-58f8a318d3d0)"
       id="g10">
      <title
         id="title6">Path 11942</title>
      <path
         d="m 205.42103,89.813 c 15.38199,0 22.379,2.007 32.414,6.021 10.03499,4.014 18.72899,9.369 26.09099,16.056 7.69101,7.361 13.797,16.056 18.314,26.091 4.51602,10.03399 6.77301,20.744 6.77301,32.11099 0,10.37201 0.284,495.18303 -0.39001,505.06499 -0.79397,11.63501 -4.44098,19.27704 -11.12698,26.302 -7.36301,8.02704 -14.573,12.41803 -25.612,17.099 -11.039,4.68701 -30.40601,7.02399 -46.463,7.02399 l -107.87501,0 c -4.35199,0 -6.52299,-2.33698 -6.52299,-7.02399 l 0,-621.72099 c 0,-4.68 2.17099,-7.02399 6.52299,-7.02399 z M 22.28303,1e-5 c -14.722,0 -22.076,7.025 -22.076,21.074 l 0,772.24399 c 0,14.38501 7.354,21.57501 22.076,21.57501 l 183.138,0 c 30.435,0 56.86199,-4.932 79.27599,-14.802 22.40702,-9.862 47.29401,-23.33099 63.021,-40.39099 13.711,-15.05103 24.41302,-32.276 32.11102,-51.67902 7.69098,-19.396 0,-516.017 0,-538.431 0,-24.75 -4.853,-47.83 -14.55002,-69.24 C 355.57303,78.947 342.19803,60.382 325.13904,44.656 310.08704,30.607 292.27402,19.655 271.70304,11.792 251.13204,3.936 232.84504,0 205.42104,0 Z"
         id="path8"
         inkscape:connector-curvature="0"
         style="fill:#118029;fill-opacity:1" />
    </g>
    <g
       clip-path="url(#clip-adfd11d1-8d1f-46e4-ba73-58f8a318d3d0)"
       id="g16">
      <title
         id="title12">Path 11943</title>
      <path
         d="m 493.92303,348.548 0,-256.22601 c 0,-5.018 2.509,-7.527 7.52701,-7.527 l 153.03201,0 c 11.039,0 19.23096,3.01101 24.586,9.03201 5.018,5.01699 7.526,11.376 7.526,19.06599 0,6.358 -2.17901,219.26999 -6.52203,224.61701 -2.682,3.34799 -6.02197,6.01999 -10.03497,8.02698 -4.01404,2.00803 -9.20404,3.01102 -15.55499,3.01102 z m -2e-5,77.26999 158.04999,0 c 13.375,0 22.90802,2.34302 28.60004,7.02402 5.68396,4.68698 8.52997,12.379 8.52997,23.07999 l 0,336.39301 c 0,7.698 0.50201,15.224 1.505,22.578 l 91.82001,0 c -0.67498,-4.68103 -1.09002,-9.36102 -1.255,-14.04901 -0.172,-4.68097 -0.25098,-10.70099 -0.25098,-18.06299 l 0,-336.392 c 0,-19.396 -2.59406,-34.28302 -7.77704,-44.655 -5.18897,-10.36502 -13.469,-18.89502 -24.836,-25.58902 12.042,-8.69498 20.40003,-19.146 25.08704,-31.35999 4.68097,-12.207 7.02399,-232.221 7.02399,-245.941 0,-12.708 -2.42901,-24.836 -7.27502,-36.377 -4.85199,-11.54 -11.461,-21.653 -19.81799,-30.355 C 743.958,22.415 732.41803,14.637 718.70605,8.781 704.98602,2.932 687.59704,0 666.52404,0 L 425.68603,0 c -15.05301,0 -22.57901,7.025 -22.57901,21.074 l 0,793.81901 90.81601,0 z"
         id="path14"
         inkscape:connector-curvature="0"
         style="fill:#118029;fill-opacity:1" />
    </g>
    <g
       clip-path="url(#clip-adfd11d1-8d1f-46e4-ba73-58f8a318d3d0)"
       id="g22">
      <title
         id="title18">Path 11944</title>
      <path
         d="m 1043.8611,89.813 c 15.381,0 28.0979,2.007 38.1329,6.021 10.0341,4.014 18.728,9.369 26.0911,16.056 7.6899,7.361 13.798,16.056 18.313,26.091 4.516,10.03399 -0.2681,496.45601 -0.2681,507.82301 0,10.37201 -1.739,20.15601 -5.209,29.35297 -3.4769,9.20405 -8.3659,17.31 -14.677,24.33405 -6.946,8.02796 -15.624,14.38599 -26.041,19.06696 -10.416,4.68701 -23.199,7.02399 -38.35,7.02399 l -67.23197,0 c -15.15197,0 -27.93499,-2.33698 -38.35101,-7.02399 -10.417,-4.68097 -19.10199,-11.03901 -26.04102,-19.06696 -6.31799,-7.02405 -11.20794,-15.13001 -14.677,-24.33405 -3.47699,-9.19696 -5.20898,-18.98096 -5.20898,-29.35297 0,-11.367 -4.784,-497.78901 -0.26801,-507.82301 4.516,-10.035 10.61499,-18.73 18.31403,-26.091 7.354,-6.687 16.05597,-12.042 26.091,-16.056 10.034,-4.014 22.74299,-6.021 38.133,-6.021 z m -2.0081,725.08001 c 28.718,0 53.656,-4.932 74.807,-14.802 21.1441,-9.862 39.136,-23.33099 53.975,-40.39099 12.9401,-15.05103 23.037,-32.276 30.303,-51.67902 7.2571,-19.39599 10.889,-40.30499 10.889,-62.71899 0,-24.75 7.307,-523.542 -2.39,-544.952 -9.7059,-21.403 -23.0799,-39.968 -40.139,-55.694 -15.053,-14.049 -32.865,-25.001 -53.4369,-32.864 -20.5711,-7.856 -44.577,-11.792 -72,-11.792 l -71.24806,0 c -27.43201,0 -51.43,3.936 -72.00098,11.792 -20.57104,7.863 -38.38403,18.815 -53.43701,32.864 -17.05805,15.726 -30.44104,34.291 -40.13904,55.694 -9.70495,21.41 -2.38995,520.202 -2.38995,544.952 0,22.414 3.625,43.32299 10.88995,62.71899 7.25702,19.40302 17.35504,36.62799 30.302,51.67902 14.83203,17.06 32.82404,30.52899 53.97504,40.39099 21.143,9.86999 46.08099,14.802 74.80798,14.802 z"
         id="path20"
         inkscape:connector-curvature="0"
         style="fill:#118029;fill-opacity:1" />
    </g>
    <g
       clip-path="url(#clip-adfd11d1-8d1f-46e4-ba73-58f8a318d3d0)"
       id="g28">
      <title
         id="title24">Path 11945</title>
      <path
         d="m 1656.4711,749.164 c 0,12.716 -1.756,23.66797 -5.2681,32.86401 -3.512,9.20398 -8.2009,16.72998 -14.048,22.578 -5.857,5.85699 -12.63,10.20801 -20.322,13.04596 -7.698,2.83801 -15.7259,4.26501 -24.084,4.26501 -57.8089,0 -65.92,-35.125 -71.92,-45.29199 -6,-10.16602 -180.458,-564.729 -180.458,-564.729 -2.6809,-3.011 -5.355,-4.51599 -8.028,-4.51599 -2.344,0 -4.3509,0.83899 -6.021,2.509 -1.678,1.67799 -2.5079,4.01399 -2.5079,7.02499 l 0,597.979 0,0 -89.312,0 0,0 0,-735.616 c 0,-14.379 1.9209,-26.593 5.771,-36.628 3.8409,-10.036 9.282,-18.228 16.3059,-24.586 7.025,-6.35 15.3821,-10.952 25.087,-13.798 9.699,-2.838 20.235,-4.2649999999989 31.611,-4.2649999999989 16.055,0 29.602,2.5089999999989 40.6411,7.5269999999989 11.038,5.017 29.6019,19.77 34.058,30.379 11.8529,28.219 164.1319,532.07801 164.1319,532.07801 1.3331,1.67798 2.674,2.76001 4.0141,3.26196 1.3319,0.50201 2.838,0.75305 4.516,0.75305 4.681,0 7.0239,-3.01105 7.0239,-9.03302 l 0,-564.9659999999996 0,0 88.8091,0 0,0 z"
         id="path26"
         inkscape:connector-curvature="0"
         style="fill:#118029;fill-opacity:1" />
    </g>
  </g>
</svg>
