<svg width="22" height="17" viewBox="0 0 22 17" fill="none" xmlns="http://www.w3.org/2000/svg">
<rect width="22" height="17" rx="2" fill="white"/>
<mask id="mask0_63_321" style="mask-type:alpha" maskUnits="userSpaceOnUse" x="0" y="0" width="22" height="17">
<rect width="22" height="17" rx="2" fill="white"/>
</mask>
<g mask="url(#mask0_63_321)">
<path fill-rule="evenodd" clip-rule="evenodd" d="M22 0H0V1.13333H22V0ZM22 2.2668H0V3.40014H22V2.2668ZM0 4.53333H22V5.66667H0V4.53333ZM22 6.8H0V7.93334H22V6.8ZM0 9.06653H22V10.1999H0V9.06653ZM22 11.3333H0V12.4667H22V11.3333ZM0 13.6001H22V14.7335H0V13.6001ZM22 15.8667H0V17H22V15.8667Z" fill="#D02F44"/>
<rect width="9.42857" height="7.93333" fill="#46467F"/>
<g filter="url(#filter0_d_63_321)">
<path fill-rule="evenodd" clip-rule="evenodd" d="M2.09535 1.70007C2.09535 2.01303 1.86083 2.26674 1.57154 2.26674C1.28225 2.26674 1.04773 2.01303 1.04773 1.70007C1.04773 1.38711 1.28225 1.1334 1.57154 1.1334C1.86083 1.1334 2.09535 1.38711 2.09535 1.70007ZM4.19059 1.70007C4.19059 2.01303 3.95607 2.26674 3.66678 2.26674C3.37749 2.26674 3.14297 2.01303 3.14297 1.70007C3.14297 1.38711 3.37749 1.1334 3.66678 1.1334C3.95607 1.1334 4.19059 1.38711 4.19059 1.70007ZM5.76201 2.26674C6.05131 2.26674 6.28582 2.01303 6.28582 1.70007C6.28582 1.38711 6.05131 1.1334 5.76201 1.1334C5.47272 1.1334 5.23821 1.38711 5.23821 1.70007C5.23821 2.01303 5.47272 2.26674 5.76201 2.26674ZM8.38106 1.70007C8.38106 2.01303 8.14655 2.26674 7.85725 2.26674C7.56796 2.26674 7.33344 2.01303 7.33344 1.70007C7.33344 1.38711 7.56796 1.1334 7.85725 1.1334C8.14655 1.1334 8.38106 1.38711 8.38106 1.70007ZM2.61924 3.40014C2.90853 3.40014 3.14305 3.14644 3.14305 2.83347C3.14305 2.52051 2.90853 2.26681 2.61924 2.26681C2.32995 2.26681 2.09543 2.52051 2.09543 2.83347C2.09543 3.14644 2.32995 3.40014 2.61924 3.40014ZM5.23828 2.83347C5.23828 3.14644 5.00376 3.40014 4.71447 3.40014C4.42518 3.40014 4.19066 3.14644 4.19066 2.83347C4.19066 2.52051 4.42518 2.26681 4.71447 2.26681C5.00376 2.26681 5.23828 2.52051 5.23828 2.83347ZM6.80963 3.40007C7.09893 3.40007 7.33344 3.14637 7.33344 2.8334C7.33344 2.52044 7.09893 2.26674 6.80963 2.26674C6.52034 2.26674 6.28582 2.52044 6.28582 2.8334C6.28582 3.14637 6.52034 3.40007 6.80963 3.40007ZM8.38106 3.96688C8.38106 4.27984 8.14655 4.53354 7.85725 4.53354C7.56796 4.53354 7.33344 4.27984 7.33344 3.96688C7.33344 3.65391 7.56796 3.40021 7.85725 3.40021C8.14655 3.40021 8.38106 3.65391 8.38106 3.96688ZM5.76195 4.53354C6.05124 4.53354 6.28576 4.27984 6.28576 3.96688C6.28576 3.65391 6.05124 3.40021 5.76195 3.40021C5.47266 3.40021 5.23814 3.65391 5.23814 3.96688C5.23814 4.27984 5.47266 4.53354 5.76195 4.53354ZM4.19058 3.96688C4.19058 4.27984 3.95606 4.53354 3.66677 4.53354C3.37748 4.53354 3.14296 4.27984 3.14296 3.96688C3.14296 3.65391 3.37748 3.40021 3.66677 3.40021C3.95606 3.40021 4.19058 3.65391 4.19058 3.96688ZM1.57154 4.53354C1.86083 4.53354 2.09535 4.27984 2.09535 3.96688C2.09535 3.65391 1.86083 3.40021 1.57154 3.40021C1.28225 3.40021 1.04773 3.65391 1.04773 3.96688C1.04773 4.27984 1.28225 4.53354 1.57154 4.53354ZM3.1429 5.09993C3.1429 5.41289 2.90839 5.6666 2.61909 5.6666C2.3298 5.6666 2.09528 5.41289 2.09528 5.09993C2.09528 4.78697 2.3298 4.53327 2.61909 4.53327C2.90839 4.53327 3.1429 4.78697 3.1429 5.09993ZM4.71447 5.6666C5.00376 5.6666 5.23828 5.41289 5.23828 5.09993C5.23828 4.78697 5.00376 4.53327 4.71447 4.53327C4.42518 4.53327 4.19066 4.78697 4.19066 5.09993C4.19066 5.41289 4.42518 5.6666 4.71447 5.6666ZM7.33351 5.09993C7.33351 5.41289 7.09899 5.6666 6.8097 5.6666C6.52041 5.6666 6.28589 5.41289 6.28589 5.09993C6.28589 4.78697 6.52041 4.53327 6.8097 4.53327C7.09899 4.53327 7.33351 4.78697 7.33351 5.09993ZM7.85725 6.80007C8.14655 6.80007 8.38106 6.54637 8.38106 6.2334C8.38106 5.92044 8.14655 5.66674 7.85725 5.66674C7.56796 5.66674 7.33344 5.92044 7.33344 6.2334C7.33344 6.54637 7.56796 6.80007 7.85725 6.80007ZM6.28582 6.2334C6.28582 6.54637 6.05131 6.80007 5.76201 6.80007C5.47272 6.80007 5.23821 6.54637 5.23821 6.2334C5.23821 5.92044 5.47272 5.66674 5.76201 5.66674C6.05131 5.66674 6.28582 5.92044 6.28582 6.2334ZM3.66678 6.80007C3.95607 6.80007 4.19059 6.54637 4.19059 6.2334C4.19059 5.92044 3.95607 5.66674 3.66678 5.66674C3.37748 5.66674 3.14297 5.92044 3.14297 6.2334C3.14297 6.54637 3.37748 6.80007 3.66678 6.80007ZM2.09535 6.2334C2.09535 6.54637 1.86083 6.80007 1.57154 6.80007C1.28225 6.80007 1.04773 6.54637 1.04773 6.2334C1.04773 5.92044 1.28225 5.66674 1.57154 5.66674C1.86083 5.66674 2.09535 5.92044 2.09535 6.2334Z" fill="url(#paint0_linear_63_321)"/>
</g>
</g>
<defs>
<filter id="filter0_d_63_321" x="1.04773" y="1.1334" width="7.33331" height="6.66667" filterUnits="userSpaceOnUse" color-interpolation-filters="sRGB">
<feFlood flood-opacity="0" result="BackgroundImageFix"/>
<feColorMatrix in="SourceAlpha" type="matrix" values="0 0 0 0 0 0 0 0 0 0 0 0 0 0 0 0 0 0 127 0" result="hardAlpha"/>
<feOffset dy="1"/>
<feColorMatrix type="matrix" values="0 0 0 0 0 0 0 0 0 0 0 0 0 0 0 0 0 0 0.06 0"/>
<feBlend mode="normal" in2="BackgroundImageFix" result="effect1_dropShadow_63_321"/>
<feBlend mode="normal" in="SourceGraphic" in2="effect1_dropShadow_63_321" result="shape"/>
</filter>
<linearGradient id="paint0_linear_63_321" x1="1.04773" y1="1.1334" x2="1.04773" y2="6.80007" gradientUnits="userSpaceOnUse">
<stop stop-color="white"/>
<stop offset="1" stop-color="#F0F0F0"/>
</linearGradient>
</defs>
</svg>
