<?xml version="1.0" encoding="UTF-8"?>
<svg id="SVGDoc" width="260" height="75" xmlns="http://www.w3.org/2000/svg" version="1.1" xmlns:xlink="http://www.w3.org/1999/xlink" xmlns:avocode="https://avocode.com/" viewBox="0 0 260 75"><defs></defs><desc>Generated with Avocode.</desc><g><g><title>Group 3802</title><g opacity="0.9"><title>Layer_x0020_1</title><g opacity="0.9"><title>_1733231983008</title><g opacity="0.9"><title>Path 11900</title><path d="M14.19857,29.3525l3.37036,11.16159h-6.74072zM24.52851,49.74976l-7.74745,-23.81139h-5.03366l-7.74746,23.81139h4.11447l1.79461,-5.64645h8.62287l1.83838,5.64645z" fill="#ffffff" fill-opacity="1"></path></g><g opacity="0.9"><title>Path 11901</title><path d="M31.44434,29.52758h5.47137c0.78784,0 1.48822,0.13131 2.05725,0.39394c0.52521,0.21885 1.00671,0.70033 1.35693,1.31313c0.39386,0.61279 0.65649,1.48821 0.87531,2.53871c0.17517,1.05051 0.26276,2.4074 0.26276,4.0707c0,1.79461 -0.13141,3.28282 -0.43781,4.50841c-0.3064,1.26936 -0.78784,2.18855 -1.44446,2.84511c-0.70032,0.65657 -1.57568,0.96296 -2.66998,0.96296h-5.47137zM27.46118,25.93837v23.81139h9.84845c1.79468,0 3.3266,-0.43771 4.50842,-1.3569c1.22559,-0.87542 2.10101,-2.23232 2.71375,-3.98315c0.61285,-1.75084 0.91925,-3.93938 0.91925,-6.56565c0,-1.83838 -0.13129,-3.50167 -0.39392,-4.94611c-0.26263,-1.44444 -0.74414,-2.7138 -1.35693,-3.7643c-0.61279,-1.0505 -1.44446,-1.83838 -2.495,-2.4074c-1.05048,-0.52525 -2.31982,-0.78788 -3.89557,-0.78788z" fill="#ffffff" fill-opacity="1"></path></g><g opacity="0.9"><title>Path 11902</title><path d="M53.28601,37.40635v-7.87877h5.03369c0.43762,0 0.87537,0.04377 1.26941,0.13131c0.3938,0.13131 0.74402,0.30639 1.05029,0.56902c0.2627,0.3064 0.52539,0.65657 0.70056,1.13805c0.17493,0.52525 0.21875,1.18181 0.21875,2.01346c0,0.78788 -0.04382,1.44444 -0.21875,1.96969c-0.17517,0.52526 -0.43787,0.96296 -0.70056,1.22559c-0.30627,0.3064 -0.65649,0.52525 -1.05029,0.61279c-0.39404,0.13131 -0.78796,0.21886 -1.26941,0.21886zM49.30286,49.74976h3.98315v-9.23567h1.09424c0.43774,0.04377 0.87549,0.04377 1.26929,0.04377c0.43787,0.04377 0.83179,0.04377 1.26941,0.04377h1.05066l4.11426,9.14813h4.02698l-4.59595,-9.76092c0.48145,-0.13131 1.00671,-0.35017 1.48816,-0.65657c0.48157,-0.26262 0.87561,-0.65656 1.26941,-1.13804c0.39404,-0.48148 0.70032,-1.13804 0.91919,-1.92591c0.2627,-0.78788 0.39404,-1.75084 0.39404,-2.93266c0,-1.53199 -0.17505,-2.80134 -0.52539,-3.7643c-0.35022,-0.91919 -0.83154,-1.66329 -1.44434,-2.23232c-0.61292,-0.52525 -1.35706,-0.87542 -2.10107,-1.13804c-0.83154,-0.17508 -1.66321,-0.26262 -2.5387,-0.26262h-9.67334z" fill="#ffffff" fill-opacity="1"></path></g><g opacity="0.9"><title>Path 11903</title><path d="M69.30609,25.93837v0v23.81139v0h3.98315v0v-23.81139v0z" fill="#ffffff" fill-opacity="1"></path></g><g opacity="0.9"><title>Path 11904</title><path d="M86.46429,29.3525l3.37048,11.16159h-6.74084zM84.01324,25.93837l-7.74756,23.81139h4.07068l1.83838,-5.64645h8.62292l1.83838,5.64645h4.1582l-7.74756,-23.81139z" fill="#ffffff" fill-opacity="1"></path></g><g opacity="0.9"><title>Path 11905</title><path d="M109.26898,28.78348c-0.65674,1.0505 -1.09424,2.31986 -1.31299,3.85184c-0.2627,1.48821 -0.39404,3.19528 -0.39404,5.16497c0,1.92592 0.13135,3.63298 0.3501,5.16497c0.21899,1.48821 0.61304,2.75757 1.18188,3.80807c0.52515,1.00673 1.26929,1.79461 2.27588,2.31986c0.91943,0.56902 2.14502,0.83164 3.677,0.83164c1.35693,0 2.58228,-0.21885 3.76416,-0.61279c1.13818,-0.43771 2.05737,-0.83165 2.75757,-1.18182l0.52539,1.61952v0h3.02026v0v-13.21882c-0.43799,0 -0.91943,-0.04377 -1.44458,-0.08754h-1.75098c-0.65649,0 -1.31323,0 -1.96948,0.04377c-0.70044,0.04377 -1.31299,0.08754 -1.92603,0.13131c-0.61279,0.04377 -1.13818,0.08754 -1.57568,0.17509v3.06396v0h4.8147v0v5.51514c-0.61279,0.21885 -1.35693,0.39394 -2.23218,0.56902c-0.91919,0.21886 -1.83838,0.3064 -2.75757,0.3064c-0.87573,0 -1.61963,-0.13131 -2.23267,-0.39394c-0.6123,-0.21885 -1.09399,-0.70033 -1.44409,-1.31312c-0.39429,-0.6128 -0.65674,-1.48822 -0.78809,-2.58249c-0.17505,-1.09427 -0.21875,-2.45117 -0.21875,-4.11446c0,-2.10101 0.13159,-3.7643 0.3938,-5.03366c0.30664,-1.26936 0.83179,-2.18855 1.57593,-2.7138c0.74414,-0.56902 1.83813,-0.78788 3.23926,-0.78788c1.00635,0 1.92554,0 2.88867,0.04377c0.91895,0.08754 1.75073,0.13131 2.53882,0.17509c0.7439,0.08754 1.35693,0.13131 1.79443,0.21885v-3.06397c-0.7876,-0.21885 -1.61938,-0.35017 -2.45117,-0.52525c-0.83154,-0.17509 -1.70703,-0.26263 -2.58252,-0.35017c-0.91919,-0.08754 -1.88208,-0.08754 -2.84497,-0.08754c-1.75098,0 -3.19531,0.26263 -4.28955,0.74411c-1.13794,0.56902 -1.96973,1.3569 -2.58252,2.31986z" fill="#ffffff" fill-opacity="1"></path></g><g opacity="0.9"><title>Path 11906</title><path d="M134.87494,40.51409l3.37012,-11.16159l3.37061,11.16159zM135.79413,25.93837l-7.74756,23.81139h4.1145l1.79468,-5.64645h8.6228l1.83838,5.64645h4.15845l-7.7478,-23.81139z" fill="#ffffff" fill-opacity="1"></path></g><g opacity="0.9"><title>Path 11907</title><path d="M153.60883,25.93837v0l-2.75732,23.81139v0h3.85181v0l1.92603,-16.93936v0v0.04377v0l4.72705,16.89559v0h3.7644v0l4.68335,-17.0269v0l2.01343,17.0269v0h3.89575v0l-2.84497,-23.81139v0h-3.85205v0l-5.77759,19.08413v0l-5.73413,-19.08413v0z" fill="#ffffff" fill-opacity="1"></path></g><g opacity="0.9"><title>Path 11908</title><path d="M180.48456,26.98887c-0.48169,0.39394 -0.91943,0.91919 -1.22559,1.57575c-0.2627,0.70033 -0.43774,1.57575 -0.43774,2.58248v13.74408c0,1.13804 0.21899,2.05724 0.56885,2.75757c0.3501,0.65657 0.83154,1.13805 1.40088,1.44445c0.56885,0.39394 1.18188,0.56901 1.83789,0.70033c0.61304,0.08754 1.18188,0.13131 1.70752,0.13131c1.09424,-0.04377 2.18823,-0.04377 3.32642,-0.08754c1.13818,0 2.27637,-0.08754 3.41455,-0.13131c1.09399,-0.04378 2.14429,-0.13131 3.06372,-0.21885v-3.3266v0h-9.01709c-0.3938,0 -0.7439,-0.04377 -1.09399,-0.17508c-0.3501,-0.13131 -0.65674,-0.35017 -0.87524,-0.70034c-0.21924,-0.35017 -0.35034,-0.87541 -0.35034,-1.48821v-4.11447v0l9.89209,-0.21885v0v-3.15151v0l-9.89209,-0.21886v0v-4.20201c0,-0.78788 0.21875,-1.3569 0.65674,-1.75084c0.3938,-0.35017 0.96265,-0.52525 1.70654,-0.52525h8.97339v0v-3.32659c-0.87524,-0.08754 -1.75098,-0.13131 -2.75781,-0.17508c-1.00635,0 -2.14453,-0.08754 -3.32617,-0.13132c-1.18188,0 -2.53882,-0.04377 -4.07129,-0.04377c-0.61255,0 -1.1814,0.04377 -1.79419,0.21885c-0.61304,0.17508 -1.22559,0.43771 -1.70703,0.83165z" fill="#ffffff" fill-opacity="1"></path></g><g opacity="0.9"><title>Path 11909</title><path d="M199.35004,27.2515c-1.26953,1.0505 -1.92627,2.7138 -1.92627,4.98989v1.22559c0,2.31986 0.56934,3.93939 1.75098,4.90234c1.18213,0.9192 2.8457,1.40067 5.03369,1.40067h2.23242c0.91943,0 1.61914,0.21886 2.10107,0.70034c0.48096,0.43771 0.7002,1.09427 0.7002,1.92592v1.13804c0,0.74411 -0.21924,1.31313 -0.56885,1.75084c-0.3501,0.39394 -0.87549,0.65656 -1.53174,0.83165c-0.70068,0.13131 -1.40088,0.26262 -2.27637,0.26262c-0.83203,0 -1.70703,0 -2.58252,-0.04377c-0.87549,-0.04377 -1.70703,-0.08755 -2.49512,-0.08755c-0.83154,-0.04377 -1.53174,-0.08754 -2.14453,-0.13131v3.10773c0.48145,0.13131 1.00684,0.21885 1.61914,0.26263c0.61279,0.08754 1.26953,0.17508 1.92578,0.21885c0.70068,0.13131 1.31348,0.17509 2.01367,0.21885c0.65674,0.04377 1.26953,0.04377 1.83838,0.04377c1.53223,0 2.93262,-0.17509 4.11475,-0.52526c1.2251,-0.35016 2.18799,-1.00673 2.84473,-1.92591c0.7002,-0.96296 1.05029,-2.31987 1.05029,-4.0707v-1.53198c0,-1.13805 -0.21875,-2.14478 -0.65576,-3.06396c-0.43799,-0.87542 -1.13818,-1.57576 -2.01416,-2.10101c-0.91846,-0.52525 -2.05664,-0.78788 -3.45752,-0.78788h-2.49463c-1.05029,0 -1.79492,-0.17508 -2.36377,-0.61279c-0.52588,-0.39394 -0.83203,-1.13804 -0.83203,-2.101v-0.78788c0,-0.87542 0.17529,-1.53198 0.48145,-1.96969c0.30713,-0.43771 0.78809,-0.74411 1.40088,-0.91919c0.65674,-0.13132 1.35693,-0.26263 2.18799,-0.26263c1.00684,0 2.14551,0.04377 3.37109,0.13131c1.22559,0.04377 2.31934,0.08754 3.23877,0.17509v-3.15151c-0.5249,-0.13132 -1.2251,-0.26263 -2.01318,-0.35017c-0.83252,-0.08754 -1.61963,-0.17509 -2.49512,-0.26263c-0.87549,-0.08754 -1.75049,-0.13131 -2.53857,-0.13131c-2.40723,0 -4.24609,0.52525 -5.51514,1.53198z" fill="#ffffff" fill-opacity="1"></path></g><g opacity="0.9"><title>Path 11910</title><path d="M221.58539,25.19426v0v3.23905v0v18.29625v0v3.23905c0,0.13132 0.08789,0.26263 0.21924,0.35017c0.0874,0.08754 0.26221,0.13131 0.39355,0.08754l0.30664,-0.13131v0l2.71387,-1.0505v0l15.53857,-5.77777v0l4.02686,-1.48821c0.1748,-0.08754 0.2627,-0.26262 0.2627,-0.43771c0,-0.17508 -0.08789,-0.35017 -0.2627,-0.39394l-4.02686,-1.53198v0l-11.24951,-4.28955c-0.1748,-0.08754 -0.30566,-0.04377 -0.4375,0.04377c-0.13135,0.08754 -0.1748,0.21886 -0.1748,0.35017v2.93265c0,0.17508 0.0874,0.35017 0.26221,0.43771l5.42773,2.01346c0.1748,0.08754 0.2627,0.26263 0.2627,0.43771c0,0.17509 -0.08789,0.35017 -0.2627,0.43771l-8.75391,3.15151c-0.13184,0.04377 -0.30664,0.04377 -0.39404,-0.04377c-0.13135,-0.08754 -0.21875,-0.21885 -0.21875,-0.35017v-14.26933c0,-0.13131 0.0874,-0.26263 0.21875,-0.35017c0.0874,-0.08754 0.26221,-0.08754 0.39404,-0.04377l24.94922,9.45452c0.13135,0.04377 0.21875,0.04377 0.30664,0l3.89551,-1.44444c0.1748,-0.08754 0.30615,-0.26263 0.30615,-0.43771c0,-0.17509 -0.0874,-0.26263 -0.21924,-0.35017l-29.85107,-11.33667v0l-3.02051,-1.13804c-0.13135,-0.08754 -0.30615,-0.04377 -0.39355,0.04377c-0.13135,0.08754 -0.21924,0.21885 -0.21924,0.35017z" fill="#16b338" fill-opacity="1"></path></g></g></g><g><title>Rectangle 2531</title></g></g></g></svg>