<?xml version="1.0" encoding="UTF-8"?>
<svg id="SVGDoc" width="260" height="75" xmlns="http://www.w3.org/2000/svg" version="1.1" xmlns:xlink="http://www.w3.org/1999/xlink" xmlns:avocode="https://avocode.com/" viewBox="0 0 260 75"><defs></defs><desc>Generated with Avocode.</desc><g><g><title>Group 3806</title><g opacity="0.9"><title>kryptoekipa_horizontal</title><path d="M212.2778,39.38942h4.10269v-10.0858h-4.10269zM162.10524,49.64616h5.04289v-20.34253h-5.04289zM133.3009,39.38942h4.53005v-10.0858h-4.53005zM223.73118,38.53468l2.39323,-13.76113h4.61552l2.39323,13.8466c1.28211,7.60708 2.39326,14.10302 2.39326,14.44491c0,0.42736 -0.59831,0.59831 -2.13684,0.51284c-1.88038,-0.17094 -2.13681,-0.34189 -2.30775,-1.45304c-0.34189,-3.41891 -0.51284,-3.58986 -2.90607,-3.58986c-2.22229,0 -2.22229,0 -2.22229,1.70946c0,2.90608 -0.3419,3.33345 -2.90608,3.33345c-1.62398,0 -2.22229,-0.17095 -2.05135,-0.59831c0.17094,-0.34189 1.36755,-6.83783 2.73512,-14.44491zM207.66229,39.21848v-14.44491h5.6412c7.8635,0 7.52161,-0.42736 7.52161,9.57296c0,5.47026 -0.17093,8.11992 -0.5983,8.54728c-0.34189,0.34189 -2.05136,0.59831 -4.27365,0.59831h-3.67534v10.17127h-4.53008v-14.44492zM201.16634,24.77356h4.53006v28.88983h-4.53006zM186.46499,39.21847l-0.00002,-14.61586h4.53006v10.42768l1.53851,-4.27364c0.85475,-2.39324 1.62399,-4.701 1.79495,-5.21384c0.17094,-0.68378 0.85472,-0.85473 2.73512,-0.85473c1.36755,0 2.4787,0.08547 2.4787,0.25642c0,0.17095 -1.19661,3.33345 -2.73512,7.09425l-2.73512,6.83783l2.99155,7.26519c1.62398,3.93175 2.99155,7.26519 2.99155,7.35067c0,0.08548 -1.11113,0.17095 -2.4787,0.17095h-2.47873l-2.05133,-5.21385l-2.05135,-5.21384v10.42769h-4.53008v-14.44492zM173.30219,24.77357h11.11147v4.53006h-6.58141v7.60708h6.06859v4.53006h-6.06859v8.11992h7.09425v4.1027h-11.62431zM158.60088,25.79925c0.85472,-0.94021 1.70945,-1.02568 6.06857,-1.02568c7.5216,0 7.09425,-0.76926 7.09425,14.18849c0,6.66688 -0.25643,12.73546 -0.51285,13.41924c-0.51284,1.2821 -0.51284,1.2821 -6.58141,1.2821c-5.47026,0 -6.06858,-0.17095 -6.58141,-1.02568c-0.34191,-0.59831 -0.51285,-5.81216 -0.51285,-13.41924c0,-11.70978 0.08548,-12.47904 1.02568,-13.41924zM143.3867,26.99587v-2.2223h13.16281v4.53006h-4.53006v24.27429h-4.61554l0.17095,-12.13715l0.08547,-12.13714h-4.27364v-2.30777zM129.02725,25.11545c0.17093,-0.25642 2.8206,-0.34189 5.81213,-0.34189c7.69255,0 7.52161,-0.25642 7.52161,9.57296c0,9.23106 0,9.14559 -5.38479,9.14559h-3.7608v10.17127h-4.53005v-14.10302c0,-7.77803 0.17095,-14.27396 0.3419,-14.44491zM112.70194,25.54283c-0.25642,-0.68378 0.17094,-0.76925 2.22229,-0.68378h2.56419l0.94019,3.84628c1.96589,8.37633 1.70947,8.29086 3.24798,1.96587l1.28209,-5.55573l2.39325,-0.17095c1.28208,-0.08547 2.39323,0 2.39323,0.17095c0,0.17095 -1.19662,4.1027 -2.56418,8.71823c-2.39325,7.94897 -2.56419,8.71823 -2.56419,14.10302v5.72668h-4.53007v-4.95743c0,-4.4446 -0.25643,-5.81216 -2.56418,-13.67566c-1.36757,-4.78649 -2.64967,-9.06013 -2.82061,-9.48749zM98.34251,24.77356h5.55573c3.07703,0 6.06858,0.25642 6.58141,0.51284c0.94021,0.51284 1.02567,1.19662 1.02567,7.52161c0,7.35066 -0.25641,8.20539 -2.30776,8.20539c-1.02567,0 -0.9402,0.25642 1.11115,6.32499l2.13683,6.32499h-4.78648l-2.13683,-6.49594c-1.19662,-3.58986 -2.13682,-7.17972 -2.13682,-8.11992c0,-1.53851 0.08547,-1.62398 1.88039,-1.62398h1.88041v-8.11992h-4.27364v24.35977h-4.53007v-14.44491zM83.64117,24.77356h4.53006l0.17094,4.70101l0.17095,4.701l3.41891,-9.40201h2.22229c1.62399,0 2.22229,0.25642 2.22229,0.76926c0,0.42736 -1.19662,3.58985 -2.56419,7.09424l-2.56419,6.32499l5.98311,14.70134h-4.78648l-1.96587,-4.95743l-1.96588,-4.95743l-0.34188,9.91486h-4.53006zM48.08447,53.40696h1.11115c1.28209,0 2.22229,-0.25642 2.47871,-0.76926c0.08547,-0.17094 0.17095,-0.68378 0.17095,-1.11115c0,-0.42736 -0.08547,-0.9402 -0.17095,-1.11115c-0.25642,-0.42737 -1.11115,-0.76926 -2.47871,-0.76926h-1.11115zM48.08447,48.19313l1.19662,-0.08547c0.59831,-0.08547 1.36757,-0.25642 1.53851,-0.34189c0.76926,-0.51284 0.68378,-2.22229 -0.08547,-2.64966c-0.25642,-0.17095 -0.9402,-0.25642 -1.53851,-0.25642h-1.11115zM46.28953,42.21004l-0.08547,-1.02567h1.88041l-0.08547,1.96587h0.68378l0.68378,0.08547v-2.05135h1.79494l-0.17094,2.05134l0.85473,0.08547c1.70946,0.25642 2.64966,1.19662 2.64966,2.64966c0,1.11114 -0.51284,2.05134 -1.45304,2.56418c-0.51284,0.34189 -0.59831,0.42736 -0.34189,0.42736c0.59831,0 1.53851,0.59831 1.96588,1.28209c0.51283,0.68378 0.51283,2.30777 0.08547,3.1625c-0.42736,0.76926 -1.53851,1.45304 -2.73513,1.62399l-0.9402,0.08547l0.08547,1.02568l0.08547,1.02567h-1.8804v-2.05135h-1.36757l0.08548,1.02568l0.08547,1.02567h-1.8804v-2.05135h-3.07702v-1.62398l0.76925,-0.08547h0.68378l0.08547,-4.27365l0.08547,-4.27364h-1.70946l0.17094,-1.70946h1.53851l1.45304,0.08547v-1.02567zM39.53718,46.48367c-0.34189,1.28209 -0.34189,3.76081 0,5.21384c0.85473,3.41891 3.58986,6.15405 7.00878,7.17972c0.59831,0.17095 1.70946,0.25642 2.64966,0.25642c2.90608,0 5.29931,-1.02567 7.17972,-3.07702c3.67533,-3.84628 3.67533,-9.82938 0.17094,-13.67566c-1.96587,-2.13682 -4.35911,-3.16249 -7.43614,-3.16249c-1.36757,0 -2.05135,0.08547 -3.07702,0.42736c-3.16249,1.11115 -5.55573,3.50438 -6.49594,6.83783zM46.63141,37.08164c6.15405,-1.28209 12.30809,2.30777 14.35944,8.37634c0.68378,1.96588 0.68378,5.0429 0.08547,7.00878c-1.28209,4.01723 -4.27364,7.09425 -8.20539,8.37634c-1.28209,0.42737 -1.79493,0.51284 -3.67533,0.51284c-1.8804,0 -2.39324,-0.08548 -3.67533,-0.51284c-3.84628,-1.28209 -6.83783,-4.27364 -8.11992,-8.11992c-0.34189,-1.19662 -0.42736,-1.70945 -0.42736,-3.58986c0,-1.8804 0.08548,-2.39324 0.51284,-3.67533c1.36757,-4.18817 4.95743,-7.43614 9.1456,-8.37634zM34.32334,31.52591l1.28209,-1.36756l0.08547,5.9831c0,3.24797 0,8.63277 0,11.88073l-0.08547,5.9831l-1.70946,-1.19662v-9.57296c0,-9.31654 0,-9.57296 -0.34189,-9.57296c-0.25641,0 -0.34189,-0.17094 -0.42736,-0.42736c-0.08547,-0.25642 0.25642,-0.68379 1.19662,-1.70946zM227.83386,37.76543c-0.17093,1.62398 -0.42735,3.67533 -0.68378,4.61553c-0.3419,1.53851 -0.25642,1.62399 1.28209,1.62399c1.28209,0 1.53851,-0.17095 1.36757,-0.85473c-0.17094,-0.51284 -0.42737,-2.2223 -0.5983,-3.93175c-0.42738,-4.35912 -1.0257,-4.95743 -1.36758,-1.45304M54.66588,14.51682c-0.68378,0.51284 -1.19662,1.28209 -1.19662,1.96588c0,0.51284 -0.08547,0.59831 -0.42737,0.51284c-0.42736,-0.08547 -0.42736,0 -0.42736,1.53851v1.53851v0l-2.05135,2.99155v0l-2.13682,2.99155v0l-0.9402,0.08547c-0.51284,0.08547 -1.11115,0.25642 -1.45304,0.42736c-0.51284,0.34189 -0.51284,0.34189 -2.30777,-0.42736c-1.70946,-0.68378 -1.79493,-0.85473 -2.05135,-1.45304c-0.42737,-1.19662 -1.36757,-1.96588 -2.56419,-1.96588c-1.19662,0 -2.64966,1.36757 -2.64966,2.64966c0,0.34189 -0.08547,0.51284 -0.34189,0.51284c-0.34189,0 -0.34189,0.17095 -0.34189,0.85473c0,0.85473 0,0.85473 -2.05135,2.90608l-1.96588,2.05135v0l-1.11115,-0.08547c-1.02567,-0.08547 -1.11115,0 -1.79493,0.59831c-0.42736,0.34189 -0.76926,0.85473 -0.85473,1.11115c-0.08547,0.25642 -0.25642,0.42737 -0.42736,0.42737c-0.25642,0 -0.25642,0.85473 -0.25642,5.89763v5.89762v0l-0.42736,-0.76926c-1.11115,-1.8804 -2.22229,-5.12837 -2.73513,-8.03445c-0.42736,-2.47871 -0.42736,-6.58141 0.08547,-9.06012c0.42736,-1.96588 1.02567,-4.01722 1.53851,-5.12837c0.17095,-0.34189 0.25642,-0.59831 0.25642,-0.68378c-0.34189,-0.34189 -1.79493,2.47871 -2.73513,5.38479c-1.11115,3.1625 -1.36756,5.29932 -1.28209,9.06012c0.08547,1.8804 0.25642,3.67533 0.42736,4.44459c1.11115,5.12837 3.41891,9.23107 7.17972,13.07735c3.50439,3.50438 7.35067,5.72668 11.88073,6.83783c0.68378,0.17094 1.36757,0.34189 1.53851,0.42736c0.68378,0.17094 0.25642,-0.25642 -0.51284,-0.68379c-0.51284,-0.25642 -1.53851,-1.11114 -2.56419,-2.05135c-1.36757,-1.36757 -1.79493,-1.96587 -2.39324,-3.1625c-1.11115,-2.22229 -1.36757,-3.58986 -1.36757,-5.9831c0,-4.35912 1.79493,-7.94898 5.29932,-10.59863l0.76925,-0.59831v0v-10.00032v0l0.42737,0.17095c0.68378,0.25642 1.8804,0.85473 1.70946,0.85473c-0.17095,0 -0.25642,0.9402 -0.25642,4.01722c0,2.22229 0.08547,4.01722 0.08547,4.01722v0c0,0 0.68378,-0.17095 1.45304,-0.34189c0.85473,-0.25642 2.05135,-0.42737 3.24797,-0.42737l1.96587,-0.08547v0v-3.58986c0,-3.50439 0,-3.50439 -0.42736,-3.58986c-0.34189,-0.08547 -0.42736,-0.25642 -0.42736,-0.68378c-0.08547,-0.51284 0.08547,-0.85473 0.9402,-2.05135c0.51283,-0.76925 1.19662,-1.70946 1.36756,-1.96588l0.34189,-0.51284v0l-0.08547,6.41046v0l-0.08547,6.41047v0l0.51283,0.17095c2.05135,0.85473 3.58986,1.70946 4.78648,2.8206c0.68378,0.68378 1.36757,1.19662 1.36757,1.19662c0.08547,0 0.17095,-4.87195 0.17095,-10.85505l0.08547,-10.85505v0l1.11115,0.51284c0.59831,0.25642 1.02567,0.51284 0.85472,0.51284c-0.17094,0 -0.25642,2.47871 -0.17094,12.22262c0.08548,12.05167 0.08548,12.05167 0.42737,13.33376c0.51283,1.70946 0.59831,4.87195 0.17094,6.66688c-0.42737,1.45304 -1.19662,3.16249 -1.8804,4.27364c-0.51284,0.76926 -1.96587,2.30777 -2.64966,2.8206c-0.17094,0.17095 -0.34189,0.34189 -0.25642,0.42736c0.25642,0.25642 4.61553,-2.13682 6.32499,-3.41891c2.05135,-1.53851 2.90608,-2.39324 4.53006,-4.27365c6.66688,-7.94897 7.94897,-19.06044 3.33344,-28.29151c-1.02567,-1.96588 -1.79493,-2.8206 -0.9402,-1.11115c1.11114,2.39324 1.8804,6.49594 1.96587,9.65843c0,4.44459 -1.19662,8.8037 -3.33345,12.73545l-0.9402,1.62399v0l-0.08547,-13.41924c-0.08547,-10.6841 -0.08547,-13.41924 -0.25642,-13.41924c-0.17095,0 -0.42737,-0.34189 -0.59831,-0.76926c-0.68378,-1.45304 -2.39324,-2.05135 -3.67533,-1.19662l-0.76926,0.34189v0l-1.96587,-1.02567c-1.28209,-0.68378 -1.96587,-1.19662 -1.96587,-1.36757c0,-0.42736 -0.68378,-1.19662 -1.28209,-1.53851c-0.85473,-0.42736 -2.13682,-0.34189 -2.73513,0.08547" fill="#f2f2f2" fill-opacity="1"></path></g><g><title>Rectangle 2535</title></g></g></g></svg>