<?xml version="1.0" encoding="UTF-8"?>
<svg id="SVGDoc" width="260" height="75" xmlns="http://www.w3.org/2000/svg" version="1.1" xmlns:xlink="http://www.w3.org/1999/xlink" xmlns:avocode="https://avocode.com/" viewBox="0 0 260 75"><defs></defs><desc>Generated with Avocode.</desc><g><g><title>Group 3807</title><g opacity="0.9"><title>synapse</title><g opacity="0.9"><title>Path 11827</title><path d="M68.48709,47.12402c-0.0067,0.02002 -0.04019,0.19434 -0.08038,0.38867c-0.62293,3.04053 -1.31955,6.09473 -1.96257,8.57324c-0.85067,3.26904 -1.62766,5.68701 -2.27739,7.06641c-0.10717,0.22168 -0.26123,0.5166 -0.27463,0.5166c-0.0067,0 -0.38849,-0.16797 -0.62963,-0.28174c-0.29472,-0.13379 -1.04492,-0.51611 -1.33964,-0.66992c-1.98937,-1.07178 -3.7175,-2.31055 -5.34517,-3.83154c-0.25453,-0.23437 -0.93105,-0.91162 -1.18558,-1.18555c-1.60757,-1.71533 -2.89363,-3.49023 -3.93185,-5.43213c-0.14066,-0.26172 -0.39519,-0.76367 -0.39519,-0.77783c0,-0.01953 0.44878,-0.22754 0.81718,-0.375c2.63909,-1.05811 8.2254,-2.43115 15.32549,-3.78467c1.01143,-0.19385 1.23917,-0.23437 1.25926,-0.23437c0.02679,-0.01221 0.02679,-0.01221 0.02009,0.02783zM96.8272,43.70801c0.65643,0.02686 1.1521,0.06689 1.54729,0.13379l0.10717,0.02002l-0.0067,0.19434c-0.00669,0.34131 -0.03349,0.75049 -0.06698,1.17871c-0.18085,2.20361 -0.67651,4.3877 -1.45351,6.43066c-0.88416,2.31787 -2.15682,4.54102 -3.7108,6.4834c-0.7636,0.95752 -1.54059,1.78857 -2.51183,2.69922c-2.03625,1.90918 -4.31365,3.44922 -6.83887,4.62842c-0.36171,0.16748 -0.3952,0.18115 -0.40189,0.16748c-0.02009,-0.02686 -0.18755,-0.5625 -0.25453,-0.79004c-0.91095,-3.16797 -1.89559,-10.12109 -2.71947,-19.13037c-0.02679,-0.31494 -0.05359,-0.57617 -0.04689,-0.57617c0.0134,-0.01318 2.67258,-0.36816 4.04572,-0.53564c4.54808,-0.55566 8.16511,-0.85742 10.92477,-0.91113c0.24783,-0.01318 1.15208,0.00049 1.38652,0.00732zM73.58443,37.41162c1.4937,0.04053 2.00276,0.05371 2.95391,0.07422c0.34161,0.00684 0.61624,0.01367 0.61624,0.01367c0,0 0.0067,0.09326 0.0134,0.21387c0.08038,1.19922 0.21434,3.00098 0.32821,4.36084c0.02679,0.34863 0.05359,0.65674 0.05359,0.68945v0.06055l-0.20764,0.0332c-1.63436,0.24854 -3.04099,0.46875 -4.60836,0.73682c-0.45548,0.07373 -0.83058,0.13428 -0.83058,0.13428c0,0 0.02009,-0.10693 0.04019,-0.22754c0.29472,-1.59424 0.70331,-3.91846 0.97124,-5.57959c0.04689,-0.27441 0.08038,-0.50244 0.08708,-0.51611c0.0067,-0.02002 0.0067,-0.02002 0.08038,-0.01318c0.02679,0.00635 0.26123,0.01318 0.50236,0.01953zM71.89648,18.48242c0.08707,0.48877 0.12057,0.87109 0.14736,1.54736c0.02009,0.48242 0.0134,1.49365 -0.02009,2.22998c-0.10717,2.78662 -0.50906,6.60498 -1.15209,11.10596c-0.14736,1.04492 -0.18085,1.23926 -0.18755,1.24609c-0.0067,0.00684 -1.37983,-0.04736 -2.75966,-0.10742c-9.02918,-0.40869 -15.90154,-1.07178 -18.68799,-1.80176l-0.19425,-0.05371l0.09377,-0.18701c0.40859,-0.81738 0.95114,-1.74854 1.5071,-2.57861c1.35304,-2.02979 3.03429,-3.89893 4.88969,-5.43896c1.88889,-1.56787 4.01892,-2.86084 6.3365,-3.85889c2.96731,-1.27246 6.16235,-1.98926 9.43777,-2.12354c0.32821,-0.01318 0.32821,-0.01318 0.46218,-0.01318h0.12057zM80.34962,9.4668c2.25059,0.08691 4.52129,0.46143 6.64462,1.0918c3.22184,0.95703 6.28292,2.55859 8.85503,4.61475c0.7234,0.58301 1.35974,1.15186 2.04965,1.83447c3.91175,3.90576 6.29632,8.57422 7.03312,13.74512c0.12727,0.88477 0.20094,1.72852 0.23444,2.68652l0.00669,0.16748l-0.11386,0.04004c-1.37313,0.44922 -4.56818,0.81055 -9.02248,1.01855c-2.21711,0.10742 -4.26676,0.16064 -7.4417,0.20752c-0.95784,0.01367 -5.13753,0.02051 -6.39009,0.00684c-1.44681,-0.01367 -2.50513,-0.02637 -2.51183,-0.0332c-0.00669,-0.00684 -0.09377,-1.52734 -0.16075,-2.77295c-0.18755,-3.46924 -0.30812,-6.71826 -0.3684,-9.72656c-0.04019,-2.10937 -0.04019,-4.59473 0,-6.22168c0.06698,-2.77344 0.23444,-4.79004 0.48897,-6.0625c0.03349,-0.16699 0.10047,-0.44873 0.13396,-0.55566l0.0201,-0.06006l0.16745,0.00684c0.08708,0.00586 0.25454,0.00586 0.37511,0.0127zM78.98318,6.76074c-0.48897,0.06689 -0.93775,0.35449 -1.25257,0.79004c-0.12057,0.16797 -0.26123,0.42188 -0.34831,0.64307c-0.3818,0.92432 -0.62963,2.44482 -0.78369,4.73584c-0.12727,1.90918 -0.18085,4.11914 -0.16076,7.14063c0.02009,3.63086 0.16746,8.07129 0.43538,12.86035c0.04019,0.77051 0.10047,1.72217 0.10717,1.80127l0.0067,0.06738h-0.02679c-0.0134,0 -0.26793,-0.00684 -0.56265,-0.01318c-1.46021,-0.03369 -2.974,-0.07422 -2.9807,-0.08105c0,0 0.02009,-0.14062 0.04019,-0.31494c0.63633,-4.3335 1.07841,-8.31934 1.23247,-11.23291c0.05358,-0.93799 0.06028,-1.39307 0.06698,-2.29102c0,-0.79053 -0.0067,-0.98535 -0.03349,-1.45996c-0.10047,-1.62109 -0.3818,-2.54541 -0.94445,-3.12158c-0.06028,-0.06006 -0.13396,-0.13428 -0.17415,-0.16064c-0.28802,-0.22754 -0.60284,-0.34863 -0.97124,-0.375c-0.20095,-0.01416 -1.1186,0.00684 -1.76163,0.04004c-3.13476,0.16748 -6.19584,0.81104 -9.06937,1.92236c-1.44011,0.55615 -2.86683,1.23926 -4.18638,2.00977c-2.56541,1.49316 -4.80261,3.31543 -6.76519,5.51221c-1.88889,2.1167 -3.42278,4.44775 -4.58157,6.97998c-0.22774,0.49561 -0.26123,0.60254 -0.26793,0.89063c-0.0067,0.2207 0.0134,0.375 0.08038,0.57617c0.16746,0.49561 0.54255,0.87744 1.15209,1.17236c0.84397,0.4082 2.33767,0.75635 4.66865,1.08496c3.89836,0.55566 10.05401,1.0249 17.20769,1.31982c0.39519,0.01367 0.81718,0.03369 0.93775,0.04053c0.12057,0.00635 0.22774,0.01318 0.22774,0.01318c0.0067,0.00684 -0.0067,0.07422 -0.17415,1.0791c-0.31482,1.875 -0.62963,3.66357 -0.99133,5.5791l-0.05358,0.28174l-0.47557,0.08643c-6.04178,1.10547 -11.26638,2.26416 -14.71596,3.27539c-2.37786,0.69678 -3.92515,1.31299 -4.72224,1.88232c-0.23444,0.16748 -0.44878,0.36182 -0.58274,0.5293c-0.40189,0.49561 -0.52916,1.08496 -0.35501,1.64111c0.02679,0.08691 0.09378,0.24121 0.22774,0.52197c1.17219,2.53906 2.77306,4.92334 4.76242,7.09326c0.7301,0.79736 1.56068,1.60059 2.32428,2.27051c2.18362,1.89551 4.68204,3.45605 7.42161,4.63525c0.7636,0.32813 0.87077,0.36182 1.18558,0.36865c0.11387,0.00684 0.20094,0 0.25453,-0.00684c0.3617,-0.04687 0.68991,-0.19385 0.99803,-0.43506c0.16745,-0.13428 0.41529,-0.40234 0.57604,-0.62988c0.55595,-0.77686 1.1119,-2.05615 1.76163,-4.02588c1.08511,-3.28174 2.34437,-8.37939 3.52326,-14.25342c0.06698,-0.3418 0.12726,-0.62939 0.13396,-0.62939c0.0067,0 0.03349,-0.00684 0.06698,-0.01367c0.03349,-0.00684 0.31481,-0.05322 0.62293,-0.10693c1.57408,-0.26807 3.3759,-0.5625 5.02365,-0.81787c0.66312,-0.10059 0.72341,-0.10693 0.72341,-0.10059c0,0.04736 0.20094,2.19727 0.29472,3.11523c0.82388,8.29199 1.76832,14.41406 2.65248,17.27441c0.28133,0.91113 0.55595,1.51367 0.88417,1.94238c0.08707,0.11377 0.30142,0.32813 0.41529,0.41553c0.23444,0.17432 0.52246,0.29492 0.80378,0.33496c0.08038,0.01318 0.13396,0.01318 0.26793,0.00684c0.26123,-0.00684 0.3617,-0.03369 0.7368,-0.1875c0.95784,-0.39502 1.96258,-0.87109 2.87354,-1.37305c2.03625,-1.1123 3.92514,-2.47168 5.64659,-4.05273c0.85067,-0.77686 1.58747,-1.54053 2.27069,-2.32422c1.75493,-2.02344 3.19505,-4.28662 4.28685,-6.73828c1.25257,-2.81348 1.99606,-5.8208 2.20371,-8.9292c0.06029,-0.85059 0.07368,-1.88916 0.04019,-2.08984c-0.03349,-0.18701 -0.08038,-0.31494 -0.15406,-0.4751c-0.17416,-0.34863 -0.45548,-0.63672 -0.84398,-0.85107c-0.54255,-0.30176 -1.37313,-0.48242 -2.56541,-0.5625c-0.58944,-0.04053 -1.06501,-0.04736 -1.94918,-0.04053c-0.69661,0.00684 -0.87746,0.00684 -1.4736,0.03369c-3.30222,0.12695 -7.91728,0.58887 -13.32943,1.32617c-0.33491,0.04688 -0.61624,0.08057 -0.61624,0.08057c-0.0134,-0.01416 -0.3751,-4.87646 -0.3684,-4.89014c0,0 0.3617,0 0.79708,0.00684c3.22184,0.04053 6.60443,0.03369 9.45117,-0.01367c6.99962,-0.12012 12.07016,-0.48193 14.70925,-1.05762c1.52719,-0.32861 2.33097,-0.73047 2.75296,-1.35986c0.11387,-0.17432 0.19425,-0.34131 0.24114,-0.52881c0.04689,-0.18115 0.04689,-0.18115 0.04689,-0.72363c0,-0.48242 -0.0067,-0.72949 -0.0335,-1.19873c-0.24113,-4.31299 -1.50039,-8.41992 -3.7242,-12.104c-1.31955,-2.19043 -2.9874,-4.24658 -4.92987,-6.07568c-2.40466,-2.27002 -5.31837,-4.15234 -8.48663,-5.47217c-3.12806,-1.30615 -6.45707,-2.06299 -9.89325,-2.23682c-0.48897,-0.02734 -0.67652,-0.03418 -1.19898,-0.03418c-0.45548,0.00098 -0.56936,0.00098 -0.63633,0.00781z" fill="#f2f2f2" fill-opacity="1"></path></g><g opacity="0.9"><title>Path 11828</title><path d="M49.77901,8.10596c-0.04019,0.00732 -0.12057,0.01367 -0.18085,0.02783c-1.42672,0.24072 -2.40466,1.53369 -2.2372,2.9668c0.09378,0.81055 0.55595,1.54639 1.25256,1.97559c0.34831,0.21436 0.7502,0.34863 1.17219,0.39551c0.11387,0.0127 0.3818,0.0127 0.49567,0c0.40859,-0.04053 0.79039,-0.16748 1.1387,-0.36865c0.20764,-0.12061 0.3617,-0.24072 0.53586,-0.42187c0.40189,-0.40186 0.65642,-0.89697 0.7502,-1.4541c0.05359,-0.3208 0.04689,-0.70312 -0.02679,-1.03125c-0.14066,-0.64307 -0.52916,-1.21924 -1.07171,-1.60059c-0.3818,-0.26758 -0.84397,-0.44238 -1.30615,-0.48291c-0.11387,-0.01904 -0.41529,-0.01904 -0.52246,-0.00635z" fill="#f2f2f2" fill-opacity="1"></path></g><g opacity="0.9"><title>Path 11829</title><path d="M123.97501,22.22656c-1.01812,0.05371 -1.8353,0.25391 -2.61229,0.63623c-0.58945,0.29395 -1.06503,0.67627 -1.40663,1.13135c-0.18085,0.2417 -0.33491,0.5293 -0.44208,0.81055c-0.27463,0.75098 -0.26124,1.66797 0.03349,2.35205c0.11387,0.26074 0.26792,0.48145 0.46888,0.68262c0.43537,0.4292 0.93105,0.72363 1.54058,0.9248c0.54926,0.18115 1.19228,0.3418 2.03625,0.52197c0.85066,0.18115 1.34634,0.31494 1.73483,0.46875c0.29472,0.12012 0.43539,0.20117 0.54926,0.33545c0.15406,0.17383 0.20094,0.42822 0.14066,0.67627c-0.04688,0.17383 -0.17415,0.34863 -0.36839,0.49561c-0.21435,0.16064 -0.4287,0.24805 -0.73011,0.29492c-0.13396,0.01904 -0.58274,0.01904 -0.7301,0c-0.63633,-0.09375 -0.98463,-0.36865 -1.11191,-0.8916c-0.01339,-0.05957 -0.03349,-0.12695 -0.03349,-0.14697l-0.00669,-0.0332v0h-1.8688v0h-1.86879v0l0.00669,0.08008c0.02679,0.34814 0.10047,0.74365 0.21433,1.06494c0.10718,0.32178 0.28133,0.67041 0.47558,0.9375c0.28133,0.39551 0.64972,0.72998 1.1119,1.00488c0.75019,0.44922 1.64775,0.72314 2.67258,0.81055c0.29472,0.02637 0.52246,0.03369 0.88416,0.02637c0.44878,-0.00635 0.71001,-0.02637 1.07841,-0.08643c1.22577,-0.19385 2.25729,-0.71045 2.94051,-1.4668c0.58945,-0.64941 0.87746,-1.38672 0.87746,-2.23682c0,-0.50928 -0.09377,-0.96484 -0.27462,-1.33984c-0.11386,-0.23437 -0.23444,-0.40186 -0.44208,-0.6167c-0.30811,-0.31445 -0.60954,-0.53613 -0.97794,-0.72266c-0.14066,-0.07422 -0.28132,-0.12744 -0.51575,-0.21484c-0.52916,-0.1875 -1.15208,-0.36133 -1.84201,-0.50928c-0.93105,-0.2002 -1.4937,-0.34814 -1.92908,-0.49512c-0.27462,-0.09375 -0.39519,-0.15381 -0.52246,-0.2749c-0.11387,-0.10742 -0.18085,-0.2207 -0.20764,-0.3623c-0.0201,-0.1001 -0.01339,-0.2876 0.01339,-0.38135c0.10047,-0.34814 0.47557,-0.56885 1.06502,-0.63574c0.14066,-0.01416 0.50906,-0.01416 0.64972,-0.00781c0.3483,0.0332 0.60284,0.10791 0.80379,0.2417c0.06698,0.04053 0.16075,0.14063 0.20094,0.20068c0.08708,0.12744 0.16077,0.33545 0.18085,0.53564c0,0.02051 0.0067,0.0542 0.0067,0.06055l0.00669,0.01953v0h1.8688v0h1.8688v0v-0.07373c-0.0067,-0.20117 -0.05359,-0.52197 -0.11386,-0.75635c-0.20095,-0.83057 -0.66312,-1.50732 -1.37314,-2.03662c-0.24113,-0.17383 -0.46217,-0.31445 -0.75019,-0.45508c-0.69662,-0.3418 -1.45351,-0.53564 -2.36447,-0.58252c-0.18082,0.00635 -0.75688,0.00635 -0.93774,0.01367z" fill="#f2f2f2" fill-opacity="1"></path></g><g opacity="0.9"><title>Path 11830</title><path d="M152.60316,22.22656c-0.85738,0.05371 -1.63438,0.31543 -2.29079,0.79053c-0.35501,0.25391 -0.68321,0.60303 -0.93105,0.97803l-0.0603,0.0874v0v-0.87158v0v-0.87012v0h-1.8286v0h-1.82861v0v5.96729v0v5.96875v0h1.82861v0h1.82861v0v-3.28223c0,-2.08984 0.0067,-3.33545 0.0067,-3.42236c0.04018,-0.67041 0.22774,-1.16553 0.58275,-1.54053c0.3349,-0.34912 0.75688,-0.55615 1.30615,-0.62939c0.15405,-0.02051 0.60951,-0.02051 0.76358,0c0.37511,0.05322 0.66313,0.15332 0.93106,0.3208c0.12726,0.08691 0.22772,0.16699 0.35501,0.30127c0.33488,0.34814 0.50905,0.72949 0.58945,1.29932l0.0201,0.12695v0l0.0067,3.40967v0l0.00668,3.40918v0h1.81522v0h1.8152v0v-3.66455c0,-2.91992 0,-3.69727 -0.01338,-3.81152c-0.06697,-0.8501 -0.23444,-1.51367 -0.55595,-2.1626c-0.36169,-0.73047 -0.81049,-1.25879 -1.40662,-1.65479c-0.69662,-0.46875 -1.39993,-0.70312 -2.25729,-0.76416c-0.11389,0.0083 -0.56937,0.0083 -0.68323,0.01465z" fill="#f2f2f2" fill-opacity="1"></path></g><g opacity="0.9"><title>Path 11831</title><path d="M166.43495,25.41504c0.30142,0.04688 0.58945,0.14746 0.87747,0.30859c0.44208,0.24756 0.7234,0.53564 1.00471,1.03809c0.25455,0.45508 0.36171,0.96436 0.35503,1.64111c-0.00671,0.38818 -0.04689,0.6499 -0.13397,0.96436c-0.14066,0.48242 -0.45546,0.97803 -0.81049,1.28613c-0.16075,0.14063 -0.30141,0.23438 -0.49567,0.32813c-0.29471,0.14746 -0.60953,0.24121 -0.92436,0.26807c-0.15405,0.01318 -0.45547,0.00684 -0.60953,-0.02002c-0.38179,-0.06006 -0.7368,-0.19434 -1.03152,-0.38818c-0.30811,-0.20752 -0.57603,-0.48877 -0.79041,-0.81738c-0.19423,-0.31543 -0.33488,-0.74365 -0.38849,-1.23877c-0.02008,-0.16797 -0.02679,-0.5498 -0.01338,-0.73047c0.04688,-0.69678 0.21432,-1.19189 0.55595,-1.64111c0.23444,-0.30811 0.50237,-0.53564 0.84396,-0.71729c0.33492,-0.17383 0.61624,-0.26025 0.99135,-0.30078c0.01338,0 0.12726,0 0.24112,0c0.16747,-0.00049 0.24115,0.00635 0.32822,0.01953zM164.8073,22.22705c-0.93774,0.07324 -1.74153,0.354 -2.53192,0.88428c-1.03154,0.68945 -1.81522,1.76807 -2.21712,3.06104c-0.28131,0.89063 -0.37509,1.93555 -0.27463,2.98047c0.10718,1.09229 0.45549,2.07666 1.03824,2.94092c0.46217,0.68311 1.0583,1.24561 1.73483,1.64063c0.64972,0.375 1.34634,0.59619 2.10324,0.67676c0.18085,0.02002 0.64972,0.02686 0.83058,0.01367c1.26596,-0.08691 2.28409,-0.65625 3.08118,-1.72803l0.09377,-0.12695l0.0067,0.85693l0.0067,0.85742h3.65722v-11.93701h-3.65722v1.54786l-0.06029,-0.08057c-0.52916,-0.69629 -1.19897,-1.16504 -2.02286,-1.40674c-0.28131,-0.08057 -0.54254,-0.13379 -0.89085,-0.16748c-0.15407,-0.01318 -0.75021,-0.02002 -0.89757,-0.01318z" fill="#f2f2f2" fill-opacity="1"></path></g><g opacity="0.9"><title>Path 11832</title><path d="M182.12883,25.40771c0.28133,0.04736 0.49568,0.11426 0.7502,0.24121c0.30812,0.1543 0.49568,0.28174 0.69662,0.48291c0.18755,0.1875 0.30812,0.34814 0.45546,0.60938c0.18756,0.3418 0.30142,0.70313 0.34831,1.16553c0.0201,0.18701 0.0201,0.67676 0,0.85693c-0.06029,0.51611 -0.17416,0.87109 -0.40189,1.25928c-0.20767,0.34863 -0.48227,0.63672 -0.80379,0.84424c-0.31482,0.20752 -0.7234,0.3418 -1.132,0.38818c-0.11386,0.01367 -0.37509,0.01367 -0.48897,0c-0.27461,-0.02686 -0.54256,-0.10059 -0.81047,-0.20752c-0.14737,-0.06006 -0.22105,-0.10059 -0.34161,-0.18164c-0.36841,-0.24072 -0.69661,-0.60937 -0.89757,-1.00439c-0.21434,-0.42822 -0.3215,-0.92432 -0.3215,-1.54053c0,-0.89746 0.21432,-1.521 0.70331,-2.07666c0.21432,-0.24756 0.48895,-0.44873 0.82387,-0.60303c0.25453,-0.12012 0.54257,-0.20068 0.8172,-0.23437c0.12727,-0.01904 0.49565,-0.0127 0.60283,0.00049zM182.30968,22.22656c-0.71671,0.05322 -1.33293,0.22754 -1.87549,0.53564c-0.09378,0.05371 -0.31482,0.20117 -0.4019,0.26807c-0.28133,0.21436 -0.54924,0.48877 -0.77698,0.77686l-0.06029,0.08057v-1.54786h-3.65721v17.6167h3.65723v-7.39502l0.07367,0.10059c0.45547,0.63574 1.03822,1.13184 1.66785,1.40674c0.44209,0.19385 0.89088,0.30762 1.41333,0.34131c0.14734,0.01367 0.53586,0.01367 0.69661,0c0.93105,-0.06641 1.75493,-0.34814 2.54532,-0.87793c0.31482,-0.20752 0.56934,-0.42139 0.84398,-0.70264c0.79709,-0.81738 1.35303,-1.9292 1.57407,-3.1416c0.16747,-0.9375 0.15408,-2.0166 -0.04019,-2.9209c-0.11385,-0.54883 -0.27463,-1.01074 -0.52246,-1.50684c-0.52914,-1.05811 -1.25255,-1.82812 -2.27737,-2.40479c-0.60956,-0.34131 -1.23918,-0.54248 -1.96259,-0.62256c-0.15407,-0.00635 -0.73682,-0.02002 -0.89757,-0.00635z" fill="#f2f2f2" fill-opacity="1"></path></g><g opacity="0.9"><title>Path 11833</title><path d="M194.29279,22.22705c-1.01813,0.05322 -1.83531,0.25391 -2.6123,0.63623c-0.58945,0.2876 -1.07172,0.67627 -1.40662,1.13135c-0.34831,0.46924 -0.54927,0.9917 -0.62294,1.58789c-0.0201,0.15332 -0.0201,0.54297 -0.0067,0.69678c0.06027,0.57617 0.22102,1.01074 0.52246,1.39209c0.06697,0.0874 0.24113,0.26221 0.37511,0.36865c0.40189,0.33545 0.80377,0.56348 1.32625,0.73096c0.54924,0.18066 1.19226,0.34082 2.03622,0.52197c0.98465,0.20752 1.5473,0.36816 1.93579,0.55566c0.27463,0.12695 0.42868,0.30078 0.48897,0.52881c0.02679,0.0874 0.02679,0.25439 0.0067,0.35449c-0.04018,0.19482 -0.16075,0.36865 -0.355,0.5166c-0.22775,0.17383 -0.43538,0.26123 -0.75021,0.31445c-0.13394,0.02002 -0.58272,0.02002 -0.73009,0c-0.63632,-0.09375 -0.98463,-0.36865 -1.11191,-0.89062c-0.01338,-0.05957 -0.03349,-0.12695 -0.03349,-0.14697l-0.0067,-0.03418v0h-1.86879v0h-1.86879v0l0.0067,0.08105c0.02678,0.33447 0.10718,0.75098 0.20094,1.04492c0.13396,0.40869 0.34161,0.79688 0.58273,1.10547c0.24783,0.30811 0.55597,0.58301 0.89088,0.79688c0.77699,0.49561 1.70804,0.79053 2.78645,0.87793c0.40189,0.03271 1.05832,0.03955 1.40663,0.00635c0.87076,-0.07373 1.59416,-0.26855 2.26398,-0.60303c0.60284,-0.30762 1.07843,-0.68945 1.45351,-1.18555c0.46219,-0.60937 0.68321,-1.28662 0.66312,-2.06982c-0.00671,-0.34814 -0.04689,-0.60303 -0.12726,-0.87744c-0.08707,-0.2876 -0.24113,-0.58301 -0.41528,-0.79687c-0.08037,-0.1001 -0.30812,-0.32812 -0.42198,-0.4292c-0.28804,-0.24072 -0.59613,-0.43506 -0.93105,-0.57568c-0.13397,-0.06055 -0.47557,-0.18066 -0.71002,-0.25439c-0.41528,-0.13428 -0.93774,-0.26855 -1.44681,-0.375c-0.92436,-0.20117 -1.49371,-0.34912 -1.92909,-0.49512c-0.27464,-0.09473 -0.39519,-0.15479 -0.52246,-0.2749c-0.15407,-0.14795 -0.22105,-0.30176 -0.22105,-0.52295c0,-0.32812 0.14737,-0.53613 0.46887,-0.69678c0.15407,-0.07373 0.32152,-0.12061 0.53586,-0.15332c0.13396,-0.02051 0.55595,-0.02686 0.71671,-0.01367c0.35501,0.02637 0.61623,0.10742 0.81718,0.2417c0.06697,0.04004 0.16075,0.14063 0.20094,0.2002c0.08708,0.12744 0.16075,0.33545 0.18085,0.53662c0,0.01953 0.00671,0.05322 0.00671,0.05957l0.0067,0.02051v0h1.86879v0h1.8688v0v-0.02051c0,-0.00635 -0.00671,-0.08691 -0.0134,-0.16699c-0.10718,-1.23242 -0.66983,-2.16992 -1.72144,-2.85352c-0.17416,-0.11426 -0.34163,-0.20801 -0.54257,-0.30811c-0.68991,-0.33545 -1.44011,-0.5166 -2.33766,-0.56982c-0.14067,0 -0.71671,0 -0.90425,0.00732z" fill="#f2f2f2" fill-opacity="1"></path></g><g opacity="0.9"><title>Path 11834</title><path d="M207.75617,25.36816c0.46217,0.07373 0.80377,0.2207 1.14542,0.49561c0.40189,0.32764 0.63634,0.7168 0.72342,1.21289c0.00668,0.05322 0.02007,0.10645 0.02007,0.11963v0.02002h-4.46098l0.00668,-0.02637c0.0804,-0.39551 0.22774,-0.72363 0.44876,-1.01221c0.11388,-0.14062 0.34164,-0.35449 0.489,-0.4624c0.28133,-0.2002 0.57607,-0.31396 0.93105,-0.36084c0.14064,-0.01318 0.54254,-0.00586 0.69659,0.01367zM206.90553,22.22656c-0.87749,0.05371 -1.68126,0.26123 -2.41136,0.62988c-0.58275,0.2876 -1.04492,0.62207 -1.45351,1.04492c-0.85738,0.87744 -1.38652,2.02295 -1.554,3.36279c-0.14067,1.08545 -0.04686,2.25732 0.24783,3.22119c0.27463,0.88525 0.71004,1.63525 1.32628,2.26465c0.6631,0.67676 1.4736,1.15186 2.44482,1.42627c0.4086,0.12061 0.81718,0.1875 1.30615,0.23438c0.16745,0.01416 0.7435,0.01953 0.95114,0.00684c0.99133,-0.05371 1.85539,-0.28125 2.63907,-0.70312c1.09851,-0.58936 1.9693,-1.521 2.43147,-2.61963c0.08708,-0.21387 0.23442,-0.61572 0.23442,-0.6626c0,-0.01367 -0.24115,-0.01367 -1.97597,-0.01367h-1.97595l-0.0804,0.09375c-0.17415,0.20752 -0.40189,0.41553 -0.56264,0.53564c-0.23444,0.16748 -0.56935,0.24072 -1.0851,0.24072c-0.45547,0 -0.79039,-0.07324 -1.13199,-0.24072c-0.47557,-0.2417 -0.83728,-0.6626 -1.00475,-1.16504c-0.03349,-0.10059 -0.07367,-0.26855 -0.08035,-0.34229l-0.00673,-0.03955h4.09932c3.59023,0 4.0993,0 4.0993,-0.01367c0.0067,-0.02002 0.04688,-0.34912 0.06026,-0.50928c0.02011,-0.21484 0.02679,-0.81787 0.01341,-1.05859c-0.067,-1.26562 -0.38181,-2.27734 -1.00473,-3.22852c-0.30142,-0.4624 -0.68994,-0.88428 -1.11862,-1.21875c-0.28801,-0.22168 -0.56264,-0.39502 -0.94443,-0.58984c-0.7971,-0.40186 -1.64107,-0.61621 -2.61232,-0.67041c-0.16743,0.0083 -0.67651,0.0083 -0.85065,0.01465z" fill="#f2f2f2" fill-opacity="1"></path></g><g opacity="0.9"><title>Path 11835</title><path d="M130.46558,22.36035c0.00669,0.00684 1.04491,2.63916 2.31757,5.84766l2.3109,5.83447v0l-1.26598,2.94678c-0.69662,1.62109 -1.26596,2.95361 -1.27266,2.96094c-0.00668,0.01367 0.08708,0.01367 1.909,0.01367h1.91568v0l3.80458,-8.80859c2.08983,-4.84229 3.8046,-8.80811 3.8046,-8.80811v0c0,0 -0.86407,0 -1.9157,0h-1.91568v0l-1.43341,3.85889c-0.79041,2.12354 -1.44012,3.87793 -1.45352,3.89111c-0.0134,0.03418 -0.0134,0.03418 -0.0201,0.01367c-0.00668,-0.01367 -0.59615,-1.76123 -1.31953,-3.89111l-1.31287,-3.87158v0h-2.07645c-1.98266,-0.00098 -2.08313,-0.00098 -2.07643,0.01221z" fill="#f2f2f2" fill-opacity="1"></path></g><g opacity="0.9"><title>Path 11836</title><path d="M194.58081,47.74023v0v7.91064v0h1.22578v0h1.22577v0v-2.52539v0v-2.52588v0l2.17021,2.52588v0l2.17021,2.52539v0h1.64775v0h1.64777v0l-0.01338,-0.02002c-0.0067,-0.01416 -1.22577,-1.33301 -2.71277,-2.94043l-2.69267,-2.92041v0l0.09375,-0.10059c0.0737,-0.08057 5.25139,-5.71387 5.31169,-5.78027l0.0201,-0.02002v0h-1.69464v0h-1.69466v0l-2.13004,2.56543v0l-2.13002,2.56494v0l-0.00671,-4.58838v0l-0.0067,-4.58838v0h-1.21907v0h-1.21909v0v7.91748v0z" fill="#f2f2f2" fill-opacity="1"></path></g><g opacity="0.9"><title>Path 11837</title><path d="M147.56609,42.40771v0v1.4668v0h-0.69661v0h-0.69661v0v0.99756v0v0.99805v0h0.69661v0h0.69661v0v3.44287c0,3.15527 0.00671,3.44971 0.0201,3.57715c0.04691,0.46191 0.11388,0.77686 0.24113,1.08496c0.18755,0.47607 0.46217,0.82373 0.85738,1.09863c0.3885,0.26807 0.88417,0.44189 1.46022,0.52881c0.3215,0.04688 0.30142,0.04688 1.56738,0.04688l1.17886,0.00684v0v-1.01807v0v-1.01855v0h-0.83727c-0.85066,0 -0.93105,0 -1.132,-0.03369c-0.54926,-0.08643 -0.78368,-0.3208 -0.87746,-0.87744c-0.0134,-0.08057 -0.0134,-0.32129 -0.0201,-3.46289v-3.37598v0h1.42673v0h1.42671v0v-0.99756v0v-0.99805v0h-1.42671v0h-1.42673v0v-1.4668v0v-1.4668v0h-1.23247v0h-1.23248v0v1.46729v0z" fill="#f2f2f2" fill-opacity="1"></path></g><g opacity="0.9"><title>Path 11838</title><path d="M126.03138,43.6875c-0.0201,0 -0.09378,0.00635 -0.15406,0.01367c-0.44208,0.0332 -0.90426,0.14063 -1.31284,0.30127c-0.16746,0.06641 -0.48226,0.2207 -0.63634,0.31543c-0.54924,0.33447 -0.94444,0.73584 -1.33294,1.35938l-0.02679,0.04004v0v-0.91797v0v-0.91797v0h-1.21907v0h-1.21907v0v5.88721v0v5.8877v0h1.21907v0h1.21907v0v-3.34912c0,-2.18359 0.0067,-3.40869 0.0067,-3.51611c0.04019,-0.71045 0.20094,-1.28711 0.48898,-1.7417c0.18755,-0.29492 0.48226,-0.5957 0.78368,-0.79053c0.24783,-0.15967 0.53585,-0.28125 0.84397,-0.35498c0.57604,-0.14014 1.27936,-0.12646 1.82861,0.04053c0.48898,0.14063 0.90426,0.40918 1.24586,0.8042c0.30813,0.36133 0.51576,0.80322 0.62964,1.34668c0.02679,0.14697 0.04688,0.24072 0.06698,0.45459c0.0134,0.10791 0.0134,0.41553 0.0201,3.61768v3.49609v0h1.21237v0h1.21237v0v-3.68994c0,-2.7666 -0.00669,-3.71875 -0.01339,-3.80518c-0.0201,-0.22021 -0.04689,-0.43555 -0.06699,-0.57617c-0.11386,-0.69678 -0.31481,-1.25244 -0.65643,-1.82812c-0.3684,-0.62939 -0.86407,-1.11914 -1.4736,-1.4668c-0.56935,-0.32812 -1.16549,-0.51611 -1.8554,-0.5835c-0.13396,-0.02637 -0.71001,-0.03955 -0.81049,-0.02637z" fill="#f2f2f2" fill-opacity="1"></path></g><g opacity="0.9"><title>Path 11839</title><path d="M139.41441,45.76367c0.75688,0.09326 1.31952,0.35498 1.86877,0.85107c0.32153,0.29443 0.56937,0.6499 0.73012,1.04492c0.13397,0.33496 0.20766,0.71729 0.23445,1.15234l0.00668,0.11426h-6.53744l0.0067,-0.04736c0.06027,-0.54248 0.17415,-0.97803 0.36839,-1.3667c0.16747,-0.33447 0.34161,-0.58252 0.59615,-0.83691c0.25453,-0.25439 0.52246,-0.44922 0.83058,-0.60254c0.36169,-0.18164 0.68321,-0.26807 1.15878,-0.31543c0.08708,-0.02051 0.63634,-0.00684 0.73682,0.00635zM138.7178,43.68701c-0.24115,0.01416 -0.33492,0.02686 -0.46887,0.04053c-1.05833,0.12061 -2.00279,0.46875 -2.78645,1.04492c-0.78371,0.56934 -1.41333,1.39355 -1.79514,2.33789c-0.3483,0.85693 -0.50237,1.80811 -0.46887,2.89355c0.04688,1.63477 0.54256,3.00098 1.4803,4.0459c0.44208,0.49561 0.97794,0.91113 1.5473,1.19189c0.6631,0.33496 1.35973,0.52246 2.20369,0.59619c0.16747,0.01367 0.90427,0.01367 1.08511,0c1.37314,-0.11426 2.41135,-0.52246 3.3156,-1.31982c0.70332,-0.61621 1.2258,-1.39307 1.52049,-2.25732c0.02011,-0.05322 0.03351,-0.10059 0.03351,-0.10059c0,0 -0.55597,-0.00684 -1.31285,-0.00684h-1.31284l-0.06029,0.10742c-0.15407,0.2876 -0.31482,0.50928 -0.52917,0.7168c-0.48225,0.48193 -1.0784,0.73682 -1.86879,0.80371c-0.15407,0.01318 -0.51576,0.01318 -0.66313,0c-0.7368,-0.06006 -1.34634,-0.30811 -1.87549,-0.77051c-0.14737,-0.12695 -0.31482,-0.31494 -0.44879,-0.50244c-0.3483,-0.48828 -0.56264,-1.13184 -0.60954,-1.82178l-0.0067,-0.09375h4.50121c2.80655,0 4.5079,0 4.5079,-0.00684c0.01338,-0.02002 0.05357,-0.375 0.07367,-0.63623c0.0134,-0.18115 0.0134,-0.81738 0,-0.99805c-0.05359,-0.67676 -0.16745,-1.23926 -0.38179,-1.79492c-0.17415,-0.45557 -0.43539,-0.9375 -0.7301,-1.32568c-0.60284,-0.8042 -1.43343,-1.41357 -2.41805,-1.77539c-0.50908,-0.1875 -1.01144,-0.29443 -1.64777,-0.34814c-0.10046,-0.02051 -0.79041,-0.02734 -0.88416,-0.02051z" fill="#f2f2f2" fill-opacity="1"></path></g><g opacity="0.9"><title>Path 11840</title><path d="M178.38453,45.76367c0.46219,0.06689 0.86406,0.20068 1.27266,0.42822c0.14737,0.0874 0.29472,0.18115 0.38849,0.25439c0.4086,0.32129 0.73013,0.72314 0.99135,1.23926c0.22774,0.44922 0.35501,0.95801 0.41528,1.57422c0.0201,0.19385 0.0134,0.83008 -0.0067,1.01807c-0.07368,0.70361 -0.24112,1.24609 -0.53586,1.7417c-0.36839,0.62256 -0.86407,1.08496 -1.50708,1.40674c-0.61624,0.30762 -1.31287,0.42139 -2.00948,0.33496c-0.56934,-0.07422 -1.09851,-0.28174 -1.50708,-0.58984c-0.34831,-0.26074 -0.65645,-0.61621 -0.89757,-1.03809c-0.37511,-0.65625 -0.56265,-1.51367 -0.54257,-2.50488c0.0134,-0.66309 0.10719,-1.20557 0.30814,-1.71484c0.05357,-0.13379 0.20094,-0.43555 0.26791,-0.54248c0.02011,-0.03369 0.04019,-0.06738 0.04689,-0.07373c0.03349,-0.06006 0.17415,-0.25439 0.18756,-0.26855c0,0 0.0201,-0.01904 0.03349,-0.03955c0.05357,-0.06738 0.21432,-0.25439 0.26791,-0.30859c0.067,-0.06689 0.19426,-0.18115 0.27463,-0.24121c0.16747,-0.12744 0.56265,-0.34814 0.80379,-0.45557c0.3148,-0.12695 0.61623,-0.20068 1.01143,-0.24072c0.0201,0 0.16077,0 0.31482,0c0.24112,0 0.3148,0.00684 0.42198,0.02051zM177.56065,43.68701c-0.89755,0.05322 -1.72144,0.26758 -2.47163,0.64941c-0.81049,0.40918 -1.4736,0.97852 -1.99608,1.7085c-0.61623,0.86377 -0.97794,1.8623 -1.0851,2.98779c-0.04019,0.44189 -0.04019,1.00439 0,1.45313c0.18756,2.0166 1.19228,3.65088 2.82663,4.5957c0.12057,0.06641 0.38852,0.20068 0.53586,0.26758c0.65643,0.28174 1.33295,0.43555 2.09654,0.48291c0.17415,0.01367 0.62964,0.01367 0.81049,0c1.42001,-0.08057 2.67928,-0.57666 3.69742,-1.44727c0.12054,-0.10059 0.46886,-0.44922 0.56932,-0.56934c0.8038,-0.93799 1.27267,-2.05664 1.39995,-3.33545c0.04686,-0.4624 0.04686,-0.9917 0,-1.47363c-0.12059,-1.25244 -0.57608,-2.37109 -1.33966,-3.2959c-0.93774,-1.13867 -2.37117,-1.86182 -3.94524,-2.00928c-0.3215,-0.021 -0.79707,-0.02734 -1.0985,-0.01416z" fill="#f2f2f2" fill-opacity="1"></path></g><g opacity="0.9"><title>Path 11841</title><path d="M192.06227,43.68701c-0.96452,0.06055 -1.76163,0.41602 -2.41805,1.07227c-0.29472,0.29492 -0.52916,0.60938 -0.7502,1.02441l-0.06699,0.12012v0v-1.01758v0v-1.01172v0h-1.21907v0h-1.21907v0v5.8877v0v5.8877v0h1.21907v0h1.21907v0v-3.1416c0,-3.13477 0,-3.39648 0.02679,-3.69727c0.08708,-0.93164 0.3416,-1.56738 0.79039,-1.95605c0.29471,-0.25488 0.62962,-0.42187 1.04492,-0.5293c0.36169,-0.09375 0.69661,-0.12012 1.35303,-0.12012h0.30812v0v-1.25977v0v-1.25879v0h-0.12057c-0.07367,-0.00684 -0.14734,0 -0.16745,0z" fill="#f2f2f2" fill-opacity="1"></path></g><g opacity="0.9"><title>Path 11842</title><path d="M153.74854,43.88867c0,0.00635 0.83058,2.65967 1.83531,5.88721l1.82863,5.875v0h1.28604v0h1.28604v0l1.17888,-4.3335c0.64973,-2.38525 1.18558,-4.33447 1.18558,-4.33447v0c0,0 0.53586,1.94922 1.18559,4.33984l1.17888,4.34082v0h1.28606v0h1.28604v0l1.80852,-5.83447c0.99803,-3.20801 1.81522,-5.854 1.82191,-5.88818l0.0201,-0.05322v0h-1.19897v0h-1.19899v0l-1.21237,4.69629c-0.66982,2.58545 -1.21237,4.70215 -1.21906,4.70215h-0.0067v0c0,0 -0.53587,-2.11035 -1.19229,-4.68945c-0.65642,-2.57764 -1.18558,-4.68799 -1.19229,-4.69531c-0.0067,-0.01367 -0.07367,-0.01367 -1.27936,-0.01367h-1.27266v0l-1.24585,4.71582c-0.68321,2.59229 -1.24586,4.71533 -1.24586,4.72168h-0.0067v0c0,0 -0.54926,-2.12305 -1.22577,-4.70801c-0.66983,-2.58545 -1.21909,-4.7085 -1.22577,-4.71582c-0.00671,-0.01367 -0.07368,-0.01367 -1.24588,-0.01367c-1.16548,-0.01221 -1.21906,-0.01221 -1.21906,0.00098z" fill="#f2f2f2" fill-opacity="1"></path></g></g><g><title>Rectangle 2536</title></g></g></g></svg>