<?xml version="1.0" encoding="UTF-8" standalone="no"?>
<svg
   id="SVGDoc"
   width="1781"
   height="823"
   version="1.1"
   viewBox="0 0 1781 823"
   xmlns="http://www.w3.org/2000/svg"
   xmlns:svg="http://www.w3.org/2000/svg"
   xmlns:rdf="http://www.w3.org/1999/02/22-rdf-syntax-ns#"
   xmlns:cc="http://creativecommons.org/ns#"
   xmlns:dc="http://purl.org/dc/elements/1.1/">
  <metadata
     id="metadata25">
    <rdf:RDF>
      <cc:Work
         rdf:about="">
        <dc:format>image/svg+xml</dc:format>
        <dc:type
           rdf:resource="http://purl.org/dc/dcmitype/StillImage" />
      </cc:Work>
    </rdf:RDF>
  </metadata>
  <defs
     id="defs2" />
  <desc
     id="desc4">Generated with Avocode.</desc>
  <path
     d="m 129.19399,488.88227 49.65145,-382.84369 c 1.41658,-4.3498 3.25958,-7.341354 5.53491,-8.972655 2.26945,-1.630301 4.68399,-2.447452 7.23871,-2.447452 2.83413,0 5.38983,0.909168 7.66516,2.720502 2.26945,1.818336 4.11246,4.714875 5.53589,8.699605 l 50.07593,382.84369 z M 274.22804,67.972552 C 265.99135,45.134335 255.13329,28.098189 241.65286,16.858113 228.16654,5.6240386 211.34712,0.00100018 191.19361,0.00100018 c -20.72504,0 -37.75817,5.62303842 -51.09842,16.85711282 -13.34711,11.240076 -24.13264,28.276222 -32.36247,51.114439 L 4.6839889,799.07355 c -1.1381564,2.90557 -2.0626021,5.62506 -2.7674551,8.15654 C 1.2048184,809.77054 0.56564705,812.49003 0,815.38656 h 88.996769 c 0.278412,-2.17539 0.704853,-4.3498 1.277363,-6.52519 0.565647,-2.17538 1.130313,-4.35077 1.702823,-6.52623 L 124.3002,569.90623 h 135.48963 l 32.74872,232.97301 c 0.56564,1.81938 1.13128,3.7217 1.70282,5.71011 0.56664,1.99634 1.13227,4.26574 1.70381,6.79721 h 86.8675 c -0.57252,-2.89653 -1.21072,-5.61602 -1.91557,-8.15647 -0.71268,-2.53148 -1.63713,-5.25097 -2.76844,-8.15654 z"
     id="path8"
     style="fill:#0b591c;fill-opacity:1;stroke-width:0.990205" />
  <path
     d="m 702.67285,488.88227 49.65147,-382.84369 c 1.41657,-4.3498 3.25959,-7.341354 5.53491,-8.972655 2.26945,-1.630301 4.68399,-2.447452 7.23868,-2.447452 2.83411,0 5.38987,0.909168 7.66518,2.720502 2.26945,1.818336 4.11246,4.714875 5.53587,8.699605 l 50.07592,382.84369 z M 847.7069,67.972552 C 839.47018,45.134335 828.61212,28.098189 815.1317,16.858113 801.64538,5.6240386 784.82596,0.00100018 764.67248,0.00100018 c -20.72502,0 -37.75816,5.62303842 -51.09844,16.85711282 -13.3471,11.240076 -24.13264,28.276222 -32.36248,51.114439 L 578.16288,799.07355 c -1.13816,2.90557 -2.0626,5.62506 -2.76751,8.15654 -0.71168,2.54045 -1.35088,5.25994 -1.91649,8.15647 h 88.99673 c 0.27847,-2.17539 0.70491,-4.3498 1.2774,-6.52519 0.56561,-2.17538 1.13033,-4.35077 1.70282,-6.52623 l 32.32323,-232.42891 h 135.4896 l 32.74872,232.97301 c 0.56568,1.81938 1.13129,3.7217 1.70282,5.71011 0.56664,1.99634 1.13231,4.26574 1.70385,6.79721 h 86.86746 c -0.57249,-2.89653 -1.21069,-5.61602 -1.91553,-8.15647 -0.71269,-2.53148 -1.63713,-5.25097 -2.76848,-8.15654 z"
     id="path14"
     style="fill:#0b591c;stroke-width:0.990205;fill-opacity:1" />
  <path
     d="m 1241.9805,488.88227 49.6516,-382.84369 c 1.4164,-4.3498 3.2595,-7.341354 5.5349,-8.972655 2.2693,-1.630301 4.6839,-2.447452 7.2387,-2.447452 2.8341,0 5.3897,0.909168 7.6651,2.720502 2.2694,1.818336 4.1124,4.714875 5.5358,8.699605 l 50.0761,382.84369 z M 1387.0146,67.972552 C 1378.778,45.134335 1367.9198,28.098189 1354.4394,16.858113 1340.953,5.6240386 1324.1336,0.00100018 1303.9801,0.00100018 c -20.725,0 -37.7581,5.62303842 -51.0984,16.85711282 -13.3471,11.240076 -24.1326,28.276222 -32.3624,51.114439 L 1117.4706,799.07355 c -1.1382,2.90557 -2.0627,5.62506 -2.7674,8.15654 -0.7118,2.54045 -1.351,5.25994 -1.9167,8.15647 h 88.9969 c 0.2783,-2.17539 0.7049,-4.3498 1.2773,-6.52519 0.5657,-2.17538 1.1303,-4.35077 1.7028,-6.52623 l 32.3232,-232.42891 h 135.4897 l 32.7487,232.97301 c 0.5656,1.81938 1.1314,3.7217 1.7028,5.71011 0.5666,1.99634 1.1323,4.26574 1.7038,6.79721 h 86.8675 c -0.5725,-2.89653 -1.2107,-5.61602 -1.9156,-8.15647 -0.7126,-2.53148 -1.637,-5.25097 -2.7684,-8.15654 z"
     id="path20"
     style="fill:#0b591c;fill-opacity:1;stroke-width:0.990205" />
  <path
     d="m 291.65918,16.314013 c -1.13816,-2.897535 -2.0626,-5.616037 -2.76745,-8.1565066 C 288.17904,5.6240386 287.54085,2.9065367 286.97518,0 h 91.12605 c 0.85093,4.7158709 1.84301,9.0656741 2.98019,13.05041 L 467.097,714.78602 c 1.41658,3.99371 3.19392,6.89128 5.32318,8.70161 2.12926,1.8173 4.47028,2.71847 7.02597,2.71847 2.55472,0 4.82417,-0.81614 6.81326,-2.44742 1.98219,-1.63134 3.686,-4.62188 5.10943,-8.97266 L 576.53352,13.05041 C 577.95009,9.0656741 579.0873,4.7158709 579.93916,0 h 89.84871 c -0.57256,2.9065367 -1.2117,5.6240386 -1.91559,8.1575064 -0.71269,2.5404696 -1.63712,5.2589716 -2.76937,8.1565066 L 562.05513,755.57052 c -8.23667,22.83924 -19.0222,39.79037 -32.36248,50.84441 -13.34711,11.053 -30.23317,16.58503 -50.67293,16.58503 -39.74725,0 -67.5659,-22.47412 -83.4609,-67.42944 z"
     id="path26"
     style="fill:#0b591c;fill-opacity:1;stroke-width:0.990205" />
  <path
     d="M 1536.1532,348.95642 V 92.683105 c 0,-5.018926 2.1293,-7.52839 6.3878,-7.52839 h 129.8754 c 9.3679,0 16.3204,3.011556 20.8642,9.033668 4.2585,5.017927 6.3878,11.378097 6.3878,19.069517 0,6.35918 -1.8489,219.31052 -5.5359,224.65849 -2.2753,3.34861 -5.1104,6.0211 -8.5161,8.02849 -3.4056,2.00838 -7.8112,3.01155 -13.2,3.01155 z m 0,77.2843 h 134.133 c 11.3521,0 19.4417,2.34342 24.2718,7.02529 4.8241,4.68788 7.2396,12.38129 7.2396,23.08428 v 336.45514 c 0,7.69943 0.4255,15.22682 1.2764,22.58217 H 1781 c -0.5725,-4.68189 -0.9254,-9.36274 -1.0645,-14.0516 -0.1472,-4.6819 -0.2129,-10.70297 -0.2129,-18.06633 V 446.81551 c 0,-19.39958 -2.2017,-34.28932 -6.6015,-44.66325 -4.4026,-10.3669 -11.4306,-18.89848 -21.0769,-25.59371 10.2199,-8.69662 17.3135,-19.14954 21.2906,-31.36581 3.9723,-12.20926 5.9625,-232.26389 5.9625,-245.98642 0,-12.710357 -2.0626,-24.840587 -6.1762,-36.383719 -4.1172,-11.542131 -9.7258,-21.656999 -16.8194,-30.360606 -7.9503,-9.698791 -17.7438,-17.478228 -29.3802,-23.3353096 -11.6444,-5.8500803 -26.4012,-8.78262187 -44.2863,-8.78262187 h -204.3926 c -12.7746,0 -19.1624,7.02629747 -19.1624,21.07789247 V 815.38759 h 77.073 z"
     id="path32"
     style="fill:#0b591c;fill-opacity:1;stroke-width:0.990205" />
  <path
     d="m 1197.4215,0.40134411 v 0 92.57611589 0 h -117.1712 v 0 722.35336 0 h -95.12187 v 0 -722.35336 0 H 871.22458 v 0 -92.57611589 0 z"
     id="path38"
     style="fill:#0b591c;fill-opacity:1;stroke-width:0.990205" />
</svg>
