<?xml version="1.0" encoding="UTF-8" standalone="no"?>
<svg
   xmlns:dc="http://purl.org/dc/elements/1.1/"
   xmlns:cc="http://creativecommons.org/ns#"
   xmlns:rdf="http://www.w3.org/1999/02/22-rdf-syntax-ns#"
   xmlns:svg="http://www.w3.org/2000/svg"
   xmlns="http://www.w3.org/2000/svg"
   xmlns:sodipodi="http://sodipodi.sourceforge.net/DTD/sodipodi-0.dtd"
   xmlns:inkscape="http://www.inkscape.org/namespaces/inkscape"
   id="SVGDoc"
   width="1781"
   height="823"
   version="1.1"
   viewBox="0 0 1781 823"
   sodipodi:docname="MECH.svg"
   inkscape:version="0.91 r13725">
  <metadata
     id="metadata10">
    <rdf:RDF>
      <cc:Work
         rdf:about="">
        <dc:format>image/svg+xml</dc:format>
        <dc:type
           rdf:resource="http://purl.org/dc/dcmitype/StillImage" />
      </cc:Work>
    </rdf:RDF>
  </metadata>
  <sodipodi:namedview
     id="namedview15"
     pagecolor="#ffffff"
     bordercolor="#666666"
     borderopacity="1.0"
     inkscape:pageshadow="2"
     inkscape:pageopacity="0.0"
     inkscape:pagecheckerboard="0"
     showgrid="false"
     inkscape:zoom="0.62998316"
     inkscape:cx="496.04501"
     inkscape:cy="411.91578"
     inkscape:window-width="2560"
     inkscape:window-height="1369"
     inkscape:window-x="-8"
     inkscape:window-y="-8"
     inkscape:window-maximized="1"
     inkscape:current-layer="SVGDoc" />
  <defs
     id="defs2" />
  <desc
     id="desc4">Generated with Avocode.</desc>
  <g
     id="g12"
     transform="matrix(1.0005966,0,0,0.98862302,-0.33906218,-2.024592e-8)">
    <g
       clip-path="url(#clip-27f426a7-8ecb-4bd5-8cea-9d85f33739f3)"
       id="g10">
      <title
         id="title6">Path 11941</title>
      <path
         d="m 1780.2769,9.982 -0.313,815.02502 -97.033,0 0,-360.40002 -214.855,0 0,360.40002 -97.031,0 0.313,-815.02402 97.032,0 -0.313,363.987 214.854,0 0.313,-363.987 z m -428.4251,815.02502 -188.7319,0 c -32.344,0 -60.423,-5.24304 -84.236,-15.72803 -23.813,-10.48499 -44.073,-24.79102 -60.779,-42.91797 -14.622,-16.07404 -26.186,-34.68402 -34.121,-54.914 -8.17505,-20.61505 -12.26202,-42.82904 -12.26202,-66.64203 0,-26.29999 5.15399,-505.44699 15.461,-528.19199 10.06299,-22.41 24.57202,-42.544 42.64792,-59.18 15.9941,-14.928 34.921,-26.568 56.7801,-34.921 21.859,-8.353 47.361,-12.529 76.5059,-12.529 l 188.735,0 0,95.432 -188.7319,0 c -16.35,0 -29.856,2.133 -40.519,6.4 -10.191,3.974 -19.5831,9.754 -27.7231,17.061 -8.2249,7.89 -14.8349,17.306 -19.4599,27.72299 -4.7999,10.66299 -7.2,476.65698 -7.2,488.742 -0.064,10.67603 1.927,21.26501 5.865,31.18903 3.798,9.59998 9.409,18.37897 16.527,25.85699 8.196,8.79095 18.199,15.70197 29.321,20.25696 11.733,4.97601 26.13,7.46399 43.189,7.46399 l 188.7319,0 z M 968.72186,9.983 l 0,95.432 -274.034,0 c -5.68701,0 -8.53003,3.021 -8.53003,9.063 l -9.06299,266.02301 280.96399,0 0,69.30798 -280.96497,0 -1.59998,273.36703 c 0,6.39996 2.84296,9.59998 8.52997,9.59998 l 274.03497,0 0,92.23102 -328.41498,0 c -33.76501,0 -50.64801,-16.70502 -50.64801,-50.11499 L 589.65885,58.499 c 0,-32.344 17.06097,-48.516 51.18201,-48.516 z M 278.63885,832.47101 c -51.86899,0 -63.37898,-22.74701 -66.95699,-33.05499 -3.57899,-10.30804 -110.023,-683.19202 -110.023,-683.19202 -0.556,-2.921 -0.916,-4.614 -4.918,-4.614 -4.001,0 -3.636,6.75 -3.636,9.949 l 0,703.44802 0,0 -92.766,0 0,0 0,-720.51102 c 0,-20.259 2.933,-36.964 8.8,-50.115 C 14.64886,41.694 35.93686,0 96.84186,0 c 68.428,0 84.906,46.467 91.167,67.176 6.261,20.71 88.75099,633.87899 88.75099,633.87899 0.36902,4.62103 -0.254,6.93103 1.883,6.93103 2.13702,0 1.51401,-2.31 1.88303,-6.93103 0,0 83.19498,-609.65599 89.966,-634.27999 C 377.26288,42.151 387.95086,0 460.44388,0 c 64.49301,0 85.983,46.421 91.49301,59.108 5.86597,13.151 5.00897,25.129 5.00897,45.388 l 0,720.51102 0,0 -92.76599,0 0,0 0,-703.45102 c 0,-3.199 0.327,-8.777 -3.89499,-9.444 -4.22202,-0.667 -4.94803,1.486 -6.01501,4.329 0,0 -104.66699,671.99998 -109.83301,682.99998 -5.16699,11 -13.92899,33.03003 -65.798,33.03003"
         id="path8"
         inkscape:connector-curvature="0"
         style="fill:#16b338;fill-opacity:1" />
    </g>
  </g>
</svg>
