<?xml version="1.0" encoding="UTF-8"?>
<svg id="SVGDoc" width="951" height="822" xmlns="http://www.w3.org/2000/svg" version="1.1" xmlns:xlink="http://www.w3.org/1999/xlink" xmlns:avocode="https://avocode.com/" viewBox="0 0 951 822"><defs></defs><desc>Generated with Avocode.</desc><g><g><title>Path 11940</title><path d="M669.77099,2.74331v92.559h90.10199v722.22002h97.03101v-722.22002h93.435v-92.559zM443.06501,2.7433c-31.544,0 -47.315,16.03 -47.315,48.091v766.68803h92.927v-373.22003h162.65698v-68.94998h-162.65598v-267.77501c0,-7.756 3.62,-11.634 10.85898,-11.634h152.96002v-93.2zM374.80398,2.7433h-93.09299v581.88999c0,4.65399 0.78,12.04498 -3.29599,12.44403c-4.07602,0.39997 -5.02701,-9.86401 -5.02701,-9.86401c0,0 -113.613,-524.572 -119.341,-542.798c-5.728,-18.227 -16.91699,-43.47 -68.959,-43.47c-77.708,0 -85.088,50.157 -85.088,61.277v755.30003h93.233v-576.02103c-0.12,-1.99699 0.258,-9.414 3.369,-9.74699c3.112,-0.334 5,9.222 5,9.222c0,0 120.55601,532.776 125.11201,547.49298c4.55499,14.71704 23,33.5 71.33299,33.5c48.332,0 76.76401,-30.77801 76.76401,-55.25299z" fill="#f2f2f2" fill-opacity="1"></path></g></g></svg>