<?xml version="1.0" encoding="UTF-8" standalone="no"?>
<svg
   id="SVGDoc"
   width="96"
   height="97"
   version="1.1"
   viewBox="0 0 96 97"
   sodipodi:docname="3dTDS.svg"
   inkscape:version="1.1 (c68e22c387, 2021-05-23)"
   xmlns:inkscape="http://www.inkscape.org/namespaces/inkscape"
   xmlns:sodipodi="http://sodipodi.sourceforge.net/DTD/sodipodi-0.dtd"
   xmlns="http://www.w3.org/2000/svg"
   xmlns:svg="http://www.w3.org/2000/svg">
  <sodipodi:namedview
     id="namedview82"
     pagecolor="#ffffff"
     bordercolor="#666666"
     borderopacity="1.0"
     inkscape:pageshadow="2"
     inkscape:pageopacity="0.0"
     inkscape:pagecheckerboard="0"
     showgrid="false"
     inkscape:zoom="9"
     inkscape:cx="48"
     inkscape:cy="48.5"
     inkscape:window-width="2560"
     inkscape:window-height="1369"
     inkscape:window-x="-8"
     inkscape:window-y="-8"
     inkscape:window-maximized="1"
     inkscape:current-layer="SVGDoc" />
  <defs
     id="defs5">
    <clipPath
       id="clip-f5210ce6-01bf-4c26-a077-2fc529fc1bfb">
      <path
         d="M0,96.94531v0v-96v0h96v0v96v0z"
         id="path2" />
    </clipPath>
  </defs>
  <desc
     id="desc7">Generated with Avocode.</desc>
  <g
     clip-path="url(#clip-f5210ce6-01bf-4c26-a077-2fc529fc1bfb)"
     id="g21">
    <title
       id="title17">Path 12080</title>
    <path
       d="m 48,24.94531 c -13.25472,0 -24,10.74528 -24,24 0,13.25471 10.74528,24 24,24 13.25471,0 24,-10.74529 24,-24 0,-13.25472 -10.74529,-24 -24,-24 m 0,1.92 c 12.1752,0 22.08,9.90528 22.08,22.08 0,12.1752 -9.9048,22.08 -22.08,22.08 -12.1752,0 -22.08,-9.9048 -22.08,-22.08 0,-12.17472 9.9048,-22.08 22.08,-22.08"
       fill="#c83a1a"
       fill-opacity="1"
       id="path19" />
  </g>
  <g
     clip-path="url(#clip-f5210ce6-01bf-4c26-a077-2fc529fc1bfb)"
     id="g27">
    <title
       id="title23">Rectangle 2506</title>
    <path
       d="m 14.10048,49.90531 v 0 -1.92 0 h 22.14 v 0 1.92 0 z"
       fill="#c83a1a"
       fill-opacity="1"
       id="path25" />
  </g>
  <g
     clip-path="url(#clip-f5210ce6-01bf-4c26-a077-2fc529fc1bfb)"
     id="g33">
    <title
       id="title29">Rectangle 2507</title>
    <path
       d="m 47.03376,82.83859 v 0 -22.18512 0 h 1.92 v 0 22.18512 0 z"
       fill="#c83a1a"
       fill-opacity="1"
       id="path31" />
  </g>
  <g
     clip-path="url(#clip-f5210ce6-01bf-4c26-a077-2fc529fc1bfb)"
     id="g39">
    <title
       id="title35">Rectangle 2508</title>
    <path
       d="m 47.04,37.1858 v 0 -22.14 0 h 1.92 v 0 22.14 0 z"
       fill="#c83a1a"
       fill-opacity="1"
       id="path37" />
  </g>
  <g
     clip-path="url(#clip-f5210ce6-01bf-4c26-a077-2fc529fc1bfb)"
     id="g45">
    <title
       id="title41">Rectangle 2509</title>
    <path
       d="m 59.70816,49.89859 v 0 -1.92 0 h 22.18512 v 0 1.92 0 z"
       fill="#c83a1a"
       fill-opacity="1"
       id="path43" />
  </g>
  <g
     clip-path="url(#clip-f5210ce6-01bf-4c26-a077-2fc529fc1bfb)"
     id="g51">
    <title
       id="title47">Path 12081</title>
    <path
       d="m 47.976,45.15859 c -2.07792,0 -3.76272,1.6848 -3.76272,3.76272 0,2.07792 1.6848,3.76273 3.76272,3.76273 2.07792,0 3.76273,-1.68481 3.76273,-3.76273 0,-2.07792 -1.68481,-3.76272 -3.76273,-3.76272 m 0,1.92 c 1.01616,0 1.84272,0.82656 1.84272,1.84272 0,1.01616 -0.82656,1.84272 -1.84272,1.84272 -1.01616,0 -1.84272,-0.82656 -1.84272,-1.84272 0,-1.01616 0.82656,-1.84272 1.84272,-1.84272"
       fill="#c83a1a"
       fill-opacity="1"
       id="path49" />
  </g>
  <g
     clip-path="url(#clip-f5210ce6-01bf-4c26-a077-2fc529fc1bfb)"
     id="g57">
    <title
       id="title53">Path 12082</title>
    <path
       d="m 24.00005,15.09024 v 0 l -9.9,9.85488 v 0 15.35904 0 h 1.92 v 0 -14.56127 0 L 24.793,17.01024 v 0 h 14.56608 v 0 -1.92 0 z"
       fill="#c83a1a"
       fill-opacity="1"
       id="path55" />
  </g>
  <g
     clip-path="url(#clip-f5210ce6-01bf-4c26-a077-2fc529fc1bfb)"
     id="g63">
    <title
       id="title59">Path 12083</title>
    <path
       d="m 71.97763,15.09024 v 0 l 9.90001,9.85488 v 0 15.35904 0 h -1.92001 v 0 -14.56127 0 l -8.77295,-8.73265 v 0 H 56.61859 v 0 -1.92 0 z"
       fill="#c83a1a"
       fill-opacity="1"
       id="path61" />
  </g>
  <g
     clip-path="url(#clip-f5210ce6-01bf-4c26-a077-2fc529fc1bfb)"
     id="g69">
    <title
       id="title65">Path 12084</title>
    <path
       d="m 24.00005,82.8003 v 0 l -9.9,-9.85489 v 0 -15.35904 0 h 1.92 v 0 14.56128 0 l 8.77295,8.73264 v 0 h 14.56608 v 0 1.92001 0 z"
       fill="#c83a1a"
       fill-opacity="1"
       id="path67" />
  </g>
  <g
     clip-path="url(#clip-f5210ce6-01bf-4c26-a077-2fc529fc1bfb)"
     id="g75">
    <title
       id="title71">Path 12085</title>
    <path
       d="m 71.97763,82.8003 v 0 l 9.90001,-9.85489 v 0 -15.35904 0 h -1.92001 v 0 14.56128 0 l -8.77295,8.73264 v 0 H 56.61859 v 0 1.92001 0 z"
       fill="#c83a1a"
       fill-opacity="1"
       id="path73" />
  </g>
</svg>
