<?xml version="1.0" encoding="UTF-8" standalone="no"?>
<svg
   id="SVGDoc"
   width="24"
   height="24"
   version="1.1"
   viewBox="0 0 24 24"
   sodipodi:docname="Discord.svg"
   inkscape:version="1.1 (c68e22c387, 2021-05-23)"
   xmlns:inkscape="http://www.inkscape.org/namespaces/inkscape"
   xmlns:sodipodi="http://sodipodi.sourceforge.net/DTD/sodipodi-0.dtd"
   xmlns="http://www.w3.org/2000/svg"
   xmlns:svg="http://www.w3.org/2000/svg">
  <sodipodi:namedview
     id="namedview67"
     pagecolor="#ffffff"
     bordercolor="#666666"
     borderopacity="1.0"
     inkscape:pageshadow="2"
     inkscape:pageopacity="0.0"
     inkscape:pagecheckerboard="0"
     showgrid="false"
     width="94px"
     inkscape:zoom="5.9052632"
     inkscape:cx="-54.527629"
     inkscape:cy="32.259358"
     inkscape:window-width="2560"
     inkscape:window-height="1369"
     inkscape:window-x="-8"
     inkscape:window-y="-8"
     inkscape:window-maximized="1"
     inkscape:current-layer="SVGDoc" />
  <defs
     id="defs2" />
  <desc
     id="desc4">Generated with Avocode.</desc>
  <path
     id="path149"
     style="color:#000000;fill:#f2f2f2;stroke-linecap:round;stroke-linejoin:round;stroke-miterlimit:20;-inkscape-stroke:none"
     d="M 8.9179688,3.2539062 C 7.4050184,3.4202788 5.8398713,3.7833265 4.3203125,4.8945312 A 0.750075,0.750075 0 0 0 4.0527344,5.2617188 c -0.9676626,2.8801177 -1.496003,5.3867942 -1.7011719,7.4121092 -0.2051689,2.025316 -0.1156923,3.546571 0.2832031,4.59375 a 0.750075,0.750075 0 0 0 0.023437,0.05469 C 3.0069219,18.0543 3.5142586,18.862422 4.1699214,19.527346 4.8255847,20.192267 5.6618322,20.75 6.6679688,20.75 c 0.3221047,0 0.4916621,-0.117982 0.6386718,-0.21875 0.1470098,-0.100768 0.2693349,-0.214843 0.390625,-0.341797 0.2425803,-0.253908 0.4767334,-0.566231 0.6972656,-0.912109 0.3050315,-0.478406 0.592866,-0.984059 0.7441407,-1.527344 1.9323141,0.320397 3.7941541,0.320818 5.7265621,0 0.166522,0.561868 0.49293,1.070258 0.832032,1.554688 0.241842,0.345489 0.49961,0.657683 0.759765,0.908203 0.130078,0.125259 0.258722,0.235512 0.410157,0.332031 C 17.018622,20.64144 17.1875,20.75 17.5,20.75 c 1.027832,0 1.897548,-0.548078 2.583984,-1.210938 0.686437,-0.662859 1.218954,-1.469708 1.585938,-2.203124 a 0.750075,0.750075 0 0 0 0.02734,-0.05664 C 22.118831,16.225689 22.211949,14.698509 21.99609,12.669923 21.780238,10.641336 21.224045,8.1317086 20.207031,5.25 A 0.750075,0.750075 0 0 0 19.927734,4.8847656 C 18.328569,3.7707283 16.632648,3.4195137 15.080078,3.2539062 A 0.750075,0.750075 0 0 0 14.302734,3.7207031 L 13.357422,6.0859375 C 12.898846,6.0376089 12.449193,6.0136719 12,6.0136719 c -0.449193,0 -0.898846,0.023937 -1.357422,0.072266 L 9.6972656,3.7207031 A 0.750075,0.750075 0 0 0 8.9179688,3.2539062 Z M 15.46875,4.8496094 c 1.170494,0.1632253 2.30557,0.4661808 3.386719,1.1621094 0.914445,2.6552612 1.454968,5.0001912 1.648437,6.8183592 0.199879,1.878409 0.04407,3.253014 -0.199218,3.871094 -0.300485,0.59098 -0.752467,1.266119 -1.263672,1.759766 -0.492587,0.475667 -1.001699,0.714124 -1.455078,0.74414 -0.03092,-0.02524 -0.04915,-0.03503 -0.08984,-0.07422 -0.16172,-0.15573 -0.372702,-0.406036 -0.56836,-0.685547 -0.229518,-0.327881 -0.414437,-0.711916 -0.535156,-1.009765 0.268911,-0.06626 0.539174,-0.136751 0.8125,-0.214844 a 0.75,0.75 0 0 0 0.515625,-0.925781 0.75,0.75 0 0 0 -0.925781,-0.515625 c -3.391145,0.968898 -6.198699,0.968898 -9.5898439,0 a 0.75,0.75 0 0 0 -0.9257812,0.515625 0.75,0.75 0 0 0 0.515625,0.925781 c 0.279279,0.07979 0.5554005,0.151306 0.8300781,0.21875 -0.1099574,0.305405 -0.2804706,0.698087 -0.4941406,1.033203 -0.1779674,0.279121 -0.3720338,0.5293 -0.5175782,0.681641 -0.021338,0.02233 -0.026219,0.02334 -0.044922,0.04102 C 6.1638655,19.159816 5.6985643,18.93944 5.2382812,18.472656 4.7524441,17.979957 4.3198949,17.304168 4.0332031,16.710938 3.7993706,16.08603 3.6532251,14.70693 3.84375,12.826172 4.0283048,11.004347 4.5425273,8.6558162 5.4140625,5.9980469 6.4251882,5.3120375 7.4417187,5.0148457 8.5332031,4.8535156 L 9.1210938,6.3261719 C 8.5445409,6.4440705 7.9417318,6.5944941 7.2949219,6.7792969 a 0.75,0.75 0 0 0 -0.515625,0.9257812 0.75,0.75 0 0 0 0.9257812,0.515625 c 3.4274289,-0.9792653 5.1624149,-0.9792653 8.5898439,0 A 0.75,0.75 0 0 0 17.220703,7.7050781 0.75,0.75 0 0 0 16.705078,6.7792969 C 16.058268,6.5944941 15.455459,6.4440705 14.878906,6.3261719 Z M 9,10.25 c -0.9576169,0 -1.75,0.792383 -1.75,1.75 0,0.957617 0.7923831,1.75 1.75,1.75 0.9576169,0 1.75,-0.792383 1.75,-1.75 0,-0.957617 -0.7923831,-1.75 -1.75,-1.75 z m 6,0 c -0.957617,0 -1.75,0.792383 -1.75,1.75 0,0.957617 0.792383,1.75 1.75,1.75 0.957617,0 1.75,-0.792383 1.75,-1.75 0,-0.957617 -0.792383,-1.75 -1.75,-1.75 z m -6,1.5 c 0.146942,0 0.25,0.103058 0.25,0.25 0,0.146942 -0.103058,0.25 -0.25,0.25 -0.146942,0 -0.25,-0.103058 -0.25,-0.25 0,-0.146942 0.103058,-0.25 0.25,-0.25 z m 6,0 c 0.146942,0 0.25,0.103058 0.25,0.25 0,0.146942 -0.103058,0.25 -0.25,0.25 -0.146942,0 -0.25,-0.103058 -0.25,-0.25 0,-0.146942 0.103058,-0.25 0.25,-0.25 z" />
</svg>
