<?xml version="1.0" encoding="UTF-8" standalone="no"?>
<!-- Created with Inkscape (http://www.inkscape.org/) -->

<svg
   width="12.7mm"
   height="12.7mm"
   viewBox="0 0 12.7 12.7"
   version="1.1"
   id="svg5"
   inkscape:version="1.1 (c68e22c387, 2021-05-23)"
   sodipodi:docname="Gift.svg"
   xmlns:inkscape="http://www.inkscape.org/namespaces/inkscape"
   xmlns:sodipodi="http://sodipodi.sourceforge.net/DTD/sodipodi-0.dtd"
   xmlns="http://www.w3.org/2000/svg"
   xmlns:svg="http://www.w3.org/2000/svg">
  <sodipodi:namedview
     id="namedview7"
     pagecolor="#ffffff"
     bordercolor="#666666"
     borderopacity="1.0"
     inkscape:pageshadow="2"
     inkscape:pageopacity="0.0"
     inkscape:pagecheckerboard="0"
     inkscape:document-units="mm"
     showgrid="false"
     fit-margin-top="0"
     fit-margin-left="0"
     fit-margin-right="0"
     fit-margin-bottom="0"
     inkscape:zoom="17.597674"
     inkscape:cx="12.728955"
     inkscape:cy="15.428176"
     inkscape:window-width="2560"
     inkscape:window-height="1369"
     inkscape:window-x="-8"
     inkscape:window-y="-8"
     inkscape:window-maximized="1"
     inkscape:current-layer="layer1" />
  <defs
     id="defs2" />
  <g
     inkscape:label="Warstwa 1"
     inkscape:groupmode="layer"
     id="layer1"
     transform="translate(-329.0933,-241.3201)">
    <path
       id="Rectangle_2732"
       style="color:#000000;fill:#16b338;stroke-width:3.77953;stroke-linecap:round;stroke-linejoin:round;-inkscape-stroke:none"
       d="m 17.230469,9.7441406 c -1.432781,0.00378 -2.604945,0.5772284 -3.365235,1.4335934 -0.761688,0.857991 -1.123046,1.966502 -1.123046,3.070313 0,1.072687 0.342184,2.156167 1.060546,3.003906 h -1.804687 c -0.956523,0 -1.75,0.793477 -1.75,1.75 v 4 c 0,0.956523 0.793477,1.75 1.75,1.75 h 0.738281 v 9.765625 c 0,2.062186 1.687814,3.75 3.75,3.75 H 31.5 c 2.062186,0 3.75,-1.687814 3.75,-3.75 v -9.765625 h 0.753906 c 0.956523,0 1.748047,-0.793477 1.748047,-1.75 v -4 c 0,-0.956523 -0.791524,-1.75 -1.748047,-1.75 h -1.882812 c 0.719541,-0.84721 1.070312,-1.93221 1.070312,-3.003906 0,-1.093833 -0.365262,-2.194239 -1.115234,-3.048828 -0.75001,-0.854551 -1.897357,-1.4320611 -3.314453,-1.4550784 -1.736542,-0.030236 -3.35701,0.8393324 -4.642578,2.2675784 -0.956183,1.062236 -1.543369,2.707891 -2.125,4.326172 -0.581556,-1.618545 -1.170846,-3.26386 -2.126953,-4.326172 C 20.58332,10.585212 18.965007,9.7159076 17.230469,9.7441406 Z M 17.238281,11.25 a 0.75007499,0.75007499 0 0 0 0.01563,0 c 1.226948,-0.02268 2.424812,0.573184 3.498047,1.765625 0.916721,1.01854 1.710491,2.469546 2.253906,4.236328 h -5.767578 c -1.061631,-0.0017 -1.764621,-0.372898 -2.251953,-0.921875 -0.487294,-0.548901 -0.74414,-1.311348 -0.74414,-2.082031 0,-0.770684 0.256732,-1.525318 0.74414,-2.074219 C 15.47366,11.62489 16.17665,11.251701 17.238281,11.25 Z m 13.378907,0 c 0.03827,-5.4e-4 0.07691,-6.59e-4 0.115234,0 1.044208,0.01512 1.742051,0.389884 2.222656,0.9375 0.480605,0.547616 0.738281,1.298178 0.738281,2.060547 0,0.762406 -0.257865,1.51879 -0.738281,2.066406 -0.480605,0.547616 -1.178448,0.920492 -2.222656,0.9375 h -5.751953 c 0.543365,-1.76671 1.336992,-3.217685 2.253906,-4.236328 1.039843,-1.15525 2.196428,-1.748897 3.382813,-1.765625 z m -18.619141,7.5 h 5.240234 6.009766 v 4.496094 h -11.25 c -0.151559,0 -0.244141,-0.09296 -0.244141,-0.244141 v -4 c 0,-0.151559 0.09258,-0.251953 0.244141,-0.251953 z m 12.755859,0 h 6.007813 5.242187 c 0.151559,0 0.242188,0.100394 0.242188,0.251953 v 4 c 0,0.151559 -0.09101,0.244141 -0.242188,0.244141 h -11.25 z m -10.519531,6.001953 h 9.013672 v 12.009766 h -6.761719 c -1.251515,3.8e-5 -2.251953,-0.992588 -2.251953,-2.244141 z m 10.519531,0 h 8.998047 v 9.765625 c 0,1.251553 -1.0004,2.244179 -2.251953,2.244141 h -6.746094 z"
       transform="matrix(0.26458333,0,0,0.26458333,329.0933,241.3201)" />
  </g>
</svg>
