<?xml version="1.0" encoding="UTF-8" standalone="no"?>
<svg
   id="SVGDoc"
   width="96"
   height="97"
   version="1.1"
   viewBox="0 0 96 97"
   sodipodi:docname="Safety.svg"
   inkscape:version="1.1 (c68e22c387, 2021-05-23)"
   xmlns:inkscape="http://www.inkscape.org/namespaces/inkscape"
   xmlns:sodipodi="http://sodipodi.sourceforge.net/DTD/sodipodi-0.dtd"
   xmlns="http://www.w3.org/2000/svg"
   xmlns:svg="http://www.w3.org/2000/svg">
  <sodipodi:namedview
     id="namedview154"
     pagecolor="#ffffff"
     bordercolor="#666666"
     borderopacity="1.0"
     inkscape:pageshadow="2"
     inkscape:pageopacity="0.0"
     inkscape:pagecheckerboard="0"
     showgrid="false"
     inkscape:zoom="9"
     inkscape:cx="48"
     inkscape:cy="48.5"
     inkscape:window-width="2560"
     inkscape:window-height="1369"
     inkscape:window-x="-8"
     inkscape:window-y="-8"
     inkscape:window-maximized="1"
     inkscape:current-layer="SVGDoc" />
  <defs
     id="defs5">
    <clipPath
       id="clip-f92aa51f-a854-49ca-bcf3-a3c6f33a6eac">
      <path
         d="M0,96.94531v0v-96v0h96v0v96v0z"
         id="path2" />
    </clipPath>
  </defs>
  <desc
     id="desc7">Generated with Avocode.</desc>
  <g
     clip-path="url(#clip-f92aa51f-a854-49ca-bcf3-a3c6f33a6eac)"
     id="g21">
    <title
       id="title17">Path 12035</title>
    <path
       d="m 25.95216,60.10531 v 0 -21.61104 c -0.2544,0.09264 -0.54,0.14688 -0.86112,0.14688 -0.40704,0 -0.75888,-0.08448 -1.05888,-0.22896 v 21.90096 c 0.58464,-0.30192 1.29024,-0.37199 1.92,-0.20784"
       fill="#c83a1a"
       fill-opacity="1"
       id="path19" />
  </g>
  <g
     clip-path="url(#clip-f92aa51f-a854-49ca-bcf3-a3c6f33a6eac)"
     id="g27">
    <title
       id="title23">Path 12036</title>
    <path
       d="m 61.06992,73.03075 c -0.28896,-0.58368 -0.34464,-1.28879 -0.16608,-1.92 H 34.90896 c 0.19728,0.62209 0.16368,1.32768 -0.10368,1.92 z"
       fill="#c83a1a"
       fill-opacity="1"
       id="path25" />
  </g>
  <g
     clip-path="url(#clip-f92aa51f-a854-49ca-bcf3-a3c6f33a6eac)"
     id="g33">
    <title
       id="title29">Path 12037</title>
    <path
       d="m 61.16159,26.95075 c -0.19151,-0.61872 -0.15216,-1.32384 0.11952,-1.92 H 35.01216 c 0,0.0082 9.5e-4,0.01536 9.5e-4,0.02352 -0.01104,0.63168 -0.04368,1.26384 -0.0816,1.89648 z"
       fill="#c83a1a"
       fill-opacity="1"
       id="path31" />
  </g>
  <g
     clip-path="url(#clip-f92aa51f-a854-49ca-bcf3-a3c6f33a6eac)"
     id="g39">
    <title
       id="title35">Path 12038</title>
    <path
       d="m 70.11264,37.86643 v 0 21.8976 c 0.63696,-0.13968 1.34305,-0.04512 1.92,0.28368 V 37.96147 c -0.62065,0.19968 -1.32625,0.16896 -1.92,-0.09504"
       fill="#c83a1a"
       fill-opacity="1"
       id="path37" />
  </g>
  <g
     clip-path="url(#clip-f92aa51f-a854-49ca-bcf3-a3c6f33a6eac)"
     id="g45">
    <title
       id="title41">Path 12039</title>
    <path
       d="m 24.90192,17.25379 v 0 l 7.05312,4.29552 v 0 l -7.05312,4.29504 v 0 l -7.07088,-4.29504 v 0 l 7.07088,-4.29552 v 0 m 4.8e-4,-2.12256 c -0.13152,0 -0.26256,0.03552 -0.3792,0.10608 l -9.3624,5.68704 c -0.46848,0.28464 -0.46848,0.9648 0,1.24944 l 9.3624,5.68704 c 0.11664,0.07056 0.24768,0.10608 0.3792,0.10608 0.13152,0 0.26352,-0.03552 0.38016,-0.10656 l 9.33936,-5.68704 c 0.46752,-0.28464 0.46752,-0.96336 0,-1.24848 L 25.28256,15.23779 C 25.16592,15.16675 25.03392,15.13123 24.9024,15.13123 m 0.61776,1.7472 h 0.0024"
       fill="#c83a1a"
       fill-opacity="1"
       id="path43" />
  </g>
  <g
     clip-path="url(#clip-f92aa51f-a854-49ca-bcf3-a3c6f33a6eac)"
     id="g51">
    <title
       id="title47">Path 12040</title>
    <path
       d="m 24.9912,17.25283 v 0 l 8.9136,5.42784 v 0 9.86688 0 l -9.00432,5.13024 v 0 l -8.84736,-5.12112 v 0 -9.87456 0 l 8.93808,-5.42928 v 0 m 4.8e-4,-2.10192 c -0.1536,0 -0.30672,0.04128 -0.44304,0.12384 l -10.0056,6.07824 c -0.2544,0.15456 -0.40992,0.43104 -0.40992,0.72912 v 11.08992 c 0,0.30432 0.16224,0.5856 0.42528,0.73776 l 9.91056,5.73696 c 0.132,0.07632 0.27984,0.11472 0.4272,0.11472 0.14592,0 0.29136,-0.03744 0.4224,-0.11184 l 10.0752,-5.7408 c 0.2664,-0.15168 0.43104,-0.4344 0.43104,-0.74112 V 22.08115 c 0,-0.2976 -0.15504,-0.5736 -0.40944,-0.72816 L 25.4352,15.27523 c -0.13632,-0.08304 -0.28992,-0.12432 -0.44352,-0.12432 m 0.55392,1.76496 h 0.0024"
       fill="#c83a1a"
       fill-opacity="1"
       id="path49" />
  </g>
  <g
     clip-path="url(#clip-f92aa51f-a854-49ca-bcf3-a3c6f33a6eac)"
     id="g57">
    <title
       id="title53">Path 12041</title>
    <path
       d="m 24.97872,32.40547 c -0.52992,0 -0.96,-0.43008 -0.96,-0.96 v -4.52448 c 0,-0.52992 0.43008,-0.96 0.96,-0.96 0.52992,0 0.96,0.43008 0.96,0.96 v 4.52448 c 0,0.52992 -0.43008,0.96 -0.96,0.96"
       fill="#c83a1a"
       fill-opacity="1"
       id="path55" />
  </g>
  <g
     clip-path="url(#clip-f92aa51f-a854-49ca-bcf3-a3c6f33a6eac)"
     id="g63">
    <title
       id="title59">Path 12042</title>
    <path
       d="m 24.90144,60.41347 v 0 l 7.0536,4.29552 v 0 l -7.0536,4.29504 v 0 l -7.0704,-4.29504 v 0 l 7.0704,-4.29552 v 0 m 9.6e-4,-2.12256 c -0.13152,0 -0.26304,0.03552 -0.3792,0.10608 l -9.3624,5.68752 c -0.46848,0.28416 -0.46848,0.96432 0,1.24896 l 9.3624,5.68704 c 0.11617,0.07056 0.24768,0.10608 0.3792,0.10608 0.13152,0 0.26352,-0.03552 0.38016,-0.10657 l 9.33936,-5.68703 c 0.46752,-0.28464 0.46752,-0.96336 0,-1.24849 L 25.28256,58.39747 C 25.16592,58.32643 25.03392,58.29091 24.9024,58.29091 m 0.61728,1.7472 h 0.0024"
       fill="#c83a1a"
       fill-opacity="1"
       id="path61" />
  </g>
  <g
     clip-path="url(#clip-f92aa51f-a854-49ca-bcf3-a3c6f33a6eac)"
     id="g69">
    <title
       id="title65">Path 12043</title>
    <path
       d="m 24.9912,60.41251 v 0 l 8.9136,5.42784 v 0 9.86736 0 l -9.00432,5.12976 v 0 l -8.84736,-5.12112 v 0 -9.87455 0 l 8.93808,-5.42928 v 0 m 4.8e-4,-2.10193 c -0.1536,0 -0.30672,0.04128 -0.44304,0.12384 l -10.0056,6.07825 c -0.2544,0.15455 -0.40992,0.43103 -0.40992,0.72911 v 11.08992 c 0,0.30432 0.16224,0.58559 0.42528,0.73775 l 9.91056,5.73697 c 0.132,0.07632 0.27984,0.11472 0.4272,0.11472 0.14592,0 0.29136,-0.03743 0.4224,-0.11183 l 10.0752,-5.7408 c 0.2664,-0.15167 0.43104,-0.4344 0.43104,-0.74112 V 65.24084 c 0,-0.29761 -0.15504,-0.57361 -0.40944,-0.72816 L 25.4352,58.43491 C 25.29888,58.35187 25.14528,58.3106 24.99168,58.3106 m 0.55392,1.76495 h 0.0024"
       fill="#c83a1a"
       fill-opacity="1"
       id="path67" />
  </g>
  <g
     clip-path="url(#clip-f92aa51f-a854-49ca-bcf3-a3c6f33a6eac)"
     id="g75">
    <title
       id="title71">Path 12044</title>
    <path
       d="m 24.97872,75.56516 c -0.52992,0 -0.96,-0.43008 -0.96,-0.95999 v -4.52448 c 0,-0.52994 0.43008,-0.96002 0.96,-0.96002 0.52992,0 0.96,0.43008 0.96,0.96002 v 4.52448 c 0,0.52991 -0.43008,0.95999 -0.96,0.95999"
       fill="#c83a1a"
       fill-opacity="1"
       id="path73" />
  </g>
  <g
     clip-path="url(#clip-f92aa51f-a854-49ca-bcf3-a3c6f33a6eac)"
     id="g81">
    <title
       id="title77">Path 12045</title>
    <path
       d="m 70.992,60.42308 v 0 l 7.0536,4.29551 v 0 l -7.0536,4.29505 v 0 l -7.0704,-4.29505 v 0 l 7.0704,-4.29551 v 0 m 9.7e-4,-2.12257 c -0.13152,0 -0.26303,0.03552 -0.37968,0.10608 l -9.36192,5.68752 c -0.46848,0.28416 -0.46848,0.96432 0,1.24896 l 9.36192,5.68703 c 0.11665,0.07057 0.24817,0.10609 0.37968,0.10609 0.13152,0 0.26352,-0.03552 0.38016,-0.10657 l 9.33936,-5.68704 c 0.46753,-0.28464 0.46753,-0.96335 0,-1.24847 l -9.33936,-5.68704 c -0.11664,-0.07104 -0.24864,-0.10656 -0.38016,-0.10656 m 0.61679,1.7472 h 0.0029"
       fill="#c83a1a"
       fill-opacity="1"
       id="path79" />
  </g>
  <g
     clip-path="url(#clip-f92aa51f-a854-49ca-bcf3-a3c6f33a6eac)"
     id="g87">
    <title
       id="title83">Path 12046</title>
    <path
       d="m 71.08177,60.42211 v 0 l 8.91357,5.42784 v 0 9.86688 0 l -9.0043,5.13025 v 0 l -8.84737,-5.12112 v 0 -9.87457 0 l 8.9381,-5.42928 v 0 m 4.6e-4,-2.10192 c -0.15359,0 -0.3067,0.04128 -0.44302,0.12384 L 60.6336,64.52227 c -0.2544,0.15456 -0.40992,0.43105 -0.40992,0.72912 v 11.08993 c 0,0.30432 0.16224,0.5856 0.42528,0.73776 l 9.91057,5.73694 c 0.13248,0.07634 0.27983,0.11473 0.4272,0.11473 0.14592,0 0.29135,-0.03743 0.42239,-0.11183 l 10.07521,-5.74081 c 0.26639,-0.15167 0.43103,-0.43439 0.43103,-0.74112 V 65.25043 c 0,-0.2976 -0.15504,-0.5736 -0.40944,-0.72816 l -9.98016,-6.07776 c -0.13632,-0.08304 -0.28992,-0.12432 -0.44353,-0.12432 m 0.55392,1.76496 h 0.0024"
       fill="#c83a1a"
       fill-opacity="1"
       id="path85" />
  </g>
  <g
     clip-path="url(#clip-f92aa51f-a854-49ca-bcf3-a3c6f33a6eac)"
     id="g93">
    <title
       id="title89">Path 12047</title>
    <path
       d="m 71.06927,75.57524 c -0.52991,0 -0.95999,-0.43008 -0.95999,-0.95999 v -4.52448 c 0,-0.52992 0.43008,-0.96002 0.95999,-0.96002 0.52992,0 0.96001,0.4301 0.96001,0.96002 v 4.52448 c 0,0.52991 -0.43008,0.95999 -0.96001,0.95999"
       fill="#c83a1a"
       fill-opacity="1"
       id="path91" />
  </g>
  <g
     clip-path="url(#clip-f92aa51f-a854-49ca-bcf3-a3c6f33a6eac)"
     id="g99">
    <title
       id="title95">Path 12048</title>
    <path
       d="m 70.992,17.08099 v 0 l 7.0536,4.29552 v 0 l -7.0536,4.29504 v 0 l -7.0704,-4.29504 v 0 l 7.0704,-4.29552 v 0 m 9.7e-4,-2.12256 c -0.13152,0 -0.26303,0.03552 -0.37968,0.10608 l -9.36192,5.68752 c -0.46848,0.28416 -0.46848,0.96432 0,1.24896 l 9.36192,5.68704 c 0.11665,0.07056 0.24817,0.10608 0.37968,0.10608 0.13152,0 0.26352,-0.03552 0.38016,-0.10656 l 9.33936,-5.68704 c 0.46753,-0.28464 0.46753,-0.96336 0,-1.24848 l -9.33936,-5.68704 c -0.11664,-0.07104 -0.24864,-0.10656 -0.38016,-0.10656 m 0.61679,1.7472 h 0.0029"
       fill="#c83a1a"
       fill-opacity="1"
       id="path97" />
  </g>
  <g
     clip-path="url(#clip-f92aa51f-a854-49ca-bcf3-a3c6f33a6eac)"
     id="g105">
    <title
       id="title101">Path 12049</title>
    <path
       d="m 71.08177,17.08003 v 0 l 8.91357,5.42784 v 0 9.86688 0 l -9.0043,5.13024 v 0 l -8.84737,-5.12112 v 0 -9.87457 0 l 8.9381,-5.42928 v 0 m 4.6e-4,-2.10191 c -0.15359,0 -0.3067,0.04128 -0.44302,0.12384 L 60.6336,21.18019 c -0.2544,0.15456 -0.40992,0.43104 -0.40992,0.72912 v 11.08992 c 0,0.30432 0.16224,0.5856 0.42528,0.73776 l 9.91057,5.73695 c 0.13248,0.07632 0.27983,0.11472 0.4272,0.11472 0.14592,0 0.29135,-0.03744 0.42239,-0.11184 l 10.07521,-5.7408 c 0.26639,-0.15168 0.43103,-0.4344 0.43103,-0.74112 V 21.90834 c 0,-0.2976 -0.15504,-0.5736 -0.40944,-0.72816 L 71.52576,15.10242 C 71.38944,15.01938 71.23584,14.9781 71.08223,14.9781 m 0.55392,1.76497 h 0.0024"
       fill="#c83a1a"
       fill-opacity="1"
       id="path103" />
  </g>
  <g
     clip-path="url(#clip-f92aa51f-a854-49ca-bcf3-a3c6f33a6eac)"
     id="g111">
    <title
       id="title107">Path 12050</title>
    <path
       d="m 71.06927,32.23267 c -0.52991,0 -0.95999,-0.43008 -0.95999,-0.96 v -4.52448 c 0,-0.52992 0.43008,-0.96 0.95999,-0.96 0.52992,0 0.96001,0.43008 0.96001,0.96 v 4.52448 c 0,0.52992 -0.43008,0.96 -0.96001,0.96"
       fill="#c83a1a"
       fill-opacity="1"
       id="path109" />
  </g>
  <g
     clip-path="url(#clip-f92aa51f-a854-49ca-bcf3-a3c6f33a6eac)"
     id="g117">
    <title
       id="title113">Path 12051</title>
    <path
       d="m 50.112,42.10099 v 0 l 4.8e-4,-4.7e-4 v 0 l -4.50433,-4.5048 v 0 l -4.7e-4,-4.8e-4 C 44.45472,36.44228 42.8616,35.729 41.1024,35.729 c -3.51888,0 -6.37152,2.85264 -6.37152,6.37152 0,1.7592 0.71328,3.35184 1.86624,4.5048 l 9.6e-4,9.5e-4 v 0 l 4.50432,4.50433 v 0 l 4.7e-4,-4.8e-4 c 0.91728,0.912 2.11488,1.53072 3.44785,1.75008 C 44.25168,52.37492 44.16911,51.75572 44.30448,51.19653 43.52592,50.97957 42.8112,50.56868 42.22272,49.98357 42.2112,49.97205 42.19968,49.961 42.18816,49.94997 L 37.7208,45.48309 v 0 l -0.0034,-0.0038 c -0.9014,-0.90293 -1.3982,-2.10292 -1.3982,-3.37876 0,-2.6376 2.1456,-4.7832 4.7832,-4.7832 1.27679,0 2.47728,0.49728 3.38016,1.39968 l 4.46928,4.4688 c 0.01103,0.01199 0.02208,0.02351 0.0336,0.03503 0.8976,0.90288 1.392,2.10001 1.392,3.37152 0,1.27776 -0.49776,2.47872 -1.40112,3.38208 -0.07919,0.07968 -0.14016,0.16416 -0.22416,0.23712 -0.03168,0.34848 -0.16704,0.6744 -0.3576,0.96191 0.03792,0.25345 0.02928,0.51265 -0.01776,0.76369 0.05232,0.09984 0.09695,0.20352 0.13248,0.31104 2.05056,-1.05888 3.45648,-3.18912 3.45648,-5.65584 0,-1.75248 -0.70848,-3.33936 -1.85376,-4.49136"
       fill="#c83a1a"
       fill-opacity="1"
       id="path115" />
  </g>
  <g
     clip-path="url(#clip-f92aa51f-a854-49ca-bcf3-a3c6f33a6eac)"
     id="g123">
    <title
       id="title119">Path 12052</title>
    <path
       d="m 44.91072,53.10115 v 0 L 44.52144,53.0378 c -1.35984,-0.22321 -2.58576,-0.84576 -3.54576,-1.8 l -4.50527,-4.50432 c -1.2384,-1.23792 -1.91953,-2.88336 -1.91953,-4.63345 0,-3.612 2.93855,-6.55103 6.55104,-6.55103 1.75008,0 3.39503,0.68159 4.63248,1.91904 l 4.65216,4.65168 v 0 l -0.0043,0.0029 c 1.13904,1.21729 1.76304,2.79648 1.76304,4.46976 0,2.4552 -1.36176,4.68385 -3.55344,5.8152 l -0.18768,0.09697 v 0 L 48.3384,52.30388 c -0.03264,-0.09743 -0.07344,-0.192 -0.12096,-0.28272 l -0.02928,-0.0552 v 0 l 0.01152,-0.06144 c 0.04463,-0.24144 0.0504,-0.47856 0.01631,-0.70464 l -0.01007,-0.06816 v 0 l 0.03839,-0.0576 c 0.19104,-0.28896 0.30145,-0.58464 0.32784,-0.8784 l 0.0067,-0.07248 v 0 l 0.05472,-0.04752 c 0.04369,-0.03792 0.0792,-0.0792 0.11664,-0.12096 0.03168,-0.036 0.06336,-0.07247 0.09888,-0.10799 0.86929,-0.8688 1.34785,-2.02464 1.34785,-3.25441 0,-1.22351 -0.47569,-2.37599 -1.3392,-3.24432 l 0.0936,-0.16224 v 0 l -0.12769,0.1272 v 0 l -4.4688,-4.4688 c -0.8688,-0.86832 -2.02416,-1.34688 -3.25296,-1.34688 -2.53824,0 -4.60272,2.06496 -4.60272,4.60271 0,1.22832 0.4776,2.38273 1.34496,3.25201 l 4.50719,4.50575 c 0.55489,0.552 1.24753,0.95568 2.00064,1.16496 l 0.168,0.04704 v 0 l -0.04128,0.16896 c -0.12624,0.52223 -0.04224,1.09344 0.22464,1.52688 z M 41.10192,35.909 c -3.41376,0 -6.19104,2.77728 -6.19104,6.19103 0,1.65408 0.64368,3.20881 1.81296,4.37808 l 4.50528,4.5048 c 0.8232,0.81744 1.85425,1.37712 2.99857,1.63152 C 44.07025,52.21459 44.02177,51.7586 44.09472,51.3218 43.34448,51.08516 42.65664,50.669 42.09551,50.11124 l -0.03503,-0.0336 v 0 l -4.46736,-4.46736 c -0.93887,-0.9408 -1.45392,-2.18593 -1.45392,-3.51025 0,-2.73647 2.22624,-4.96272 4.96272,-4.96272 1.3248,0 2.5704,0.51552 3.50784,1.452 l 4.50336,4.5048 c 0.93073,0.936 1.44384,2.17872 1.44384,3.49824 0,1.32576 -0.516,2.57185 -1.45344,3.50928 -0.02977,0.02976 -0.05664,0.06048 -0.08353,0.09072 -0.0312,0.03552 -0.06288,0.07104 -0.09648,0.10512 -0.03935,0.31056 -0.15408,0.61872 -0.34176,0.91776 0.02688,0.22513 0.02064,0.45792 -0.01775,0.69409 0.01392,0.02783 0.02688,0.05568 0.03935,0.08351 1.968,-1.09584 3.18192,-3.14735 3.18192,-5.40048 0,-1.64639 -0.63984,-3.19631 -1.80144,-4.36415 l -0.14592,-0.14737 v 0 h 4.8e-4 v 0 L 45.48046,37.72292 C 44.31071,36.55315 42.7555,35.909 41.1019,35.909"
       fill="#c83a1a"
       fill-opacity="1"
       id="path121" />
  </g>
  <g
     clip-path="url(#clip-f92aa51f-a854-49ca-bcf3-a3c6f33a6eac)"
     id="g129">
    <title
       id="title125">Path 12053</title>
    <path
       d="m 41.33471,39.66211 c -1.66895,0 -2.8344,1.28928 -2.65199,3.02351 0.09744,0.92737 0.56112,1.80624 1.23264,2.47729 l 4.8e-4,4.8e-4 v 0 l 2.62321,2.6232 v 0 -4.9e-4 c 0.67056,0.66768 1.54608,1.12848 2.46959,1.22592 0.12001,0.01248 0.23761,0.01872 0.35281,0.01872 1.66944,0 2.8344,-1.28928 2.65248,-3.024 -0.09744,-0.92352 -0.55824,-1.79904 -1.22592,-2.4696 h 4.8e-4 v 0 l -2.6232,-2.6232 v 0 l -4.8e-4,-4.8e-4 c -0.67104,-0.67152 -1.54992,-1.1352 -2.47728,-1.23264 -0.11952,-0.01248 -0.2376,-0.01872 -0.35281,-0.01872 m -10e-6,1.98865 c 0.04657,0 0.09553,0.0024 0.14497,0.0077 0.43872,0.04608 0.90528,0.28703 1.27969,0.66144 l 2.61935,2.62032 c 0.372,0.37344 0.61153,0.83808 0.65712,1.2744 0.02928,0.276 -0.02256,0.50304 -0.14544,0.63985 -0.14016,0.15504 -0.3648,0.18768 -0.52896,0.18768 -0.04656,0 -0.09504,-0.0029 -0.14497,-0.0077 -0.43631,-0.04608 -0.90144,-0.2856 -1.27151,-0.65376 L 41.32128,43.757 c -0.37392,-0.37392 -0.61488,-0.84 -0.66096,-1.27921 -0.0288,-0.27551 0.02304,-0.50304 0.14592,-0.63936 0.13968,-0.15552 0.36432,-0.18768 0.52847,-0.18768"
       fill="#c83a1a"
       fill-opacity="1"
       id="path127" />
  </g>
  <g
     clip-path="url(#clip-f92aa51f-a854-49ca-bcf3-a3c6f33a6eac)"
     id="g135">
    <title
       id="title131">Path 12054</title>
    <path
       d="m 59.52864,51.51763 v 0 l 4.8e-4,-4.7e-4 v 0 L 55.0248,47.01235 v 0 l -4.8e-4,-4.7e-4 c -0.97776,-0.97777 -2.27376,-1.63393 -3.71761,-1.81248 0.28705,0.48337 0.36337,1.0944 0.228,1.64545 0.88896,0.19151 1.7064,0.63071 2.36448,1.28879 l 0.0043,0.0038 v 0 l 4.46497,4.46497 c 0.01104,0.01199 0.02208,0.02351 0.0336,0.03503 0.8976,0.90288 1.392,2.10001 1.392,3.37152 0,1.27776 -0.49776,2.47871 -1.40112,3.38208 -0.90336,0.90336 -2.10432,1.40112 -3.38159,1.40112 -1.272,0 -2.46913,-0.4944 -3.37201,-1.39201 -0.01152,-0.01151 -0.02304,-0.02256 -0.03455,-0.0336 l -4.46736,-4.46688 v 0 l -0.0034,-0.0038 C 46.23265,53.993 45.73585,52.793 45.73585,51.51717 c 0,-1.2744 0.5088,-2.42496 1.3248,-3.28128 0.09505,-0.22417 0.23473,-0.4248 0.40848,-0.59712 0.01297,-0.036 0.02689,-0.07152 0.04176,-0.10656 -0.2016,-0.50976 -0.2088,-1.104 -0.01152,-1.61664 -1.99344,1.07616 -3.35184,3.17712 -3.35184,5.6016 0,1.7592 0.71328,3.35184 1.86624,4.50479 l 9.6e-4,9.6e-4 v 0 l 4.50432,4.50432 v 0 l 4.8e-4,-4.7e-4 c 1.152,1.14528 2.73888,1.85376 4.49184,1.85376 3.51839,0 6.37103,-2.85265 6.37103,-6.37152 0,-1.75248 -0.70848,-3.33936 -1.85376,-4.49136"
       fill="#c83a1a"
       fill-opacity="1"
       id="path133" />
  </g>
  <g
     clip-path="url(#clip-f92aa51f-a854-49ca-bcf3-a3c6f33a6eac)"
     id="g141">
    <title
       id="title137">Path 12055</title>
    <path
       d="m 47.20992,46.2938 c -1.78896,1.13184 -2.8824,3.09552 -2.8824,5.22336 0,1.65312 0.64368,3.20784 1.81296,4.37759 l 4.50577,4.50529 c 1.16832,1.16112 2.71823,1.80048 4.36464,1.80048 h 9.6e-4 c 1.65311,0 3.20735,-0.64417 4.37759,-1.81345 1.1688,-1.16928 1.81248,-2.724 1.81248,-4.37808 0,-1.64592 -0.63936,-3.19632 -1.80144,-4.36464 L 59.2248,51.46771 v 0 h 4.9e-4 v 0 l -4.32816,-4.32768 c -0.88752,-0.88847 -2.0424,-1.48895 -3.28032,-1.71169 0.15408,0.39745 0.20064,0.84961 0.12864,1.28113 0.86256,0.2184 1.64832,0.66432 2.28048,1.29696 l 4.50384,4.50433 c 0.93073,0.93599 1.44384,2.17871 1.44384,3.49823 0,1.32576 -0.516,2.57233 -1.45344,3.50977 -0.93697,0.93744 -2.18304,1.45344 -3.50928,1.45344 -1.31905,0 -2.56129,-0.51264 -3.49872,-1.44432 l -0.03505,-0.0336 v 0 l -4.46687,-4.46736 c -0.93936,-0.9408 -1.45441,-2.18544 -1.45441,-3.50976 0,-1.25568 0.48,-2.4552 1.35216,-3.38208 0.09601,-0.21648 0.23184,-0.41664 0.40512,-0.5952 l 0.0038,-0.01008 c -0.14208,-0.39504 -0.17809,-0.82608 -0.10704,-1.236 m 7.80191,16.26672 v 0 h -9.6e-4 c -1.7424,0 -3.38257,-0.6768 -4.61856,-1.90608 l -4.50528,-4.50385 c -1.2384,-1.23888 -1.91953,-2.88383 -1.91953,-4.63344 0,-2.40528 1.32048,-4.61232 3.44592,-5.75999 l 0.42912,-0.23137 v 0 l -0.17519,0.45456 c -0.18096,0.46944 -0.17712,1.01088 0.01056,1.48608 l 0.02736,0.06863 v 0 L 47.676,47.60371 c -0.01392,0.03168 -0.02592,0.06432 -0.0384,0.09695 l -0.04224,0.06577 c -0.16176,0.1608 -0.28608,0.34224 -0.36912,0.53952 l -0.03551,0.05424 c -0.82225,0.86256 -1.27489,1.98384 -1.27489,3.15696 0,1.22784 0.4776,2.38272 1.34496,3.25153 l 4.50816,4.50719 c 0.8664,0.86064 2.0184,1.33632 3.24193,1.33632 1.22975,0 2.38559,-0.47904 3.25439,-1.34832 0.86976,-0.86928 1.34832,-2.02512 1.34832,-3.25488 0,-1.224 -0.47568,-2.37599 -1.3392,-3.24432 l -0.04128,-0.04321 v 0 l -4.4568,-4.45679 C 53.14561,47.63539 52.35937,47.20675 51.4968,47.02099 l -0.18192,-0.03887 v 0 l 0.04464,-0.18001 c 0.12624,-0.5136 0.04848,-1.07808 -0.20784,-1.51056 L 50.964,44.97571 v 0 l 0.36432,0.04512 c 1.44192,0.17856 2.79935,0.84048 3.8232,1.86385 l 4.68143,4.68144 v 0 l -0.0058,0.0029 c 1.12032,1.21392 1.73472,2.78064 1.73472,4.43999 0,1.75008 -0.6816,3.39505 -1.91856,4.63297 -1.23744,1.23695 -2.8824,1.91856 -4.63152,1.91856"
       fill="#c83a1a"
       fill-opacity="1"
       id="path139" />
  </g>
  <g
     clip-path="url(#clip-f92aa51f-a854-49ca-bcf3-a3c6f33a6eac)"
     id="g147">
    <title
       id="title143">Path 12056</title>
    <path
       d="m 50.74799,51.06355 c 0.04657,0 0.09553,0.0029 0.14545,0.0082 0.43872,0.04607 0.90528,0.28703 1.27968,0.66144 l 2.62128,2.62224 c 0.372,0.37344 0.612,0.83856 0.65761,1.27488 0.02927,0.27599 -0.02257,0.50352 -0.14592,0.64032 -0.13969,0.15504 -0.36481,0.18768 -0.52896,0.18768 -0.04656,0 -0.09552,-0.0024 -0.14496,-0.0077 -0.43681,-0.04608 -0.90192,-0.2856 -1.27248,-0.65424 l -2.62512,-2.62512 c -0.3744,-0.3744 -0.61536,-0.84048 -0.66144,-1.27968 -0.0288,-0.276 0.02303,-0.50352 0.14592,-0.63985 0.14016,-0.15552 0.3648,-0.18816 0.52895,-0.18816 z m 0,-1.9896 c -1.66991,0 -2.83583,1.28976 -2.65343,3.02544 0.09744,0.92783 0.5616,1.80719 1.23312,2.47871 l 4.9e-4,4.8e-4 v 0 l 2.62463,2.62464 v 0 h 4.8e-4 c 0.67056,0.66768 1.54656,1.12896 2.47105,1.22592 0.11951,0.01248 0.23759,0.01871 0.3528,0.01871 1.67039,0 2.83584,-1.28976 2.65392,-3.02544 -0.09744,-0.924 -0.55872,-1.8 -1.22639,-2.47104 h 4.7e-4 v 0 L 53.5805,50.32673 v 0 l -4.9e-4,-4.8e-4 c -0.672,-0.672 -1.55136,-1.13616 -2.47919,-1.2336 -0.11952,-0.01248 -0.2376,-0.01871 -0.35281,-0.01871"
       fill="#c83a1a"
       fill-opacity="1"
       id="path145" />
  </g>
</svg>
