<?xml version="1.0" encoding="UTF-8" standalone="no"?>
<svg
   id="SVGDoc"
   width="96"
   height="97"
   version="1.1"
   viewBox="0 0 96 97"
   sodipodi:docname="StakeAdria.svg"
   inkscape:version="1.1 (c68e22c387, 2021-05-23)"
   xmlns:inkscape="http://www.inkscape.org/namespaces/inkscape"
   xmlns:sodipodi="http://sodipodi.sourceforge.net/DTD/sodipodi-0.dtd"
   xmlns="http://www.w3.org/2000/svg"
   xmlns:svg="http://www.w3.org/2000/svg">
  <sodipodi:namedview
     id="namedview70"
     pagecolor="#ffffff"
     bordercolor="#666666"
     borderopacity="1.0"
     inkscape:pageshadow="2"
     inkscape:pageopacity="0.0"
     inkscape:pagecheckerboard="0"
     showgrid="false"
     inkscape:zoom="9"
     inkscape:cx="48"
     inkscape:cy="48.5"
     inkscape:window-width="2560"
     inkscape:window-height="1369"
     inkscape:window-x="-8"
     inkscape:window-y="-8"
     inkscape:window-maximized="1"
     inkscape:current-layer="SVGDoc" />
  <defs
     id="defs5">
    <clipPath
       id="clip-4779c525-a5cb-4249-aaaf-ee1b759f9c76">
      <path
         d="M0,96.94531v0v-96v0h96v0v96v0z"
         id="path2" />
    </clipPath>
  </defs>
  <desc
     id="desc7">Generated with Avocode.</desc>
  <g
     clip-path="url(#clip-4779c525-a5cb-4249-aaaf-ee1b759f9c76)"
     id="g21">
    <title
       id="title17">Path 11952</title>
    <path
       d="m 48.04949,14.68013 c -18.92435,0 -34.26567,15.34131 -34.26567,34.26567 0,18.92387 15.34132,34.26468 34.26567,34.26468 18.92435,0 34.26566,-15.34081 34.26566,-34.26468 0,-18.92435 -15.34132,-34.26567 -34.26566,-34.26567 m 0,1.94071 c 17.82397,0 32.32497,14.50099 32.32497,32.32495 0,17.82347 -14.50099,32.32399 -32.32497,32.32399 -17.82396,0 -32.32495,-14.50051 -32.32495,-32.32399 0,-17.82397 14.50099,-32.32495 32.32495,-32.32495"
       fill="#c83a1a"
       fill-opacity="1"
       id="path19" />
  </g>
  <g
     clip-path="url(#clip-4779c525-a5cb-4249-aaaf-ee1b759f9c76)"
     id="g27">
    <title
       id="title23">Path 11953</title>
    <path
       d="m 48.04947,24.72816 c -13.37488,0 -24.21714,10.84226 -24.21714,24.21715 0,13.37489 10.84226,24.21716 24.21714,24.21716 13.37489,0 24.21716,-10.84226 24.21716,-24.21716 0,-13.37489 -10.84226,-24.21715 -24.21716,-24.21715 m 0,1.94071 c 12.28325,0 22.27645,9.9932 22.27645,22.27644 0,12.28325 -9.9932,22.27645 -22.27645,22.27645 -12.28323,0 -22.27644,-9.9932 -22.27644,-22.27645 0,-12.28325 9.9932,-22.27644 22.27644,-22.27644"
       fill="#c83a1a"
       fill-opacity="1"
       id="path25" />
  </g>
  <g
     clip-path="url(#clip-4779c525-a5cb-4249-aaaf-ee1b759f9c76)"
     id="g33">
    <title
       id="title29">Path 11954</title>
    <path
       d="m 48.57009,36.648 v 0 h 0.0049 c 0,-1.03343 0.0014,-2.17893 0.0024,-2.90718 5e-4,-0.40949 -0.33768,-0.73747 -0.74716,-0.72534 l -0.78309,0.02329 c -0.39202,0.01115 -0.70399,0.32992 -0.70399,0.72243 5e-4,1.26098 -9.6e-4,5.94343 -0.0015,7.10784 0,0.15866 0.09946,0.29936 0.24842,0.35322 l 1.67095,0.60113 c 0.15041,0.05434 0.30905,-0.05724 0.30905,-0.21687 z"
       fill="#c83a1a"
       fill-opacity="1"
       id="path31" />
  </g>
  <g
     clip-path="url(#clip-4779c525-a5cb-4249-aaaf-ee1b759f9c76)"
     id="g39">
    <title
       id="title35">Path 11955</title>
    <path
       d="m 52.77076,36.64801 v 0 h 0.0048 c 0,-1.03342 0.0015,-1.20809 0.0024,-1.93635 4.7e-4,-0.40948 -0.33769,-0.73795 -0.74718,-0.72582 l -0.78308,0.02328 c -0.39203,0.01165 -0.70399,0.32993 -0.70399,0.72243 4.9e-4,1.26146 -9.8e-4,6.53291 -0.0014,7.69783 0,0.15816 0.09946,0.29935 0.2484,0.35271 l 1.67096,0.60163 c 0.15041,0.05385 0.30907,-0.05775 0.30907,-0.21736 z"
       fill="#c83a1a"
       fill-opacity="1"
       id="path37" />
  </g>
  <g
     clip-path="url(#clip-4779c525-a5cb-4249-aaaf-ee1b759f9c76)"
     id="g45">
    <title
       id="title41">Path 11956</title>
    <path
       d="m 48.57347,61.33626 v 0 h -0.0048 v 0 -4.95851 c 0,-0.15962 -0.15865,-0.27122 -0.30906,-0.21687 l -1.67095,0.60113 c -0.14896,0.05385 -0.24841,0.19456 -0.24841,0.35322 4.7e-4,1.16442 0.0019,5.84687 0.0015,7.10784 0,0.39252 0.31196,0.71127 0.70399,0.72243 l 0.78307,0.02328 c 0.4095,0.01213 0.74767,-0.31584 0.74719,-0.72533 -9.8e-4,-0.72874 -0.0024,-1.87376 -0.0024,-2.9072"
       fill="#c83a1a"
       fill-opacity="1"
       id="path43" />
  </g>
  <g
     clip-path="url(#clip-4779c525-a5cb-4249-aaaf-ee1b759f9c76)"
     id="g51">
    <title
       id="title47">Path 11957</title>
    <path
       d="m 52.77414,61.33627 v 0 h -0.0048 v 0 -6.51836 c 0,-0.15964 -0.15866,-0.27122 -0.30907,-0.21737 l -1.67094,0.60162 c -0.14896,0.05337 -0.24841,0.19455 -0.24841,0.35273 4.7e-4,1.1649 0.0019,6.43637 0.0014,7.69783 0,0.3925 0.31198,0.71077 0.70399,0.72241 l 0.78308,0.02328 c 0.40949,0.01213 0.74766,-0.31633 0.74717,-0.72581 -9.7e-4,-0.72826 -0.0024,-0.90292 -0.0024,-1.93634"
       fill="#c83a1a"
       fill-opacity="1"
       id="path49" />
  </g>
  <g
     clip-path="url(#clip-4779c525-a5cb-4249-aaaf-ee1b759f9c76)"
     id="g57">
    <title
       id="title53">Path 11958</title>
    <path
       d="m 48.04947,24.72816 c -13.37488,0 -24.21714,10.84226 -24.21714,24.21715 0,13.37489 10.84226,24.21716 24.21714,24.21716 13.37489,0 24.21716,-10.84226 24.21716,-24.21716 0,-13.37489 -10.84226,-24.21715 -24.21716,-24.21715 m 0,1.94071 c 12.28325,0 22.27645,9.9932 22.27645,22.27644 0,12.28325 -9.9932,22.27645 -22.27645,22.27645 -12.28323,0 -22.27644,-9.9932 -22.27644,-22.27645 0,-12.28325 9.9932,-22.27644 22.27644,-22.27644"
       fill="#c83a1a"
       fill-opacity="1"
       id="path55" />
  </g>
  <g
     clip-path="url(#clip-4779c525-a5cb-4249-aaaf-ee1b759f9c76)"
     id="g63">
    <title
       id="title59">Path 11970</title>
    <path
       d="m 38.10044,57.09387 v 0 -16.47566 c 0,-0.25665 0.25618,-0.43472 0.49635,-0.34447 l 22.15611,8.30044 c 0.31536,0.11788 0.31924,0.56232 0.0063,0.68603 l -2.34534,0.9267 c -0.08491,0.03346 -0.17854,0.03444 -0.26394,0.0024 L 41.02267,43.77334 c -0.24017,-0.09024 -0.49634,0.08782 -0.49634,0.344 v 9.5803 c 0,0.25231 0.24841,0.42938 0.48663,0.34789 l 5.89297,-2.02125 c 0.32458,-0.11111 0.33282,-0.56765 0.01212,-0.6909 l -3.55683,-1.3648 C 43.2176,49.91376 43.12348,49.77547 43.12494,49.62215 l 0.01795,-1.80388 c 0.0024,-0.25666 0.25957,-0.43181 0.49925,-0.34011 l 10.38135,3.98233 c 0.32069,0.12276 0.31293,0.5793 -0.01214,0.6909 l -15.42428,5.29038 c -0.23821,0.0815 -0.48663,-0.09559 -0.48663,-0.34789"
       fill="#c83a1a"
       fill-opacity="1"
       id="path61" />
  </g>
</svg>
