<?xml version="1.0" encoding="UTF-8" standalone="no"?>
<svg
   id="SVGDoc"
   width="96"
   height="97"
   version="1.1"
   viewBox="0 0 96 97"
   sodipodi:docname="StakeNFT.svg"
   inkscape:version="1.1 (c68e22c387, 2021-05-23)"
   xmlns:inkscape="http://www.inkscape.org/namespaces/inkscape"
   xmlns:sodipodi="http://sodipodi.sourceforge.net/DTD/sodipodi-0.dtd"
   xmlns="http://www.w3.org/2000/svg"
   xmlns:svg="http://www.w3.org/2000/svg">
  <sodipodi:namedview
     id="namedview130"
     pagecolor="#ffffff"
     bordercolor="#666666"
     borderopacity="1.0"
     inkscape:pageshadow="2"
     inkscape:pageopacity="0.0"
     inkscape:pagecheckerboard="0"
     showgrid="false"
     inkscape:zoom="9"
     inkscape:cx="48"
     inkscape:cy="48.5"
     inkscape:window-width="2560"
     inkscape:window-height="1369"
     inkscape:window-x="-8"
     inkscape:window-y="-8"
     inkscape:window-maximized="1"
     inkscape:current-layer="SVGDoc" />
  <defs
     id="defs5">
    <clipPath
       id="clip-b69f9021-e40b-4730-b049-8cd7a6af236c">
      <path
         d="M0,96.94531v0v-96v0h96v0v96v0z"
         id="path2" />
    </clipPath>
  </defs>
  <desc
     id="desc7">Generated with Avocode.</desc>
  <g
     clip-path="url(#clip-b69f9021-e40b-4730-b049-8cd7a6af236c)"
     id="g21">
    <title
       id="title17">Path 12095</title>
    <path
       d="m 28.56672,60.06163 c -2.51616,0 -4.56336,2.04768 -4.56336,4.56384 0,2.51616 2.0472,4.56335 4.56336,4.56335 2.51616,0 4.56336,-2.0472 4.56336,-4.56335 0,-2.51616 -2.0472,-4.56384 -4.56336,-4.56384 m 0,11.0472 c -3.57455,0 -6.48336,-2.9088 -6.48336,-6.48335 0,-3.57504 2.90881,-6.48384 6.48336,-6.48384 3.57456,0 6.48336,2.9088 6.48336,6.48384 0,3.57455 -2.9088,6.48335 -6.48336,6.48335"
       fill="#c83a1a"
       fill-opacity="1"
       id="path19" />
  </g>
  <g
     clip-path="url(#clip-b69f9021-e40b-4730-b049-8cd7a6af236c)"
     id="g27">
    <title
       id="title23">Rectangle 2521</title>
    <path
       d="m 62.10863,65.58547 v 0 -1.92 0 h 11.80896 v 0 1.92 0 z"
       fill="#c83a1a"
       fill-opacity="1"
       id="path25" />
  </g>
  <g
     clip-path="url(#clip-b69f9021-e40b-4730-b049-8cd7a6af236c)"
     id="g33">
    <title
       id="title29">Rectangle 2522</title>
    <path
       d="m 67.05312,70.52995 v 0 -11.80896 0 h 1.92 v 0 11.80896 0 z"
       fill="#c83a1a"
       fill-opacity="1"
       id="path31" />
  </g>
  <g
     clip-path="url(#clip-b69f9021-e40b-4730-b049-8cd7a6af236c)"
     id="g39">
    <title
       id="title35">Path 12096</title>
    <path
       d="m 24.02208,15.04579 c -5.47968,0 -9.92208,4.4424 -9.92208,9.92208 0,5.47968 4.4424,9.92208 9.92208,9.92208 5.47968,0 9.92208,-4.4424 9.92208,-9.92208 0,-5.47968 -4.4424,-9.92208 -9.92208,-9.92208 m 0,1.92 c 4.41216,0 8.00208,3.58992 8.00208,8.00208 0,4.41216 -3.58993,8.00208 -8.00208,8.00208 -4.41216,0 -8.00208,-3.58992 -8.00208,-8.00208 0,-4.41216 3.58992,-8.00208 8.00208,-8.00208"
       fill="#c83a1a"
       fill-opacity="1"
       id="path37" />
  </g>
  <g
     clip-path="url(#clip-b69f9021-e40b-4730-b049-8cd7a6af236c)"
     id="g45">
    <title
       id="title41">Path 12097</title>
    <path
       d="m 47.97601,15.04579 c -5.47968,0 -9.92209,4.4424 -9.92209,9.92208 0,5.47968 4.44241,9.92208 9.92209,9.92208 5.47968,0 9.92207,-4.4424 9.92207,-9.92208 0,-5.47968 -4.4424,-9.92208 -9.92207,-9.92208 m 0,1.92 c 4.41216,0 8.00208,3.58992 8.00208,8.00208 0,4.41216 -3.58992,8.00208 -8.00208,8.00208 -4.41216,0 -8.00208,-3.58992 -8.00208,-8.00208 0,-4.41216 3.58992,-8.00208 8.00208,-8.00208"
       fill="#c83a1a"
       fill-opacity="1"
       id="path43" />
  </g>
  <g
     clip-path="url(#clip-b69f9021-e40b-4730-b049-8cd7a6af236c)"
     id="g51">
    <title
       id="title47">Path 12098</title>
    <path
       d="m 71.99999,15.04579 c -5.47968,0 -9.92207,4.4424 -9.92207,9.92208 0,5.47968 4.4424,9.92208 9.92207,9.92208 5.47968,0 9.92209,-4.4424 9.92209,-9.92208 0,-5.47968 -4.44241,-9.92208 -9.92209,-9.92208 m 0,1.92 c 4.41217,0 8.00209,3.58992 8.00209,8.00208 0,4.41216 -3.58992,8.00208 -8.00209,8.00208 -4.41216,0 -8.00208,-3.58992 -8.00208,-8.00208 0,-4.41216 3.58992,-8.00208 8.00208,-8.00208"
       fill="#c83a1a"
       fill-opacity="1"
       id="path49" />
  </g>
  <g
     clip-path="url(#clip-b69f9021-e40b-4730-b049-8cd7a6af236c)"
     id="g57">
    <title
       id="title53">Rectangle 2523</title>
    <path
       d="m 47.064,46.94515 v 0 -10.19088 0 h 1.92 v 0 10.19088 0 z"
       fill="#c83a1a"
       fill-opacity="1"
       id="path55" />
  </g>
  <g
     clip-path="url(#clip-b69f9021-e40b-4730-b049-8cd7a6af236c)"
     id="g63">
    <title
       id="title59">Path 12099</title>
    <path
       d="m 72.95995,42.87753 v 0 h -49.92 v 0 -6.12335 0 h 1.92 v 0 4.20335 0 h 46.08 v 0 -4.20335 0 h 1.92 v 0 z"
       fill="#c83a1a"
       fill-opacity="1"
       id="path61" />
  </g>
  <g
     clip-path="url(#clip-b69f9021-e40b-4730-b049-8cd7a6af236c)"
     id="g69">
    <title
       id="title65">Path 12100</title>
    <path
       d="m 27.60653,28.50706 v 0 h -6.99984 v 0 -1.92 0 h 5.07984 v 0 -1.05504 0 h -5.12592 v 0 -4.94688 0 h 6.94608 v 0 1.92 0 h -5.02608 v 0 1.10688 0 h 5.12592 v 0 z"
       fill="#c83a1a"
       fill-opacity="1"
       id="path67" />
  </g>
  <g
     clip-path="url(#clip-b69f9021-e40b-4730-b049-8cd7a6af236c)"
     id="g75">
    <title
       id="title71">Rectangle 2524</title>
    <path
       d="m 23.04576,20.96563 v 0 -1.50528 0 h 1.92 v 0 1.50528 0 z"
       fill="#c83a1a"
       fill-opacity="1"
       id="path73" />
  </g>
  <g
     clip-path="url(#clip-b69f9021-e40b-4730-b049-8cd7a6af236c)"
     id="g81">
    <title
       id="title77">Rectangle 2525</title>
    <path
       d="m 23.04576,29.75395 v 0 -1.50528 0 h 1.92 v 0 1.50528 0 z"
       fill="#c83a1a"
       fill-opacity="1"
       id="path79" />
  </g>
  <g
     clip-path="url(#clip-b69f9021-e40b-4730-b049-8cd7a6af236c)"
     id="g87">
    <title
       id="title83">Path 12101</title>
    <path
       d="m 51.5737,28.50706 v 0 h -6.99985 v 0 -1.92 0 h 5.07985 v 0 -1.05504 0 h -5.12592 v 0 -4.94688 0 h 6.94608 v 0 1.92 0 h -5.02608 v 0 1.10688 0 h 5.12592 v 0 z"
       fill="#c83a1a"
       fill-opacity="1"
       id="path85" />
  </g>
  <g
     clip-path="url(#clip-b69f9021-e40b-4730-b049-8cd7a6af236c)"
     id="g93">
    <title
       id="title89">Rectangle 2526</title>
    <path
       d="m 47.01312,20.96563 v 0 -1.50528 0 h 1.92 v 0 1.50528 0 z"
       fill="#c83a1a"
       fill-opacity="1"
       id="path91" />
  </g>
  <g
     clip-path="url(#clip-b69f9021-e40b-4730-b049-8cd7a6af236c)"
     id="g99">
    <title
       id="title95">Rectangle 2527</title>
    <path
       d="m 47.01312,29.75395 v 0 -1.50528 0 h 1.92 v 0 1.50528 0 z"
       fill="#c83a1a"
       fill-opacity="1"
       id="path97" />
  </g>
  <g
     clip-path="url(#clip-b69f9021-e40b-4730-b049-8cd7a6af236c)"
     id="g105">
    <title
       id="title101">Path 12102</title>
    <path
       d="m 75.54979,28.50706 v 0 h -6.99983 v 0 -1.92 0 h 5.07983 v 0 -1.05504 0 h -5.12592 v 0 -4.94688 0 h 6.94608 v 0 1.92 0 h -5.02608 v 0 1.10688 0 h 5.12592 v 0 z"
       fill="#c83a1a"
       fill-opacity="1"
       id="path103" />
  </g>
  <g
     clip-path="url(#clip-b69f9021-e40b-4730-b049-8cd7a6af236c)"
     id="g111">
    <title
       id="title107">Rectangle 2528</title>
    <path
       d="m 70.98864,20.96563 v 0 -1.50528 0 h 1.92 v 0 1.50528 0 z"
       fill="#c83a1a"
       fill-opacity="1"
       id="path109" />
  </g>
  <g
     clip-path="url(#clip-b69f9021-e40b-4730-b049-8cd7a6af236c)"
     id="g117">
    <title
       id="title113">Rectangle 2529</title>
    <path
       d="m 70.98864,29.75395 v 0 -1.50528 0 h 1.92 v 0 1.50528 0 z"
       fill="#c83a1a"
       fill-opacity="1"
       id="path115" />
  </g>
  <g
     clip-path="url(#clip-b69f9021-e40b-4730-b049-8cd7a6af236c)"
     id="g123">
    <title
       id="title119">Path 12103</title>
    <path
       d="m 72.00003,48.94531 c 5.4672,0 9.89951,4.43232 9.89951,9.89999 v 18.28656 c 0,3.15552 -2.55791,5.71344 -5.71295,5.71344 H 60.92978 c -1.8024,0 -3.49104,-0.88127 -4.5216,-2.35968 l -5.2584,-7.54031 h -3.14976 l -4.8e-4,-0.04704 v 0.04704 h -3.14977 l -5.25792,7.54031 c -1.03104,1.47841 -2.7192,2.35968 -4.5216,2.35968 H 19.81297 c -3.15504,0 -5.71296,-2.55792 -5.71296,-5.71344 V 58.8453 c 0,-5.46767 4.43232,-9.89999 9.89952,-9.89999 z m -48.0005,1.92 c -4.39968,0 -7.97952,3.57985 -7.97952,7.98 v 18.28656 c 0,2.09184 1.7016,3.79344 3.79296,3.79344 h 15.25728 c 1.1736,0 2.2752,-0.57503 2.94672,-1.53792 l 5.25792,-7.54031 0.57312,-0.82176 h 4.15152 v 1.87056 h 4.8e-4 v -1.87056 h 4.15152 l 0.57312,0.82176 5.25839,7.54031 c 0.67104,0.96289 1.77264,1.53792 2.94672,1.53792 h 15.25681 c 2.09135,0 3.79295,-1.7016 3.79295,-3.79344 V 58.84531 c 0,-4.40016 -3.57984,-7.98 -7.97952,-7.98 z"
       fill="#c83a1a"
       fill-opacity="1"
       id="path121" />
  </g>
</svg>
