<?xml version="1.0" encoding="UTF-8" standalone="no"?>
<svg
   width="36"
   height="36"
   viewBox="0 0 36 36"
   version="1.1"
   id="svg11"
   sodipodi:docname="Volume-off.svg"
   inkscape:version="1.1 (c68e22c387, 2021-05-23)"
   xmlns:inkscape="http://www.inkscape.org/namespaces/inkscape"
   xmlns:sodipodi="http://sodipodi.sourceforge.net/DTD/sodipodi-0.dtd"
   xmlns="http://www.w3.org/2000/svg"
   xmlns:svg="http://www.w3.org/2000/svg">
  <sodipodi:namedview
     id="namedview13"
     pagecolor="#ffffff"
     bordercolor="#666666"
     borderopacity="1.0"
     inkscape:pageshadow="2"
     inkscape:pageopacity="0.0"
     inkscape:pagecheckerboard="0"
     showgrid="false"
     fit-margin-top="0"
     fit-margin-left="0"
     fit-margin-right="0"
     fit-margin-bottom="0"
     inkscape:zoom="22.810739"
     inkscape:cx="18.149346"
     inkscape:cy="18.127427"
     inkscape:window-width="2560"
     inkscape:window-height="1369"
     inkscape:window-x="-8"
     inkscape:window-y="-8"
     inkscape:window-maximized="1"
     inkscape:current-layer="svg11" />
  <defs
     id="defs4">
    <clipPath
       id="clip-path">
      <rect
         id="Rectangle_2710"
         data-name="Rectangle 2710"
         width="25.893"
         height="27.062"
         fill="#f2f2f2"
         x="0"
         y="0" />
    </clipPath>
    <clipPath
       id="clip-path-9">
      <rect
         id="Rectangle_2710-0"
         data-name="Rectangle 2710"
         width="25.893"
         height="27.062"
         fill="#f2f2f2"
         x="0"
         y="0" />
    </clipPath>
  </defs>
  <path
     id="Rectangle_2709"
     style="fill:#f2f2f2"
     d="M 6.0605469 4 L 5 5.0605469 L 11.701172 11.761719 L 10.330078 12.941406 L 7.5878906 12.941406 A 2.536 2.536 0 0 0 5.7148438 13.482422 L 5.5390625 13.681641 A 3.41 3.41 0 0 0 5.0527344 15.650391 L 5.0527344 21.900391 A 2.569 2.569 0 0 0 5.5898438 23.443359 L 5.71875 23.570312 A 2.783 2.783 0 0 0 7.3183594 24.162109 L 10.337891 24.087891 L 18.457031 31.0625 L 18.457031 18.517578 L 24.455078 24.515625 A 11.125 11.125 0 0 1 24.417969 24.568359 A 11.244 11.244 0 0 1 21.992188 26.992188 L 22.878906 28.201172 A 12.689 12.689 0 0 0 25.525391 25.585938 L 29.832031 29.892578 L 30.892578 28.832031 L 6.0605469 4 z M 18.457031 5.9570312 L 13.890625 9.8808594 L 14.947266 10.949219 L 16.957031 9.2246094 L 16.957031 12.980469 L 18.457031 14.494141 L 18.457031 5.9570312 z M 22.878906 7.5996094 L 21.992188 8.8105469 A 11.285 11.285 0 0 1 25.835938 21.949219 L 26.982422 23.109375 A 12.794 12.794 0 0 0 22.878906 7.5996094 z M 25.835938 21.949219 L 25.833984 21.947266 L 25.833984 21.951172 A 11.285 11.285 0 0 1 25.835938 21.949219 z M 12.767578 12.828125 L 16.957031 17.017578 L 16.957031 27.800781 L 10.878906 22.576172 L 7.3496094 22.669922 A 1.275 1.275 0 0 1 6.7226562 22.453125 A 1.052 1.052 0 0 1 6.5527344 21.896484 L 6.5527344 15.603516 A 1.972 1.972 0 0 1 6.7597656 14.582031 A 1.043 1.043 0 0 1 7.4433594 14.4375 L 10.888672 14.443359 L 12.767578 12.828125 z " />
</svg>
