<?xml version="1.0" encoding="UTF-8" standalone="no"?>
<!-- Created with Inkscape (http://www.inkscape.org/) -->

<svg
   width="12.7mm"
   height="12.7mm"
   viewBox="0 0 12.7 12.7"
   version="1.1"
   id="svg5"
   inkscape:version="1.1 (c68e22c387, 2021-05-23)"
   sodipodi:docname="Wallet.svg"
   xmlns:inkscape="http://www.inkscape.org/namespaces/inkscape"
   xmlns:sodipodi="http://sodipodi.sourceforge.net/DTD/sodipodi-0.dtd"
   xmlns="http://www.w3.org/2000/svg"
   xmlns:svg="http://www.w3.org/2000/svg">
  <sodipodi:namedview
     id="namedview7"
     pagecolor="#ffffff"
     bordercolor="#666666"
     borderopacity="1.0"
     inkscape:pageshadow="2"
     inkscape:pageopacity="0.0"
     inkscape:pagecheckerboard="0"
     inkscape:document-units="mm"
     showgrid="false"
     fit-margin-top="0"
     fit-margin-left="0"
     fit-margin-right="0"
     fit-margin-bottom="0"
     inkscape:zoom="17.597674"
     inkscape:cx="12.728955"
     inkscape:cy="15.428176"
     inkscape:window-width="2560"
     inkscape:window-height="1369"
     inkscape:window-x="-8"
     inkscape:window-y="-8"
     inkscape:window-maximized="1"
     inkscape:current-layer="Group_4336" />
  <defs
     id="defs2" />
  <g
     inkscape:label="Warstwa 1"
     inkscape:groupmode="layer"
     id="layer1"
     transform="translate(-329.0933,-241.3201)">
    <g
       id="Group_4336"
       data-name="Group 4336"
       transform="matrix(0.26458333,0,0,0.26458333,329.0933,241.3201)">
      <path
         id="Path_12339"
         style="color:#000000;fill:#f2f2f2;stroke-linecap:round;stroke-linejoin:round;-inkscape-stroke:none"
         d="m 14.988281,11.238281 c -1.188332,0 -2.174629,0.473802 -2.8125,1.191407 -0.63787,0.717603 -0.939453,1.645209 -0.939453,2.5625 0,0.004 0.0019,0.0078 0.002,0.01172 v 17.994141 c 0,2.062182 1.687818,3.75 3.75,3.75 h 18.019531 c 1.233756,0 2.25,-1.016244 2.25,-2.25 v -3.742188 h 0.751954 a 0.75007499,0.75007499 0 0 0 0.75,-0.75 V 24 a 0.74999999,0.74999999 0 0 0 -0.462891,-0.693359 0.74999999,0.74999999 0 0 0 -0.002,0 0.74999999,0.74999999 0 0 0 -0.28711,-0.05664 h -0.75 v -3.755859 c 0,-1.233756 -1.016244,-2.25 -2.25,-2.25 h -0.751953 v -3.75586 c 0,-1.233756 -1.016244,-2.25 -2.25,-2.25 z m 0,1.5 h 15.017578 c 0.423097,0 0.75,0.326904 0.75,0.75 v 3.75586 H 14.988281 c -0.813332,0 -1.328444,-0.279168 -1.691406,-0.6875 -0.361613,-0.406815 -0.557127,-0.976884 -0.558594,-1.558594 v -0.0098 -0.002 c 0.0015,-0.581712 0.19698,-1.15373 0.558594,-1.560547 0.362962,-0.408332 0.878074,-0.6875 1.691406,-0.6875 z m -2.25,5.220703 c 0.607309,0.452095 1.339919,0.785157 2.25,0.785157 h 16.517578 1.501953 c 0.423097,0 0.75,0.326903 0.75,0.75 V 23.25 h -3.755859 c -1.188332,0 -2.17463,0.471849 -2.8125,1.189453 -0.63787,0.717605 -0.939453,1.645209 -0.939453,2.5625 0,0.917291 0.301583,1.844896 0.939453,2.5625 0.63787,0.717605 1.624168,1.191406 2.8125,1.191406 h 3.755859 v 3.742188 c 0,0.423096 -0.326903,0.75 -0.75,0.75 H 14.988281 c -1.251523,0 -2.25,-0.998477 -2.25,-2.25 z M 30.001953,24.75 h 5.257813 v 4.505859 h -0.667969 a 0.74999999,0.74999999 0 0 0 -0.08398,-0.0078 0.74999999,0.74999999 0 0 0 -0.0293,0.0078 h -4.476563 c -0.813332,0 -1.328445,-0.279168 -1.691406,-0.6875 C 27.947585,28.160027 27.75,27.585911 27.75,27.001953 c 0,-0.583958 0.197585,-1.156121 0.560547,-1.564453 0.362961,-0.408332 0.878074,-0.6875 1.691406,-0.6875 z" />
    </g>
  </g>
</svg>
