<?xml version="1.0" encoding="UTF-8" standalone="no"?>
<svg
   xmlns:dc="http://purl.org/dc/elements/1.1/"
   xmlns:cc="http://creativecommons.org/ns#"
   xmlns:rdf="http://www.w3.org/1999/02/22-rdf-syntax-ns#"
   xmlns:svg="http://www.w3.org/2000/svg"
   xmlns="http://www.w3.org/2000/svg"
   xmlns:sodipodi="http://sodipodi.sourceforge.net/DTD/sodipodi-0.dtd"
   xmlns:inkscape="http://www.inkscape.org/namespaces/inkscape"
   id="SVGDoc"
   width="1587.3997"
   height="894.065"
   version="1.1"
   viewBox="0 0 1587.3997 894.065"
   inkscape:version="0.91 r13725"
   sodipodi:docname="frame1mask.svg">
  <metadata
     id="metadata4150">
    <rdf:RDF>
      <cc:Work
         rdf:about="">
        <dc:format>image/svg+xml</dc:format>
        <dc:type
           rdf:resource="http://purl.org/dc/dcmitype/StillImage" />
        <dc:title></dc:title>
      </cc:Work>
    </rdf:RDF>
  </metadata>
  <sodipodi:namedview
     pagecolor="#ffffff"
     bordercolor="#666666"
     borderopacity="1"
     objecttolerance="10"
     gridtolerance="10"
     guidetolerance="10"
     inkscape:pageopacity="0"
     inkscape:pageshadow="2"
     inkscape:window-width="2560"
     inkscape:window-height="1369"
     id="namedview4148"
     showgrid="false"
     fit-margin-top="0"
     fit-margin-left="0"
     fit-margin-right="0"
     fit-margin-bottom="0"
     inkscape:zoom="0.57400722"
     inkscape:cx="710.2485"
     inkscape:cy="180.39535"
     inkscape:window-x="-8"
     inkscape:window-y="-8"
     inkscape:window-maximized="1"
     inkscape:current-layer="SVGDoc" />
  <defs
     id="defs4137" />
  <desc
     id="desc4139">Generated with Avocode.</desc>
  <g
     id="g4141"
     transform="translate(-9.30033,-63.967369)">
    <g
       transform="matrix(0,-1,1,0,347,1315)"
       id="g4143">
      <title
         id="title4145">Path 11785</title>
      <path
         d="m 432.72278,-337.19965 0,0 -74.5,70.55127 0,0 0,731.58276 0,0 21.37109,20.24023 0,0 0,57.67236 0,0 -21.37109,20.23828 0,0 0,51.38916 0,0 21.37109,20.24219 0,0 0,62.69775 0,0 -21.37109,20.24121 0,0 0,47.6167 0,0 21.37109,20.24121 0,0 0,58.92676 0,0 -21.37109,20.2417 0,0 0,324.26707 0,0 31.44531,29.7803 0,0 89.49414,0 0,0 32.17188,30.4707 0,0 680.05669,0 0,0 58.3867,-74.0728 0,0 0,-969.28414 0,0 -21.3926,-20.49707 0,0 0,-283.2041 0,0 21.3926,-20.2627 0,0 0,-195.20264 0,0 -25.2129,-23.87622 0,0 z"
         stroke-miterlimit="20"
         id="path"
         inkscape:connector-curvature="0"
         style="fill:#000000;fill-opacity:1;stroke:#fefefe;stroke-width:1;stroke-linecap:butt;stroke-linejoin:miter;stroke-miterlimit:20;stroke-dashoffset:0;stroke-opacity:1" />
    </g>
  </g>
</svg>
