<?xml version="1.0" encoding="UTF-8"?>
<svg id="SVGDoc" width="1662" height="968" xmlns="http://www.w3.org/2000/svg" version="1.1"
     xmlns:xlink="http://www.w3.org/1999/xlink" xmlns:avocode="https://avocode.com/" viewBox="0 0 1662 968">
    <defs></defs>
    <desc>Generated with Avocode.</desc>
    <g>
        <g transform="rotate(-90 831 484)">
            <title>Path 11785</title>
            <path d="M432.32483,-336.79895v0l-74.5,70.55127v0v759.18188v0l21.37109,20.24023v0v57.67236v0l-21.37109,20.23828v0v51.38916v0l21.37109,20.24219v0v62.69775v0l-21.37109,20.24121v0v47.6167v0l21.37109,20.24121v0v58.92676v0l-21.37109,20.2417v0v351.86621v0l31.44531,29.78027v0h89.49609v0l32.16992,30.4707v0h735.25586v0l58.38574,-74.07275v0v-996.8833v0l-21.39355,-20.49707v0v-283.2041v0l21.39355,-20.2627v0v-222.80176v0l-25.21387,-23.87622v0z"
                  fill-opacity="0" fill="#ffffff" stroke-dashoffset="0" stroke-linejoin="miter" stroke-linecap="butt"  vector-effect="non-scaling-stroke"
                  stroke-opacity="1" stroke="#fefefe" stroke-miterlimit="20" stroke-width="1"></path>
        </g>
    </g>
</svg>