<?xml version="1.0" encoding="UTF-8"?>
<svg id="SVGDoc" width="428" height="540" xmlns="http://www.w3.org/2000/svg" version="1.1"
     xmlns:xlink="http://www.w3.org/1999/xlink" xmlns:avocode="https://avocode.com/" viewBox="0 0 428 540" preserveAspectRatio="none">
    <defs></defs>
    <desc>Generated with Avocode.</desc>
    <g>
        <g>
            <title>Path 11613</title>
            <path d="M53.63867,15.5v0l-38.13867,36.11719v0v165.88281v0l10.94141,10.36133v0v29.52441v0l-10.94141,10.36035v0v26.30762v0l10.94141,10.3623v0v32.09668v0l-10.94141,10.3623v0v24.37598v0l10.94141,10.3623v0v30.16602v0l-10.94141,10.3623v0v71.33887v0l16.09766,15.24512v0h45.81641v0l16.46875,15.59863v0h289.2168v0l29.88867,-37.91992v0v-199.02832v0l-10.95117,-10.49316v0v-159.1084v0l10.95117,-10.37305v0v-79.67871v0l-12.90625,-12.22266v0z"
                  fill-opacity="0" fill="#ffffff" stroke-dashoffset="0" stroke-linejoin="miter" stroke-linecap="butt"
                  stroke-opacity="1" stroke="#9fa2a9" stroke-miterlimit="20" stroke-width="1.5" vector-effect="non-scaling-stroke"></path>
        </g>
    </g>
</svg>