<?xml version="1.0" encoding="UTF-8"?>
<svg id="SVGDoc" width="122" height="61" xmlns="http://www.w3.org/2000/svg" version="1.1" xmlns:xlink="http://www.w3.org/1999/xlink" xmlns:avocode="https://avocode.com/" viewBox="0 0 122 61"><defs></defs><desc>Generated with Avocode.</desc><g><g><title>logo</title><g><title>Path 13</title><path d="M116.26782,23.03879c0,0.16534 0,0.27558 0.02753,0.35825c0,3.80303 0,7.57851 0,11.38155c0,0.41338 -0.05509,0.82676 -0.13773,1.21257c-0.16537,0.77163 -0.68896,1.29524 -1.46063,1.35035c-0.96447,0.08268 -1.9566,0.08268 -2.92114,-0.02755c-0.93699,-0.11024 -1.51572,-0.79919 -1.62595,-1.76373c-0.02755,-0.22047 -0.05511,-0.46849 -0.05511,-0.68896c0,-2.28733 0,-4.57466 0,-6.862c0,-0.16535 0.0827,-0.35825 0.1929,-0.44093c1.90149,-1.46059 3.85818,-2.92118 5.78723,-4.38176c0.02756,-0.02756 0.0827,-0.05511 0.1929,-0.13779zM110.03966,20.42075c0,-0.1929 0,-0.30314 0.02753,-0.44093c0,-4.05107 0,-8.10213 0,-12.15319c0,-0.35826 0.02759,-0.74407 0.11029,-1.10233c0.16535,-0.79919 0.68897,-1.35036 1.51569,-1.43303c0.93695,-0.08267 1.90152,-0.08267 2.8385,0.02756c1.07474,0.11024 1.65348,0.82675 1.70859,1.92908c0.02756,0.55116 0.02756,1.10232 0.02756,1.65349c0,2.14955 0,4.32665 0,6.50375c0,0.24803 -0.08267,0.41338 -0.27557,0.55117c-1.87396,1.40547 -3.72034,2.81094 -5.5943,4.21641c-0.11026,0.05511 -0.19294,0.13779 -0.35828,0.24802zM115.05523,0.02766c-1.29519,0 -2.56289,0 -3.85812,0.05512c-0.63382,0.05512 -1.29523,0.08268 -1.92908,0.19291c-2.28735,0.41337 -3.80304,1.70861 -4.492,3.94083c-0.33072,1.07477 -0.41336,2.20466 -0.41336,3.30699c0,9.20445 0,18.43647 0,27.66848c0,0.74407 0.05511,1.48815 0.16534,2.23222c0.19288,1.29523 0.68897,2.48024 1.62595,3.44478c1.15744,1.15744 2.61801,1.65349 4.18881,1.70861c1.70865,0.05512 3.44479,0.02755 5.181,0.02755c0.52362,-0.02755 1.0196,-0.08267 1.51572,-0.16534c2.23224,-0.41338 3.74787,-1.6535 4.46442,-3.85816c0.35822,-1.10234 0.44095,-2.23222 0.44095,-3.36211c0,-9.25957 0.02753,-18.49159 0,-27.75116c0,-0.85431 -0.08273,-1.70861 -0.22046,-2.53536c-0.46854,-2.67315 -2.09448,-4.24397 -4.76758,-4.71246c-0.63388,-0.11024 -1.26773,-0.13779 -1.90158,-0.19291z" fill="#f2f2f2" fill-opacity="1"></path></g><g><title>Path 14</title><path d="M27.42007,5.23616c0,0 0,0.00001 0,0.00001c-0.00001,0 -0.00001,0 -0.00002,0zM27.42007,5.23617c0.11022,0 0.22045,-0.02756 0.33068,-0.05512c1.10233,0 2.20466,0 3.30699,0c1.62594,0.02756 2.48025,0.8543 2.59048,2.48024c0.02757,0.44093 0.02757,0.85431 0.02757,1.29524c0,2.81094 0.02756,5.59432 0,8.40526c0,0.55116 -0.08268,1.10233 -0.22047,1.62594c-0.27558,0.96454 -0.96454,1.5157 -1.95663,1.54326c-1.3228,0.05512 -2.61803,0.02756 -3.94083,0.02756c-0.02756,0 -0.08267,0 -0.13779,-0.02756c0,-5.09828 0,-10.16898 0,-15.29482zM32.79396,0.02763c-3.66526,0 -7.35807,0 -11.02332,0c-0.02755,0.1378 -0.05511,0.24803 -0.05511,0.38582c0,13.94448 0,27.86139 0,41.80587c0,0.11024 0.02756,0.24803 0.02756,0.35826c1.90152,0 3.77549,0 5.67699,0c0,-5.73211 0,-11.43667 0,-17.16879c0.1378,0 0.24802,0 0.35826,0c0.88186,0 1.79129,0.02756 2.70071,0c0.27559,0 0.38582,0.08268 0.44094,0.35826c1.04721,4.87781 2.12197,9.72807 3.19675,14.60587c0.16535,0.74408 0.3307,1.4606 0.49604,2.20467c1.79129,0 3.52747,0 5.31875,0c-0.02757,-0.05512 -0.02757,-0.11024 -0.02757,-0.16535c-0.79917,-3.66524 -1.62593,-7.33049 -2.45267,-10.99574c-0.4685,-2.09442 -0.93699,-4.16129 -1.40548,-6.25572c-0.02756,-0.1929 -0.02756,-0.30314 0.19292,-0.41337c1.12988,-0.55117 1.9015,-1.46059 2.39755,-2.59048c0.49605,-1.10233 0.71652,-2.28734 0.71652,-3.4999c0.02755,-3.96839 0.02755,-7.90922 0,-11.85005c-0.02756,-0.63384 -0.11024,-1.29524 -0.22047,-1.92908c-0.49604,-2.67315 -2.03931,-4.21641 -4.65734,-4.6849c-0.55117,-0.11023 -1.12989,-0.11023 -1.68105,-0.16535z" fill="#f2f2f2" fill-opacity="1"></path></g><g><title>Path 15</title><path d="M70.5763,5.26371c1.3228,0 2.61803,-0.05512 3.8857,0c1.07477,0.05512 1.73617,0.79919 1.87396,1.87396c0.02755,0.22047 0.05511,0.46849 0.05511,0.68896c0,3.85815 0,7.68875 0,11.54691c0,0.41337 -0.02756,0.79919 -0.1102,1.18501c-0.16538,0.8543 -0.77167,1.40547 -1.62598,1.43303c-1.35034,0.02755 -2.7007,0 -4.0786,0c0,-5.56677 0,-11.13353 0,-16.72786zM64.87173,0.02765c0,0.11024 0,0.24803 0,0.38582c0,13.94448 0,27.86139 0,41.77831c0,0.1378 0,0.24803 0,0.38582c1.92908,0 3.80306,0 5.70456,0c0,-5.12583 0,-10.22411 0,-15.37751c0.16533,0 0.27559,0 0.41338,0c1.37793,0 2.75583,0.02756 4.13376,0c0.68896,0 1.40546,-0.05512 2.09442,-0.16535c2.31488,-0.41337 3.85815,-1.73617 4.51953,-4.05106c0.30316,-1.01966 0.3858,-2.09443 0.3858,-3.14164c0,-4.13374 0.02756,-8.23992 0,-12.3461c-0.02756,-0.74408 -0.08267,-1.51571 -0.1929,-2.25978c-0.44091,-2.8385 -2.09442,-4.51955 -4.90533,-5.0156c-0.6063,-0.11024 -1.24015,-0.13779 -1.84644,-0.19291c-3.4448,0 -6.862,0 -10.30678,0z" fill="#f2f2f2" fill-opacity="1"></path></g><g><title>Path 16</title><path d="M10.38908,0.02765c0.63384,0.05512 1.24012,0.08267 1.87396,0.19291c2.70071,0.46849 4.32665,2.09443 4.79513,4.79514c0.11023,0.71651 0.19291,1.43303 0.19291,2.1771c0.02756,1.54326 0,3.05896 0,4.60223c0,0.11023 0,0.19291 -0.02756,0.30314c-1.87396,0 -3.74792,0 -5.677,0c0,-0.13779 0,-0.24802 0,-0.35826c0,-1.29524 0,-2.59048 0,-3.91327c0,-0.13779 0,-0.27558 0,-0.44093c-0.08267,-1.35035 -0.77163,-2.06687 -2.12199,-2.14954c-0.55116,-0.02756 -1.10233,-0.02756 -1.6535,-0.02756c-1.35035,0.05512 -2.01175,0.74407 -2.09443,2.09443c0,0.13779 0,0.27558 0,0.44093c0,9.03911 0,18.05066 0,27.08976c0,0.38582 0.02756,0.77163 0.13779,1.15744c0.22047,0.88186 0.79919,1.37791 1.68105,1.43303c0.71652,0.02756 1.46059,0.05511 2.1771,0c1.04721,-0.05512 1.70861,-0.6614 1.81884,-1.70861c0.08267,-0.71651 0.05512,-1.43303 0.08267,-2.14954c0,-0.30314 0,-0.60629 0,-0.90943c1.90152,0 3.77548,0 5.64944,0c0,0.02756 0.02756,0.02756 0.02756,0.05512c-0.02756,1.51571 -0.02756,3.03141 -0.13779,4.51955c-0.05512,0.68895 -0.27558,1.37791 -0.55116,2.03931c-0.77163,1.8464 -2.25977,2.8385 -4.18885,3.16919c-0.60628,0.11023 -1.21256,0.16535 -1.8464,0.16535c-1.48815,0.02757 -2.97629,0.02757 -4.46444,-0.02755c-0.63384,-0.02756 -1.24012,-0.13779 -1.8464,-0.30314c-2.31489,-0.63384 -3.55501,-2.28734 -3.99595,-4.57467c-0.13779,-0.68896 -0.19291,-1.43303 -0.19291,-2.12199c0,-9.50759 0,-19.01519 0,-28.49523c0,-1.18501 0.16535,-2.34245 0.60628,-3.41722c0.74408,-2.01174 2.25978,-3.08652 4.29909,-3.44477c0.6614,-0.11023 1.3228,-0.13779 1.95664,-0.19291c1.15745,0 2.34245,0 3.4999,0z" fill="#f2f2f2" fill-opacity="1"></path></g><g><title>Path 17</title><path d="M61.48206,0.02765c0.02759,0.11023 0.0827,0.24802 0.05513,0.35826c-0.46848,1.8464 -0.93697,3.66525 -1.40547,5.51165c-1.76372,6.91712 -3.55502,13.83424 -5.31873,20.75137c-0.05513,0.19291 -0.05513,0.38582 -0.08269,0.57872c0,4.96049 0,9.94852 0,14.90902c0,0.13779 0,0.27557 0,0.41337c-1.90152,0 -3.77548,0 -5.67699,0c0,-0.13779 0,-0.27558 0,-0.41337c0,-4.54712 -0.02756,-9.09423 0,-13.61378c0,-1.12989 -0.13782,-2.20466 -0.44096,-3.27943c-2.17708,-8.29503 -4.35419,-16.59007 -6.50374,-24.8851c-0.02756,-0.11023 -0.02756,-0.22047 -0.02756,-0.35826c1.84641,0 3.69283,0 5.56679,0c1.433,6.17305 2.86603,12.31854 4.29907,18.49159c0.02756,0 0.08266,0 0.11021,0c0.02757,-0.11024 0.05511,-0.19291 0.0827,-0.30314c1.26767,-5.95258 2.50778,-11.90517 3.77547,-17.85775c0.02757,-0.11023 0.11023,-0.22047 0.19292,-0.3307c1.81883,0.02756 3.61012,0.02756 5.37384,0.02756z" fill="#f2f2f2" fill-opacity="1"></path></g><g><title>Path 18</title><path d="M101.08327,0.02765c0,0.08267 0.02756,0.16535 0.02756,0.24802c0,1.57082 0,3.14164 0,4.74002c0,0.05512 0,0.11023 -0.02756,0.19291c-1.81885,0 -3.61014,0 -5.45651,0c0,12.48389 0,24.91266 0,37.36899c-1.90152,0 -3.77548,0 -5.677,0c0,-12.42877 0,-24.85754 0,-37.34143c-1.81885,0 -3.61014,0 -5.40143,0c-0.02756,-0.11023 -0.02756,-0.16535 -0.02756,-0.22047c0,-1.59838 0,-3.19676 0,-4.79514c0,-0.05512 0.02756,-0.13779 0.02756,-0.19291c5.53918,0 11.02332,0 16.53494,0z" fill="#f2f2f2" fill-opacity="1"></path></g><g><title>Path 19</title><path d="M116.15768,60.60069c0,-2.45267 0,-4.90538 0,-7.33049c-0.02759,0 -0.02759,0 -0.05515,-0.02756c-0.05511,0.11021 -0.13776,0.22046 -0.19287,0.3307c-1.32285,2.25975 -2.64563,4.51953 -3.94089,6.77933c-0.1102,0.22046 -0.24799,0.27557 -0.496,0.27557c-0.66141,-0.02756 -1.29526,-0.02756 -1.95667,0c-0.35828,0.02756 -0.52359,-0.11021 -0.66141,-0.38582c-0.93695,-1.62593 -1.84641,-3.2243 -2.78336,-4.82269c-0.41336,-0.71651 -0.85431,-1.40547 -1.35034,-2.09444c0,2.42513 0,4.82272 0,7.27539c-0.13779,0 -0.24805,0.02756 -0.35828,0.02756c-1.70862,0 -3.44479,0 -5.15338,0c-0.2756,0 -0.35828,-0.05511 -0.35828,-0.35826c0,-4.90536 0,-9.78317 0,-14.68855c0,-0.27557 0.08267,-0.35826 0.35828,-0.35826c2.17709,0 4.32663,0 6.50372,0c0.24805,0 0.38583,0.08269 0.49606,0.2756c1.32281,2.28734 2.67316,4.57465 3.99594,6.88954c0.05511,0.11023 0.13785,0.22046 0.22049,0.38583c0.08264,-0.1378 0.16534,-0.24803 0.22046,-0.35828c1.35034,-2.3149 2.67313,-4.60222 4.0235,-6.9171c0.1102,-0.19292 0.24802,-0.2756 0.46848,-0.2756c2.17709,0 4.32666,0 6.50378,0c0.27557,0 0.35822,0.08269 0.35822,0.35826c0,4.90538 0,9.78319 0,14.68855c0,0.22046 0,0.35826 -0.27557,0.35826c-1.7637,0 -3.55499,0 -5.31876,0c-0.08261,0 -0.13779,0 -0.24799,-0.02756z" fill="#c83a1a" fill-opacity="1"></path></g><g><title>Path 20</title><path d="M11.57408,52.8017c0.24802,-0.44093 0.49605,-0.85431 0.71652,-1.24013c1.15745,-2.01175 2.34245,-4.0235 3.4999,-6.03525c0.11023,-0.19292 0.22047,-0.27559 0.46849,-0.27559c2.1771,0 4.3542,0 6.53131,0c0.27558,0 0.3307,0.08267 0.3307,0.33069c0,4.90538 0,9.81076 0,14.71613c0,0.08267 0,0.16533 -0.02756,0.30313c-1.92908,0 -3.8306,0 -5.78723,0c0,-2.42513 0,-4.87782 0,-7.30293c-0.02756,0 -0.05511,-0.02756 -0.08267,-0.02756c-0.05512,0.08267 -0.11024,0.16536 -0.16535,0.27557c-1.32279,2.25978 -2.64559,4.51955 -3.94083,6.8069c-0.13779,0.24802 -0.30314,0.33069 -0.57872,0.33069c-0.6614,-0.02756 -1.3228,-0.02756 -1.98419,0c-0.24803,0 -0.41337,-0.08267 -0.52361,-0.30313c-0.90942,-1.59839 -1.8464,-3.19678 -2.78338,-4.79517c-0.44093,-0.74405 -0.90942,-1.51567 -1.43303,-2.23219c0,0.11023 0,0.22046 0,0.33072c0,2.20464 0,4.40929 0,6.61394c0,0.2756 -0.05512,0.38583 -0.35826,0.38583c-1.70861,-0.02756 -3.41722,0 -5.12583,0c-0.11023,0 -0.22047,0 -0.3307,-0.02756c0,-5.12584 0,-10.22411 0,-15.34995c0.13779,0 0.27558,0 0.38582,0c2.12199,0 4.21641,0 6.3384,0c0.30314,0 0.46849,0.11023 0.63384,0.35826c1.3228,2.28732 2.64559,4.54712 3.96839,6.83444c0.11023,0.02756 0.16535,0.13779 0.24802,0.30315z" fill="#c83a1a" fill-opacity="1"></path></g><g><title>Path 21</title><path d="M69.7771,45.27831c0,1.76373 0,3.49988 0,5.26361c1.84639,0 3.63766,0 5.48405,0c0,-1.7637 0,-3.49988 0,-5.26361c1.95667,0 3.85815,0 5.78726,0c0,5.09827 0,10.19655 0,15.32239c-1.90155,0 -3.80307,0 -5.75969,0c0,-2.06686 0,-4.1613 0,-6.25574c-1.84639,0 -3.63771,0 -5.48409,0c0,2.06688 0,4.1613 0,6.25574c-0.13779,0 -0.24802,0.02756 -0.35825,0.02756c-1.7086,0 -3.44478,0 -5.15338,0c-0.27562,0 -0.35828,-0.05511 -0.35828,-0.35826c0,-4.90536 0,-9.78317 0,-14.68854c0,-0.22047 0,-0.35828 0.27559,-0.35828c1.79129,0 3.58257,0 5.34628,0c0.08267,0.02757 0.13779,0.05513 0.22049,0.05513z" fill="#c83a1a" fill-opacity="1"></path></g><g><title>Path 22</title><path d="M32.24279,54.04182c0.30315,-1.5157 0.63383,-3.00386 0.93698,-4.492c0.02755,0 0.0551,0 0.08267,0c0.30315,1.48814 0.60628,2.94873 0.93698,4.492c-0.6614,0 -1.29523,0 -1.95663,0zM24.82961,60.62823c0,0 0,-0.00001 0,-0.00001c-0.00001,0 -0.00001,0 -0.00002,0zM24.82961,60.62822c0.1929,0 0.30314,0 0.3858,0.02756c1.65349,0 3.33455,0 4.98805,0c0.55116,0 0.55116,0 0.63384,-0.55116c0.11022,-0.63385 0.1929,-1.26768 0.27557,-1.9015c0.02756,-0.22049 0.11024,-0.2756 0.3307,-0.2756c0.88188,0 1.73618,0 2.59048,0c0.35827,0 0.74407,0 1.15745,0c0.05513,0.16535 0.08268,0.33071 0.11024,0.49605c0.11023,0.63383 0.19291,1.24013 0.27557,1.87396c0.02758,0.27559 0.1378,0.35826 0.41338,0.35826c1.70862,0 3.44478,0 5.18096,0c0.11023,0 0.1929,0 0.33069,0c-0.02754,-0.13777 -0.02754,-0.19288 -0.05511,-0.27557c-0.33069,-1.46059 -0.6614,-2.94875 -1.01965,-4.40932c-0.7992,-3.41722 -1.62594,-6.83447 -2.42513,-10.25168c-0.08267,-0.35826 -0.22046,-0.46849 -0.57871,-0.46849c-2.8385,0 -5.67701,0 -8.5155,0c-0.1378,0 -0.24803,0 -0.41337,0c-1.24013,5.12584 -2.42513,10.22409 -3.66526,15.37749z" fill="#c83a1a" fill-opacity="1"></path></g><g><title>Path 23</title><path d="M88.65454,48.55773c0,0.68896 0,1.3228 0,1.98419c0.13776,0 0.24802,0 0.3858,0c2.42514,0 4.87781,0 7.30292,0c0.30313,0 0.38583,0.08267 0.38583,0.38582c-0.02756,0.9921 -0.02756,2.01176 0,3.00385c0,0.30315 -0.0827,0.3858 -0.35825,0.3858c-2.4527,0 -4.90536,0 -7.35812,0c-0.11017,0 -0.19287,0 -0.33066,0c0,0.85432 0,1.7086 0,2.56293c2.89362,0 5.78723,0 8.7084,0c0,1.26768 0,2.48024 0,3.72037c-0.13779,0 -0.24802,0 -0.35828,0c-4.6022,0 -9.20444,0 -13.80664,0c-0.30316,0 -0.41339,-0.08267 -0.41339,-0.41338c0,-4.85023 0,-9.72806 0,-14.57832c0,-0.27557 0.05511,-0.3858 0.3858,-0.3858c4.62979,0 9.25958,0 13.8894,0c0.1102,0 0.19287,0 0.33069,0c0,0.11023 0.02753,0.1929 0.02753,0.30315c0,0.88187 0,1.76372 0,2.64557c0,0.30318 -0.08264,0.35828 -0.38577,0.35828c-2.64563,0 -5.31876,0 -7.96436,0c-0.16537,0.02756 -0.27557,0.02756 -0.44092,0.02756z" fill="#c83a1a" fill-opacity="1"></path></g><g><title>Path 24</title><path d="M62.61196,45.25075c-0.08269,0.16534 -0.1378,0.24802 -0.22046,0.35826c-1.95665,2.9487 -3.91327,5.89743 -5.86992,8.84616c-0.11023,0.16537 -0.16534,0.41339 -0.19289,0.60631c0,1.84641 0,3.66524 0,5.53922c-2.48026,0 -4.98807,0 -7.55098,0c0,-0.13779 0,-0.24802 0,-0.3858c0,-1.70862 0,-3.41725 0,-5.12587c0,-0.248 -0.08269,-0.55116 -0.22047,-0.77162c-1.26767,-1.95663 -2.59047,-3.91327 -3.8857,-5.8699c-0.63385,-0.96454 -1.29526,-1.95663 -1.92909,-2.92116c-0.05511,-0.08269 -0.08266,-0.13782 -0.16534,-0.24803c0.1378,0 0.24803,-0.02757 0.35828,-0.02757c2.01173,0 4.0235,0 6.00769,0c0.24802,0 0.38582,0.05511 0.52359,0.2756c0.88188,1.35033 1.79129,2.67313 2.70073,3.99593c0.11021,0.16536 0.22047,0.3307 0.35825,0.52361c0.08266,-0.11023 0.1378,-0.1929 0.19289,-0.27559c0.937,-1.40547 1.84644,-2.81094 2.78342,-4.21642c0.13777,-0.1929 0.27557,-0.27559 0.49602,-0.27559c2.09445,0 4.16133,0 6.25575,0c0.08267,-0.02753 0.19289,-0.02753 0.35825,-0.02753z" fill="#c83a1a" fill-opacity="1"></path></g></g></g></svg>