<svg width="21" height="22" viewBox="0 0 21 22" fill="none" xmlns="http://www.w3.org/2000/svg">
<path d="M10.7131 5.92126C10.7131 5.49407 10.7131 5.02148 10.7131 4.72117C10.7131 4.68109 10.7051 4.64141 10.6895 4.6045C10.6739 4.56758 10.651 4.53418 10.6222 4.50628C10.5934 4.47837 10.5594 4.45654 10.522 4.44206C10.4846 4.42759 10.4447 4.42077 10.4046 4.42202L10.081 4.43133C10.0032 4.43316 9.92921 4.46535 9.87483 4.52104C9.82045 4.57673 9.79002 4.65148 9.79004 4.72932C9.79004 5.24963 9.79004 7.18305 9.79004 7.66495C9.79008 7.69679 9.79993 7.72785 9.81826 7.75389C9.83659 7.77992 9.86251 7.79967 9.89247 7.81045L10.5827 8.05838C10.5971 8.06362 10.6126 8.0653 10.6278 8.0633C10.643 8.06129 10.6575 8.05566 10.6701 8.04686C10.6826 8.03807 10.6929 8.02638 10.7 8.01279C10.707 7.99919 10.7108 7.98409 10.7108 7.96875L10.7131 5.92126Z" fill="#F2F2F2" fill-opacity="0.8" stroke="#F2F2F2" stroke-opacity="0.8" stroke-width="0.2"/>
<path d="M12.4504 5.92123C12.4504 5.49404 12.4504 5.42188 12.4504 5.12156C12.4504 5.08148 12.4424 5.0418 12.4268 5.00489C12.4112 4.96797 12.3883 4.93457 12.3595 4.90667C12.3307 4.87876 12.2967 4.85693 12.2593 4.84245C12.2219 4.82798 12.182 4.82116 12.1419 4.82241L11.8183 4.83172C11.7405 4.83355 11.6665 4.86575 11.6121 4.92143C11.5578 4.97712 11.5273 5.05187 11.5273 5.12971C11.5273 5.65119 11.5273 7.82788 11.5273 8.30862C11.5274 8.34046 11.5372 8.37152 11.5556 8.39755C11.5739 8.42359 11.5998 8.44334 11.6298 8.45412L12.32 8.70205C12.3344 8.70729 12.3499 8.70897 12.3651 8.70697C12.3803 8.70496 12.3948 8.69933 12.4074 8.69053C12.4199 8.68174 12.4302 8.67005 12.4373 8.65645C12.4444 8.64286 12.4481 8.62775 12.4481 8.61242L12.4504 5.92123Z" fill="#F2F2F2" fill-opacity="0.8" stroke="#F2F2F2" stroke-opacity="0.8" stroke-width="0.2"/>
<path d="M10.7186 16.1155V14.068C10.7186 14.0527 10.7149 14.0376 10.7078 14.024C10.7007 14.0104 10.6904 13.9987 10.6779 13.9899C10.6653 13.9811 10.6508 13.9755 10.6356 13.9735C10.6204 13.9715 10.605 13.9732 10.5905 13.9784L9.90028 14.2263C9.87032 14.2371 9.8444 14.2569 9.82607 14.2829C9.80774 14.3089 9.79789 14.34 9.79785 14.3718C9.79785 14.8526 9.79785 16.786 9.79785 17.3075C9.79783 17.3853 9.82826 17.46 9.88265 17.5157C9.93703 17.5714 10.011 17.6036 10.0889 17.6054L10.4124 17.6148C10.4525 17.616 10.4924 17.6092 10.5298 17.5947C10.5672 17.5802 10.6013 17.5584 10.63 17.5305C10.6588 17.5026 10.6817 17.4692 10.6973 17.4323C10.7129 17.3954 10.7209 17.3557 10.7209 17.3156C10.7209 17.0153 10.7209 16.5415 10.7209 16.1155" fill="#F2F2F2" fill-opacity="0.8"/>
<path d="M10.7186 16.1155V14.068C10.7186 14.0527 10.7149 14.0376 10.7078 14.024C10.7007 14.0104 10.6904 13.9987 10.6779 13.9899C10.6653 13.9811 10.6508 13.9755 10.6356 13.9735C10.6204 13.9715 10.605 13.9732 10.5905 13.9784L9.90028 14.2263C9.87032 14.2371 9.8444 14.2569 9.82607 14.2829C9.80774 14.3089 9.79789 14.34 9.79785 14.3718C9.79785 14.8526 9.79785 16.786 9.79785 17.3075C9.79783 17.3853 9.82826 17.46 9.88265 17.5157C9.93703 17.5714 10.011 17.6036 10.0889 17.6054L10.4124 17.6148C10.4525 17.616 10.4924 17.6092 10.5298 17.5947C10.5672 17.5802 10.6013 17.5584 10.63 17.5305C10.6588 17.5026 10.6817 17.4692 10.6973 17.4323C10.7129 17.3954 10.7209 17.3557 10.7209 17.3156C10.7209 17.0153 10.7209 16.5415 10.7209 16.1155" stroke="#F2F2F2" stroke-opacity="0.8" stroke-width="0.2"/>
<path d="M12.45 16.1147V13.4235C12.45 13.4082 12.4463 13.3931 12.4392 13.3795C12.4321 13.3659 12.4219 13.3542 12.4093 13.3454C12.3968 13.3366 12.3823 13.3309 12.3671 13.3289C12.3519 13.3269 12.3364 13.3286 12.322 13.3339L11.6317 13.5818C11.6018 13.5926 11.5759 13.6123 11.5575 13.6384C11.5392 13.6644 11.5293 13.6955 11.5293 13.7273C11.5293 14.208 11.5293 16.3847 11.5293 16.9062C11.5293 16.984 11.5597 17.0588 11.6141 17.1145C11.6685 17.1702 11.7425 17.2024 11.8203 17.2042L12.1439 17.2135C12.184 17.2147 12.2239 17.2079 12.2612 17.1935C12.2986 17.179 12.3327 17.1571 12.3615 17.1292C12.3902 17.1013 12.4131 17.0679 12.4287 17.031C12.4443 16.9941 12.4524 16.9544 12.4524 16.9144C12.4524 16.614 12.4524 16.5419 12.4524 16.1147" fill="#F2F2F2" fill-opacity="0.8"/>
<path d="M12.45 16.1147V13.4235C12.45 13.4082 12.4463 13.3931 12.4392 13.3795C12.4321 13.3659 12.4219 13.3542 12.4093 13.3454C12.3968 13.3366 12.3823 13.3309 12.3671 13.3289C12.3519 13.3269 12.3364 13.3286 12.322 13.3339L11.6317 13.5818C11.6018 13.5926 11.5759 13.6123 11.5575 13.6384C11.5392 13.6644 11.5293 13.6955 11.5293 13.7273C11.5293 14.208 11.5293 16.3847 11.5293 16.9062C11.5293 16.984 11.5597 17.0588 11.6141 17.1145C11.6685 17.1702 11.7425 17.2024 11.8203 17.2042L12.1439 17.2135C12.184 17.2147 12.2239 17.2079 12.2612 17.1935C12.2986 17.179 12.3327 17.1571 12.3615 17.1292C12.3902 17.1013 12.4131 17.0679 12.4287 17.031C12.4443 16.9941 12.4524 16.9544 12.4524 16.9144C12.4524 16.614 12.4524 16.5419 12.4524 16.1147" stroke="#F2F2F2" stroke-opacity="0.8" stroke-width="0.2"/>
<path d="M10.5 1.80084C12.3187 1.80084 14.0966 2.34015 15.6088 3.35059C17.1211 4.36102 18.2997 5.79719 18.9957 7.47748C19.6917 9.15776 19.8738 11.0067 19.519 12.7905C19.1642 14.5743 18.2884 16.2128 17.0023 17.4988C15.7163 18.7849 14.0778 19.6607 12.294 20.0155C10.5102 20.3703 8.66126 20.1882 6.98097 19.4922C5.30068 18.7962 3.86452 17.6176 2.85408 16.1053C1.84365 14.5931 1.30433 12.8152 1.30433 10.9965C1.30772 8.5587 2.27764 6.22172 4.00142 4.49793C5.72521 2.77414 8.0622 1.80423 10.5 1.80084M10.5 1C8.52219 1 6.58879 1.58649 4.9443 2.6853C3.29981 3.78412 2.01809 5.3459 1.26121 7.17316C0.504333 9.00042 0.306299 11.0111 0.692152 12.9509C1.078 14.8907 2.03041 16.6725 3.42894 18.0711C4.82746 19.4696 6.60929 20.422 8.5491 20.8078C10.4889 21.1937 12.4996 20.9957 14.3268 20.2388C16.1541 19.4819 17.7159 18.2002 18.8147 16.5557C19.9135 14.9112 20.5 12.9778 20.5 11C20.5 8.34783 19.4464 5.80429 17.5711 3.92893C15.6957 2.05357 13.1522 1 10.5 1" fill="#F2F2F2" fill-opacity="0.8"/>
<path d="M10.5 1.80084C12.3187 1.80084 14.0966 2.34015 15.6088 3.35059C17.1211 4.36102 18.2997 5.79719 18.9957 7.47748C19.6917 9.15776 19.8738 11.0067 19.519 12.7905C19.1642 14.5743 18.2884 16.2128 17.0023 17.4988C15.7163 18.7849 14.0778 19.6607 12.294 20.0155C10.5102 20.3703 8.66126 20.1882 6.98097 19.4922C5.30068 18.7962 3.86452 17.6176 2.85408 16.1053C1.84365 14.5931 1.30433 12.8152 1.30433 10.9965C1.30772 8.5587 2.27764 6.22172 4.00142 4.49793C5.72521 2.77414 8.0622 1.80423 10.5 1.80084M10.5 1C8.52219 1 6.58879 1.58649 4.9443 2.6853C3.29981 3.78412 2.01809 5.3459 1.26121 7.17316C0.504333 9.00042 0.306299 11.0111 0.692152 12.9509C1.078 14.8907 2.03041 16.6725 3.42894 18.0711C4.82746 19.4696 6.60929 20.422 8.5491 20.8078C10.4889 21.1937 12.4996 20.9957 14.3268 20.2388C16.1541 19.4819 17.7159 18.2002 18.8147 16.5557C19.9135 14.9112 20.5 12.9778 20.5 11C20.5 8.34783 19.4464 5.80429 17.5711 3.92893C15.6957 2.05357 13.1522 1 10.5 1" stroke="#F2F2F2" stroke-opacity="0.8" stroke-width="0.2"/>
<path d="M6.39603 14.3644V7.56196C6.39595 7.53743 6.40184 7.51325 6.41318 7.4915C6.42453 7.46975 6.44099 7.45109 6.46114 7.43711C6.4813 7.42314 6.50456 7.41428 6.5289 7.41129C6.55325 7.40829 6.57796 7.41127 6.6009 7.41995L15.75 10.848C15.7787 10.8589 15.8034 10.8782 15.8208 10.9035C15.8382 10.9287 15.8475 10.9587 15.8475 10.9894C15.8475 11.0201 15.8382 11.05 15.8208 11.0753C15.8034 11.1005 15.7787 11.1199 15.75 11.1308L14.7769 11.5091C14.7417 11.5228 14.7027 11.5228 14.6675 11.5091L7.59496 8.85982C7.57202 8.85115 7.54731 8.84817 7.52297 8.85116C7.49862 8.85415 7.47537 8.86302 7.45521 8.87699C7.43505 8.89097 7.41859 8.90963 7.40725 8.93138C7.3959 8.95313 7.39002 8.97731 7.39009 9.00183V12.9595C7.39003 12.9837 7.39578 13.0075 7.40686 13.0291C7.41793 13.0506 7.434 13.0691 7.45373 13.0832C7.47346 13.0972 7.49626 13.1063 7.52023 13.1097C7.5442 13.1131 7.56863 13.1106 7.59147 13.1026L10.0242 12.268C10.0537 12.2576 10.0792 12.2383 10.0972 12.2127C10.1152 12.1872 10.1249 12.1567 10.1249 12.1255C10.1249 12.0942 10.1152 12.0637 10.0972 12.0382C10.0792 12.0126 10.0537 11.9933 10.0242 11.9829L8.55527 11.4195C8.52626 11.4085 8.50133 11.3889 8.48384 11.3633C8.46635 11.3377 8.45715 11.3073 8.45749 11.2763L8.46447 10.5313C8.46451 10.5068 8.47054 10.4826 8.48202 10.4609C8.49351 10.4391 8.51011 10.4205 8.5304 10.4067C8.55068 10.3928 8.57404 10.3841 8.59845 10.3813C8.62286 10.3784 8.64759 10.3816 8.6705 10.3905L12.9575 12.0352C12.987 12.0457 13.0125 12.065 13.0305 12.0906C13.0485 12.1161 13.0582 12.1466 13.0582 12.1778C13.0582 12.2091 13.0485 12.2396 13.0305 12.2651C13.0125 12.2906 12.987 12.31 12.9575 12.3204L6.58809 14.5053C6.56525 14.5133 6.54082 14.5157 6.51685 14.5123C6.49289 14.5089 6.47008 14.4998 6.45036 14.4858C6.43063 14.4718 6.41455 14.4532 6.40348 14.4317C6.39241 14.4102 6.38666 14.3863 6.38672 14.3621" fill="#F2F2F2" fill-opacity="0.8"/>
<path d="M6.39603 14.3644V7.56196C6.39595 7.53743 6.40184 7.51325 6.41318 7.4915C6.42453 7.46975 6.44099 7.45109 6.46114 7.43711C6.4813 7.42314 6.50456 7.41428 6.5289 7.41129C6.55325 7.40829 6.57796 7.41127 6.6009 7.41995L15.75 10.848C15.7787 10.8589 15.8034 10.8782 15.8208 10.9035C15.8382 10.9287 15.8475 10.9587 15.8475 10.9894C15.8475 11.0201 15.8382 11.05 15.8208 11.0753C15.8034 11.1005 15.7787 11.1199 15.75 11.1308L14.7769 11.5091C14.7417 11.5228 14.7027 11.5228 14.6675 11.5091L7.59496 8.85982C7.57202 8.85115 7.54731 8.84817 7.52297 8.85116C7.49862 8.85415 7.47537 8.86302 7.45521 8.87699C7.43505 8.89097 7.41859 8.90963 7.40725 8.93138C7.3959 8.95313 7.39002 8.97731 7.39009 9.00183V12.9595C7.39003 12.9837 7.39578 13.0075 7.40686 13.0291C7.41793 13.0506 7.434 13.0691 7.45373 13.0832C7.47346 13.0972 7.49626 13.1063 7.52023 13.1097C7.5442 13.1131 7.56863 13.1106 7.59147 13.1026L10.0242 12.268C10.0537 12.2576 10.0792 12.2383 10.0972 12.2127C10.1152 12.1872 10.1249 12.1567 10.1249 12.1255C10.1249 12.0942 10.1152 12.0637 10.0972 12.0382C10.0792 12.0126 10.0537 11.9933 10.0242 11.9829L8.55527 11.4195C8.52626 11.4085 8.50133 11.3889 8.48384 11.3633C8.46635 11.3377 8.45715 11.3073 8.45749 11.2763L8.46447 10.5313C8.46451 10.5068 8.47054 10.4826 8.48202 10.4609C8.49351 10.4391 8.51011 10.4205 8.5304 10.4067C8.55068 10.3928 8.57404 10.3841 8.59845 10.3813C8.62286 10.3784 8.64759 10.3816 8.6705 10.3905L12.9575 12.0352C12.987 12.0457 13.0125 12.065 13.0305 12.0906C13.0485 12.1161 13.0582 12.1466 13.0582 12.1778C13.0582 12.2091 13.0485 12.2396 13.0305 12.2651C13.0125 12.2906 12.987 12.31 12.9575 12.3204L6.58809 14.5053C6.56525 14.5133 6.54082 14.5157 6.51685 14.5123C6.49289 14.5089 6.47008 14.4998 6.45036 14.4858C6.43063 14.4718 6.41455 14.4532 6.40348 14.4317C6.39241 14.4102 6.38666 14.3863 6.38672 14.3621" stroke="#F2F2F2" stroke-opacity="0.8" stroke-width="0.2"/>
</svg>
