<svg width="24" height="24" viewBox="0 0 24 24" fill="none" xmlns="http://www.w3.org/2000/svg">
<path d="M12.1971 7.637C12.1971 7.27 12.1971 6.864 12.1971 6.606C12.1971 6.57157 12.1902 6.53748 12.1768 6.50577C12.1633 6.47405 12.1437 6.44536 12.119 6.42139C12.0943 6.39742 12.065 6.37865 12.0329 6.36622C12.0008 6.35378 11.9665 6.34793 11.9321 6.349L11.6541 6.357C11.5872 6.35857 11.5236 6.38623 11.4769 6.43407C11.4302 6.48191 11.404 6.54613 11.4041 6.613C11.4041 7.06 11.4041 8.721 11.4041 9.135C11.4041 9.16236 11.4126 9.18904 11.4283 9.21141C11.444 9.23378 11.4663 9.25075 11.4921 9.26L12.0851 9.473C12.0974 9.4775 12.1107 9.47895 12.1238 9.47723C12.1368 9.4755 12.1493 9.47066 12.1601 9.46311C12.1709 9.45555 12.1797 9.44551 12.1858 9.43383C12.1919 9.42215 12.195 9.40917 12.1951 9.396L12.1971 7.637Z" fill="#00D62E" stroke="#00D62E" stroke-width="0.2"/>
<path d="M13.688 7.63797C13.688 7.27097 13.688 7.20897 13.688 6.95097C13.688 6.91654 13.6811 6.88245 13.6677 6.85074C13.6543 6.81903 13.6347 6.79033 13.6099 6.76636C13.5852 6.74239 13.5559 6.72363 13.5238 6.71119C13.4917 6.69876 13.4574 6.6929 13.423 6.69397L13.145 6.70197C13.0782 6.70354 13.0146 6.7312 12.9679 6.77904C12.9211 6.82688 12.895 6.8911 12.895 6.95797C12.895 7.40597 12.895 9.27597 12.895 9.68897C12.8951 9.71633 12.9035 9.74301 12.9193 9.76538C12.935 9.78775 12.9573 9.80472 12.983 9.81397L13.576 10.027C13.5884 10.0315 13.6017 10.0329 13.6147 10.0312C13.6278 10.0295 13.6403 10.0246 13.651 10.0171C13.6618 10.0095 13.6706 9.99948 13.6767 9.9878C13.6828 9.97612 13.686 9.96314 13.686 9.94997L13.688 7.63797Z" fill="#00D62E" stroke="#00D62E" stroke-width="0.2"/>
<path d="M12.2001 16.3961V14.6371C12.2 14.6239 12.1969 14.611 12.1908 14.5993C12.1847 14.5876 12.1759 14.5776 12.1651 14.57C12.1543 14.5624 12.1418 14.5576 12.1288 14.5559C12.1157 14.5542 12.1024 14.5556 12.0901 14.5601L11.4971 14.7731C11.4713 14.7824 11.4491 14.7993 11.4333 14.8217C11.4176 14.8441 11.4091 14.8707 11.4091 14.8981C11.4091 15.3111 11.4091 16.9721 11.4091 17.4201C11.409 17.487 11.4352 17.5512 11.4819 17.599C11.5286 17.6469 11.5922 17.6745 11.6591 17.6761L11.9371 17.6841C11.9715 17.6852 12.0058 17.6793 12.0379 17.6669C12.07 17.6545 12.0993 17.6357 12.124 17.6117C12.1487 17.5877 12.1683 17.5591 12.1818 17.5273C12.1952 17.4956 12.2021 17.4615 12.2021 17.4271C12.2021 17.1691 12.2021 16.7621 12.2021 16.3961" fill="#00D62E"/>
<path d="M12.2001 16.3961V14.6371C12.2 14.6239 12.1969 14.611 12.1908 14.5993C12.1847 14.5876 12.1759 14.5776 12.1651 14.57C12.1543 14.5624 12.1418 14.5576 12.1288 14.5559C12.1157 14.5542 12.1024 14.5556 12.0901 14.5601L11.4971 14.7731C11.4713 14.7824 11.4491 14.7993 11.4333 14.8217C11.4176 14.8441 11.4091 14.8707 11.4091 14.8981C11.4091 15.3111 11.4091 16.9721 11.4091 17.4201C11.409 17.487 11.4352 17.5512 11.4819 17.599C11.5286 17.6469 11.5922 17.6745 11.6591 17.6761L11.9371 17.6841C11.9715 17.6852 12.0058 17.6793 12.0379 17.6669C12.07 17.6545 12.0993 17.6357 12.124 17.6117C12.1487 17.5877 12.1683 17.5591 12.1818 17.5273C12.1952 17.4956 12.2021 17.4615 12.2021 17.4271C12.2021 17.1691 12.2021 16.7621 12.2021 16.3961" stroke="#00D62E" stroke-width="0.2"/>
<path d="M13.688 16.3949V14.0829C13.688 14.0697 13.6848 14.0568 13.6787 14.0451C13.6726 14.0334 13.6638 14.0234 13.653 14.0158C13.6422 14.0082 13.6298 14.0034 13.6167 14.0017C13.6036 14 13.5904 14.0014 13.578 14.0059L12.985 14.2189C12.9592 14.2282 12.937 14.2451 12.9212 14.2675C12.9055 14.2899 12.897 14.3165 12.897 14.3439C12.897 14.7569 12.897 16.6269 12.897 17.0749C12.897 17.1418 12.9231 17.206 12.9698 17.2538C13.0165 17.3017 13.0801 17.3293 13.147 17.3309L13.425 17.3389C13.4594 17.34 13.4937 17.3341 13.5258 17.3217C13.5579 17.3093 13.5872 17.2905 13.6119 17.2665C13.6366 17.2425 13.6563 17.2139 13.6697 17.1821C13.6831 17.1504 13.69 17.1163 13.69 17.0819C13.69 16.8239 13.69 16.7619 13.69 16.3949" fill="#00D62E"/>
<path d="M13.688 16.3949V14.0829C13.688 14.0697 13.6848 14.0568 13.6787 14.0451C13.6726 14.0334 13.6638 14.0234 13.653 14.0158C13.6422 14.0082 13.6298 14.0034 13.6167 14.0017C13.6036 14 13.5904 14.0014 13.578 14.0059L12.985 14.2189C12.9592 14.2282 12.937 14.2451 12.9212 14.2675C12.9055 14.2899 12.897 14.3165 12.897 14.3439C12.897 14.7569 12.897 16.6269 12.897 17.0749C12.897 17.1418 12.9231 17.206 12.9698 17.2538C13.0165 17.3017 13.0801 17.3293 13.147 17.3309L13.425 17.3389C13.4594 17.34 13.4937 17.3341 13.5258 17.3217C13.5579 17.3093 13.5872 17.2905 13.6119 17.2665C13.6366 17.2425 13.6563 17.2139 13.6697 17.1821C13.6831 17.1504 13.69 17.1163 13.69 17.0819C13.69 16.8239 13.69 16.7619 13.69 16.3949" stroke="#00D62E" stroke-width="0.2"/>
<path d="M12.013 4.09694C13.5755 4.09694 15.1029 4.56026 16.402 5.42833C17.7012 6.29639 18.7137 7.5302 19.3117 8.97374C19.9096 10.4173 20.066 12.0057 19.7612 13.5382C19.4564 15.0706 18.704 16.4782 17.5991 17.5831C16.4943 18.6879 15.0867 19.4403 13.5542 19.7451C12.0218 20.05 10.4333 19.8935 8.9898 19.2956C7.54627 18.6977 6.31246 17.6851 5.44439 16.3859C4.57633 15.0868 4.113 13.5594 4.113 11.9969C4.11591 9.90262 4.94916 7.89491 6.43007 6.41401C7.91098 4.9331 9.91869 4.09985 12.013 4.09694ZM12.013 3.40894C10.3139 3.40894 8.65288 3.91279 7.2401 4.85678C5.82731 5.80077 4.72618 7.1425 4.07595 8.7123C3.42572 10.2821 3.25559 12.0095 3.58707 13.676C3.91856 15.3425 4.73677 16.8732 5.93825 18.0747C7.13972 19.2762 8.67049 20.0944 10.337 20.4259C12.0035 20.7574 13.7308 20.5872 15.3006 19.937C16.8704 19.2868 18.2122 18.1856 19.1562 16.7728C20.1002 15.3601 20.604 13.6991 20.604 11.9999C20.604 9.72146 19.6989 7.53631 18.0878 5.92518C16.4766 4.31406 14.2915 3.40894 12.013 3.40894Z" fill="#00D62E"/>
<path d="M12.013 4.09694C13.5755 4.09694 15.1029 4.56026 16.402 5.42833C17.7012 6.29639 18.7137 7.5302 19.3117 8.97374C19.9096 10.4173 20.066 12.0057 19.7612 13.5382C19.4564 15.0706 18.704 16.4782 17.5991 17.5831C16.4943 18.6879 15.0867 19.4403 13.5542 19.7451C12.0218 20.05 10.4333 19.8935 8.9898 19.2956C7.54627 18.6977 6.31246 17.6851 5.44439 16.3859C4.57633 15.0868 4.113 13.5594 4.113 11.9969C4.11591 9.90262 4.94916 7.89491 6.43007 6.41401C7.91098 4.9331 9.91869 4.09985 12.013 4.09694M12.013 3.40894C10.3139 3.40894 8.65288 3.91279 7.2401 4.85678C5.82731 5.80077 4.72618 7.1425 4.07595 8.7123C3.42572 10.2821 3.25559 12.0095 3.58707 13.676C3.91856 15.3425 4.73677 16.8732 5.93825 18.0747C7.13972 19.2762 8.67049 20.0944 10.337 20.4259C12.0035 20.7574 13.7308 20.5872 15.3006 19.937C16.8704 19.2868 18.2122 18.1856 19.1562 16.7728C20.1002 15.3601 20.604 13.6991 20.604 11.9999C20.604 9.72146 19.6989 7.53631 18.0878 5.92518C16.4766 4.31406 14.2915 3.40894 12.013 3.40894" stroke="#00D62E" stroke-width="0.2"/>
<path d="M8.487 14.8909V9.04691C8.48694 9.02584 8.49199 9.00507 8.50174 8.98639C8.51148 8.9677 8.52562 8.95167 8.54294 8.93966C8.56026 8.92766 8.58024 8.92004 8.60115 8.91747C8.62207 8.9149 8.6433 8.91746 8.663 8.92492L16.523 11.8699C16.5476 11.8793 16.5688 11.8959 16.5838 11.9176C16.5988 11.9393 16.6068 11.9651 16.6068 11.9914C16.6068 12.0178 16.5988 12.0435 16.5838 12.0652C16.5688 12.0869 16.5476 12.1035 16.523 12.1129L15.687 12.4379C15.6568 12.4496 15.6232 12.4496 15.593 12.4379L9.517 10.1619C9.4973 10.1545 9.47607 10.1519 9.45515 10.1545C9.43424 10.157 9.41426 10.1647 9.39694 10.1767C9.37962 10.1887 9.36548 10.2047 9.35574 10.2234C9.34599 10.2421 9.34094 10.2628 9.341 10.2839V13.6839C9.34095 13.7047 9.34589 13.7252 9.3554 13.7437C9.36492 13.7622 9.37873 13.7781 9.39567 13.7902C9.41262 13.8022 9.43221 13.81 9.4528 13.813C9.47339 13.8159 9.49438 13.8138 9.514 13.8069L11.604 13.0899C11.6293 13.0809 11.6512 13.0643 11.6667 13.0424C11.6822 13.0205 11.6905 12.9943 11.6905 12.9674C11.6905 12.9406 11.6822 12.9144 11.6667 12.8924C11.6512 12.8705 11.6293 12.8539 11.604 12.8449L10.342 12.3609C10.3171 12.3515 10.2957 12.3346 10.2806 12.3126C10.2656 12.2906 10.2577 12.2646 10.258 12.2379L10.264 11.5979C10.264 11.5768 10.2692 11.556 10.2791 11.5374C10.2889 11.5187 10.3032 11.5027 10.3206 11.4908C10.3381 11.4789 10.3581 11.4714 10.3791 11.469C10.4001 11.4666 10.4213 11.4693 10.441 11.4769L14.124 12.8899C14.1493 12.8989 14.1712 12.9155 14.1867 12.9374C14.2022 12.9594 14.2105 12.9856 14.2105 13.0124C14.2105 13.0393 14.2022 13.0655 14.1867 13.0874C14.1712 13.1093 14.1493 13.1259 14.124 13.1349L8.652 15.0119C8.63238 15.0188 8.61139 15.0209 8.5908 15.018C8.57021 15.015 8.55062 15.0072 8.53367 14.9952C8.51673 14.9831 8.50292 14.9672 8.4934 14.9487C8.48389 14.9302 8.47895 14.9097 8.479 14.8889" fill="#00D62E"/>
<path d="M8.487 14.8909V9.04691C8.48694 9.02584 8.49199 9.00507 8.50174 8.98639C8.51148 8.9677 8.52562 8.95167 8.54294 8.93966C8.56026 8.92766 8.58024 8.92004 8.60115 8.91747C8.62207 8.9149 8.6433 8.91746 8.663 8.92492L16.523 11.8699C16.5476 11.8793 16.5688 11.8959 16.5838 11.9176C16.5988 11.9393 16.6068 11.9651 16.6068 11.9914C16.6068 12.0178 16.5988 12.0435 16.5838 12.0652C16.5688 12.0869 16.5476 12.1035 16.523 12.1129L15.687 12.4379C15.6568 12.4496 15.6232 12.4496 15.593 12.4379L9.517 10.1619C9.49729 10.1545 9.47607 10.1519 9.45515 10.1545C9.43424 10.157 9.41426 10.1647 9.39694 10.1767C9.37962 10.1887 9.36548 10.2047 9.35574 10.2234C9.34599 10.2421 9.34094 10.2628 9.341 10.2839V13.6839C9.34095 13.7047 9.34589 13.7252 9.3554 13.7437C9.36492 13.7622 9.37873 13.7781 9.39567 13.7902C9.41262 13.8022 9.43221 13.81 9.4528 13.813C9.47339 13.8159 9.49438 13.8138 9.514 13.8069L11.604 13.0899C11.6293 13.0809 11.6512 13.0643 11.6667 13.0424C11.6822 13.0205 11.6905 12.9943 11.6905 12.9674C11.6905 12.9406 11.6822 12.9144 11.6667 12.8924C11.6512 12.8705 11.6293 12.8539 11.604 12.8449L10.342 12.3609C10.3171 12.3515 10.2957 12.3346 10.2806 12.3126C10.2656 12.2906 10.2577 12.2646 10.258 12.2379L10.264 11.5979C10.264 11.5768 10.2692 11.556 10.2791 11.5374C10.2889 11.5187 10.3032 11.5027 10.3206 11.4908C10.3381 11.4789 10.3581 11.4714 10.3791 11.469C10.4001 11.4666 10.4213 11.4693 10.441 11.4769L14.124 12.8899C14.1493 12.8989 14.1712 12.9155 14.1867 12.9374C14.2022 12.9594 14.2105 12.9856 14.2105 13.0124C14.2105 13.0393 14.2022 13.0655 14.1867 13.0874C14.1712 13.1093 14.1493 13.1259 14.124 13.1349L8.652 15.0119C8.63238 15.0188 8.61139 15.0209 8.5908 15.018C8.57021 15.015 8.55062 15.0072 8.53367 14.9952C8.51673 14.9831 8.50292 14.9672 8.4934 14.9487C8.48389 14.9302 8.47895 14.9097 8.479 14.8889" stroke="#00D62E" stroke-width="0.2"/>
</svg>
