<svg width="32" height="32" viewBox="0 0 32 32" fill="none" xmlns="http://www.w3.org/2000/svg">
<path d="M24.8485 31.5L7.15149 31.5L0.500005 24.6356L0.499999 6.99538L7.14357 0.5L24.8564 0.499999L31.5 6.99538L31.5 24.6356L24.8485 31.5Z" stroke="#F2F2F2" stroke-opacity="0.8"/>
<path d="M23.4241 21.3887C23.0199 20.4313 22.4333 19.5615 21.6969 18.828C20.9629 18.0924 20.0933 17.5059 19.1362 17.1009C19.1277 17.0966 19.1191 17.0945 19.1105 17.0902C20.4455 16.1259 21.3134 14.5552 21.3134 12.783C21.3134 9.84732 18.9348 7.46875 15.9991 7.46875C13.0634 7.46875 10.6848 9.84732 10.6848 12.783C10.6848 14.5552 11.5527 16.1259 12.8877 17.0923C12.8791 17.0966 12.8705 17.0987 12.8619 17.103C11.9019 17.508 11.0405 18.0887 10.3012 18.8302C9.56561 19.5643 8.9791 20.4338 8.57409 21.3909C8.17621 22.3279 7.96162 23.3324 7.94195 24.3502C7.94138 24.373 7.94539 24.3958 7.95375 24.4171C7.9621 24.4384 7.97464 24.4578 7.99062 24.4742C8.00659 24.4906 8.02569 24.5036 8.04677 24.5124C8.06785 24.5213 8.0905 24.5259 8.11338 24.5259H9.39909C9.49338 24.5259 9.56838 24.4509 9.57052 24.3587C9.61338 22.7045 10.2777 21.1552 11.4519 19.9809C12.6669 18.7659 14.2805 18.0973 15.9991 18.0973C17.7177 18.0973 19.3312 18.7659 20.5462 19.9809C21.7205 21.1552 22.3848 22.7045 22.4277 24.3587C22.4298 24.453 22.5048 24.5259 22.5991 24.5259H23.8848C23.9077 24.5259 23.9303 24.5213 23.9514 24.5124C23.9725 24.5036 23.9916 24.4906 24.0076 24.4742C24.0235 24.4578 24.0361 24.4384 24.0444 24.4171C24.0528 24.3958 24.0568 24.373 24.0562 24.3502C24.0348 23.3259 23.8227 22.3295 23.4241 21.3887ZM15.9991 16.4687C15.0155 16.4687 14.0898 16.0852 13.3934 15.3887C12.6969 14.6923 12.3134 13.7666 12.3134 12.783C12.3134 11.7995 12.6969 10.8737 13.3934 10.1773C14.0898 9.48089 15.0155 9.09732 15.9991 9.09732C16.9827 9.09732 17.9084 9.48089 18.6048 10.1773C19.3012 10.8737 19.6848 11.7995 19.6848 12.783C19.6848 13.7666 19.3012 14.6923 18.6048 15.3887C17.9084 16.0852 16.9827 16.4687 15.9991 16.4687Z" fill="#F2F2F2" fill-opacity="0.8"/>
</svg>
