<svg width="24" height="24" viewBox="0 0 24 24" fill="none" xmlns="http://www.w3.org/2000/svg">
<path d="M8.50426 10.5638L11.9999 7.06827L15.4973 10.5656L17.5313 8.53158L11.9999 3L6.47035 8.52978L8.50426 10.5638ZM3 11.9997L5.03406 9.96566L7.06799 11.9996L5.03395 14.0336L3 11.9997ZM8.50426 13.4362L11.9999 16.9317L15.4972 13.4345L17.5322 15.4674L17.5313 15.4685L11.9999 21L6.47017 15.4704L6.46729 15.4675L8.50426 13.4362ZM16.9321 12.0008L18.9661 9.96678L21.0001 12.0007L18.966 14.0348L16.9321 12.0008Z" fill="#F3BA2F"/>
<path d="M14.0631 11.999H14.064L12 9.93506L10.4747 11.4604H10.4746L10.2994 11.6357L9.93794 11.9972L9.93506 12L9.93794 12.003L12 14.0652L14.064 12.0012L14.065 12L14.0631 11.999Z" fill="#F3BA2F"/>
</svg>
