<svg width="51" height="51" viewBox="0 0 51 51" fill="none" xmlns="http://www.w3.org/2000/svg">
<path d="M32.8266 21.1502V19.0002H30.6766V17.5002H32.8266V15.3252H34.3266V17.5002H36.5016V19.0002H34.3266V21.1502H32.8266ZM15.8516 35.5002C15.4516 35.5002 15.1016 35.3502 14.8016 35.0502C14.5016 34.7502 14.3516 34.4002 14.3516 34.0002V21.1752C14.3516 20.7919 14.5016 20.446 14.8016 20.1377C15.1016 19.8294 15.4516 19.6752 15.8516 19.6752H19.5266L21.3516 17.5002H28.3516V19.0002H22.0516L20.2266 21.1752H15.8516V34.0002H32.8516V23.5002H34.3516V34.0002C34.3516 34.4002 34.1974 34.7502 33.8891 35.0502C33.5807 35.3502 33.2349 35.5002 32.8516 35.5002H15.8516ZM24.3516 31.8502C25.5516 31.8502 26.5599 31.4419 27.3766 30.6252C28.1932 29.8085 28.6016 28.7919 28.6016 27.5752C28.6016 26.3752 28.1932 25.371 27.3766 24.5627C26.5599 23.7544 25.5516 23.3502 24.3516 23.3502C23.1349 23.3502 22.1224 23.7544 21.3141 24.5627C20.5057 25.371 20.1016 26.3752 20.1016 27.5752C20.1016 28.7919 20.5057 29.8085 21.3141 30.6252C22.1224 31.4419 23.1349 31.8502 24.3516 31.8502ZM24.3516 30.3502C23.5516 30.3502 22.8932 30.0877 22.3766 29.5627C21.8599 29.0377 21.6016 28.3752 21.6016 27.5752C21.6016 26.7919 21.8599 26.1419 22.3766 25.6252C22.8932 25.1085 23.5516 24.8502 24.3516 24.8502C25.1349 24.8502 25.7891 25.1085 26.3141 25.6252C26.8391 26.1419 27.1016 26.7919 27.1016 27.5752C27.1016 28.3752 26.8391 29.0377 26.3141 29.5627C25.7891 30.0877 25.1349 30.3502 24.3516 30.3502Z" fill="#F2F2F2" fill-opacity="0.8"/>
</svg>
