<svg width="20" height="19" viewBox="0 0 20 19" fill="none" xmlns="http://www.w3.org/2000/svg">
<path d="M13.8799 11.3944C14.3081 11.3944 14.6893 11.2274 15.0233 10.8934C15.3573 10.5594 15.5243 10.1697 15.5243 9.72431C15.5243 9.29607 15.3573 8.91921 15.0233 8.59375C14.6893 8.26829 14.3081 8.10556 13.8799 8.10556C13.4517 8.10556 13.0705 8.26829 12.7365 8.59375C12.4025 8.91921 12.2354 9.29607 12.2354 9.72431C12.2354 10.1697 12.4025 10.5594 12.7365 10.8934C13.0705 11.2274 13.4517 11.3944 13.8799 11.3944ZM1.75212 16.0965C1.75212 16.0965 1.75212 16.3235 1.75212 16.7774C1.75212 17.2314 1.75212 17.4583 1.75212 17.4583V2.04167C1.75212 2.04167 1.75212 2.27292 1.75212 2.73542C1.75212 3.19792 1.75212 3.42917 1.75212 3.42917C1.75212 3.42917 1.75212 3.75463 1.75212 4.40556C1.75212 5.05648 1.75212 5.87014 1.75212 6.84653V12.6792C1.75212 13.6556 1.75212 14.4692 1.75212 15.1201C1.75212 15.7711 1.75212 16.0965 1.75212 16.0965ZM1.75212 19C1.35813 19 1.00269 18.8458 0.685796 18.5375C0.368898 18.2292 0.210449 17.8694 0.210449 17.4583V2.04167C0.210449 1.64769 0.368898 1.29225 0.685796 0.975347C1.00269 0.658449 1.35813 0.5 1.75212 0.5H17.1688C17.5799 0.5 17.9396 0.658449 18.2479 0.975347C18.5563 1.29225 18.7104 1.64769 18.7104 2.04167V5.48472H17.1688V2.04167H1.75212V17.4583H17.1688V14.041H18.7104V17.4583C18.7104 17.8694 18.5563 18.2292 18.2479 18.5375C17.9396 18.8458 17.5799 19 17.1688 19H1.75212ZM10.9507 14.5549C10.3683 14.5549 9.90582 14.3836 9.56323 14.041C9.22063 13.6984 9.04934 13.2444 9.04934 12.6792V6.84653C9.04934 6.26412 9.22063 5.8059 9.56323 5.47188C9.90582 5.13785 10.3683 4.97083 10.9507 4.97083H17.8882C18.4706 4.97083 18.9331 5.13785 19.2757 5.47188C19.6183 5.8059 19.7896 6.26412 19.7896 6.84653V12.6792C19.7896 13.2444 19.6183 13.6984 19.2757 14.041C18.9331 14.3836 18.4706 14.5549 17.8882 14.5549H10.9507ZM18.2479 13.0132V6.5125H10.591V13.0132H18.2479Z" fill="#00D62E"/>
</svg>
