<svg width="45" height="45" viewBox="0 0 45 45" fill="none" xmlns="http://www.w3.org/2000/svg">
<path fill-rule="evenodd" clip-rule="evenodd" d="M18.9367 14.0088C18.875 13.9989 18.8122 13.9973 18.75 14.0043C17.5135 14.1404 15.6315 14.8199 14.52 15.4334C14.4466 15.4742 14.3809 15.5279 14.3259 15.592C13.8643 16.1293 13.4452 17.0047 13.1174 17.8338C12.7792 18.6837 12.4998 19.5816 12.3425 20.2311C11.822 22.3411 11.5383 24.8747 11.5 27.278C11.4988 27.3979 11.5271 27.5163 11.5824 27.6222C12.0235 28.4797 12.9747 29.2743 13.9275 29.8549C14.8905 30.4431 16.0153 30.907 16.921 30.9967C17.0295 31.0073 17.1389 30.9921 17.2407 30.9524C17.3425 30.9127 17.4339 30.8495 17.5076 30.7678C17.7341 30.5179 18.1193 29.9343 18.4104 29.4808C18.5427 29.2743 18.6677 29.0768 18.7647 28.9196C19.7381 29.0992 20.9584 29.204 22.5022 29.204C24.043 29.204 25.2634 29.0992 26.2367 28.9196C26.3338 29.0783 26.4573 29.2743 26.5896 29.4793C26.8807 29.9343 27.2659 30.5179 27.4938 30.7678C27.5676 30.8495 27.6589 30.9127 27.7607 30.9524C27.8625 30.9921 27.9719 31.0073 28.0805 30.9967C28.9862 30.907 30.1094 30.4431 31.0725 29.8549C32.0252 29.2743 32.9765 28.4797 33.4191 27.6222C33.4738 27.5161 33.5016 27.3978 33.4999 27.278C33.4632 24.8747 33.1779 22.3396 32.6604 20.2296C32.4524 19.4147 32.1926 18.6144 31.8826 17.8338C31.5547 17.0047 31.1357 16.1278 30.6755 15.592C30.6201 15.5277 30.5539 15.474 30.48 15.4334C29.3699 14.8199 27.4879 14.1404 26.2499 14.0043C26.1883 13.9975 26.126 13.999 26.0647 14.0088C25.7876 14.063 25.5277 14.1853 25.3075 14.3649C24.8143 14.769 24.4155 15.2797 24.1401 15.8599C23.5952 15.8164 23.0488 15.7949 22.5022 15.7956C21.9111 15.7956 21.3642 15.818 20.8599 15.8584C20.5842 15.2787 20.1855 14.7686 19.6925 14.3649C19.4727 14.1855 19.2133 14.0633 18.9367 14.0088ZM27.6747 28.5425C27.8816 28.8669 28.0938 29.1877 28.3113 29.5048C28.8935 29.3701 29.636 29.0558 30.3476 28.6218C31.146 28.1355 31.7797 27.5743 32.0855 27.0999C32.037 24.8462 31.7635 22.5057 31.2916 20.5783C31.0993 19.8276 30.8596 19.0903 30.5741 18.371C30.28 17.6257 29.9639 16.9942 29.6889 16.6321C28.7333 16.1278 27.2262 15.595 26.2441 15.4499C26.2145 15.4681 26.186 15.4881 26.1588 15.5097C26.037 15.6073 25.9256 15.7176 25.8265 15.8389C25.7685 15.9092 25.7131 15.9816 25.6604 16.0559C26.1088 16.1397 26.5087 16.24 26.8631 16.3507C27.8687 16.665 28.5936 17.099 28.9479 17.5794C29.0602 17.7318 29.1084 17.9233 29.082 18.1119C29.0555 18.3005 28.9565 18.4707 28.8068 18.585C28.7326 18.6416 28.6483 18.6828 28.5585 18.7062C28.4687 18.7296 28.3753 18.7348 28.2835 18.7214C28.0982 18.6945 27.931 18.5937 27.8187 18.4413C27.732 18.3246 27.3541 18.0073 26.4484 17.723C25.5736 17.4507 24.2871 17.2322 22.5022 17.2322C20.7173 17.2322 19.4293 17.4507 18.5559 17.7245C17.6502 18.0088 17.2724 18.3231 17.1856 18.4413C17.13 18.5168 17.0604 18.5804 16.9806 18.6284C16.9009 18.6765 16.8126 18.7081 16.7209 18.7214C16.5356 18.7484 16.3473 18.6993 16.1976 18.585C16.1235 18.5284 16.061 18.4575 16.0138 18.3763C15.9666 18.2951 15.9355 18.2053 15.9224 18.1119C15.8959 17.9233 15.9442 17.7318 16.0565 17.5794C16.4108 17.0975 17.1356 16.6665 18.1413 16.3522C18.4942 16.24 18.8941 16.1412 19.3411 16.0574C19.2882 15.9823 19.2323 15.9094 19.1735 15.8389C19.0748 15.7177 18.964 15.6074 18.8426 15.5097C18.8149 15.4881 18.7859 15.4681 18.7559 15.4499C17.7752 15.595 16.2682 16.1278 15.3125 16.6321C15.0361 16.9957 14.7214 17.6257 14.4259 18.371C14.1127 19.1641 13.8525 19.9977 13.7099 20.5783C13.2364 22.5057 12.963 24.8462 12.9159 27.0999C13.2217 27.5758 13.854 28.1355 14.6523 28.6233C15.3654 29.0573 16.1064 29.3716 16.6901 29.5048C16.9098 29.1892 17.1221 28.8684 17.3268 28.5425C16.1726 28.125 15.5536 27.5519 15.1508 26.9383C15.0994 26.8597 15.0638 26.7716 15.0459 26.6789C15.028 26.5863 15.0282 26.491 15.0465 26.3984C15.0648 26.3059 15.1008 26.2179 15.1525 26.1396C15.2042 26.0612 15.2705 25.9939 15.3478 25.9417C15.425 25.8894 15.5116 25.8531 15.6026 25.8349C15.6936 25.8167 15.7873 25.8169 15.8782 25.8355C15.9691 25.8541 16.0555 25.8908 16.1326 25.9434C16.2096 25.996 16.2756 26.0636 16.327 26.1422C16.7093 26.7288 17.7149 27.7674 22.5022 27.7674C27.2909 27.7674 28.2951 26.7288 28.6774 26.1422C28.7811 25.9834 28.9426 25.8731 29.1262 25.8355C29.3098 25.7979 29.5006 25.8361 29.6566 25.9417C29.8126 26.0472 29.921 26.2115 29.9579 26.3984C29.9949 26.5854 29.9573 26.7796 29.8536 26.9383C29.4508 27.5519 28.8303 28.1265 27.6747 28.5425ZM17.4738 21.7695C17.8326 21.3774 18.3192 21.1559 18.8265 21.1529C19.3337 21.1559 19.8204 21.3774 20.1791 21.7695C20.5364 22.1631 20.7378 22.6943 20.7378 23.248C20.7378 23.8017 20.5364 24.3329 20.1791 24.7265C19.8204 25.1186 19.3337 25.3401 18.8265 25.3431C18.5715 25.3403 18.3198 25.2842 18.0871 25.1781C17.8544 25.072 17.6456 24.9183 17.4738 24.7265C17.1115 24.3227 16.9121 23.7948 16.9151 23.248C16.9151 22.6943 17.1165 22.1631 17.4738 21.7695ZM26.1779 21.1529C25.6707 21.1559 25.184 21.3774 24.8252 21.7695C24.468 22.1631 24.2665 22.6943 24.2665 23.248C24.2665 23.8017 24.468 24.3329 24.8252 24.7265C25.184 25.1186 25.6707 25.3401 26.1779 25.3431C26.6852 25.3401 27.1718 25.1186 27.5306 24.7265C27.8878 24.3329 28.0893 23.8017 28.0893 23.248C28.0893 22.6943 27.8878 22.1631 27.5306 21.7695C27.3588 21.5777 27.15 21.424 26.9173 21.3179C26.6846 21.2118 26.4329 21.1557 26.1779 21.1529Z" fill="#F2F2F2" fill-opacity="0.8"/>
</svg>
