<svg width="20" height="20" viewBox="0 0 20 20" fill="none" xmlns="http://www.w3.org/2000/svg">
<g id="icons">
<path id="Vector" d="M16.6667 9.99999V17.8333C16.6667 17.899 16.6538 17.964 16.6286 18.0247C16.6035 18.0853 16.5667 18.1404 16.5202 18.1869C16.4738 18.2333 16.4187 18.2701 16.358 18.2953C16.2974 18.3204 16.2323 18.3333 16.1667 18.3333H3.83335C3.76769 18.3333 3.70267 18.3204 3.64201 18.2953C3.58135 18.2701 3.52623 18.2333 3.4798 18.1869C3.43337 18.1404 3.39654 18.0853 3.37141 18.0247C3.34629 17.964 3.33335 17.899 3.33335 17.8333V9.99999M10 18.3333V5.83332M17.8334 5.83332H2.16669C2.03408 5.83332 1.9069 5.886 1.81313 5.97977C1.71937 6.07354 1.66669 6.20071 1.66669 6.33332V9.49999C1.66669 9.6326 1.71937 9.75977 1.81313 9.85354C1.9069 9.94731 2.03408 9.99999 2.16669 9.99999H17.8334C17.966 9.99999 18.0931 9.94731 18.1869 9.85354C18.2807 9.75977 18.3334 9.6326 18.3334 9.49999V6.33332C18.3334 6.20071 18.2807 6.07354 18.1869 5.97977C18.0931 5.886 17.966 5.83332 17.8334 5.83332V5.83332ZM10 5.83332H6.25002C5.69749 5.83332 5.16758 5.61383 4.77688 5.22313C4.38618 4.83243 4.16669 4.30252 4.16669 3.74999C4.16669 3.19746 4.38618 2.66755 4.77688 2.27685C5.16758 1.88615 5.69749 1.66666 6.25002 1.66666C9.16669 1.66666 10 5.83332 10 5.83332ZM10 5.83332H13.75C14.3026 5.83332 14.8325 5.61383 15.2232 5.22313C15.6139 4.83243 15.8334 4.30252 15.8334 3.74999C15.8334 3.19746 15.6139 2.66755 15.2232 2.27685C14.8325 1.88615 14.3026 1.66666 13.75 1.66666C10.8334 1.66666 10 5.83332 10 5.83332Z" stroke="#F2F2F2" stroke-opacity="0.8" stroke-linecap="round" stroke-linejoin="round"/>
</g>
</svg>
