<svg width="69" height="68" viewBox="0 0 69 68" fill="none" xmlns="http://www.w3.org/2000/svg">
<g clip-path="url(#clip0_4511_30747)">
<path d="M32.5878 48.1665H36.8378V31.1665H32.5878V48.1665ZM34.5003 25.9248C35.1614 25.9248 35.7163 25.7123 36.1649 25.2873C36.6135 24.8623 36.8378 24.3193 36.8378 23.6582C36.8378 22.9971 36.6135 22.4304 36.1649 21.9582C35.7163 21.4859 35.1614 21.2498 34.5003 21.2498C33.8392 21.2498 33.2844 21.4859 32.8357 21.9582C32.3871 22.4304 32.1628 22.9971 32.1628 23.6582C32.1628 24.3193 32.3871 24.8623 32.8357 25.2873C33.2844 25.7123 33.8392 25.9248 34.5003 25.9248ZM34.5003 62.3332C30.6281 62.3332 26.9684 61.5894 23.5212 60.1019C20.0739 58.6144 17.0635 56.5839 14.4899 54.0103C11.9163 51.4366 9.88574 48.4262 8.39824 44.979C6.91074 41.5318 6.16699 37.8484 6.16699 33.929C6.16699 30.0568 6.91074 26.3971 8.39824 22.9498C9.88574 19.5026 11.9163 16.504 14.4899 13.954C17.0635 11.404 20.0739 9.38525 23.5212 7.89775C26.9684 6.41025 30.6517 5.6665 34.5712 5.6665C38.4434 5.6665 42.1031 6.41025 45.5503 7.89775C48.9975 9.38525 51.9962 11.404 54.5462 13.954C57.0962 16.504 59.1149 19.5026 60.6024 22.9498C62.0899 26.3971 62.8337 30.0804 62.8337 33.9998C62.8337 37.8721 62.0899 41.5318 60.6024 44.979C59.1149 48.4262 57.0962 51.4366 54.5462 54.0103C51.9962 56.5839 48.9975 58.6144 45.5503 60.1019C42.1031 61.5894 38.4198 62.3332 34.5003 62.3332ZM34.5712 58.0832C41.2295 58.0832 46.8962 55.7339 51.5712 51.0353C56.2462 46.3366 58.5837 40.6346 58.5837 33.929C58.5837 27.2707 56.2462 21.604 51.5712 16.929C46.8962 12.254 41.2059 9.9165 34.5003 9.9165C27.842 9.9165 22.1635 12.254 17.4649 16.929C12.7663 21.604 10.417 27.2943 10.417 33.9998C10.417 40.6582 12.7663 46.3366 17.4649 51.0353C22.1635 55.7339 27.8656 58.0832 34.5712 58.0832Z" fill="#36FAF8"/>
<g filter="url(#filter0_f_4511_30747)">
<path d="M32.5868 48.167H36.8368V31.167H32.5868V48.167ZM34.4993 25.9253C35.1605 25.9253 35.7153 25.7128 36.1639 25.2878C36.6125 24.8628 36.8368 24.3198 36.8368 23.6587C36.8368 22.9975 36.6125 22.4309 36.1639 21.9587C35.7153 21.4864 35.1605 21.2503 34.4993 21.2503C33.8382 21.2503 33.2834 21.4864 32.8348 21.9587C32.3862 22.4309 32.1618 22.9975 32.1618 23.6587C32.1618 24.3198 32.3862 24.8628 32.8348 25.2878C33.2834 25.7128 33.8382 25.9253 34.4993 25.9253ZM34.4993 62.3337C30.6271 62.3337 26.9674 61.5899 23.5202 60.1024C20.073 58.6149 17.0625 56.5843 14.4889 54.0107C11.9153 51.4371 9.88476 48.4267 8.39727 44.9795C6.90977 41.5323 6.16602 37.8489 6.16602 33.9295C6.16602 30.0573 6.90977 26.3975 8.39727 22.9503C9.88476 19.5031 11.9153 16.5045 14.4889 13.9545C17.0625 11.4045 20.073 9.38574 23.5202 7.89824C26.9674 6.41074 30.6507 5.66699 34.5702 5.66699C38.4424 5.66699 42.1021 6.41074 45.5493 7.89824C48.9966 9.38574 51.9952 11.4045 54.5452 13.9545C57.0952 16.5045 59.1139 19.5031 60.6014 22.9503C62.0889 26.3975 62.8327 30.0809 62.8327 34.0003C62.8327 37.8725 62.0889 41.5323 60.6014 44.9795C59.1139 48.4267 57.0952 51.4371 54.5452 54.0107C51.9952 56.5843 48.9966 58.6149 45.5493 60.1024C42.1021 61.5899 38.4188 62.3337 34.4993 62.3337ZM34.5702 58.0837C41.2285 58.0837 46.8952 55.7343 51.5702 51.0357C56.2452 46.3371 58.5827 40.635 58.5827 33.9295C58.5827 27.2712 56.2452 21.6045 51.5702 16.9295C46.8952 12.2545 41.2049 9.91699 34.4993 9.91699C27.841 9.91699 22.1625 12.2545 17.4639 16.9295C12.7653 21.6045 10.416 27.2948 10.416 34.0003C10.416 40.6587 12.7653 46.3371 17.4639 51.0357C22.1625 55.7343 27.8646 58.0837 34.5702 58.0837Z" fill="#36FAF8"/>
</g>
</g>
<defs>
<filter id="filter0_f_4511_30747" x="0.166016" y="-0.333008" width="68.667" height="68.6665" filterUnits="userSpaceOnUse" color-interpolation-filters="sRGB">
<feFlood flood-opacity="0" result="BackgroundImageFix"/>
<feBlend mode="normal" in="SourceGraphic" in2="BackgroundImageFix" result="shape"/>
<feGaussianBlur stdDeviation="3" result="effect1_foregroundBlur_4511_30747"/>
</filter>
<clipPath id="clip0_4511_30747">
<rect width="68" height="68" fill="white" transform="translate(0.5)"/>
</clipPath>
</defs>
</svg>
