<svg width="34" height="32" viewBox="0 0 34 32" fill="none" xmlns="http://www.w3.org/2000/svg">
<g clip-path="url(#clip0_1212_3196)">
<path d="M32.1502 0.100006L18.9502 9.80001L21.3502 4.10001L32.1502 0.100006Z" fill="#E17726" stroke="#E17726" stroke-width="0.25" stroke-linecap="round" stroke-linejoin="round"/>
<path d="M1.84961 0.100006L14.8496 9.90001L12.5496 4.10001L1.84961 0.100006Z" fill="#E27625" stroke="#E27625" stroke-width="0.25" stroke-linecap="round" stroke-linejoin="round"/>
<path d="M27.4502 22.7L23.9502 28L31.4502 30.1L33.5502 22.8L27.4502 22.7Z" fill="#E27625" stroke="#E27625" stroke-width="0.25" stroke-linecap="round" stroke-linejoin="round"/>
<path d="M0.450195 22.8L2.5502 30.1L10.0502 28L6.5502 22.7L0.450195 22.8Z" fill="#E27625" stroke="#E27625" stroke-width="0.25" stroke-linecap="round" stroke-linejoin="round"/>
<path d="M9.64981 13.6L7.5498 16.7L14.9498 17L14.7498 9L9.64981 13.6Z" fill="#E27625" stroke="#E27625" stroke-width="0.25" stroke-linecap="round" stroke-linejoin="round"/>
<path d="M24.3502 13.6L19.1502 9L18.9502 17.1L26.3502 16.8L24.3502 13.6Z" fill="#E27625" stroke="#E27625" stroke-width="0.25" stroke-linecap="round" stroke-linejoin="round"/>
<path d="M10.0498 28L14.5498 25.8L10.6498 22.8L10.0498 28Z" fill="#E27625" stroke="#E27625" stroke-width="0.25" stroke-linecap="round" stroke-linejoin="round"/>
<path d="M19.4502 25.8L23.9502 28L23.3502 22.8L19.4502 25.8Z" fill="#E27625" stroke="#E27625" stroke-width="0.25" stroke-linecap="round" stroke-linejoin="round"/>
<path d="M23.9502 28L19.4502 25.8L19.8502 28.7V29.9L23.9502 28Z" fill="#D5BFB2" stroke="#D5BFB2" stroke-width="0.25" stroke-linecap="round" stroke-linejoin="round"/>
<path d="M10.0498 28L14.2498 30V28.8L14.6498 25.9L10.0498 28Z" fill="#D5BFB2" stroke="#D5BFB2" stroke-width="0.25" stroke-linecap="round" stroke-linejoin="round"/>
<path d="M14.2498 20.9L10.5498 19.8L13.1498 18.6L14.2498 20.9Z" fill="#233447" stroke="#233447" stroke-width="0.25" stroke-linecap="round" stroke-linejoin="round"/>
<path d="M19.6494 20.9L20.7494 18.6L23.3494 19.8L19.6494 20.9Z" fill="#233447" stroke="#233447" stroke-width="0.25" stroke-linecap="round" stroke-linejoin="round"/>
<path d="M10.0498 28L10.6498 22.7L6.5498 22.8L10.0498 28Z" fill="#CC6228" stroke="#CC6228" stroke-width="0.25" stroke-linecap="round" stroke-linejoin="round"/>
<path d="M23.25 22.7L23.85 28L27.35 22.8L23.25 22.7Z" fill="#CC6228" stroke="#CC6228" stroke-width="0.25" stroke-linecap="round" stroke-linejoin="round"/>
<path d="M26.4498 16.8L19.0498 17.1L19.7498 20.9L20.8498 18.6L23.4498 19.8L26.4498 16.8Z" fill="#CC6228" stroke="#CC6228" stroke-width="0.25" stroke-linecap="round" stroke-linejoin="round"/>
<path d="M10.5498 19.8L13.1498 18.6L14.2498 20.9L14.9498 17.1L7.5498 16.8L10.5498 19.8Z" fill="#CC6228" stroke="#CC6228" stroke-width="0.25" stroke-linecap="round" stroke-linejoin="round"/>
<path d="M7.5498 16.8L10.6498 22.9L10.5498 19.9L7.5498 16.8Z" fill="#E27525" stroke="#E27525" stroke-width="0.25" stroke-linecap="round" stroke-linejoin="round"/>
<path d="M23.4496 19.8L23.3496 22.8L26.4496 16.7L23.4496 19.8Z" fill="#E27525" stroke="#E27525" stroke-width="0.25" stroke-linecap="round" stroke-linejoin="round"/>
<path d="M14.95 17.1L14.25 20.9L15.15 25.4L15.35 19.5L14.95 17.1Z" fill="#E27525" stroke="#E27525" stroke-width="0.25" stroke-linecap="round" stroke-linejoin="round"/>
<path d="M18.9498 17.1L18.5498 19.5L18.7498 25.4L19.6498 20.9L18.9498 17.1Z" fill="#E27525" stroke="#E27525" stroke-width="0.25" stroke-linecap="round" stroke-linejoin="round"/>
<path d="M19.65 20.9L18.75 25.4L19.35 25.8L23.25 22.8L23.35 19.8L19.65 20.9Z" fill="#F5841F" stroke="#F5841F" stroke-width="0.25" stroke-linecap="round" stroke-linejoin="round"/>
<path d="M10.5498 19.8L10.6498 22.8L14.5498 25.8L15.1498 25.4L14.2498 20.9L10.5498 19.8Z" fill="#F5841F" stroke="#F5841F" stroke-width="0.25" stroke-linecap="round" stroke-linejoin="round"/>
<path d="M19.7498 30V28.8L19.4498 28.5H14.4498L14.1498 28.8V30L10.0498 28L11.5498 29.2L14.4498 31.2H19.5498L22.5498 29.2L23.9498 28L19.7498 30Z" fill="#C0AC9D" stroke="#C0AC9D" stroke-width="0.25" stroke-linecap="round" stroke-linejoin="round"/>
<path d="M19.4494 25.8L18.8494 25.4H15.1494L14.5494 25.8L14.1494 28.7L14.4494 28.4H19.4494L19.7494 28.7L19.4494 25.8Z" fill="#161616" stroke="#161616" stroke-width="0.25" stroke-linecap="round" stroke-linejoin="round"/>
<path d="M32.6502 10.5L33.7502 5.10001L32.0502 0.100006L19.4502 9.50001L24.3502 13.6L31.2502 15.6L32.7502 13.8L32.0502 13.4L33.1502 12.4L32.3502 11.8L33.4502 11L32.6502 10.5Z" fill="#763E1A" stroke="#763E1A" stroke-width="0.25" stroke-linecap="round" stroke-linejoin="round"/>
<path d="M0.149414 5.10001L1.24941 10.5L0.549414 11L1.64941 11.8L0.849414 12.4L1.94941 13.4L1.24941 13.9L2.74941 15.7L9.64941 13.7L14.5494 9.60001L1.84941 0.100006L0.149414 5.10001Z" fill="#763E1A" stroke="#763E1A" stroke-width="0.25" stroke-linecap="round" stroke-linejoin="round"/>
<path d="M31.2496 15.6L24.3496 13.6L26.4496 16.7L23.3496 22.8L27.4496 22.7H33.5496L31.2496 15.6Z" fill="#F5841F" stroke="#F5841F" stroke-width="0.25" stroke-linecap="round" stroke-linejoin="round"/>
<path d="M9.6502 13.6L2.7502 15.6L0.450195 22.7H6.5502L10.6502 22.8L7.5502 16.7L9.6502 13.6Z" fill="#F5841F" stroke="#F5841F" stroke-width="0.25" stroke-linecap="round" stroke-linejoin="round"/>
<path d="M18.9502 17.1L19.3502 9.50001L21.3502 4.10001H12.4502L14.4502 9.50001L14.8502 17.1L15.0502 19.5V25.4H18.7502V19.5L18.9502 17.1Z" fill="#F5841F" stroke="#F5841F" stroke-width="0.25" stroke-linecap="round" stroke-linejoin="round"/>
</g>
<defs>
<clipPath id="clip0_1212_3196">
<rect width="33.9" height="31.3" fill="white" transform="translate(0.0498047)"/>
</clipPath>
</defs>
</svg>
