<svg width="52" height="52" viewBox="0 0 52 52" fill="none" xmlns="http://www.w3.org/2000/svg">
<path d="M40.5112 51.5L11.4888 51.5L0.500008 40.1594L0.499998 11.236L11.4809 0.499999L40.5191 0.499998L51.5 11.236L51.5 40.1594L40.5112 51.5Z" stroke="#F2F2F2" stroke-opacity="0.8"/>
<path d="M38.0646 34.7568C37.4077 33.2009 36.4545 31.7876 35.258 30.5957C34.0651 29.4003 32.652 28.4472 31.0968 27.7891C31.0829 27.7821 31.0689 27.7786 31.055 27.7717C33.2244 26.2047 34.6347 23.6523 34.6347 20.7726C34.6347 16.002 30.7695 12.1368 25.9989 12.1368C21.2284 12.1368 17.3632 16.002 17.3632 20.7726C17.3632 23.6523 18.7735 26.2047 20.9429 27.7751C20.9289 27.7821 20.915 27.7856 20.9011 27.7926C19.3411 28.4507 17.9413 29.3943 16.7399 30.5992C15.5445 31.792 14.5915 33.2051 13.9333 34.7603C13.2868 36.2829 12.9381 37.9153 12.9061 39.5692C12.9052 39.6063 12.9117 39.6433 12.9253 39.6779C12.9388 39.7125 12.9592 39.7441 12.9852 39.7707C13.0111 39.7973 13.0422 39.8184 13.0764 39.8328C13.1107 39.8473 13.1475 39.8547 13.1847 39.8547H15.2739C15.4272 39.8547 15.549 39.7328 15.5525 39.5831C15.6222 36.8949 16.7016 34.3773 18.6098 32.4691C20.5842 30.4947 23.2063 29.4083 25.9989 29.4083C28.7916 29.4083 31.4137 30.4947 33.3881 32.4691C35.2963 34.3773 36.3757 36.8949 36.4454 39.5831C36.4489 39.7363 36.5707 39.8547 36.7239 39.8547H38.8132C38.8504 39.8547 38.8872 39.8473 38.9215 39.8328C38.9557 39.8184 38.9868 39.7973 39.0127 39.7707C39.0387 39.7441 39.059 39.7125 39.0726 39.6779C39.0862 39.6433 39.0927 39.6063 39.0918 39.5692C39.057 37.9047 38.7123 36.2855 38.0646 34.7568ZM25.9989 26.7618C24.4006 26.7618 22.8964 26.1385 21.7647 25.0068C20.633 23.8751 20.0097 22.3709 20.0097 20.7726C20.0097 19.1743 20.633 17.67 21.7647 16.5383C22.8964 15.4066 24.4006 14.7833 25.9989 14.7833C27.5973 14.7833 29.1015 15.4066 30.2332 16.5383C31.3649 17.67 31.9882 19.1743 31.9882 20.7726C31.9882 22.3709 31.3649 23.8751 30.2332 25.0068C29.1015 26.1385 27.5973 26.7618 25.9989 26.7618Z" fill="#F2F2F2" fill-opacity="0.8"/>
</svg>
