<svg width="16" height="16" viewBox="0 0 16 16" fill="none" xmlns="http://www.w3.org/2000/svg">
<path d="M14.5833 15.4792L9.10417 10.0001C8.6875 10.3612 8.20139 10.6424 7.64583 10.8438C7.09028 11.0452 6.5 11.1459 5.875 11.1459C4.375 11.1459 3.10417 10.6251 2.0625 9.58341C1.02083 8.54175 0.5 7.2848 0.5 5.81258C0.5 4.34036 1.02083 3.08341 2.0625 2.04175C3.10417 1.00008 4.36806 0.479248 5.85417 0.479248C7.32639 0.479248 8.57986 1.00008 9.61458 2.04175C10.6493 3.08341 11.1667 4.34036 11.1667 5.81258C11.1667 6.4098 11.0694 6.98619 10.875 7.54175C10.6806 8.0973 10.3889 8.61814 10 9.10425L15.5 14.5626L14.5833 15.4792ZM5.85417 9.89591C6.97917 9.89591 7.9375 9.49661 8.72917 8.698C9.52083 7.89939 9.91667 6.93758 9.91667 5.81258C9.91667 4.68758 9.52083 3.72578 8.72917 2.92716C7.9375 2.12855 6.97917 1.72925 5.85417 1.72925C4.71528 1.72925 3.74653 2.12855 2.94792 2.92716C2.14931 3.72578 1.75 4.68758 1.75 5.81258C1.75 6.93758 2.14931 7.89939 2.94792 8.698C3.74653 9.49661 4.71528 9.89591 5.85417 9.89591Z" fill="#F2F2F2" fill-opacity="0.8"/>
</svg>
