<svg width="45" height="46" viewBox="0 0 45 46" fill="none" xmlns="http://www.w3.org/2000/svg">
<path d="M28.654 33C27.8717 33 27.2018 32.7208 26.6442 32.1625C26.0867 31.6042 25.8079 30.9333 25.8079 30.15C25.8079 30.0333 25.8204 29.8958 25.8454 29.7375C25.8703 29.5792 25.9078 29.4333 25.9577 29.3L18.3932 24.9C18.1436 25.1833 17.8356 25.4125 17.4695 25.5875C17.1033 25.7625 16.7288 25.85 16.346 25.85C15.5638 25.85 14.8939 25.5708 14.3363 25.0125C13.7788 24.4542 13.5 23.7833 13.5 23C13.5 22.2 13.7788 21.525 14.3363 20.975C14.8939 20.425 15.5638 20.15 16.346 20.15C16.7288 20.15 17.095 20.225 17.4445 20.375C17.794 20.525 18.1103 20.7417 18.3932 21.025L25.9577 16.675C25.9078 16.5583 25.8703 16.425 25.8454 16.275C25.8204 16.125 25.8079 15.9833 25.8079 15.85C25.8079 15.05 26.0867 14.375 26.6442 13.825C27.2018 13.275 27.8717 13 28.654 13C29.4528 13 30.1269 13.275 30.6761 13.825C31.2254 14.375 31.5 15.05 31.5 15.85C31.5 16.6333 31.2254 17.3042 30.6761 17.8625C30.1269 18.4208 29.4528 18.7 28.654 18.7C28.2712 18.7 27.9008 18.6375 27.543 18.5125C27.1852 18.3875 26.8814 18.1833 26.6318 17.9L19.0673 22.1C19.1006 22.2333 19.1297 22.3875 19.1546 22.5625C19.1796 22.7375 19.1921 22.8833 19.1921 23C19.1921 23.1167 19.1796 23.2417 19.1546 23.375C19.1297 23.5083 19.1006 23.6417 19.0673 23.775L26.6318 28.075C26.8814 27.8417 27.1727 27.6542 27.5055 27.5125C27.8384 27.3708 28.2212 27.3 28.654 27.3C29.4528 27.3 30.1269 27.575 30.6761 28.125C31.2254 28.675 31.5 29.35 31.5 30.15C31.5 30.9333 31.2254 31.6042 30.6761 32.1625C30.1269 32.7208 29.4528 33 28.654 33ZM28.654 17.2C29.0368 17.2 29.3571 17.0708 29.6151 16.8125C29.8731 16.5542 30.0021 16.2333 30.0021 15.85C30.0021 15.4667 29.8731 15.1458 29.6151 14.8875C29.3571 14.6292 29.0368 14.5 28.654 14.5C28.2712 14.5 27.9508 14.6292 27.6928 14.8875C27.4348 15.1458 27.3058 15.4667 27.3058 15.85C27.3058 16.2333 27.4348 16.5542 27.6928 16.8125C27.9508 17.0708 28.2712 17.2 28.654 17.2ZM16.346 24.35C16.7288 24.35 17.0492 24.2208 17.3072 23.9625C17.5652 23.7042 17.6942 23.3833 17.6942 23C17.6942 22.6167 17.5652 22.2958 17.3072 22.0375C17.0492 21.7792 16.7288 21.65 16.346 21.65C15.9632 21.65 15.6429 21.7792 15.3849 22.0375C15.1269 22.2958 14.9979 22.6167 14.9979 23C14.9979 23.3833 15.1269 23.7042 15.3849 23.9625C15.6429 24.2208 15.9632 24.35 16.346 24.35ZM28.654 31.5C29.0368 31.5 29.3571 31.3708 29.6151 31.1125C29.8731 30.8542 30.0021 30.5333 30.0021 30.15C30.0021 29.7667 29.8731 29.4458 29.6151 29.1875C29.3571 28.9292 29.0368 28.8 28.654 28.8C28.2712 28.8 27.9508 28.9292 27.6928 29.1875C27.4348 29.4458 27.3058 29.7667 27.3058 30.15C27.3058 30.5333 27.4348 30.8542 27.6928 31.1125C27.9508 31.3708 28.2712 31.5 28.654 31.5Z" fill="#F2F2F2" fill-opacity="0.8"/>
</svg>
