<svg width="45" height="45" viewBox="0 0 45 45" fill="none" xmlns="http://www.w3.org/2000/svg">
<path d="M30.1674 14.5016C29.9451 14.5176 29.7269 14.5693 29.5213 14.6545H29.5186C29.3212 14.7319 28.3829 15.1225 26.9565 15.7145L21.8447 17.845C18.1767 19.3732 14.571 20.878 14.571 20.878L14.6139 20.8615C14.6139 20.8615 14.3653 20.9424 14.1057 21.1185C13.9452 21.2195 13.8072 21.3517 13.6999 21.5071C13.5725 21.6921 13.47 21.9751 13.5081 22.2677C13.5704 22.7625 13.8945 23.0592 14.1271 23.223C14.3626 23.3888 14.5869 23.4662 14.5869 23.4662H14.5925L17.9738 24.5935C18.1254 25.0752 19.0042 27.9341 19.2154 28.5927C19.34 28.986 19.4612 29.232 19.6128 29.4198C19.6862 29.5157 19.7721 29.5959 19.8753 29.6603C19.9289 29.6912 19.9861 29.7156 20.0456 29.7329L20.011 29.7247C20.0214 29.7274 20.0297 29.7357 20.0373 29.7384C20.065 29.7459 20.0837 29.7487 20.119 29.7542C20.6543 29.9145 21.0843 29.5856 21.0843 29.5856L21.1086 29.5664L23.105 27.7676L26.4509 30.3079L26.5271 30.3401C27.2244 30.643 27.9308 30.4744 28.304 30.177C28.68 29.8775 28.8261 29.4945 28.8261 29.4945L28.8503 29.4328L31.436 16.3244C31.5094 16.001 31.5281 15.6981 31.4471 15.4041C31.3635 15.1066 31.1706 14.8507 30.9063 14.6867C30.6843 14.5531 30.4269 14.4887 30.1674 14.5016ZM30.0975 15.9064C30.0947 15.9496 30.103 15.9448 30.0836 16.0277V16.0353L27.5222 29.0072C27.5111 29.0257 27.4924 29.0662 27.4412 29.1066C27.3872 29.1491 27.3442 29.1758 27.1192 29.0874L23.0267 25.9825L20.5546 28.2123L21.0739 24.9299L27.7604 18.7626C28.036 18.509 27.9439 18.4556 27.9439 18.4556C27.9633 18.1445 27.5277 18.3645 27.5277 18.3645L19.0963 23.5334L19.0935 23.5197L15.0523 22.1731V22.1704L15.0419 22.1683C15.049 22.166 15.0559 22.1633 15.0626 22.1601L15.0848 22.1491L15.1063 22.1416C15.1063 22.1416 18.7147 20.6368 22.3827 19.1086C24.2191 18.3432 26.0694 17.5723 27.4924 16.9775C28.3364 16.6259 29.1812 16.2765 30.0268 15.929C30.0836 15.9071 30.0566 15.9071 30.0975 15.9071V15.9064Z" fill="#F2F2F2" fill-opacity="0.8"/>
</svg>
