<svg width="45" height="45" viewBox="0 0 45 45" fill="none" xmlns="http://www.w3.org/2000/svg">
<path d="M31.5 15.0084C31.5 15.0084 29.8489 16.0049 28.9309 16.2874C28.4382 15.7085 27.7833 15.2982 27.0548 15.112C26.3264 14.9258 25.5596 14.9726 24.8581 15.2462C24.1565 15.5198 23.5542 16.0069 23.1324 16.6416C22.7107 17.2764 22.4899 18.0281 22.5 18.7953V19.6312C21.0622 19.6693 19.6374 19.3435 18.3526 18.6828C17.0679 18.0221 15.963 17.047 15.1364 15.8444C15.1364 15.8444 11.8636 23.3679 19.2273 26.7117C17.5422 27.8803 15.5349 28.4663 13.5 28.3836C20.8636 32.5633 29.8636 28.3836 29.8636 18.7702C29.8636 18.5378 29.8407 18.3054 29.7982 18.0763C30.6327 17.2354 31.5 15.0084 31.5 15.0084Z" stroke="#F2F2F2" stroke-opacity="0.8" stroke-width="1.5" stroke-linecap="round" stroke-linejoin="round"/>
</svg>
