<svg width="21" height="21" viewBox="0 0 21 21" fill="none" xmlns="http://www.w3.org/2000/svg">
<path d="M18.998 14.4996H2V19.4996H18.998V14.4996ZM20.445 13.4716L20.466 13.5336L20.489 13.6336L20.499 13.7336V20.2496C20.4989 20.4312 20.433 20.6065 20.3135 20.7431C20.1939 20.8798 20.0289 20.9684 19.849 20.9926L19.749 20.9996H1.25C1.06876 20.9996 0.893658 20.934 0.757069 20.8149C0.620481 20.6957 0.531648 20.5312 0.507 20.3516L0.5 20.2496V13.7496L0.502 13.6976L0.512 13.6116C0.522149 13.5591 0.537906 13.5078 0.559 13.4586L3.319 7.43962C3.37106 7.32584 3.45076 7.22688 3.55084 7.15178C3.65092 7.07668 3.7682 7.02781 3.892 7.00962L4 7.00262L6.54 7.00162L5.75 8.37162L5.683 8.50162H4.48L2.418 12.9996H18.57L16.543 8.65362L17.405 7.15662C17.472 7.20662 17.53 7.26962 17.577 7.34062L17.63 7.43562L20.445 13.4716ZM11.865 1.05562L11.957 1.10062L17.145 4.10362C17.473 4.29362 17.603 4.69462 17.464 5.03662L17.419 5.12862L14.612 9.99962H15.75C15.9414 9.99767 16.1263 10.069 16.2668 10.1989C16.4073 10.3288 16.4928 10.5076 16.5059 10.6985C16.5189 10.8894 16.4585 11.0781 16.3369 11.226C16.2153 11.3738 16.0419 11.4695 15.852 11.4936L15.75 11.5006L13.748 11.4996V11.5026H9.669L9.666 11.4996H5.25C5.06116 11.4978 4.87995 11.4249 4.74254 11.2954C4.60513 11.1658 4.52166 10.9892 4.50877 10.8008C4.49589 10.6124 4.55456 10.4261 4.67306 10.279C4.79156 10.132 4.96116 10.0351 5.148 10.0076L5.25 10.0006L7.073 9.99962L6.891 9.89462C6.73454 9.80345 6.61624 9.65889 6.55782 9.48749C6.4994 9.31609 6.50479 9.12936 6.573 8.96162L6.617 8.86962L10.934 1.37362C11.124 1.04462 11.524 0.913619 11.865 1.05362V1.05562ZM11.855 2.77562L8.289 8.96962L10.067 9.99962H12.884L15.749 5.02662L11.857 2.77362L11.855 2.77562Z" fill="#F2F2F2" fill-opacity="0.8"/>
</svg>
