<svg width="101" height="61" viewBox="0 0 101 61" fill="none" xmlns="http://www.w3.org/2000/svg">
<path d="M93.0374 40.0665L97.312 41.6493L99.0608 55.556H93.589M93.589 55.556L93.8144 47.3618M93.589 55.556L71.8369 55.7161M85.8208 34.531L90.3168 28.5719V22.6128L86.5712 21.2871L79.5857 19.0521L78.0785 17.5279L73.8337 22.5296V28.4887L78.0785 34.4478L76.8289 37.9253L69.2637 41.6333L70.9642 27.9955L72.3297 16.3239L77.7951 12.3501H80.072L81.8015 13.125L83.6695 12.1035H86.903L89.6373 13.0962L93.7371 18.559L94.1912 39.1709L85.9915 45.3345V35.9432M77.9529 34.451L79.6662 35.4436H83.9497L85.9464 34.451M76.8289 37.9285L79.6662 40.1635H83.9497L84.8224 39.6672" stroke="#F2F2F2" stroke-opacity="0.8" stroke-width="0.75" stroke-miterlimit="10"/>
<path d="M24.4257 37.1508L34.4772 40.6667M7.23726 55.2331H28.358M24.6833 37.2341L23.4015 33.667L28.0134 27.5541V17.5348L23.1471 20.0804L18.0231 17.5348L15.4627 16.2251L11.1084 21.3549V27.4677L15.4627 33.5805L14.1809 37.1476L3.42083 40.9677L1.62695 55.2299H7.23726L7.00537 46.8244M15.3307 33.5805L17.0859 34.5988H21.4788L23.5271 33.5805M14.1777 37.1476L17.0859 39.4403H21.4788L24.9377 37.4038M28.0102 21.4862V16.0106L26.7284 13.974L24.6801 11.9375L21.6076 12.4466M21.7364 12.4466H14.693L12.387 13.974L11.1052 16.0106V21.4862" stroke="#F2F2F2" stroke-opacity="0.8" stroke-width="0.75" stroke-miterlimit="10"/>
<path d="M56.2175 37.3051L69.744 42.1082L71.9985 60.04H64.9453L65.2352 49.4731M34.6071 60.04H64.9421M56.5363 37.414L54.926 32.931L60.7231 25.246V17.5609L56.5363 12.9691H46.8841L44.9421 11.003L39.467 17.4521V25.1371L44.9421 32.8221L43.3318 37.3051L29.8052 42.1082L27.5508 60.04H34.6039L34.3141 49.4731M44.7811 32.8221L46.9904 34.103H52.5105L55.087 32.8221M43.3318 37.3051L46.9904 40.187H52.5105L56.8584 37.6253M60.7231 17.6122V10.7277L59.1128 8.16597L56.2142 6.24472H52.0274L43.9759 1.45117L42.3656 3.68304V7.84576L39.467 11.6723V17.1319" stroke="#F2F2F2" stroke-opacity="0.8" stroke-miterlimit="10"/>
</svg>
