<svg width="34" height="21" viewBox="0 0 34 21" fill="none" xmlns="http://www.w3.org/2000/svg">
<path d="M6.96312 4.07132C12.5055 -1.35711 21.4945 -1.35711 27.0369 4.07132L27.7034 4.72027C27.984 4.99213 27.984 5.43062 27.7034 5.70248L25.4233 7.93874C25.283 8.07029 25.0637 8.07029 24.9234 7.93874L24.0026 7.03547C20.1352 3.24697 13.8648 3.24697 9.99742 7.03547L9.01522 8.00013C8.8749 8.13167 8.65566 8.13167 8.51535 8.00013L6.22646 5.77263C5.94583 5.50077 5.94583 5.06229 6.22646 4.79043L6.96312 4.07132ZM31.755 8.69293L33.7895 10.6836C34.0702 10.9555 34.0702 11.394 33.7895 11.6659L24.6252 20.6372C24.3446 20.9091 23.8973 20.9091 23.6255 20.6372L17.1272 14.2704C17.057 14.2003 16.943 14.2003 16.8728 14.2704L10.3745 20.6372C10.0939 20.9091 9.64664 20.9091 9.37477 20.6372L0.210472 11.6659C-0.0701573 11.394 -0.0701573 10.9555 0.210472 10.6836L2.24503 8.69293C2.52566 8.42107 2.97292 8.42107 3.24478 8.69293L9.7431 15.0597C9.81326 15.1299 9.92726 15.1299 9.99742 15.0597L16.4957 8.69293C16.7764 8.42107 17.2236 8.42107 17.4955 8.69293L23.9938 15.0597C24.064 15.1299 24.178 15.1299 24.2481 15.0597L30.7465 8.69293C31.0271 8.42107 31.4743 8.42107 31.755 8.69293Z" fill="#3B99FC"/>
</svg>
