<svg width="24" height="24" viewBox="0 0 24 24" fill="none" xmlns="http://www.w3.org/2000/svg">
<g id="icons">
<path id="Vector" d="M16.225 13.575C16.6417 13.575 17.0083 13.4167 17.325 13.1C17.6417 12.7833 17.8 12.4167 17.8 12C17.8 11.5667 17.6417 11.1958 17.325 10.8875C17.0083 10.5792 16.6417 10.425 16.225 10.425C15.8083 10.425 15.4417 10.5792 15.125 10.8875C14.8083 11.1958 14.65 11.5667 14.65 12C14.65 12.4167 14.8083 12.7833 15.125 13.1C15.4417 13.4167 15.8083 13.575 16.225 13.575ZM4.625 17.4V19.375V4.625V17.4ZM4.95 20.5C4.56667 20.5 4.22917 20.3583 3.9375 20.075C3.64583 19.7917 3.5 19.45 3.5 19.05V4.95C3.5 4.56667 3.64583 4.22917 3.9375 3.9375C4.22917 3.64583 4.56667 3.5 4.95 3.5H19.05C19.45 3.5 19.7917 3.64583 20.075 3.9375C20.3583 4.22917 20.5 4.56667 20.5 4.95V8.275H19.375V4.95C19.375 4.85 19.3458 4.77083 19.2875 4.7125C19.2292 4.65417 19.15 4.625 19.05 4.625H4.95C4.85 4.625 4.77083 4.65417 4.7125 4.7125C4.65417 4.77083 4.625 4.85 4.625 4.95V19.05C4.625 19.15 4.65417 19.2292 4.7125 19.2875C4.77083 19.3458 4.85 19.375 4.95 19.375H19.05C19.15 19.375 19.2292 19.3458 19.2875 19.2875C19.3458 19.2292 19.375 19.15 19.375 19.05V15.725H20.5V19.05C20.5 19.45 20.3583 19.7917 20.075 20.075C19.7917 20.3583 19.45 20.5 19.05 20.5H4.95ZM13.625 16.25C13.125 16.25 12.7167 16.1 12.4 15.8C12.0833 15.5 11.925 15.0917 11.925 14.575V9.425C11.925 8.90833 12.0833 8.5 12.4 8.2C12.7167 7.9 13.125 7.75 13.625 7.75H19.825C20.3417 7.75 20.7583 7.9 21.075 8.2C21.3917 8.5 21.55 8.90833 21.55 9.425V14.575C21.55 15.0917 21.3917 15.5 21.075 15.8C20.7583 16.1 20.3417 16.25 19.825 16.25H13.625ZM20.1 15.125C20.1833 15.125 20.2542 15.0958 20.3125 15.0375C20.3708 14.9792 20.4 14.9083 20.4 14.825V9.2C20.4 9.11667 20.3708 9.04583 20.3125 8.9875C20.2542 8.92917 20.1833 8.9 20.1 8.9H13.375C13.2917 8.9 13.2208 8.92917 13.1625 8.9875C13.1042 9.04583 13.075 9.11667 13.075 9.2V14.825C13.075 14.9083 13.1042 14.9792 13.1625 15.0375C13.2208 15.0958 13.2917 15.125 13.375 15.125H20.1Z" fill="#F2F2F2" fill-opacity="0.8"/>
</g>
</svg>
